<?xml version="1.0" encoding="UTF-8" standalone="no"?>
<svg
   xmlns:dc="http://purl.org/dc/elements/1.1/"
   xmlns:cc="http://creativecommons.org/ns#"
   xmlns:rdf="http://www.w3.org/1999/02/22-rdf-syntax-ns#"
   xmlns:svg="http://www.w3.org/2000/svg"
   xmlns="http://www.w3.org/2000/svg"
   xmlns:sodipodi="http://sodipodi.sourceforge.net/DTD/sodipodi-0.dtd"
   xmlns:inkscape="http://www.inkscape.org/namespaces/inkscape"
   width="773"
   height="773"
   version="1.1"
   viewBox="0 0 579.75001 579.75001"
   id="svg154"
   sodipodi:docname="Alice.svg"
   inkscape:export-filename="/home/marek/git/UnCiv-Logicians/ImageSources/to_edit/Alice.png"
   inkscape:export-xdpi="24.838293"
   inkscape:export-ydpi="24.838293"
   inkscape:version="1.0.2 (e86c870879, 2021-01-15)">
  <metadata
     id="metadata158">
    <rdf:RDF>
      <cc:Work
         rdf:about="">
        <dc:format>image/svg+xml</dc:format>
        <dc:type
           rdf:resource="http://purl.org/dc/dcmitype/StillImage" />
        <dc:title></dc:title>
      </cc:Work>
    </rdf:RDF>
  </metadata>
  <sodipodi:namedview
     pagecolor="#ffffff"
     bordercolor="#666666"
     borderopacity="1"
     objecttolerance="10"
     gridtolerance="10"
     guidetolerance="10"
     inkscape:pageopacity="0"
     inkscape:pageshadow="2"
     inkscape:window-width="1920"
     inkscape:window-height="990"
     id="namedview156"
     showgrid="false"
     inkscape:pagecheckerboard="true"
     units="px"
     inkscape:zoom="0.44410714"
     inkscape:cx="211.82911"
     inkscape:cy="595.66408"
     inkscape:window-x="0"
     inkscape:window-y="30"
     inkscape:window-maximized="1"
     inkscape:current-layer="svg154" />
  <defs
     id="defs68">
    <symbol
       id="v"
       overflow="visible">
      <path
         d="m 20.203,-1.2031 c -1.043,0.54297 -2.1328,0.94922 -3.2656,1.2188 -1.125,0.26953 -2.2969,0.40625 -3.5156,0.40625 -3.668,0 -6.5742,-1.0195 -8.7188,-3.0625 -2.1367,-2.0508 -3.2031,-4.8281 -3.2031,-8.3281 0,-3.5078 1.0664,-6.2852 3.2031,-8.3281 2.1445,-2.0508 5.0508,-3.0781 8.7188,-3.0781 1.2188,0 2.3906,0.13672 3.5156,0.40625 1.1328,0.27344 2.2227,0.67969 3.2656,1.2188 v 4.5469 c -1.0547,-0.70703 -2.0898,-1.2266 -3.1094,-1.5625 -1.0234,-0.33203 -2.0938,-0.5 -3.2188,-0.5 -2.0234,0 -3.6172,0.64844 -4.7812,1.9375 -1.1562,1.293 -1.7344,3.0781 -1.7344,5.3594 0,2.2734 0.57812,4.0547 1.7344,5.3438 1.1641,1.293 2.7578,1.9375 4.7812,1.9375 1.125,0 2.1953,-0.16406 3.2188,-0.5 1.0195,-0.33203 2.0547,-0.85156 3.1094,-1.5625 z"
         id="path2" />
    </symbol>
    <symbol
       id="b"
       overflow="visible">
      <path
         d="m 14.781,-12 c -0.46094,-0.21875 -0.91797,-0.37891 -1.375,-0.48438 -0.46094,-0.10156 -0.91797,-0.15625 -1.375,-0.15625 -1.3555,0 -2.4023,0.4375 -3.1406,1.3125 -0.73047,0.86719 -1.0938,2.1094 -1.0938,3.7344 V 7e-5 H 2.531 v -16.484 h 5.2656 v 2.7031 c 0.67578,-1.082 1.4531,-1.8672 2.3281,-2.3594 0.88281,-0.5 1.9414,-0.75 3.1719,-0.75 0.17578,0 0.36719,0.01172 0.57812,0.03125 0.20703,0.01172 0.50391,0.04297 0.89062,0.09375 z"
         id="path5" />
    </symbol>
    <symbol
       id="a"
       overflow="visible">
      <path
         d="m 19,-8.2969 v 1.5156 H 6.672 c 0.125,1.2305 0.56641,2.1562 1.3281,2.7812 0.76953,0.61719 1.8438,0.92188 3.2188,0.92188 1.1133,0 2.25,-0.16016 3.4062,-0.48438 1.1641,-0.33203 2.3633,-0.83203 3.5938,-1.5 v 4.0625 c -1.25,0.46875 -2.5,0.82422 -3.75,1.0625 -1.2422,0.23828 -2.4844,0.35938 -3.7344,0.35938 -2.9805,0 -5.2969,-0.75391 -6.9531,-2.2656 -1.6562,-1.5195 -2.4844,-3.6484 -2.4844,-6.3906 0,-2.6875 0.8125,-4.8008 2.4375,-6.3438 1.625,-1.5391 3.8594,-2.3125 6.7031,-2.3125 2.5938,0 4.6641,0.78125 6.2188,2.3438 1.5625,1.5625 2.3438,3.6484 2.3438,6.25 z m -5.4219,-1.75 c 0,-1 -0.29297,-1.8047 -0.875,-2.4219 -0.58594,-0.61328 -1.3516,-0.92188 -2.2969,-0.92188 -1.0234,0 -1.8516,0.29297 -2.4844,0.875 -0.63672,0.57422 -1.0312,1.3984 -1.1875,2.4688 z"
         id="path8" />
    </symbol>
    <symbol
       id="e"
       overflow="visible">
      <path
         d="m 9.9219,-7.4219 c -1.0938,0 -1.9219,0.1875 -2.4844,0.5625 -0.55469,0.375 -0.82812,0.92188 -0.82812,1.6406 0,0.66797 0.22266,1.1953 0.67188,1.5781 0.44531,0.375 1.0664,0.5625 1.8594,0.5625 0.98828,0 1.8203,-0.35156 2.5,-1.0625 0.67578,-0.71875 1.0156,-1.6094 1.0156,-2.6719 v -0.60938 z m 8.0625,-1.9844 v 9.4062 h -5.3281 v -2.4375 c -0.69922,1 -1.4922,1.7305 -2.375,2.1875 -0.88672,0.44531 -1.9648,0.67188 -3.2344,0.67188 -1.7109,0 -3.0938,-0.49219 -4.1562,-1.4844 -1.0625,-1 -1.5938,-2.2969 -1.5938,-3.8906 0,-1.9258 0.66016,-3.3438 1.9844,-4.25 1.332,-0.90625 3.4258,-1.3594 6.2812,-1.3594 h 3.0938 v -0.40625 c 0,-0.83203 -0.32812,-1.4414 -0.98438,-1.8281 -0.65625,-0.39453 -1.6836,-0.59375 -3.0781,-0.59375 -1.125,0 -2.1797,0.11719 -3.1562,0.34375 -0.96875,0.23047 -1.8711,0.57031 -2.7031,1.0156 v -4.0156 c 1.1328,-0.28125 2.2695,-0.48828 3.4062,-0.625 1.1328,-0.14453 2.2734,-0.21875 3.4219,-0.21875 2.9688,0 5.1133,0.58984 6.4375,1.7656 1.3203,1.168 1.9844,3.0742 1.9844,5.7188 z"
         id="path11" />
    </symbol>
    <symbol
       id="c"
       overflow="visible">
      <path
         d="m 8.2969,-21.172 v 4.6875 h 5.4219 v 3.7656 H 8.2969 v 6.9844 c 0,0.77344 0.14844,1.293 0.45312,1.5625 0.30078,0.27344 0.90625,0.40625 1.8125,0.40625 h 2.7031 v 3.7656 h -4.5156 c -2.0859,0 -3.5625,-0.42969 -4.4375,-1.2969 -0.86719,-0.875 -1.2969,-2.3516 -1.2969,-4.4375 v -6.9844 h -2.625 v -3.7656 h 2.625 v -4.6875 z"
         id="path14" />
    </symbol>
    <symbol
       id="l"
       overflow="visible">
      <path
         d="m 13.75,-14.078 v -8.8281 h 5.2969 V -1e-4 H 13.75 v -2.3906 c -0.73047,0.98047 -1.5312,1.6953 -2.4062,2.1406 -0.86719,0.44531 -1.875,0.67188 -3.0312,0.67188 -2.0312,0 -3.6992,-0.80469 -5,-2.4219 -1.3047,-1.6133 -1.9531,-3.6914 -1.9531,-6.2344 0,-2.5391 0.64844,-4.6172 1.9531,-6.2344 1.3008,-1.6133 2.9688,-2.4219 5,-2.4219 1.1445,0 2.1562,0.23047 3.0312,0.6875 0.875,0.46094 1.6758,1.168 2.4062,2.125 z m -3.4688,10.672 c 1.125,0 1.9844,-0.41016 2.5781,-1.2344 0.59375,-0.82031 0.89062,-2.0195 0.89062,-3.5938 0,-1.5703 -0.29688,-2.7695 -0.89062,-3.5938 -0.59375,-0.82031 -1.4531,-1.2344 -2.5781,-1.2344 -1.125,0 -1.9844,0.41406 -2.5781,1.2344 -0.59375,0.82422 -0.89062,2.0234 -0.89062,3.5938 0,1.5742 0.29688,2.7734 0.89062,3.5938 0.59375,0.82422 1.4531,1.2344 2.5781,1.2344 z"
         id="path17" />
    </symbol>
    <symbol
       id="k"
       overflow="visible">
      <path
         d="m 11.312,-3.4062 c 1.125,0 1.9844,-0.41016 2.5781,-1.2344 0.59375,-0.82031 0.89062,-2.0195 0.89062,-3.5938 0,-1.5703 -0.29688,-2.7695 -0.89062,-3.5938 -0.59375,-0.82031 -1.4531,-1.2344 -2.5781,-1.2344 -1.1367,0 -2.0078,0.41797 -2.6094,1.25 -0.60547,0.82422 -0.90625,2.0156 -0.90625,3.5781 0,1.5625 0.30078,2.7617 0.90625,3.5938 0.60156,0.82422 1.4727,1.2344 2.6094,1.2344 z m -3.5156,-10.672 c 0.72656,-0.95703 1.5352,-1.6641 2.4219,-2.125 0.88281,-0.45703 1.8984,-0.6875 3.0469,-0.6875 2.0312,0 3.6953,0.80859 5,2.4219 1.3125,1.6172 1.9688,3.6953 1.9688,6.2344 0,2.543 -0.65625,4.6211 -1.9688,6.2344 -1.3047,1.6172 -2.9688,2.4219 -5,2.4219 -1.1484,0 -2.1641,-0.22656 -3.0469,-0.67188 C 9.33158,-0.70701 8.523,-1.42188 7.7964,-2.39058 V 2e-5 H 2.5308 v -22.906 h 5.2656 z"
         id="path20" />
    </symbol>
    <symbol
       id="j"
       overflow="visible">
      <path
         d="m 0.375,-16.484 h 5.2656 l 4.4375,11.188 3.7656,-11.188 h 5.2656 L 12.1718,1.563 C 11.47258,3.395 10.6601,4.6763 9.7343,5.4068 8.80461,6.14508 7.582,6.5162 6.0624,6.5162 H 3.0155 V 3.0474 h 1.6562 c 0.88281,0 1.5312,-0.14844 1.9375,-0.4375 C 7.02326,2.32865 7.34358,1.82084 7.56232,1.0943 L 7.71857,0.64118 Z"
         id="path23" />
    </symbol>
    <symbol
       id="i"
       overflow="visible">
      <path
         d="M 7.7969,-2.3906 V 6.2656 H 2.5313 v -22.75 h 5.2656 v 2.4062 c 0.72656,-0.95703 1.5352,-1.6641 2.4219,-2.125 0.88281,-0.45703 1.8984,-0.6875 3.0469,-0.6875 2.0312,0 3.6953,0.80859 5,2.4219 1.3125,1.6172 1.9688,3.6953 1.9688,6.2344 0,2.543 -0.65625,4.6211 -1.9688,6.2344 -1.3047,1.6172 -2.9688,2.4219 -5,2.4219 -1.1484,0 -2.1641,-0.22656 -3.0469,-0.67188 -0.88672,-0.45703 -1.6953,-1.1719 -2.4219,-2.1406 z m 3.5156,-10.672 c -1.1367,0 -2.0078,0.41797 -2.6094,1.25 -0.60547,0.82422 -0.90625,2.0156 -0.90625,3.5781 0,1.5625 0.30078,2.7617 0.90625,3.5938 0.60156,0.82422 1.4727,1.2344 2.6094,1.2344 1.125,0 1.9844,-0.41016 2.5781,-1.2344 0.59375,-0.82031 0.89062,-2.0195 0.89062,-3.5938 0,-1.5703 -0.29688,-2.7695 -0.89062,-3.5938 -0.59375,-0.82031 -1.4531,-1.2344 -2.5781,-1.2344 z"
         id="path26" />
    </symbol>
    <symbol
       id="u"
       overflow="visible">
      <path
         d="m 2.5312,-22.906 h 5.2656 v 12.469 l 6.0781,-6.0469 h 6.125 L 11.9374,-8.9214 20.6249,5e-4 H 14.2343 L 7.7968,-6.8745 V 5e-4 H 2.5312 Z"
         id="path29" />
    </symbol>
    <symbol
       id="h"
       overflow="visible">
      <path
         d="m 2.5312,-16.484 h 5.2656 v 16.188 c 0,2.207 -0.53125,3.8945 -1.5938,5.0625 -1.0547,1.1641 -2.5859,1.75 -4.5938,1.75 H -1.0002 V 3.0477 h 0.90625 c 1,0 1.6875,-0.23047 2.0625,-0.6875 0.375,-0.44922 0.5625,-1.3359 0.5625,-2.6562 z m 0,-6.4219 h 5.2656 v 4.2969 H 2.5312 Z"
         id="path32" />
    </symbol>
    <symbol
       id="t"
       overflow="visible">
      <path
         d="M 2.5312,-16.484 H 7.7968 V 0 H 2.5312 Z m 0,-6.4219 h 5.2656 v 4.2969 H 2.5312 Z"
         id="path35" />
    </symbol>
    <symbol
       id="s"
       overflow="visible">
      <path
         d="m 15.422,-15.969 v 4 c -1.1367,-0.46875 -2.2305,-0.82031 -3.2812,-1.0625 -1.043,-0.23828 -2.0312,-0.35938 -2.9688,-0.35938 -1,0 -1.7461,0.125 -2.2344,0.375 -0.48047,0.25 -0.71875,0.63672 -0.71875,1.1562 0,0.42969 0.17969,0.75781 0.54688,0.98438 0.36328,0.21875 1.0234,0.38672 1.9844,0.5 l 0.92188,0.125 c 2.6953,0.34375 4.5078,0.91406 5.4375,1.7031 0.9375,0.78125 1.4062,2.0117 1.4062,3.6875 0,1.7617 -0.64844,3.0859 -1.9375,3.9688 -1.293,0.875 -3.2266,1.3125 -5.7969,1.3125 -1.0938,0 -2.2266,-0.089844 -3.3906,-0.26562 -1.1562,-0.16406 -2.3516,-0.42188 -3.5781,-0.76562 v -4 c 1.0508,0.51172 2.1289,0.89844 3.2344,1.1562 1.1016,0.25 2.2227,0.375 3.3594,0.375 1.0312,0 1.8047,-0.14062 2.3281,-0.42188 0.51953,-0.28906 0.78125,-0.71094 0.78125,-1.2656 0,-0.47656 -0.18359,-0.83203 -0.54688,-1.0625 -0.35547,-0.22656 -1.0703,-0.40625 -2.1406,-0.53125 l -0.92188,-0.125 c -2.3438,-0.28906 -3.9922,-0.83203 -4.9375,-1.625 -0.9375,-0.80078 -1.4062,-2.0078 -1.4062,-3.625 0,-1.75 0.59766,-3.0469 1.7969,-3.8906 1.1953,-0.84375 3.0312,-1.2656 5.5,-1.2656 0.97656,0 2,0.07422 3.0625,0.21875 1.0703,0.14844 2.2383,0.38281 3.5,0.70312 z"
         id="path38" />
    </symbol>
    <symbol
       id="g"
       overflow="visible">
      <path
         d="m 2.3594,-6.4219 v -10.062 h 5.2969 v 1.6406 c 0,0.89844 -0.00781,2.0234 -0.015625,3.375 -0.011719,1.3438 -0.015625,2.2422 -0.015625,2.6875 0,1.3359 0.03125,2.293 0.09375,2.875 0.070312,0.58594 0.19141,1.0078 0.35938,1.2656 0.21875,0.34375 0.5,0.60938 0.84375,0.79688 0.35156,0.1875 0.75391,0.28125 1.2031,0.28125 1.1016,0 1.9688,-0.42188 2.5938,-1.2656 0.63281,-0.84375 0.95312,-2.0156 0.95312,-3.5156 v -8.1406 h 5.2656 v 16.484 h -5.2656 v -2.3906 c -0.80469,0.96875 -1.6484,1.6836 -2.5312,2.1406 -0.88672,0.44531 -1.8672,0.67188 -2.9375,0.67188 -1.9062,0 -3.3594,-0.58203 -4.3594,-1.75 -0.99219,-1.1641 -1.4844,-2.8633 -1.4844,-5.0938 z"
         id="path41" />
    </symbol>
    <symbol
       id="f"
       overflow="visible">
      <path
         d="M 19.109,-10.047 V 0 h -5.2969 v -7.6875 c 0,-1.4258 -0.03125,-2.4062 -0.09375,-2.9375 -0.0625,-0.53906 -0.17188,-0.94141 -0.32812,-1.2031 -0.21094,-0.34375 -0.49219,-0.60938 -0.84375,-0.79688 -0.35547,-0.1875 -0.75781,-0.28125 -1.2031,-0.28125 -1.1055,0 -1.9766,0.42969 -2.6094,1.2812 -0.625,0.84375 -0.9375,2.0156 -0.9375,3.5156 V -3e-5 h -5.2656 v -16.484 h 5.2656 v 2.4062 c 0.80078,-0.95703 1.6445,-1.6641 2.5312,-2.125 0.89453,-0.45703 1.8828,-0.6875 2.9688,-0.6875 1.9062,0 3.3477,0.58594 4.3281,1.75 0.98828,1.168 1.4844,2.8672 1.4844,5.0938 z"
         id="path44" />
    </symbol>
    <symbol
       id="r"
       overflow="visible">
      <path
         d="m 13.391,-22.906 v 3.4531 h -2.9219 c -0.75,0 -1.2734,0.13672 -1.5625,0.40625 -0.29297,0.27344 -0.4375,0.74219 -0.4375,1.4062 v 1.1562 h 4.5 v 3.7656 h -4.5 V 3.5e-4 H 3.1879 v -12.719 H 0.5785 v -3.7656 h 2.6094 v -1.1562 c 0,-1.7891 0.5,-3.1133 1.5,-3.9688 1.0078,-0.86328 2.5625,-1.2969 4.6562,-1.2969 z"
         id="path47" />
    </symbol>
    <symbol
       id="d"
       overflow="visible">
      <path
         d="m 10.375,-13.125 c -1.168,0 -2.0586,0.42188 -2.6719,1.2656 -0.61719,0.83594 -0.92188,2.043 -0.92188,3.625 0,1.5859 0.30469,2.7969 0.92188,3.6406 0.61328,0.83594 1.5039,1.25 2.6719,1.25 1.1562,0 2.0352,-0.41406 2.6406,-1.25 0.60156,-0.84375 0.90625,-2.0547 0.90625,-3.6406 0,-1.582 -0.30469,-2.7891 -0.90625,-3.625 -0.60547,-0.84375 -1.4844,-1.2656 -2.6406,-1.2656 z m 0,-3.7656 c 2.8438,0 5.0625,0.76562 6.6562,2.2969 1.5937,1.53128 2.3906,3.6523 2.3906,6.3594 0,2.7109 -0.79688,4.8281 -2.3906,6.3594 -1.59372,1.5313 -3.8125,2.2969 -6.6562,2.2969 -2.8437,0 -5.0703,-0.76562 -6.6719,-2.2969 -1.6055,-1.5312 -2.4062,-3.6484 -2.4062,-6.3594 0,-2.707 0.80078,-4.8281 2.4062,-6.3594 1.6016,-1.5312 3.8281,-2.2969 6.6719,-2.2969 z"
         id="path50" />
    </symbol>
    <symbol
       id="q"
       overflow="visible">
      <path
         d="m 17.812,-13.75 c 0.66406,-1.0195 1.457,-1.7969 2.375,-2.3281 0.92578,-0.53906 1.9375,-0.8125 3.0312,-0.8125 1.8945,0 3.3359,0.58594 4.3281,1.75 0.98828,1.168 1.4844,2.8672 1.4844,5.0938 V 2e-4 h -5.2969 v -8.5938 c 0.0078,-0.13281 0.01563,-0.26953 0.01563,-0.40625 0.0078,-0.13281 0.01563,-0.32812 0.01563,-0.57812 0,-1.1758 -0.17188,-2.0234 -0.51562,-2.5469 -0.34375,-0.51953 -0.89844,-0.78125 -1.6562,-0.78125 -1.0117,0 -1.7891,0.41406 -2.3281,1.2344 -0.54297,0.82422 -0.82422,2.0156 -0.84375,3.5781 v 8.0938 h -5.2969 v -8.5938 c 0,-1.832 -0.16406,-3.0078 -0.48438,-3.5312 -0.3125,-0.51953 -0.87109,-0.78125 -1.6719,-0.78125 -1.0117,0 -1.793,0.41797 -2.3438,1.25 -0.55469,0.82422 -0.82812,2.0078 -0.82812,3.5469 v 8.1094 h -5.2969 v -16.484 h 5.2969 v 2.4062 c 0.65625,-0.92578 1.3984,-1.625 2.2344,-2.0938 0.84375,-0.47656 1.7695,-0.71875 2.7812,-0.71875 1.1328,0 2.1406,0.27734 3.0156,0.82812 0.875,0.55469 1.5352,1.3242 1.9844,2.3125 z"
         id="path53" />
    </symbol>
    <symbol
       id="p"
       overflow="visible">
      <path
         d="M 19.109,-10.047 V 0 h -5.2969 v -7.6562 c 0,-1.4453 -0.03125,-2.4375 -0.09375,-2.9688 -0.0625,-0.53906 -0.17188,-0.94141 -0.32812,-1.2031 -0.21094,-0.34375 -0.49219,-0.60938 -0.84375,-0.79688 -0.35547,-0.1875 -0.75781,-0.28125 -1.2031,-0.28125 -1.1055,0 -1.9766,0.42969 -2.6094,1.2812 -0.625,0.84375 -0.9375,2.0156 -0.9375,3.5156 V -3e-5 h -5.2656 v -22.906 h 5.2656 v 8.8281 c 0.80078,-0.95703 1.6445,-1.6641 2.5312,-2.125 0.89453,-0.45703 1.8828,-0.6875 2.9688,-0.6875 1.9062,0 3.3477,0.58594 4.3281,1.75 0.98828,1.168 1.4844,2.8672 1.4844,5.0938 z"
         id="path56" />
    </symbol>
    <symbol
       id="o"
       overflow="visible">
      <path
         d="m 2.7656,-21.984 h 6.3281 l 8,15.078 v -15.078 h 5.375 V 0 h -6.3281 l -8,-15.078 V 0 h -5.375 z"
         id="path59" />
    </symbol>
    <symbol
       id="n"
       overflow="visible">
      <path
         d="m 2.7656,-21.984 h 9.4062 c 2.8008,0 4.9453,0.62109 6.4375,1.8594 1.5,1.2422 2.25,3.0117 2.25,5.3125 0,2.3047 -0.75,4.0781 -2.25,5.3281 -1.4922,1.2422 -3.6367,1.8594 -6.4375,1.8594 H 8.4374 V 4e-4 H 2.7655 Z m 5.6719,4.1094 v 6.1406 h 3.1406 c 1.0938,0 1.9375,-0.26562 2.5312,-0.79688 0.60156,-0.53906 0.90625,-1.3008 0.90625,-2.2812 0,-0.97656 -0.30469,-1.7344 -0.90625,-2.2656 -0.59375,-0.53125 -1.4375,-0.79688 -2.5312,-0.79688 z"
         id="path62" />
    </symbol>
    <symbol
       id="m"
       overflow="visible">
      <path
         d="m 15.859,-15.969 v 4.2969 c -0.71875,-0.48828 -1.4375,-0.85156 -2.1562,-1.0938 -0.71875,-0.23828 -1.4688,-0.35938 -2.25,-0.35938 -1.4688,0 -2.6172,0.43359 -3.4375,1.2969 -0.82422,0.85547 -1.2344,2.0547 -1.2344,3.5938 0,1.543 0.41016,2.7461 1.2344,3.6094 0.82031,0.85547 1.9688,1.2812 3.4375,1.2812 0.82031,0 1.6016,-0.11719 2.3438,-0.35938 0.75,-0.25 1.4375,-0.61328 2.0625,-1.0938 v 4.3125 C 15.03488,-0.17997 14.195,0.03878 13.3435,0.18722 12.49975,0.34347 11.6482,0.4216 10.7966,0.4216 7.8161,0.4216 5.488,-0.33621 3.8122,-1.8596 2.1325,-3.3908 1.2966,-5.5158 1.2966,-8.2346 c 0,-2.7188 0.83594,-4.8359 2.5156,-6.3594 1.6758,-1.5312 4.0039,-2.2969 6.9844,-2.2969 0.86328,0 1.7109,0.07813 2.5469,0.23438 0.84375,0.14844 1.6797,0.375 2.5156,0.6875 z"
         id="path65" />
    </symbol>
  </defs>
  <g
     id="g9128"
     transform="translate(-60.042291,9.72448)"
     style="fill:#ffffff;fill-opacity:1">
    <path
       d="m 444.44,226.15 c -3.3438,1.9258 -6.2109,4.5859 -8.3828,7.7773 l -1.207,-0.36328 v -0.30078 h 0.004 c 0.41797,-3.3125 1.2695,-6.5547 2.5312,-9.6484 0.66406,-1.8516 -0.27344,-3.8945 -2.1094,-4.5977 -1.8359,-0.70703 -3.8984,0.18359 -4.6445,2.0039 -2.2188,4.4844 -3.1758,9.4883 -2.7734,14.477 -0.85938,0.59375 -1.6641,1.2578 -2.4141,1.9883 -9.8281,9.6484 -15.859,16.766 -6.5117,21.953 3.5586,1.9883 17.125,-1.75 21.891,-17.551 0.26563,-0.44141 0.42969,-0.9375 0.48438,-1.4492 0.36328,-3.5586 5.1875,-6.9961 6.8164,-7.9609 l -0.004,0.004 c 1.1367,-1.1641 1.3555,-2.9414 0.54297,-4.3438 -0.81641,-1.4062 -2.4688,-2.0977 -4.0391,-1.6875 z"
       id="path70"
       style="fill:#ffffff;fill-opacity:1" />
    <path
       d="m 487.38,260.28 c -4.3477,1.2773 -8.0117,4.2266 -10.191,8.1992 -0.16016,-0.19922 -0.33984,-0.37891 -0.54297,-0.54297 0.42188,-3.3125 1.2734,-6.5547 2.5352,-9.6484 0.66406,-1.8516 -0.27344,-3.8945 -2.1094,-4.5977 -1.8359,-0.70703 -3.8984,0.18359 -4.6445,2.0039 -2.3906,4.5977 -3.3164,9.8164 -2.6562,14.957 -0.92969,0.70703 -1.7969,1.4961 -2.5898,2.3516 -9.8281,10.676 -15.98,18.516 -7.0547,23.762 3.4375,2.0508 17.246,-2.5938 22.191,-20.684 0.0625,-0.35938 0.0625,-0.72656 0,-1.0859 0.83594,-3.4727 3.3477,-6.2969 6.6914,-7.5391 1.9492,-0.44922 3.1641,-2.3945 2.7148,-4.3438 -0.4493,-1.9493 -2.3945,-3.1641 -4.3438,-2.7109 z"
       id="path72"
       style="fill:#ffffff;fill-opacity:1" />
    <path
       d="m 431.59,279.7 c -2.3867,-1.7188 -5.3672,-2.3906 -8.2617,-1.8711 -3.2188,0.57031 -6.0703,2.418 -7.8984,5.125 -0.96484,1.3867 -2.0508,2.8359 -3.1953,4.3438 -5.1875,6.7539 -12.062,16.043 -4.8242,24.121 h -0.004 c 2.2031,2.5117 5.3477,3.9961 8.6836,4.1016 5.9727,-1.1094 11.238,-4.5898 14.594,-9.6484 l 0.72266,-0.84375 h 0.004 c 2.2109,-2.668 3.832,-5.7695 4.7617,-9.1055 2.1641,-5.8281 0.3125,-12.387 -4.582,-16.223 z m -3.918,13.086 c -0.51953,2.1953 -1.5078,4.2539 -2.8984,6.0312 l -0.78516,0.84375 c -2.3516,2.5938 -6.0312,6.5742 -8.0195,6.6328 -0.89062,-0.12109 -1.6953,-0.59766 -2.2305,-1.3281 -1.8086,-1.8711 0.30078,-5.3672 5.4883,-12.062 1.2656,-1.6289 2.4727,-3.1953 3.4961,-4.7656 l 0.004,0.004 c 0.46094,-0.6875 1.1758,-1.1641 1.9883,-1.3242 h 0.42188 c 0.36719,-0.0117 0.72266,0.0937 1.0273,0.30078 1.5703,1.4023 2.1602,3.6055 1.5078,5.6055 z"
       id="path74"
       style="fill:#ffffff;fill-opacity:1" />
    <path
       d="m 513.67,81.473 c 1.4492,3.1953 3.7227,5.9492 6.582,7.9805 2.8594,2.0352 6.2031,3.2773 9.6992,3.5977 12.605,1.5664 14.352,-38.777 49.57,-35.16 0,0 16.223,-0.90625 0,-18.09 -16.223,-17.188 -52.227,-4.2227 -49.57,-39.984 0,0 -19.781,11.098 0,35.461 19.781,24.363 -16.281,46.195 -16.281,46.195 z"
       id="path76"
       style="fill:#ffffff;fill-opacity:1" />
    <path
       d="M 638.56,157.52 C 633.5561,135.266 620.47,122.059 617.091,104.028 613.712,85.997 629.153,79.907 630.298,55.301 631.4464,30.696 601.474,19.84 590.677,16.223 579.884,12.6058 588.8684,0 588.8684,0 c 0,0 -28.285,9.6484 -7.8398,29.488 20.445,19.84 16.223,35.461 4.8242,34.254 -8.0586,-0.21484 -15.992,2.0352 -22.734,6.4531 -16.824,10.254 -19.359,43.059 -45.59,24.965 -24.121,-16.523 -44.688,12.062 -46.316,29.367 -1.9883,20.141 -2.1719,28.645 -16.102,27.621 14.414,-20.684 -1.3281,-37.992 -8.3203,-48.246 -7.8398,-11.277 1.9883,-13.508 10.07,-24.121 v 0.0039 c 3.3672,-3.7109 5.0469,-8.6523 4.6367,-13.648 -0.41016,-4.9961 -2.8789,-9.5977 -6.8086,-12.707 -6.0312,-4.7656 -5.4883,-18.09 -5.4883,-18.09 -1.8633,2.9727 -2.8477,6.4102 -2.8477,9.918 0,3.5117 0.98438,6.9492 2.8477,9.9219 6.7539,9.0469 -6.0312,16.703 -6.0312,16.703 0,0 -33.41,20.746 -15.801,40.586 10.914,12.062 3.6797,36.727 -3.4375,53.613 -3.707,5.6055 -6.6289,11.691 -8.6836,18.094 0,0 -6.0312,16.824 2.5938,23.699 -1.75,4.5234 -4.2227,10.191 -7.2383,16.16 -1.6133,-0.61719 -3.3359,-0.90234 -5.0625,-0.84375 -4.1367,0.22266 -7.9844,2.1719 -10.613,5.3672 -2.3945,2.9609 -3.8516,6.5625 -4.1953,10.352 -0.34375,3.7891 0.44531,7.5938 2.2656,10.938 -1.207,1.207 -2.4141,2.293 -3.6797,3.3164 -10.383,8.6797 -15.504,22.137 -13.508,35.52 1.2539,9.6719 5.1094,18.82 11.156,26.477 -1.1094,-0.9375 -2.0469,-2.0625 -2.7734,-3.3203 -0.44922,-0.73047 -1.0977,-1.3164 -1.8711,-1.6875 -1.0469,-3.5508 -3.1797,-6.6836 -6.1016,-8.9531 -2.9219,-2.2734 -6.4844,-3.5703 -10.18,-3.7109 -6.9336,-13.871 -15.316,-33.109 -15.137,-40.285 0,-9.6484 10.914,-38.957 15.078,-49.512 h -0.004 c 0.0391,-0.33984 0.0391,-0.68359 0,-1.0234 0.51172,-2.9766 2.3867,-5.543 5.0664,-6.9336 5.2344,-2.3906 7.6758,-8.4648 5.5469,-13.812 -1.2969,-4.832 -6.0352,-7.9023 -10.973,-7.1133 h -0.66406 c -0.51562,-1.9688 -0.76172,-4 -0.72656,-6.0312 0,-4.7656 -0.42188,-12.785 -9.7695,-14.172 -4.3828,-0.45703 -8.8086,0.25391 -12.832,2.0508 -4.0234,1.8008 -7.5,4.6289 -10.082,8.1992 -3.6797,5.6094 -6.0312,15.559 3.8594,31.238 l 3.3164,5.0664 c -4.6445,9.7109 -19.539,42.516 -15.258,59.945 5.9688,18.453 13.496,36.367 22.496,53.551 -0.625,4.2852 1.6289,8.4727 5.5469,10.312 -0.96484,0.96484 -1.9297,1.9883 -2.7148,2.9531 -7.1289,9.7852 -12.387,20.805 -15.496,32.508 -7.9023,0.36719 -15.746,-1.5117 -22.617,-5.4297 -4.1367,-3.082 -7.332,-7.2617 -9.2266,-12.059 -8.7344,-16.305 -20.992,-30.461 -35.883,-41.434 -1.0547,-0.83594 -2.4297,-1.1562 -3.7461,-0.875 -1.3164,0.27734 -2.4414,1.1289 -3.0664,2.3242 -1.9688,3.5078 -4.2695,6.8203 -6.875,9.8906 -10.137,-7.6289 -19.766,-15.906 -28.828,-24.785 -2.457,4.9844 -5.6914,9.543 -9.5859,13.508 -0.16406,-0.19922 -0.34766,-0.37891 -0.54297,-0.54297 -0.36328,0 -38.957,-28.285 -55.664,-60.305 -1.7578,-3.3281 -2.3672,-7.1406 -1.7344,-10.848 0.63281,-3.707 2.4727,-7.1016 5.2344,-9.6562 0.55078,-0.51172 0.96875,-1.1562 1.2031,-1.8711 3.2891,-0.55469 6.5156,-1.4023 9.6523,-2.5312 9.2852,-3.3789 -4.4609,-10.254 -15.922,-9.8281 v -0.004 c -8.0859,0.50391 -16.141,1.4492 -24.125,2.8359 -7.2383,0.84375 -7.418,12.062 -7.418,12.062 l 0.004,-0.004 c 0.38672,2.6094 0.94922,5.1875 1.6875,7.7227 -0.20703,1.1133 -0.34766,2.2422 -0.42188,3.375 -0.96484,18.09 20.805,57.41 44.145,82.922 0.34766,0.62891 0.84375,1.168 1.4453,1.5664 3.207,3.3164 6.5898,6.457 10.133,9.4062 -0.93359,1.2852 -1.7969,2.6133 -2.5938,3.9805 -9.7109,-1.0234 -49.57,-6.0312 -76.711,-22.555 -3.2188,-1.9141 -5.7188,-4.8359 -7.1133,-8.3125 -1.3945,-3.4766 -1.6055,-7.3125 -0.60547,-10.922 0.19141,-0.73438 0.19141,-1.5 0,-2.2344 2.5234,-2.1797 4.8438,-4.5781 6.9375,-7.1758 6.0312,-7.7188 -9.1055,-6.4531 -18.695,0 -6.7031,4.6484 -13.148,9.6602 -19.297,15.016 -6.0312,4.4609 0,14.051 0,14.051 v 0.004 c 1.6641,2.1328 3.4805,4.1484 5.4258,6.0273 0.40234,1.0547 0.86328,2.0781 1.3867,3.0781 8.4414,15.68 47.52,38.234 80.688,48.246 l 0.004,-0.004 c 0.64063,0.375 1.3672,0.58203 2.1094,0.60547 5.3438,1.5117 10.781,2.6602 16.281,3.4375 -0.4375,15.316 4.6094,30.289 14.234,42.215 25.027,28.402 -5.3086,35.039 4.7656,55.059 10.07,20.023 16.281,42.215 49.691,54.699 33.41,12.484 44.93,25.207 59.523,35.398 0,0 85.152,-57.773 97.273,-117.23 l -0.004,-0.004 c 1.6211,6.5898 5.7578,12.281 11.52,15.863 3.8359,2.0039 8.0938,3.0781 12.422,3.1367 4.3008,0.0937 8.5234,-1.1719 12.062,-3.6211 1.0547,-0.69922 1.7656,-1.8125 1.9609,-3.0625 0.19922,-1.25 -0.13672,-2.5273 -0.92578,-3.5195 -0.78906,-0.98828 -1.9531,-1.6055 -3.2188,-1.6953 -1.2617,-0.0899 -2.5039,0.35156 -3.4258,1.2227 -2.2852,1.2734 -4.8711,1.8984 -7.4844,1.8164 -2.6133,-0.0859 -5.1562,-0.87891 -7.3516,-2.3008 -4.4727,-3.5625 -7.375,-8.7344 -8.082,-14.41 1.5,1.2812 3.1875,2.3164 5.0078,3.0742 5.3047,2.0078 11.254,1.332 15.98,-1.8086 6.0312,-3.6797 7.1758,-7.8984 6.8164,-10.793 -0.90625,-7.2383 -11.336,-12.543 -19.902,-15.738 v -0.004 c 8.8125,-8.1094 17.031,-16.836 24.605,-26.113 4.0391,14.656 20.383,18.453 27.5,13.75 l 1.8711,-1.3867 h -0.004 c 15.258,6.5781 31.633,10.18 48.246,10.613 3.7305,0.004 7.4609,-0.25781 11.156,-0.78125 18.223,-2.6992 36.055,-7.5586 53.129,-14.477 l 7.4766,1.0859 c 14.473,1.4492 20.504,-4.6445 22.797,-8.4414 1.6523,-2.8672 2.4844,-6.1289 2.4102,-9.4375 -0.0742,-3.3047 -1.0547,-6.5273 -2.832,-9.3164 -3.2344,-5.1758 -8.8555,-8.375 -14.957,-8.5039 h -0.72266 c -0.21094,-0.34766 -0.39062,-0.71094 -0.54297,-1.0859 -1.6445,-4.5234 -6.4062,-7.1133 -11.098,-6.0312 -5.7695,0.32422 -10.266,5.1367 -10.191,10.914 -0.125,2.8125 -1.4688,5.4336 -3.6758,7.1797 -15.418,5.0273 -31.102,9.1953 -46.98,12.48 -12.906,2.1719 -33.469,-6.5117 -42.215,-10.676 v 0.004 c -0.75,-4.4141 -2.8594,-8.4805 -6.0312,-11.641 -8.0195,-7.8984 -14.895,-6.5117 -18.875,-4.4023 -0.15625,-0.25781 -0.33594,-0.5 -0.54297,-0.72266 l -12.062,-11.156 h 3.5625 c 15.355,-0.41406 30.164,-5.7852 42.211,-15.32 3.0781,4.0781 7.9219,6.4336 13.027,6.332 3.5938,-0.30078 6.9844,-1.7852 9.6445,-4.2188 2.6602,-2.4336 4.4453,-5.6758 5.0703,-9.2266 0.34375,-1.5859 0.46484,-3.207 0.36328,-4.8242 1.5664,1.0859 3.2578,2.1719 5.1875,3.2578 26.777,15.5 27.137,-4.8242 30.816,-21.41 3.6797,-16.586 18.09,-20.383 38.113,-27.016 20.02,-6.6367 33.285,-20.988 21.586,-42.457 -4.8242,-8.6836 -6.0312,-14.715 9.0469,-25.871 23.035,-17.309 24.062,-34.195 21.648,-44.988 z M 146.47,357.79 c -29.609,-10.129 -62.418,-29.969 -68.688,-41.609 -1.9688,-3.0039 -2.4141,-6.75 -1.207,-10.133 1.7695,-3.4492 4.6016,-6.2422 8.082,-7.9609 0.47656,8.6484 5.1953,16.504 12.602,20.988 16.738,9.3867 34.883,16.004 53.734,19.598 -3.7852,5.6133 -5.3945,12.41 -4.5234,19.117 z m 22.855,6.0312 c -4.3945,-0.62891 -8.7461,-1.5352 -13.027,-2.7109 -1.2422,-3.4727 -1.4492,-7.2344 -0.59375,-10.82 0.85938,-3.5898 2.7422,-6.8477 5.418,-9.3828 5.3672,0.90625 9.8906,1.5078 13.148,1.9297 -2.6328,6.6367 -4.3789,13.59 -5.1875,20.684 z m 2.1094,-56.086 c -20.082,-24.121 -37.812,-58.016 -37.148,-71.281 v 0.004 c -0.11328,-3.5859 1.4453,-7.0195 4.2227,-9.2891 3.2461,-2.0078 7.0469,-2.9375 10.855,-2.6523 -4.043,7.6602 -4.043,16.824 0,24.484 9.5547,16.777 21.773,31.891 36.184,44.746 -6.2148,2.6914 -11.234,7.5586 -14.113,13.688 z m 20.746,12.906 c -1.8164,0.82422 -3.5195,1.8789 -5.0664,3.1367 -3.1094,-2.625 -6.0703,-5.4219 -8.8633,-8.3828 0.71484,-3.7109 2.5195,-7.1289 5.1836,-9.8125 2.6602,-2.6875 6.0625,-4.5156 9.7695,-5.2617 6.6953,6.0312 12.062,9.7109 13.871,11.219 v -0.004 c -4.5391,3.5703 -9.5273,6.5273 -14.836,8.8047 z m 283.02,60.305 c 10.914,4.8242 30.152,12.062 44.203,9.7695 v 0.004 c 16.516,-3.3984 32.824,-7.7305 48.848,-12.969 0.38672,-0.12891 0.75,-0.3125 1.0859,-0.53906 4.8242,-3.2656 7.8359,-8.6016 8.1406,-14.414 0,-2.3516 0.96484,-2.4727 1.9297,-2.5312 h 1.5664 l 0.42188,0.96484 0.004,-0.004 c 1.2539,3.7539 4.6719,6.3594 8.6211,6.5742 3.0586,-0.008 5.9414,1.4219 7.7812,3.8594 l 0.30078,0.60156 v 0.004 c 1.7539,2.8164 1.8672,6.3594 0.30078,9.2852 -2.0508,3.4375 -7.1172,4.8867 -13.992,4.1602 l -8.5625,-1.207 v 0.004 c -0.83984,-0.11328 -1.6953,0.0117 -2.4727,0.35938 -16.688,6.8438 -34.141,11.645 -51.98,14.293 -17.363,1.2617 -34.773,-1.6562 -50.777,-8.5039 2.1406,-3.0625 3.6953,-6.5 4.582,-10.129 z m -73.453,-146.78 c 0.99219,-1.3477 2.5,-2.2188 4.1602,-2.4141 h 0.36328 c -1.9766,3.3711 -4.1289,6.6328 -6.4531,9.7695 -0.53125,-2.6172 0.17969,-5.3359 1.9297,-7.3555 z m 15.199,123.75 c 1.2812,0.0977 2.5742,0.0977 3.8594,0 -2.7188,4.125 -5.918,7.9102 -9.5312,11.277 -15.738,-1.6562 -29.797,-10.582 -37.992,-24.121 2.3516,-2.2305 6.0312,-5.7305 10.492,-9.168 3.4609,5.1328 8.8594,8.6406 14.957,9.7109 l 0.60156,0.48438 0.004,-0.004 c 1.168,3.668 3.5469,6.832 6.7422,8.9805 3.1992,2.1445 7.0273,3.1445 10.867,2.8398 z m -16.949,-23.641 c 0.17578,-1.7852 0.86719,-3.4844 1.9922,-4.8828 3.9219,2.8047 8.0781,5.2695 12.422,7.3555 l 3.9805,1.75 c -4.9453,2.7734 -11.457,5.125 -15.621,1.2656 h 0.004 c -1.6953,-1.3242 -2.7148,-3.3359 -2.7773,-5.4883 z m -49.27,-26.594 c -7.3867,-14.387 -13.539,-29.379 -18.391,-44.805 -3.3789,-13.688 10.191,-45.109 15.738,-56.086 0.80859,-1.3984 0.80859,-3.125 0,-4.5234 l -4.7031,-7.1172 c -3.9805,-6.332 -7.8984,-15.258 -3.8594,-21.41 v 0.004 c 3.1484,-3.8477 7.8711,-6.0664 12.844,-6.0312 h 1.207 c 1.5664,0 1.8711,0 2.0508,5.5469 -0.0352,2.875 0.34766,5.7422 1.1445,8.5039 1.2031,4.2109 5.4023,6.8203 9.7109,6.0312 h 1.2656 c 0.3125,0.39062 0.53906,0.83984 0.66406,1.3242 0.36328,0.90625 0.60156,1.6875 -1.4492,2.8359 -4.9492,2.6719 -8.4297,7.4375 -9.4688,12.965 -2.2305,5.7305 -15.258,39.562 -15.5,52.164 0,10.191 10.07,32.262 15.801,43.844 h 0.004 c -2.6992,1.8125 -5.082,4.0508 -7.0586,6.6328 z m -37.992,184.66 c -6.8164,-2.6523 -30.152,-12.965 -36.484,-30.152 -7.0547,-19.117 -27.258,-41.008 -42.215,-57.051 -2.9531,-3.1953 -5.668,-6.0312 -7.8398,-8.625 -7.2969,-8.2617 -10.07,-29.066 -6.0312,-42.879 v 0.004 c 1.2031,-5.8047 5.3008,-10.59 10.855,-12.664 13.547,-4.1875 25.117,-13.145 32.566,-25.207 12.262,9.7266 22.332,21.934 29.551,35.82 2.6328,6.1797 6.9609,11.492 12.48,15.32 8.1094,4.6836 17.359,7.0234 26.719,6.7539 1.5156,3.8281 3.3945,7.5 5.6055,10.973 -12.594,-0.10938 -25.148,-1.3828 -37.508,-3.7969 -9.043,-2.3789 -17.09,-7.5742 -22.977,-14.836 -1.5469,-1.7031 -4.125,-1.9727 -5.9883,-0.63281 -1.8672,1.3438 -2.4297,3.8711 -1.3086,5.8789 7.1367,8.9414 17.008,15.293 28.102,18.094 15.125,2.8711 30.496,4.2852 45.891,4.2188 3.1641,4.0234 6.7422,7.7031 10.676,10.977 -6.0312,13.688 -28.164,26.656 -36.664,30.758 -1.1914,0.4375 -2.1445,1.3594 -2.625,2.5352 -0.48047,1.1758 -0.44141,2.4961 0.10156,3.6445 0.54297,1.1484 1.5469,2.0117 2.7578,2.3867 1.2148,0.37109 2.5312,0.21875 3.625,-0.42578 1.3281,-0.66406 30.152,-14.656 40.164,-33.531 8.6172,5.4336 18.195,9.1602 28.223,10.977 -7.3594,25.871 -56.266,58.918 -77.734,71.34 z m 108.01,-64.766 c 0,0 -0.36328,0.78516 -2.4727,2.0508 v -0.004 c -2.3203,1.625 -5.2734,2.0508 -7.9609,1.1484 -4.5156,-2.75 -7.8984,-7.0312 -9.5273,-12.062 l 1.2656,-1.0859 c 9.2891,3.1367 18.094,7.7188 18.695,9.9531 z m 20.625,-69.172 c -10.734,22.855 -40.344,48.246 -47.34,54.273 -11.359,-1.6758 -22.133,-6.1289 -31.359,-12.965 -4.9922,-3.7773 -9.3984,-8.2695 -13.086,-13.328 -3.6016,-4.8516 -6.4492,-10.219 -8.4414,-15.922 0.23047,-0.53125 0.35156,-1.1055 0.35938,-1.6875 2.8125,-11.203 7.7461,-21.77 14.535,-31.117 6.8398,-7.0273 14.586,-13.113 23.035,-18.09 1.5586,1.7891 3.418,3.3008 5.4883,4.4609 -7.1289,5.0664 -13.824,10.711 -20.02,16.887 -1.3984,1.4062 -1.7148,3.5547 -0.78516,5.3047 9.7227,18.418 28.359,30.422 49.148,31.66 1.1602,0.004 2.2773,-0.42578 3.1367,-1.2031 8.082,-6.6953 14.207,-15.445 17.73,-25.328 z m 61.754,-39.441 c -0.72266,3.4375 -3.4375,6.332 -6.0312,6.332 -2.6367,0.34375 -5.2383,-0.85156 -6.6953,-3.0742 3.5859,-3.2578 6.9102,-6.7852 9.9531,-10.555 2.2539,1.75 3.3242,4.6211 2.7734,7.418 z m 8.625,-54.637 c -0.043,0.70313 -0.043,1.4062 0,2.1094 -0.92578,6.5703 -2.9648,12.934 -6.0312,18.816 -2.3672,3.332 -4.2344,6.9883 -5.5508,10.855 -0.27344,0.25 -0.51953,0.53125 -0.72266,0.84375 -9.5273,17.551 -43.117,49.812 -81.051,31.539 -19.059,-9.2266 -31.602,-24.605 -33.531,-41.188 -1.5742,-10.324 2.3047,-20.727 10.254,-27.5 2.1328,-1.7305 4.1484,-3.6055 6.0312,-5.6094 0.58203,-0.40234 1.0547,-0.94141 1.3867,-1.5664 5.1367,-5.9609 9.6211,-12.449 13.387,-19.359 0.61328,-0.64844 1.0117,-1.4688 1.1445,-2.3516 3.5391,-6.6641 6.6797,-13.531 9.4102,-20.562 20.141,0.96484 14.414,-4.9453 26.895,-1.6875 v -0.004 c 4.6484,0.84766 8.9805,2.9336 12.543,6.0312 0.66406,0.78516 8.7461,5.1875 9.7109,6.0312 8.2031,6.0312 16.824,5.4258 22.918,20.926 0.80859,2.1055 2.1328,3.9727 3.8594,5.4297 l 0.60156,0.42188 0.72266,0.54297 c 2.6641,1.7695 4.8086,4.2188 6.2148,7.0898 1.4102,2.8672 2.0352,6.0625 1.8086,9.25 z"
       id="path78"
       style="fill:#ffffff;fill-opacity:1" />
  </g>
</svg>
