<?xml version="1.0" encoding="UTF-8" standalone="no"?>
<svg
   xmlns:dc="http://purl.org/dc/elements/1.1/"
   xmlns:cc="http://creativecommons.org/ns#"
   xmlns:rdf="http://www.w3.org/1999/02/22-rdf-syntax-ns#"
   xmlns:svg="http://www.w3.org/2000/svg"
   xmlns="http://www.w3.org/2000/svg"
   xmlns:sodipodi="http://sodipodi.sourceforge.net/DTD/sodipodi-0.dtd"
   xmlns:inkscape="http://www.inkscape.org/namespaces/inkscape"
   width="702"
   height="702"
   version="1.1"
   viewBox="0 0 526.50001 526.50001"
   id="svg498"
   sodipodi:docname="City Hall Extension.svg"
   inkscape:export-filename="/home/marek/git/UnCiv-Logicians/ImageSources/to_edit/City Hall Extension.png"
   inkscape:export-xdpi="27.350428"
   inkscape:export-ydpi="27.350428"
   inkscape:version="1.0.2 (e86c870879, 2021-01-15)">
  <metadata
     id="metadata504">
    <rdf:RDF>
      <cc:Work
         rdf:about="">
        <dc:format>image/svg+xml</dc:format>
        <dc:type
           rdf:resource="http://purl.org/dc/dcmitype/StillImage" />
        <dc:title></dc:title>
      </cc:Work>
    </rdf:RDF>
  </metadata>
  <defs
     id="defs502" />
  <sodipodi:namedview
     pagecolor="#ffffff"
     bordercolor="#666666"
     borderopacity="1"
     objecttolerance="10"
     gridtolerance="10"
     guidetolerance="10"
     inkscape:pageopacity="0"
     inkscape:pageshadow="2"
     inkscape:window-width="1920"
     inkscape:window-height="990"
     id="namedview500"
     showgrid="false"
     inkscape:pagecheckerboard="true"
     units="px"
     inkscape:zoom="0.44410714"
     inkscape:cx="253.37825"
     inkscape:cy="681.40041"
     inkscape:window-x="0"
     inkscape:window-y="30"
     inkscape:window-maximized="1"
     inkscape:current-layer="svg498" />
  <path
     d="M 210.1275,88.873505 V 263.8735 c 0,4.6406 -1.8438,9.0938 -5.125,12.375 -3.2812,3.2812 -7.7344,5.125 -12.375,5.125 H 17.627505 c -4.6406,0 -9.0938,-1.8438 -12.375,-5.125 -3.2812,-3.2812 -5.125,-7.7344 -5.125,-12.375 V 88.873505 c 0,-4.6406 1.8438,-9.0938 5.125,-12.375 3.2812,-3.2812 7.7344,-5.125 12.375,-5.125 H 192.6275 c 4.6406,0 9.0938,1.8438 12.375,5.125 3.2812,3.2812 5.125,7.7344 5.125,12.375 z M 521.2475,129.0025 397.4975,5.252505 c -3.2812,-3.2812 -7.7305,-5.125 -12.371,-5.125 -4.6405,0 -9.0938,1.8438 -12.375,5.125 L 249.0015,129.0025 c -3.2812,3.2812 -5.125,7.7305 -5.125,12.371 0,4.6405 1.8438,9.0938 5.125,12.375 l 123.75,123.75 c 3.2812,3.2812 7.7305,5.125 12.371,5.125 4.6405,0 9.0938,-1.8438 12.375,-5.125 l 123.75,-123.75 c 3.2812,-3.2812 5.125,-7.7305 5.125,-12.371 0,-4.6405 -1.8438,-9.0898 -5.125,-12.371 z m -328.62,187.37 H 17.627505 c -4.6406,0 -9.0938,1.8438 -12.375,5.125 -3.2812,3.2812 -5.125,7.7344 -5.125,12.375 v 175 c 0,4.6406 1.8438,9.0938 5.125,12.375 3.2812,3.2812 7.7344,5.125 12.375,5.125 H 192.6275 c 4.6406,0 9.0938,-1.8438 12.375,-5.125 3.2812,-3.2812 5.125,-7.7344 5.125,-12.375 v -175 c 0,-4.6406 -1.8438,-9.0938 -5.125,-12.375 -3.2812,-3.2812 -7.7344,-5.125 -12.375,-5.125 z m 245,0 h -175 c -4.6406,0 -9.0938,1.8438 -12.375,5.125 -3.2812,3.2812 -5.125,7.7344 -5.125,12.375 v 175 c 0,4.6406 1.8438,9.0938 5.125,12.375 3.2812,3.2812 7.7344,5.125 12.375,5.125 h 175 c 4.6406,0 9.0938,-1.8438 12.375,-5.125 3.2812,-3.2812 5.125,-7.7344 5.125,-12.375 v -175 c 0,-4.6406 -1.8438,-9.0938 -5.125,-12.375 -3.2812,-3.2812 -7.7344,-5.125 -12.375,-5.125 z"
     id="path496"
     style="fill:#ffffff;fill-opacity:1" />
</svg>
