<?xml version="1.0" encoding="UTF-8" standalone="no"?>
<svg
   xmlns:dc="http://purl.org/dc/elements/1.1/"
   xmlns:cc="http://creativecommons.org/ns#"
   xmlns:rdf="http://www.w3.org/1999/02/22-rdf-syntax-ns#"
   xmlns:svg="http://www.w3.org/2000/svg"
   xmlns="http://www.w3.org/2000/svg"
   xmlns:sodipodi="http://sodipodi.sourceforge.net/DTD/sodipodi-0.dtd"
   xmlns:inkscape="http://www.inkscape.org/namespaces/inkscape"
   version="1.1"
   id="Ebene_1"
   x="0px"
   y="0px"
   viewBox="0 0 216 215.99999"
   xml:space="preserve"
   sodipodi:docname="dn42.svg"
   width="216"
   height="216"
   inkscape:export-filename="/home/bandura/Downloads/dn42.png"
   inkscape:export-xdpi="88.889999"
   inkscape:export-ydpi="88.889999"
   inkscape:version="1.0.2 (e86c870879, 2021-01-15)"><metadata
   id="metadata31"><rdf:RDF><cc:Work
       rdf:about=""><dc:format>image/svg+xml</dc:format><dc:type
         rdf:resource="http://purl.org/dc/dcmitype/StillImage" /><dc:title></dc:title></cc:Work></rdf:RDF></metadata><defs
   id="defs29" /><sodipodi:namedview
   pagecolor="#ffffff"
   bordercolor="#666666"
   borderopacity="1"
   objecttolerance="10"
   gridtolerance="10"
   guidetolerance="10"
   inkscape:pageopacity="0"
   inkscape:pageshadow="2"
   inkscape:window-width="1366"
   inkscape:window-height="678"
   id="namedview27"
   showgrid="false"
   inkscape:pagecheckerboard="true"
   inkscape:zoom="0.38661734"
   inkscape:cx="429.30325"
   inkscape:cy="283.91339"
   inkscape:window-x="0"
   inkscape:window-y="30"
   inkscape:window-maximized="1"
   inkscape:current-layer="Ebene_1" />
<style
   type="text/css"
   id="style2">
	.st0{fill:#3C3C3B;}
	.st1{fill:#575756;}
	.st2{fill:#706F6F;}
	.st3{fill:#9D9D9C;}
	.st4{fill:#878787;}
</style>





<g
   id="g39"
   transform="translate(-309.95,-313.35)"
   style="fill:#ffffff;fill-opacity:1"><polygon
     points="358.4,408.2 326.2,408.2 310.1,436.1 326.2,464 358.4,464 374.5,436.1 "
     id="polygon4"
     style="fill:#ffffff;fill-opacity:1" /><polygon
     class="st0"
     points="408.7,436.7 376.5,436.7 360.4,464.6 376.5,492.5 408.7,492.5 424.8,464.6 "
     id="polygon6"
     style="fill:#ffffff;fill-opacity:1" /><polygon
     class="st1"
     points="408.7,379 376.5,379 360.4,406.9 376.5,434.8 408.7,434.8 424.8,406.9 "
     id="polygon8"
     style="fill:#ffffff;fill-opacity:1" /><polygon
     class="st2"
     points="458.8,408.2 426.6,408.2 410.5,436.1 426.6,464 458.8,464 474.9,436.1 "
     id="polygon10"
     style="fill:#ffffff;fill-opacity:1" /><polygon
     class="st3"
     points="509.7,436.7 477.5,436.7 461.4,464.6 477.5,492.5 509.7,492.5 525.8,464.6 "
     id="polygon12"
     style="fill:#ffffff;fill-opacity:1" /><polygon
     class="st4"
     points="458.8,350.2 426.6,350.2 410.5,378.1 426.6,405.9 458.8,405.9 474.9,378.1 "
     id="polygon14"
     style="fill:#ffffff;fill-opacity:1" /></g>

</svg>
