<?xml version="1.0" encoding="UTF-8" standalone="no"?>
<svg
   xmlns:dc="http://purl.org/dc/elements/1.1/"
   xmlns:cc="http://creativecommons.org/ns#"
   xmlns:rdf="http://www.w3.org/1999/02/22-rdf-syntax-ns#"
   xmlns:svg="http://www.w3.org/2000/svg"
   xmlns="http://www.w3.org/2000/svg"
   xmlns:sodipodi="http://sodipodi.sourceforge.net/DTD/sodipodi-0.dtd"
   xmlns:inkscape="http://www.inkscape.org/namespaces/inkscape"
   width="632"
   height="632"
   version="1.1"
   viewBox="0 0 473.99999 474.00001"
   id="svg43"
   sodipodi:docname="Experimental being.svg"
   inkscape:version="1.0.2 (e86c870879, 2021-01-15)"
   inkscape:export-filename="/home/marek/Downloads/Experimental being.png"
   inkscape:export-xdpi="30.379747"
   inkscape:export-ydpi="30.379747">
  <metadata
     id="metadata47">
    <rdf:RDF>
      <cc:Work
         rdf:about="">
        <dc:format>image/svg+xml</dc:format>
        <dc:type
           rdf:resource="http://purl.org/dc/dcmitype/StillImage" />
        <dc:title></dc:title>
      </cc:Work>
    </rdf:RDF>
  </metadata>
  <sodipodi:namedview
     pagecolor="#ffffff"
     bordercolor="#666666"
     borderopacity="1"
     objecttolerance="10"
     gridtolerance="10"
     guidetolerance="10"
     inkscape:pageopacity="0"
     inkscape:pageshadow="2"
     inkscape:window-width="1920"
     inkscape:window-height="990"
     id="namedview45"
     showgrid="false"
     units="px"
     inkscape:zoom="0.31403117"
     inkscape:cx="405.89807"
     inkscape:cy="692.23339"
     inkscape:window-x="0"
     inkscape:window-y="30"
     inkscape:window-maximized="1"
     inkscape:current-layer="svg43" />
  <defs
     id="defs23">
    <symbol
       id="g"
       overflow="visible">
      <path
         d="m 39.078,-2.3281 c -2.0117,1.043 -4.1094,1.8281 -6.2969,2.3594 -2.1875,0.5313 -4.4648,0.79688 -6.8281,0.79688 -7.0859,0 -12.699,-1.9766 -16.844,-5.9375 -4.1367,-3.957 -6.2031,-9.3281 -6.2031,-16.109 0,-6.7891 2.0664,-12.164 6.2031,-16.125 4.1445,-3.9688 9.7578,-5.9531 16.844,-5.9531 2.3633,0 4.6406,0.26562 6.8281,0.79688 2.1875,0.53126 4.2852,1.3242 6.2969,2.375 v 8.7969 c -2.0312,-1.3828 -4.0391,-2.3984 -6.0156,-3.0469 -1.9688,-0.64453 -4.0469,-0.96875 -6.2344,-0.96875 -3.9062,0 -6.9844,1.2578 -9.2344,3.7656 -2.2422,2.5 -3.3594,5.9531 -3.3594,10.359 0,4.3867 1.1172,7.8359 3.3594,10.344 2.25,2.5 5.3281,3.75 9.2344,3.75 2.1875,0 4.2656,-0.32031 6.2344,-0.96875 1.9766,-0.64453 3.9844,-1.6602 6.0156,-3.0469 z"
         id="path2" />
    </symbol>
    <symbol
       id="f"
       overflow="visible">
      <path
         d="m 16.031,-40.953 v 9.0625 h 10.516 v 7.2812 H 16.031 v 13.531 c 0,1.4805 0.28906,2.4805 0.875,3 0.59375,0.52344 1.7656,0.78125 3.5156,0.78125 h 5.2344 v 7.2969 h -8.7344 c -4.0312,0 -6.8867,-0.83594 -8.5625,-2.5156 -1.6797,-1.6875 -2.5156,-4.5391 -2.5156,-8.5625 v -13.531 H 0.7654 v -7.2812 h 5.0781 v -9.0625 z"
         id="path5" />
    </symbol>
    <symbol
       id="e"
       overflow="visible">
      <path
         d="M 26.594,-27.234 V -44.312 H 36.86 V 0 H 26.594 v -4.6094 c -1.3984,1.875 -2.9453,3.25 -4.6406,4.125 -1.6875,0.875 -3.6406,1.3125 -5.8594,1.3125 -3.9297,0 -7.1562,-1.5625 -9.6875,-4.6875 -2.5234,-3.125 -3.7812,-7.1445 -3.7812,-12.062 0,-4.9141 1.2578,-8.9375 3.7812,-12.062 2.5312,-3.125 5.7578,-4.6875 9.6875,-4.6875 2.1953,0 4.1445,0.44531 5.8438,1.3281 1.707,0.88672 3.2578,2.2578 4.6562,4.1094 z m -6.7188,20.656 c 2.1875,0 3.8516,-0.79688 5,-2.3906 1.1445,-1.5938 1.7188,-3.9102 1.7188,-6.9531 0,-3.0391 -0.57422,-5.3594 -1.7188,-6.9531 -1.1484,-1.5938 -2.8125,-2.3906 -5,-2.3906 -2.168,0 -3.8242,0.79688 -4.9688,2.3906 -1.1484,1.5938 -1.7188,3.9141 -1.7188,6.9531 0,3.043 0.57031,5.3594 1.7188,6.9531 1.1445,1.5938 2.8008,2.3906 4.9688,2.3906 z"
         id="path8" />
    </symbol>
    <symbol
       id="d"
       overflow="visible">
      <path
         d="m 21.875,-6.5781 c 2.1758,0 3.8359,-0.79688 4.9844,-2.3906 1.1562,-1.5938 1.7344,-3.9102 1.7344,-6.9531 0,-3.0391 -0.57812,-5.3594 -1.7344,-6.9531 -1.1484,-1.5938 -2.8086,-2.3906 -4.9844,-2.3906 -2.1875,0 -3.8672,0.80469 -5.0312,2.4062 -1.168,1.6055 -1.75,3.918 -1.75,6.9375 0,3.0234 0.58203,5.3359 1.75,6.9375 1.1641,1.6055 2.8438,2.4062 5.0312,2.4062 z m -6.7812,-20.656 c 1.4062,-1.8516 2.9609,-3.2227 4.6719,-4.1094 1.707,-0.88281 3.6719,-1.3281 5.8906,-1.3281 3.9375,0 7.1641,1.5625 9.6875,4.6875 2.5195,3.125 3.7812,7.1484 3.7812,12.062 0,4.918 -1.2617,8.9375 -3.7812,12.062 -2.5234,3.125 -5.75,4.6875 -9.6875,4.6875 -2.2188,0 -4.1836,-0.44531 -5.8906,-1.3281 -1.7109,-0.88281 -3.2656,-2.2539 -4.6719,-4.1094 V -7e-4 H 4.9058 v -44.312 h 10.188 z"
         id="path11" />
    </symbol>
    <symbol
       id="c"
       overflow="visible">
      <path
         d="m 25.891,-44.312 v 6.6875 h -5.6406 c -1.4492,0 -2.4609,0.26172 -3.0312,0.78125 -0.5625,0.52344 -0.84375,1.4297 -0.84375,2.7188 v 2.2344 h 8.7188 v 7.2812 h -8.7188 v 24.609 h -10.188 v -24.609 h -5.0781 v -7.2812 h 5.0781 v -2.2344 c 0,-3.4688 0.96094,-6.0312 2.8906,-7.6875 1.9375,-1.6641 4.9375,-2.5 9,-2.5 z"
         id="path14" />
    </symbol>
    <symbol
       id="b"
       overflow="visible">
      <path
         d="M 36.969,-19.422 V 0 h -10.25 v -14.812 c 0,-2.7891 -0.0625,-4.707 -0.1875,-5.75 -0.125,-1.0391 -0.33984,-1.8125 -0.64062,-2.3125 -0.39844,-0.65625 -0.9375,-1.1719 -1.625,-1.5469 -0.6875,-0.375 -1.4648,-0.5625 -2.3281,-0.5625 -2.1367,0 -3.8125,0.82422 -5.0312,2.4688 -1.2109,1.6484 -1.8125,3.9219 -1.8125,6.8281 V 0.001 h -10.188 v -44.312 h 10.188 v 17.078 c 1.5391,-1.8516 3.1719,-3.2227 4.8906,-4.1094 1.7266,-0.88281 3.6406,-1.3281 5.7344,-1.3281 3.6875,0 6.4844,1.1328 8.3906,3.3906 1.9062,2.2617 2.8594,5.5469 2.8594,9.8594 z"
         id="path17" />
    </symbol>
    <symbol
       id="a"
       overflow="visible">
      <path
         d="m 4.9062,-31.891 h 10.188 V 0 H 4.9062 Z m 0,-12.422 h 10.188 v 8.3125 H 4.9062 Z"
         id="path20" />
    </symbol>
  </defs>
  <g
     id="g881"
     transform="translate(-112.92182,-42.88102)"
     style="fill:#ffffff;fill-opacity:1">
    <path
       d="m 585.08,176.87 c -2.332,-2.332 -5.9492,-2.332 -8.2852,0 -4.1992,4.1992 -8.6328,7.9336 -13.301,11.434 l -121.8,-121.92 c 3.5,-4.668 7.3516,-9.1016 11.434,-13.301 2.332,-2.332 2.332,-5.9492 0,-8.2852 -2.332,-2.332 -5.9492,-2.332 -8.2852,0 -14.934,14.934 -25.898,32.785 -32.785,52.035 -0.23438,0.46484 -0.35156,0.93359 -0.46484,1.3984 -4.7852,13.883 -7.3516,28.352 -7.6992,42.934 v 0.81641 c -0.35156,17.617 2.6836,35.234 9.1016,52.148 l -7.1172,-3.2656 c -11.785,-5.3672 -24.383,-8.75 -37.332,-9.918 -4.3164,-0.46484 -8.6328,-0.46484 -12.949,-0.35156 h -0.46484 c -14.352,0.46484 -28.352,3.9648 -41.301,10.035 -0.23438,0.11719 -0.58203,0.23438 -0.81641,0.35156 -11.082,5.25 -21.352,12.484 -30.332,21.465 0,0 -0.11719,0 -0.11719,0.11719 0,0 0,0.11719 -0.11719,0.11719 -8.9844,8.9844 -16.102,19.25 -21.465,30.215 -0.11719,0.35156 -0.35156,0.58203 -0.46484,0.93359 -6.0664,12.949 -9.4492,26.832 -9.918,41.066 v 0.69922 c -0.11719,4.3164 0,8.5156 0.35156,12.832 1.2852,12.949 4.5508,25.434 9.918,37.215 l 3.2656,7.1172 c -16.918,-6.418 -34.535,-9.332 -52.148,-9.1016 h -0.81641 c -14.582,0.35156 -29.168,2.918 -42.934,7.6992 -0.46484,0.11719 -0.93359,0.23438 -1.3984,0.46484 -19.25,6.8828 -37.102,17.852 -52.035,32.785 -2.332,2.332 -2.332,5.9492 0,8.2852 1.168,1.168 2.6836,1.75 4.082,1.75 1.3984,0 3.0352,-0.58203 4.082,-1.75 4.1992,-4.1992 8.6328,-7.9336 13.301,-11.434 l 121.92,121.92 c -3.5,4.668 -7.3516,9.1016 -11.434,13.301 -2.332,2.332 -2.332,5.9492 0,8.2852 1.168,1.168 2.6836,1.75 4.082,1.75 1.3984,0 3.0352,-0.58203 4.082,-1.75 14.934,-14.934 25.898,-32.785 32.785,-52.035 0.23438,-0.46484 0.35156,-0.93359 0.46484,-1.3984 4.7852,-13.883 7.3516,-28.352 7.6992,-42.934 v -0.81641 c 0.35156,-17.617 -2.6836,-35.234 -9.1016,-52.148 l 7.1172,3.2656 c 11.785,5.3672 24.383,8.75 37.332,9.918 3.2656,0.35156 6.5352,0.46484 9.8008,0.46484 0.93359,0 1.8672,-0.11719 2.8008,-0.11719 0.11719,0 0.23438,0.11719 0.46484,0.11719 0.23438,0 0.46484,-0.11719 0.69922,-0.11719 14.117,-0.58203 27.883,-3.9648 40.715,-9.918 0.46484,-0.11719 0.93359,-0.35156 1.2852,-0.58203 10.852,-5.25 21.117,-12.367 29.984,-21.234 0,0 0.11719,0 0.11719,-0.11719 0,-0.11719 0,-0.11719 0.11719,-0.11719 8.9844,-8.9844 16.102,-19.25 21.465,-30.215 0.11719,-0.35156 0.35156,-0.58203 0.46484,-0.93359 6.0664,-12.949 9.4492,-26.832 9.918,-41.066 v -0.58203 c 0.11719,-4.3164 0,-8.5156 -0.35156,-12.832 -1.2852,-12.949 -4.5508,-25.434 -9.918,-37.215 l -3.3828,-7.3516 c 16.102,6.1836 32.898,9.332 49.699,9.332 0.81641,0 1.5156,-0.11719 2.332,-0.11719 0.23437,0 0.35156,0.11719 0.58203,0.11719 0.35156,0 0.58203,-0.11719 0.93359,-0.23438 14.117,-0.35156 28.117,-2.918 41.418,-7.3516 0.93359,-0.11719 1.8672,-0.35156 2.6836,-0.93359 11.668,-4.1992 22.75,-9.918 33.133,-17.148 0.23437,-0.11719 0.46484,-0.23438 0.58203,-0.46484 v -0.11719 c 6.3008,-4.4336 12.367,-9.332 17.965,-14.934 2.6914,-2.3281 2.6914,-5.9453 0.35547,-8.2773 z m -317.57,180.02 3.8516,1.75 1.75,3.7344 c 6.0664,13.184 9.5664,27.184 10.852,41.184 l -57.516,-57.516 c 13.879,1.3984 27.879,4.8984 41.062,10.848 z m -2.4492,126.93 -119,-119 c 7,-4.3164 14.465,-7.9336 22.168,-10.852 l 107.68,107.68 c -2.918,7.7031 -6.418,15.168 -10.852,22.168 z m 14.934,-34.531 -99.285,-99.285 c 9.332,-2.5664 18.898,-3.9648 28.582,-4.3164 l 75.016,75.016 c -0.34766,9.5664 -1.7461,19.25 -4.3125,28.586 z m 19.016,-90.887 -18.898,-8.6328 -8.6328,-18.898 c -4.4336,-9.8008 -7.2344,-20.066 -8.5156,-30.684 l 66.734,66.734 c -10.621,-1.2852 -20.887,-4.0859 -30.688,-8.5195 z m 47.719,9.1016 -84.234,-84.234 c 0.58203,-9.332 2.4492,-18.551 5.7148,-27.301 l 105.82,105.82 c -8.7461,3.2695 -17.965,5.1367 -27.297,5.7188 z m 38.617,-10.852 -112,-112 c 3.6172,-6.8828 8.2852,-13.418 13.535,-19.367 l 117.83,117.83 c -5.9531,5.2539 -12.484,9.8047 -19.367,13.535 z m 27.648,-21.816 -117.83,-117.83 c 6.0664,-5.3672 12.484,-9.918 19.367,-13.535 l 112,112 c -3.6172,6.7695 -8.168,13.301 -13.535,19.367 z m 18.785,-30.797 -105.82,-105.82 c 8.75,-3.2656 17.965,-5.1328 27.301,-5.7148 l 84.234,84.234 c -0.58594,9.3281 -2.4531,18.547 -5.7188,27.297 z m 5.1328,-44.336 -66.734,-66.734 c 10.617,1.2852 20.883,4.082 30.684,8.5156 l 18.898,8.6328 8.6328,18.898 c 4.4336,9.8047 7.2344,20.07 8.5195,30.688 z m -4.4336,-56.582 -3.8516,-1.75 -1.75,-3.7344 c -6.0664,-13.184 -9.5664,-27.184 -10.852,-41.184 l 57.516,57.516 c -13.879,-1.3984 -27.879,-4.8984 -41.062,-10.848 z m 58.098,11.316 -75.016,-75.016 c 0.35156,-9.6836 1.8672,-19.25 4.3164,-28.582 l 99.402,99.164 c -9.3359,2.5664 -19.02,3.9648 -28.703,4.4336 z m 41.066,-8.5156 -107.68,-107.68 c 2.918,-7.6992 6.5352,-15.051 10.852,-22.168 l 119,119 c -7,4.4336 -14.465,7.9336 -22.168,10.852 z"
       id="path25"
       style="fill:#ffffff;fill-opacity:1" />
  </g>
</svg>
