<?xml version="1.0" encoding="UTF-8" standalone="no"?>
<svg
   xmlns:dc="http://purl.org/dc/elements/1.1/"
   xmlns:cc="http://creativecommons.org/ns#"
   xmlns:rdf="http://www.w3.org/1999/02/22-rdf-syntax-ns#"
   xmlns:svg="http://www.w3.org/2000/svg"
   xmlns="http://www.w3.org/2000/svg"
   xmlns:sodipodi="http://sodipodi.sourceforge.net/DTD/sodipodi-0.dtd"
   xmlns:inkscape="http://www.inkscape.org/namespaces/inkscape"
   width="748"
   height="748"
   version="1.1"
   viewBox="0 0 561.00001 561.00001"
   id="svg953"
   sodipodi:docname="Foobar.svg"
   inkscape:export-filename="/home/marek/git/UnCiv-Logicians/ImageSources/to_edit/Foobar.png"
   inkscape:export-xdpi="12.834225"
   inkscape:export-ydpi="12.834225"
   inkscape:version="1.0.2 (e86c870879, 2021-01-15)">
  <metadata
     id="metadata957">
    <rdf:RDF>
      <cc:Work
         rdf:about="">
        <dc:format>image/svg+xml</dc:format>
        <dc:type
           rdf:resource="http://purl.org/dc/dcmitype/StillImage" />
        <dc:title></dc:title>
      </cc:Work>
    </rdf:RDF>
  </metadata>
  <sodipodi:namedview
     pagecolor="#ffffff"
     bordercolor="#666666"
     borderopacity="1"
     objecttolerance="10"
     gridtolerance="10"
     guidetolerance="10"
     inkscape:pageopacity="0"
     inkscape:pageshadow="2"
     inkscape:window-width="1920"
     inkscape:window-height="990"
     id="namedview955"
     showgrid="false"
     units="px"
     inkscape:pagecheckerboard="true"
     inkscape:zoom="0.44410714"
     inkscape:cx="203.91498"
     inkscape:cy="521.13942"
     inkscape:window-x="0"
     inkscape:window-y="30"
     inkscape:window-maximized="1"
     inkscape:current-layer="svg953" />
  <defs
     id="defs875">
    <symbol
       id="f"
       overflow="visible">
      <path
         d="m 28.422,-1.7031 c -1.4688,0.76172 -3,1.3359 -4.5938,1.7188 -1.5859,0.38281 -3.2344,0.57812 -4.9531,0.57812 -5.1562,0 -9.2422,-1.4375 -12.25,-4.3125 -3.0117,-2.875 -4.5156,-6.7812 -4.5156,-11.719 0,-4.9378 1.5039,-8.8438 4.5156,-11.719 3.0078,-2.8828 7.0938,-4.3281 12.25,-4.3281 1.7188,0 3.3672,0.19531 4.9531,0.57812 1.5938,0.38672 3.125,0.96094 4.5938,1.7188 v 6.4062 c -1.4805,-1.0078 -2.9375,-1.75 -4.375,-2.2188 -1.4375,-0.4688 -2.9492,-0.70312 -4.5312,-0.70312 -2.8438,0 -5.0859,0.91406 -6.7188,2.7344 -1.625,1.8242 -2.4375,4.3359 -2.4375,7.5312 0,3.1992 0.8125,5.7109 2.4375,7.5312 1.6328,1.8242 3.875,2.7344 6.7188,2.7344 1.582,0 3.0938,-0.23438 4.5312,-0.70312 1.4375,-0.47656 2.8945,-1.2188 4.375,-2.2188 z"
         id="path824" />
    </symbol>
    <symbol
       id="d"
       overflow="visible">
      <path
         d="m 20.797,-16.875 c -0.64844,-0.3125 -1.293,-0.53516 -1.9375,-0.67188 -0.64844,-0.14453 -1.293,-0.21875 -1.9375,-0.21875 -1.9062,0 -3.375,0.60938 -4.4062,1.8281 -1.0234,1.2188 -1.5312,2.9688 -1.5312,5.25 V 4.7e-4 H 3.5627 v -23.203 h 7.4219 v 3.8125 c 0.94531,-1.5195 2.0352,-2.6289 3.2656,-3.3281 1.2383,-0.69531 2.7227,-1.0469 4.4531,-1.0469 0.25,0 0.51953,0.01172 0.8125,0.03125 0.28906,0.02344 0.71094,0.07031 1.2656,0.14062 z"
         id="path827" />
    </symbol>
    <symbol
       id="b"
       overflow="visible">
      <path
         d="m 26.719,-11.656 v 2.1094 H 9.391 c 0.17578,1.7422 0.80078,3.0469 1.875,3.9219 1.082,0.86719 2.5859,1.2969 4.5156,1.2969 1.5625,0 3.1602,-0.22656 4.7969,-0.6875 1.6328,-0.46875 3.3164,-1.1719 5.0469,-2.1094 v 5.7188 c -1.75,0.65625 -3.5078,1.1523 -5.2656,1.4844 -1.75,0.34375 -3.5078,0.51562 -5.2656,0.51562 -4.1992,0 -7.4609,-1.0625 -9.7812,-3.1875 -2.3242,-2.1328 -3.4844,-5.1289 -3.4844,-8.9844 0,-3.7812 1.1406,-6.7539 3.4219,-8.9219 2.2812,-2.1758 5.4258,-3.2656 9.4375,-3.2656 3.6445,0 6.5625,1.1016 8.75,3.2969 2.1875,2.1992 3.2812,5.1367 3.2812,8.8125 z m -7.625,-2.4688 c 0,-1.4062 -0.41406,-2.5391 -1.2344,-3.4062 -0.8125,-0.86328 -1.8867,-1.2969 -3.2188,-1.2969 -1.4375,0 -2.6055,0.40625 -3.5,1.2188 -0.89844,0.80469 -1.4531,1.9648 -1.6719,3.4844 z"
         id="path830" />
    </symbol>
    <symbol
       id="c"
       overflow="visible">
      <path
         d="m 13.969,-10.438 c -1.5547,0 -2.7188,0.26562 -3.5,0.79688 -0.78125,0.52344 -1.1719,1.293 -1.1719,2.3125 0,0.9375 0.3125,1.6719 0.9375,2.2031 0.63281,0.53125 1.5078,0.79688 2.625,0.79688 1.3945,0 2.5664,-0.5 3.5156,-1.5 0.95703,-1 1.4375,-2.2539 1.4375,-3.7656 v -0.84375 z m 11.328,-2.7969 V -9e-4 h -7.4844 v -3.4375 c -0.99219,1.4062 -2.1094,2.4336 -3.3594,3.0781 -1.2422,0.63281 -2.75,0.95312 -4.5312,0.95312 -2.4062,0 -4.3594,-0.69531 -5.8594,-2.0938 -1.4922,-1.4062 -2.2344,-3.2227 -2.2344,-5.4531 0,-2.7266 0.92969,-4.7266 2.7969,-6 1.875,-1.2695 4.8125,-1.9062 8.8125,-1.9062 h 4.375 v -0.57812 c 0,-1.1641 -0.46484,-2.0195 -1.3906,-2.5625 -0.92969,-0.55078 -2.3711,-0.82812 -4.3281,-0.82812 -1.5859,0 -3.0625,0.16406 -4.4375,0.48438 -1.3672,0.3125 -2.6328,0.78906 -3.7969,1.4219 v -5.6562 c 1.582,-0.38281 3.1758,-0.67578 4.7812,-0.875 1.6016,-0.20703 3.2031,-0.3125 4.7969,-0.3125 4.1875,0 7.207,0.82812 9.0625,2.4844 1.8633,1.6484 2.7969,4.3281 2.7969,8.0469 z"
         id="path833" />
    </symbol>
    <symbol
       id="a"
       overflow="visible">
      <path
         d="m 11.656,-29.781 v 6.5781 h 7.6562 v 5.3125 H 11.656 v 9.8281 c 0,1.0859 0.21094,1.8203 0.64062,2.2031 0.4375,0.375 1.2891,0.5625 2.5625,0.5625 h 3.7969 V 2e-4 h -6.3594 c -2.9297,0 -5,-0.60938 -6.2188,-1.8281 -1.2188,-1.2266 -1.8281,-3.3047 -1.8281,-6.2344 v -9.8281 h -3.6875 v -5.3125 h 3.6875 v -6.5781 z"
         id="path836" />
    </symbol>
    <symbol
       id="j"
       overflow="visible">
      <path
         d="m 19.344,-19.797 v -12.438 h 7.4531 V -0.001 H 19.344 v -3.3594 c -1.0234,1.3672 -2.1484,2.3672 -3.375,3 -1.2305,0.63281 -2.6523,0.95312 -4.2656,0.95312 -2.8555,0 -5.2031,-1.1328 -7.0469,-3.4062 -1.8359,-2.2695 -2.75,-5.1914 -2.75,-8.7656 0,-3.5703 0.91406,-6.4922 2.75,-8.7656 1.8438,-2.2812 4.1914,-3.4219 7.0469,-3.4219 1.6016,0 3.0195,0.32422 4.25,0.96875 1.2383,0.64844 2.3672,1.6484 3.3906,3 z m -4.8906,15.016 c 1.5938,0 2.8047,-0.57812 3.6406,-1.7344 0.83203,-1.1641 1.25,-2.8516 1.25,-5.0625 0,-2.207 -0.41797,-3.8906 -1.25,-5.0469 -0.83594,-1.1641 -2.0469,-1.75 -3.6406,-1.75 -1.5742,0 -2.7773,0.58594 -3.6094,1.75 -0.83594,1.1562 -1.25,2.8398 -1.25,5.0469 0,2.2109 0.41406,3.8984 1.25,5.0625 0.83203,1.1562 2.0352,1.7344 3.6094,1.7344 z"
         id="path839" />
    </symbol>
    <symbol
       id="i"
       overflow="visible">
      <path
         d="m 15.906,-4.7812 c 1.5938,0 2.8047,-0.57812 3.6406,-1.7344 0.83203,-1.1641 1.25,-2.8516 1.25,-5.0625 0,-2.207 -0.41797,-3.8906 -1.25,-5.0469 -0.83594,-1.1641 -2.0469,-1.75 -3.6406,-1.75 -1.5859,0 -2.8047,0.58594 -3.6562,1.75 -0.84375,1.168 -1.2656,2.8516 -1.2656,5.0469 0,2.1992 0.42188,3.8828 1.2656,5.0469 0.85156,1.168 2.0703,1.75 3.6562,1.75 z m -4.9219,-15.016 c 1.0195,-1.3516 2.1484,-2.3516 3.3906,-3 1.2383,-0.64453 2.6641,-0.96875 4.2812,-0.96875 2.8633,0 5.2109,1.1406 7.0469,3.4219 1.832,2.2734 2.75,5.1953 2.75,8.7656 0,3.5742 -0.91797,6.4961 -2.75,8.7656 -1.8359,2.2734 -4.1836,3.4062 -7.0469,3.4062 -1.6172,0 -3.043,-0.32031 -4.2812,-0.95312 -1.2422,-0.64453 -2.3711,-1.6445 -3.3906,-3 v 3.3594 H 3.5622 v -32.234 h 7.4219 z"
         id="path842" />
    </symbol>
    <symbol
       id="h"
       overflow="visible">
      <path
         d="m 0.51562,-23.203 h 7.4219 l 6.2344,15.75 5.2969,-15.75 h 7.4219 l -9.7656,25.406 c -0.98047,2.5703 -2.1211,4.375 -3.4219,5.4062 -1.3047,1.0312 -3.0273,1.5469 -5.1719,1.5469 h -4.2812 v -4.875 h 2.3125 c 1.2578,0 2.1758,-0.19922 2.75,-0.59375 0.57031,-0.39844 1.0156,-1.1172 1.3281,-2.1562 l 0.21875,-0.64062 z"
         id="path845" />
    </symbol>
    <symbol
       id="g"
       overflow="visible">
      <path
         d="m 3.5625,-23.203 h 7.4219 V 0 H 3.5625 Z m 0,-9.0312 h 7.4219 v 6.0469 H 3.5625 Z"
         id="path848" />
    </symbol>
    <symbol
       id="q"
       overflow="visible">
      <path
         d="m 0.64062,-23.203 h 7.4219 l 5.7812,16.031 5.75,-16.031 h 7.4375 L 17.89062,0 h -8.1406 z"
         id="path851" />
    </symbol>
    <symbol
       id="p"
       overflow="visible">
      <path
         d="m 25.422,-29.953 v 6.5469 c -1.6992,-0.75781 -3.3594,-1.332 -4.9844,-1.7188 -1.6172,-0.38281 -3.1406,-0.57812 -4.5781,-0.57812 -1.8984,0 -3.3047,0.26562 -4.2188,0.79688 -0.90625,0.52344 -1.3594,1.3359 -1.3594,2.4375 0,0.82422 0.30469,1.4688 0.92188,1.9375 0.61328,0.46094 1.7266,0.85547 3.3438,1.1875 l 3.3906,0.6875 c 3.4375,0.6875 5.8789,1.7344 7.3281,3.1406 1.457,1.4062 2.1875,3.4141 2.1875,6.0156 0,3.4062 -1.0156,5.9453 -3.0469,7.6094 -2.0234,1.6562 -5.1094,2.4844 -9.2656,2.4844 -1.9609,0 -3.9297,-0.1875 -5.9062,-0.5625 -1.9688,-0.36328 -3.9453,-0.91016 -5.9219,-1.6406 v -6.7344 c 1.9766,1.0547 3.8906,1.8438 5.7344,2.375 1.8438,0.5312 3.6172,0.79688 5.3281,0.79688 1.7383,0 3.0703,-0.28906 4,-0.875 0.92578,-0.58203 1.3906,-1.4102 1.3906,-2.4844 0,-0.96875 -0.32031,-1.7109 -0.95312,-2.2344 -0.625,-0.53125 -1.875,-1.0039 -3.75,-1.4219 l -3.0938,-0.67188 c -3.0938,-0.66406 -5.3555,-1.7227 -6.7812,-3.1719 -1.4297,-1.4453 -2.1406,-3.3984 -2.1406,-5.8594 0,-3.082 0.99219,-5.4531 2.9844,-7.1094 1.9883,-1.6562 4.8477,-2.4844 8.5781,-2.4844 1.6953,0 3.4414,0.13281 5.2344,0.39062 1.7891,0.25 3.6484,0.63281 5.5781,1.1406 z"
         id="path854" />
    </symbol>
    <symbol
       id="e"
       overflow="visible">
      <path
         d="m 3.5625,-32.234 h 7.4219 V 0 H 3.5625 Z"
         id="path857" />
    </symbol>
    <symbol
       id="o"
       overflow="visible">
      <path
         d="m 18.828,-32.234 v 4.875 h -4.0938 c -1.0547,0 -1.7891,0.19531 -2.2031,0.57812 -0.41797,0.375 -0.625,1.0312 -0.625,1.9688 v 1.6094 h 6.3438 v 5.3125 H 11.9061 V 8.2e-4 H 4.4999 v -17.891 H 0.8124 v -5.3125 h 3.6875 v -1.6094 c 0,-2.5312 0.70312,-4.3984 2.1094,-5.6094 1.4062,-1.207 3.5859,-1.8125 6.5469,-1.8125 z"
         id="path860" />
    </symbol>
    <symbol
       id="n"
       overflow="visible">
      <path
         d="M 26.891,-14.125 V 0 h -7.4688 v -10.766 c 0,-2.0312 -0.04687,-3.4258 -0.14062,-4.1875 -0.08594,-0.75781 -0.23438,-1.3203 -0.45312,-1.6875 -0.29297,-0.47656 -0.6875,-0.85156 -1.1875,-1.125 -0.49219,-0.26953 -1.0547,-0.40625 -1.6875,-0.40625 -1.5547,0 -2.7734,0.60156 -3.6562,1.7969 -0.875,1.1992 -1.3125,2.8555 -1.3125,4.9688 v 11.406 h -7.4219 v -32.234 h 7.4219 v 12.438 c 1.1133,-1.3516 2.2969,-2.3516 3.5469,-3 1.2578,-0.64453 2.6484,-0.96875 4.1719,-0.96875 2.6758,0 4.707,0.82422 6.0938,2.4688 1.3945,1.6484 2.0938,4.0391 2.0938,7.1719 z"
         id="path863" />
    </symbol>
    <symbol
       id="m"
       overflow="visible">
      <path
         d="m 3.8906,-30.922 h 8.9062 l 11.25,21.203 v -21.203 h 7.5625 V 0 h -8.9062 l -11.25,-21.219 V 0 H 3.8906 Z"
         id="path866" />
    </symbol>
    <symbol
       id="l"
       overflow="visible">
      <path
         d="m 3.8906,-30.922 h 13.234 c 3.9375,0 6.957,0.875 9.0625,2.625 2.1016,1.7422 3.1562,4.2266 3.1562,7.4531 0,3.25 -1.0547,5.75 -3.1562,7.5 -2.1055,1.7422 -5.125,2.6094 -9.0625,2.6094 h -5.25 V -5e-4 H 3.8902 Z m 7.9844,5.7812 v 8.625 h 4.4062 c 1.5391,0 2.7344,-0.375 3.5781,-1.125 0.8437,-0.75 1.2656,-1.8164 1.2656,-3.2031 0,-1.375 -0.42188,-2.4297 -1.2656,-3.1719 -0.84375,-0.75 -2.0391,-1.125 -3.5781,-1.125 z"
         id="path869" />
    </symbol>
    <symbol
       id="k"
       overflow="visible">
      <path
         d="m 3.5625,-23.203 h 7.4219 v 22.781 c 0,3.1133 -0.75,5.4883 -2.25,7.125 C 7.2422,8.3358 5.0821,9.1561 2.25,9.1561 h -3.6562 v -4.875 h 1.2812 c 1.4062,0 2.3672,-0.32031 2.8906,-0.95312 0.53125,-0.63672 0.79688,-1.8867 0.79688,-3.75 z m 0,-9.0312 h 7.4219 v 6.0469 H 3.5625 Z"
         id="path872" />
    </symbol>
  </defs>
  <g
     id="g8861"
     transform="translate(-69.497835,0.50316259)"
     style="fill:#ffffff;fill-opacity:1">
    <path
       d="m 506.22,420.55 c 23.809,-7.3984 34.535,-25.523 36.418,-68.684 1.7734,-40.191 -14.129,-43 -29.113,-45.48 37.52,-2.1484 56.109,-16.395 58.57,-72.512 2.0352,-46.488 -16.504,-45.945 -65.91,-49.305 23.824,-7.3906 34.566,-25.516 36.449,-68.691 0.67188,-15.23 -0.3125,-31.988 -12.676,-40.785 -24.469,-17.41 -333.64,-11.395 -336.74,-11.309 -50.594,1.5195 -68.016,17.48 -68.992,63.254 -1.4609,68.133 34.516,61.117 59.336,61.047 -44.445,18.156 -33.047,102.39 -10.895,113.27 -13.934,1.9688 -27.262,6.4219 -36.383,17.352 -16.035,19.227 -15.707,69.609 -3.0469,89.785 7.2188,11.523 9.4609,15.043 49.508,15.977 -38.223,16.344 -33.066,80.98 -19.516,102.9 12.746,20.668 8.3594,14.457 337.69,15.359 45.777,0 68.438,-10.379 71.172,-72.859 2.043,-46.516 -16.539,-45.965 -65.871,-49.316 z m 52.59,82.922 -0.90625,-0.90625 1.5859,-1.5859 c -0.22266,0.83203 -0.44141,1.6875 -0.67969,2.4922 z m -0.043,-43.848 -2.3164,2.3164 c -0.91797,-0.91797 -4.3281,-4.5312 -5.4219,-4.9883 1.0938,-0.45703 3.2148,-2.7812 4.1328,-3.6992 1.0078,1.0078 3.3359,3.7656 4.6406,3.7656 1.875,0 2.832,-2.2812 1.5,-3.6211 l -3.1406,-3.1406 3.5391,-3.5391 c 2.0977,6.6172 2.2578,14.695 1.9336,22.41 l -4.1836,-4.1836 2.3164,-2.3164 c 1.9727,-1.9766 -1.0156,-5 -3,-3.0039 z m 4.668,12.812 c -0.28906,5.3359 -0.70312,10.301 -1.2891,14.789 l -12.488,-12.488 6.7891,-6.7969 c 1.8125,1.8047 4.875,5.9102 6.9883,4.4961 z m -183.33,-58.25 1.8242,1.832 c -1.2227,0 -2.4336,-0.008 -3.6484,-0.008 z m 20.379,-3.6562 4.582,4.582 -1.0195,1.0195 c -2.9609,-0.0352 -6,-0.0508 -9.0859,-0.0664 z m 41.645,-9.75 c 0.19531,1.2891 5.3867,6.0938 6.3125,7.0156 l -8.9023,8.9023 c -2.793,-0.0508 -7.3828,-0.12891 -10.344,-0.17969 l -1.4102,-1.4102 z m 32.691,7.0156 9.8008,-9.8008 7.457,7.457 -3.9883,3.9883 c -1.3398,1.3398 -0.375,3.6211 1.5,3.6211 1.3477,0 4.5039,-3.6328 5.4805,-4.6055 l 5.0391,5.0391 c -9.0625,2.2812 -20.348,3.1719 -34.34,3.3594 l 6.0508,-6.0508 c 2.1875,2.1875 4.8789,6.043 6.957,3.9609 2.0859,-2.0898 -1.7695,-4.7773 -3.957,-6.9688 z m 19.348,-19.344 c 0.60938,1.0273 6.4727,6.7461 7.3125,7.5859 l -6.4062,6.4062 -7.4492,-7.4492 z m 10.18,23.91 c -0.25391,-1.2656 -5.3359,-5.9805 -6.2695,-6.9141 l 6.4062,-6.4062 8.9922,8.9922 c -2.7383,1.707 -5.7109,3.1992 -9.1289,4.3281 z m -42.723,2.6211 -7.1875,-7.1875 7.1953,-7.1953 7.1875,7.1875 z m -4.0703,1.918 c -3.8359,-0.008 -7.8984,-0.0508 -12.109,-0.10938 l 6,-6 z m -97.535,-0.91406 1.9531,-1.9531 c -0.39062,0.62109 -0.39844,1.2969 -0.0859,1.9531 z m 157,-10.414 -9.5352,-9.5352 10.59,-10.59 c 1.1367,1.1445 6.9141,7.5078 8.4922,7.3633 -2.4688,5.2812 -5.582,9.5117 -9.5469,12.762 z m 17.285,-59.129 c -1.1211,0.41406 -4.8633,4.3867 -5.7852,5.3125 l -3.793,-3.793 9.3086,-9.3086 c 0.19922,2.5469 0.29297,5.1602 0.26953,7.7891 z m -0.1875,5.7109 c -0.0781,1.7227 -0.21094,3.25 -0.32422,4.8789 l -2.2812,-2.2812 z m -0.64453,9.8398 c -0.23828,2.8086 -0.57031,5.3867 -0.89844,7.918 l -8.1016,-8.1016 4.0547,-4.0547 c 0.95703,0.96484 3.707,4.0547 4.9453,4.2383 z m -193.01,-63.703 c -1.3086,0 -2.7148,0.008 -3.9961,0.008 l 2.4766,-2.4766 c -0.0273,1.1523 0.70313,1.6445 1.5195,2.4688 z m 18.375,-3.8164 3.7578,3.7578 c -2.4961,0.008 -5.1094,0.008 -7.5352,0.0156 z m 57.742,-5.3789 c 0.67969,0.76172 8.2812,8.3398 9.0039,9.0625 -5.3359,0 -10.488,0 -15.594,0.008 l -1.2383,-1.2383 z m 81.191,-13.34 8.8164,8.8164 -7.2188,7.2188 -8.8164,-8.8242 z m 62.871,-29.672 c 1.875,0 2.832,-2.2812 1.5,-3.6211 l -1.9414,-1.9414 3.1836,-3.1719 c -0.52734,8.9844 -1.4336,16.766 -2.8438,23.359 l -10.258,-10.258 6.9219,-6.9219 c 0.96094,0.95312 2.1836,2.5547 3.4375,2.5547 z m 3.1133,-18.359 -5.1602,-5.1602 4.625,-4.625 c 0.39844,3.1562 0.54297,6.457 0.53516,9.7852 z m -4.2578,37.266 c -1.332,5.0078 -2.9609,9.375 -4.9961,13.031 l -7.5078,-7.5078 8.6797,-8.6797 c 0.94531,0.95703 2.6016,2.9336 3.8242,3.1562 z m -7.1875,16.391 c -1.7656,2.5195 -3.7773,4.6758 -6.0156,6.5352 l -8.3477,-8.3477 6.0508,-6.0508 c 0.87109,0.87109 7.1602,7.4062 8.3125,7.8633 z m -17.375,-4.8203 -7.168,-7.168 6.0508,-6.0508 7.168,7.168 z m -2.9961,3.0039 c -2.3516,2.3516 -7.0938,5.7109 -4.9023,7.8984 2.1992,2.1992 5.5508,-2.5547 7.8984,-4.9023 l 7.875,7.875 c -4.9648,3.1133 -10.938,5.1094 -18.082,6.2773 l -12.141,-12.141 12.184,-12.184 z m -12.508,17.852 c -4.293,0.45703 -8.9609,0.69531 -14.016,0.77344 -0.50781,-1.0195 -2.1992,-2.5469 -3.0469,-3.3945 l 7.2188,-7.2188 z m -22.883,-2.4414 c -0.89062,1.7461 0.53516,3.7266 2.6562,2.6562 l 0.62109,0.62109 c -6.9648,-0.0156 -13.652,-0.0352 -20.312,-0.043 l -2.0859,-2.0859 10.141,-10.141 z m -26.762,3.2148 c -5.8711,-0.008 -11.539,-0.0156 -17.172,-0.0156 l -1.0781,-1.0781 10.43,-10.43 9.4531,9.4531 c -0.9375,0.93359 -1.2344,1.0781 -1.6328,2.0703 z m -25.328,-0.0234 h -11.531 l 6.8398,-6.8398 5.7695,5.7695 z m -99.621,-119.29 1.043,1.043 c -0.69531,0 -1.3828,0 -2.0781,-0.008 z m 18.5,-2.1484 c 0.64453,0.94922 2.2227,2.4336 3.0391,3.25 -2.0859,-0.008 -4.1758,-0.008 -6.2695,-0.0156 z m 16.824,-0.47656 3.7734,3.7773 c -2.4961,-0.008 -5.0156,-0.0156 -7.5273,-0.0273 z m 21.023,-1.168 5.0898,5.0898 c -3.2852,-0.043 -6.6445,-0.0664 -10.078,-0.0937 z m 21.309,-2.6328 7.8047,7.8047 -0.28906,0.28906 c -0.34766,-0.008 -8.7891,-0.16016 -15.34,-0.26172 z m 35.32,-13.719 8.6797,8.6797 -9.2656,9.2656 -8.6719,-8.6797 z m 20.832,14.832 -6.1523,-6.1523 10.727,-10.727 11.012,11.012 -12.523,12.531 c -6.7383,0.48438 -14.262,0.67969 -22.715,0.67969 l 10.504,-10.504 6.1523,6.1523 c 0.83203,0.83203 2.1719,0.83203 3.0039,0 0.82422,-0.82031 0.82422,-2.1602 -0.008,-2.9922 z m 15.086,-27.391 11.012,11.012 -7.5078,7.5078 -11.012,-11.012 z m 3.5039,24.531 5.9805,5.9805 c -4.3945,1.3477 -9.3242,2.3242 -14.934,2.9688 z m -43,8.9688 -1.2148,1.2148 c -5.1172,-0.043 -10.57,-0.11719 -16.316,-0.21875 l -0.40625,-0.40625 9.2656,-9.2656 z m 53.352,-4.6094 -7.3555,-7.3555 7.5078,-7.5078 c 1.0703,1.0703 6.5859,7.0664 7.9492,7.0664 1.875,0 2.832,-2.2812 1.5,-3.6211 l -6.4492,-6.4492 8.6797,-8.6797 c 1.3164,1.3164 6.1836,6.9336 8,6.543 -4.1523,9.9688 -10.543,16.18 -19.832,20.004 z m -374.87,-47.844 c 0.78906,-36.765997 9.75,-53.421997 60.77,-54.956997 60.344,-1.8242 313.52,-3.0977 331.55,9.7305 6.7031,4.7695 8.7812,13.754 9.1875,23.351997 l -8.9258,-8.933597 c -1.9688,-1.9688 -4.9883,1.0078 -3.0039,3.0039 0.98438,0.984377 10.613,11.132997 12.008,11.140997 -0.0586,5.3945 -0.19531,5.3281 -0.375,8.5 l -10.973,-10.973 c -1.9688,-1.9688 -4.9883,1.0078 -3.0039,3.0039 0.89844,0.89844 12.395,12.727 13.637,13.051 -0.3125,4.0898 -0.72266,7.9258 -1.2305,11.453 l -12.32,-12.32 c -1.9688,-1.9688 -4.9883,1.0078 -3.0039,3.0039 0.88281,0.88281 13.355,13.609 14.516,14.059 -0.78906,4.2422 -1.7734,8.0703 -2.9531,11.48 -0.0508,-0.0664 -0.0352,-0.16016 -0.0937,-0.21875 l -16.641,-16.641 c -0.83203,-0.83203 -2.1719,-0.83203 -3.0039,0 -0.832,0.83203 -0.83203,2.1719 0,3.0039 l 7.5508,7.5508 -8.6797,8.6797 -11.012,-11.012 6.6523,-6.6523 c 1.9688,-1.9688 -1.0078,-4.9883 -3.0039,-3.0039 l -17.164,17.164 c -2.3164,-2.3164 -5.4805,-6.7812 -7.6289,-4.6328 -2.1484,2.1484 2.3086,5.3125 4.6328,7.6289 l -10.727,10.727 -8.6797,-8.6797 5.9062,-5.9062 c 1.9688,-1.9688 -1.0078,-4.9883 -3.0039,-3.0039 l -6.043,6.043 c -1.9609,-1.1523 -3.8867,0.76172 -2.7227,2.7227 l -9.4023,9.4023 c -2.3516,-2.3516 -5.7266,-7.1172 -7.9258,-4.9219 -2.1992,2.1992 2.5703,5.5742 4.9219,7.9258 l -9.2656,9.2656 -7.8047,-7.8047 13.484,-13.492 c 1.9688,-1.9688 -1.0078,-4.9883 -3.0039,-3.0039 l -13.746,13.746 c -1.7656,-0.57812 -3.0625,0.71094 -2.4844,2.4844 l -9.2227,9.2305 -6.3477,-6.3477 7.6016,-7.6016 c 0.83203,-0.83203 0.83203,-2.1719 0,-3.0039 -0.83203,-0.83203 -2.1719,-0.83203 -3.0039,0 l -18.566,18.566 h -0.27344 l -6.7969,-6.7969 8.3477,-8.3477 c 1.9688,-1.9688 -1.0078,-4.9883 -3.0039,-3.0039 -0.92578,0.92578 -16.547,16.164 -16.758,17.453 -0.84766,-0.84766 -4.6758,-4.7773 -5.625,-5.4141 l 1.0508,-1.0508 c 1.9688,-1.9688 -1.0078,-4.9883 -3.0039,-3.0039 l -10.055,10.055 c -0.73828,0 -1.4844,0 -2.2227,-0.008 l -4.0547,-4.0547 c 2.0117,-2.0117 5.2344,-4.2422 3.2422,-6.2383 -0.83203,-0.83203 -2.1719,-0.83203 -3.0039,0 l -10.258,10.258 h -0.55859 l -4.0547,-4.0547 c -1.9688,-1.9688 -4.9883,1.0078 -3.0039,3.0039 l 1.1055,1.0508 c -56.992,-0.15234 -111.98,-0.28125 -137.42,-0.28125 -35.348,0 -62.414,8.7422 -61.109,-52.375 z m 39.551,78.934 c 11.344,-13.602 32.105,-15.332 50.68,-15.891 62.602,-1.8828 313.26,-3.2852 331.56,9.7305 4.1484,2.9531 6.4727,7.5508 7.7812,12.879 l -6.6875,6.6875 c -2.1055,-2.1055 -4.4297,-5.4375 -6.4297,-3.4375 -2.0039,2.0039 1.332,4.3281 3.4375,6.4297 l -4.4648,4.4648 c -1.3398,1.3398 -0.375,3.6211 1.5,3.6211 1.3672,0 4.9805,-4.1055 5.9648,-5.0898 l 5.3047,5.3047 c 0.71094,0.71094 1.7812,0.90625 2.8008,0.0859 0,0.10156 -0.008,0.21094 -0.008,0.3125 -0.95703,0.63672 -5.6016,5.3867 -6.4844,6.2695 l -6.2109,-6.2109 c -1.9688,-1.9688 -4.9883,1.0078 -3.0039,3.0039 l 6.2109,6.2109 -6.9336,6.9219 c -1.5625,-1.5625 -2.875,-3.207 -4.5391,-1.543 -0.83203,0.83203 -0.83203,2.1719 0,3.0039 l 9.9375,9.9258 -8.6797,8.6797 -7.168,-7.168 1.2227,-1.2227 c 1.9688,-1.9688 -1.0078,-4.9883 -3.0039,-3.0039 l -1.2227,1.2227 c -2.4688,-2.4688 -5.4727,0.52734 -3.0039,3.0039 l -6.0508,6.0508 -6.4727,-6.4727 c -1.9688,-1.9688 -4.9883,1.0078 -3.0039,3.0039 l 6.4727,6.4727 -12.184,12.184 -8.8164,-8.8164 5.2773,-5.2773 c 1.9688,-1.9688 -1.0078,-4.9883 -3.0039,-3.0039 l -5.3125,5.3125 c -2.0039,-1.7578 -4.6836,0.93359 -2.9258,2.9258 l -7.2539,7.2539 -7.2109,-7.2109 c -0.83203,-0.83203 -2.1719,-0.83203 -3.0039,0 -0.832,0.83203 -0.83203,2.1719 0,3.0039 l 7.2109,7.2109 -10.141,10.141 -9.4531,-9.4531 12.668,-12.668 c 1.9688,-1.9688 -1.0078,-4.9883 -3.0039,-3.0039 l -12.668,12.668 c -1.8906,-1.8906 -3.75,-4.5312 -5.6406,-2.6484 -1.8906,1.8906 0.75391,3.75 2.6484,5.6406 l -10.43,10.43 -5.7695,-5.7695 5.8203,-5.8203 c 1.9688,-1.9688 -1.0078,-4.9883 -3.0039,-3.0039 l -5.8203,5.8203 c -1.5273,-1.5273 -2.8242,-3.1133 -4.4648,-1.4688 -1.6445,1.6445 -0.0586,2.9453 1.4688,4.4648 l -7.5078,7.5078 c -0.72266,-0.72266 -8.9766,-9.0039 -9.7422,-9.6797 l 6.3789,-6.3789 c 1.9688,-1.9688 -1.0078,-4.9883 -3.0039,-3.0039 l -17.156,17.156 -7.1523,-7.1523 c -0.83203,-0.83203 -2.1719,-0.83203 -3.0039,0 -0.832,0.83203 -0.83203,2.1719 0,3.0039 l 7.1523,7.1523 -1.2461,1.2461 c -4.8867,0.008 -9.5859,0.008 -14.273,0.0156 l -2.1992,-2.1992 14.73,-14.73 c 1.9688,-1.9688 -1.0078,-4.9883 -3.0039,-3.0039 l -14.73,14.73 c -2.043,-2.043 -4.293,-5.293 -6.2969,-3.293 -1.9922,1.9922 1.2539,4.25 3.293,6.2969 l -2.2148,2.2148 c -2.9375,0.008 -5.6914,0.008 -8.5352,0.0156 -0.57812,-1.043 -5.5898,-5.8984 -6.4414,-6.7461 l 12.449,-12.449 c 1.9688,-1.9688 -1.0078,-4.9883 -3.0039,-3.0039 l -12.711,12.711 c -1.7578,-0.55859 -3.0391,0.71094 -2.4766,2.4766 l -7.0508,7.0508 c -0.88281,0 -1.7305,0 -2.6055,0.008 -1.0352,-1.0352 -4.0469,-4.5391 -5.4492,-4.5039 2.207,-2.207 6.1328,-4.957 4.0469,-7.043 -0.83203,-0.83203 -2.1719,-0.83203 -3.0039,0 l -11.168,11.168 c -1.4102,-1.4102 -2.6211,-2.75 -4.1836,-1.1875 -0.44922,0.44922 -0.60156,1.043 -0.57031,1.6289 -148.31,0.42578 -148.38,0.42578 -155.66,-11.402 -12.758,-20.621 -10.695,-65.727 1.8477,-80.762 z m -32.168,197.29 c -10.504,-16.75 -10.879,-63.008 2.7148,-79.309 11.344,-13.602 32.105,-15.332 50.68,-15.891 62.551,-1.875 313.24,-3.2852 331.55,9.7422 4.7773,3.3945 7.1797,8.9531 8.3242,15.324 l -11.641,11.641 -1.375,-1.375 c -1.9688,-1.9688 -4.9883,1.0078 -3.0039,3.0039 l 1.4609,1.4609 c -1.4258,1.9258 0.75391,4.3789 2.832,2.832 l 3.8789,3.8789 -4.0547,4.0547 c -1.6211,-1.6211 -2.9609,-3.3086 -4.6328,-1.6367 -1.6719,1.6719 0.0156,3.0117 1.6367,4.6328 l -4.7695,4.7695 c -1.3398,1.3398 -0.375,3.6211 1.5,3.6211 1.3672,0 5.2695,-4.3867 6.2695,-5.3867 l 8.4766,8.4766 c 0.86719,0.86719 1.4102,0.62109 2.1719,0.34766 -0.99219,6.1602 -2.3438,11.43 -4.082,15.984 -0.64453,-0.94922 -6.0742,-6.2773 -6.957,-7.1602 l 5.0664,-5.0664 c 1.9688,-1.9688 -1.0078,-4.9883 -3.0039,-3.0039 l -5.0664,5.0664 -6.0742,-6.0742 c -0.83203,-0.83203 -2.1719,-0.83203 -3.0039,0 -0.83203,0.83203 -0.83203,2.1719 0,3.0039 l 6.0742,6.0742 -10.59,10.59 c -0.84766,-0.84766 -6.5664,-6.7109 -7.5938,-7.3125 l 9.9258,-9.9258 c 1.9688,-1.9688 -1.0078,-4.9883 -3.0039,-3.0039 l -19.191,19.191 -8.6875,-8.6875 c -0.83203,-0.83203 -2.1719,-0.83203 -3.0039,0 -0.83203,0.83203 -0.83203,2.1719 0,3.0039 l 8.6875,8.6875 -9.8008,9.8008 -7.1875,-7.1875 6.4141,-6.4141 c 1.9688,-1.9688 -1.0078,-4.9883 -3.0039,-3.0039 l -6.4141,6.4141 c -2.1992,-2.1992 -4.9023,-6.0664 -6.9844,-3.9883 -2.0781,2.0781 1.7891,4.7852 3.9883,6.9844 l -7.1953,7.1953 c -0.92578,-0.92578 -5.7266,-6.1172 -7.0156,-6.3125 l 0.70312,-0.70312 c 1.9688,-1.9688 -1.0078,-4.9883 -3.0039,-3.0039 l -17.344,17.344 -1.6367,-1.6367 c -1.9688,-1.9688 -4.9883,1.0078 -3.0039,3.0039 l 1.6367,1.6367 c -1.0781,1.0781 -0.54297,0.55078 -0.86719,1.2539 -2.8438,-0.0508 -5.7695,-0.0937 -8.7383,-0.13672 l -1.1211,-1.1211 15.324,-15.324 c 0.83203,-0.83203 0.83203,-2.1719 0,-3.0039 -0.83203,-0.83203 -2.1719,-0.83203 -3.0039,0 l -15.324,15.324 -4.582,-4.582 c 2.3008,-2.3086 6.6602,-5.3711 4.5156,-7.5156 -0.83203,-0.83203 -2.1719,-0.83203 -3.0039,0 l -16.012,16.02 h -1.043 l -4.8359,-4.8359 9.7422,-9.7422 c 1.9688,-1.9688 -1.0078,-4.9883 -3.0039,-3.0039 l -17.547,17.547 c -1.5703,0 -3.2227,-0.008 -4.7773,-0.008 -1.7148,-1.7148 -2.9961,-3.7773 -4.957,-2.5547 l 10.438,-10.438 c 1.9688,-1.9688 -1.0078,-4.9883 -3.0039,-3.0039 l -15.984,15.984 h -2.1875 l -1.8516,-1.8516 c -1.3242,-1.3242 -3.8867,-0.46484 -3.4805,1.8398 -198.25,0.0117 -196.39,3.4023 -206.37,-12.531 z m 240.61,123.25 6.9844,6.9844 c -0.0781,0.16797 -0.17969,0.32422 -0.20312,0.49219 -4.8359,0.008 -9.6719,0.0156 -14.289,0.0274 z m 35.609,7.4531 -2.7227,-2.7227 16.969,-16.969 c 0.83203,-0.83203 0.83203,-2.1719 0,-3.0039 -0.83203,-0.832 -2.1719,-0.83203 -3.0039,0 l -16.969,16.969 -3.1406,-3.1406 c -0.83203,-0.83203 -2.1719,-0.83203 -3.0039,0 -0.83203,0.83203 -0.83203,2.1719 0,3.0039 l 3.1406,3.1406 -2.7305,2.7305 c -3.6758,0 -7.3477,0.008 -10.902,0.008 -0.0781,-0.11719 59.539,59.316 -0.46484,-0.67969 l 13.523,-13.523 c 0.83203,-0.83203 0.83203,-2.1719 0,-3.0039 -0.83203,-0.832 -2.1719,-0.83203 -3.0039,0 l -13.523,13.523 -6.7969,-6.7969 3.9609,-3.9609 c 0.83203,-0.83203 0.83203,-2.1719 0,-3.0039 -0.83203,-0.83203 -2.1719,-0.83203 -3.0039,0 l -14.527,14.527 -2.8867,-2.8867 c -0.83203,-0.83203 -2.1719,-0.83203 -3.0039,0 -0.83203,0.83203 -0.83203,2.1719 0,3.0039 l 2.832,2.832 c -3.3164,0.008 -6.7031,0.0156 -9.9023,0.0273 l 15.484,-15.484 c 0.83203,-0.83203 0.83203,-2.1719 0,-3.0039 -0.83203,-0.832 -2.1719,-0.83203 -3.0039,0 l -17.055,17.055 -5.9727,-5.9727 c -0.83203,-0.83203 -2.1719,-0.83203 -3.0039,0 -0.83203,0.83203 -0.83203,2.1719 0,3.0039 l 4.4219,4.4297 c -170.17,0.44141 -169.95,1.0508 -177.6,-11.344 l -0.91797,-1.4766 c -10.504,-16.75 -10.879,-63.008 2.707,-79.301 11.344,-13.602 32.105,-15.332 50.68,-15.891 27.254,-0.82422 79.715,-1.2539 125.52,-1.1016 1,0.62109 1.2031,0.57031 2.1289,0.008 27.254,0.10156 55.602,0.39844 82.234,0.98438 1.6562,1.6562 3.3164,2.2812 4.1836,0.0937 116.57,2.7305 118.52,7.7227 122.96,16.207 l -4.8008,4.8008 -2.3672,-2.3672 c -0.83203,-0.83203 -2.1719,-0.83203 -3.0039,0 -0.832,0.83203 -0.83203,2.1719 0,3.0039 l 2.3672,2.3672 c -2.5977,2.5977 -6.082,5.2773 -2.6641,6.7031 -3.8008,1.5781 1.0273,5.0664 3.9453,7.9844 l -10.867,10.867 c -0.83203,0.83203 -0.83203,2.1719 0,3.0039 0.41406,0.41406 0.95703,0.62109 1.5,0.62109 0.54297,0 1.0859,-0.20312 1.5,-0.62109 l 1.0781,-1.0781 12.508,12.508 c 0.41406,0.41406 0.95703,0.62109 1.5,0.62109 0.35547,0 0.67187,-0.23047 0.98437,-0.40625 -0.16016,1.0195 -0.32422,2.0117 -0.5,2.9766 -0.89062,0.72266 -5.4297,5.3203 -6.2539,6.1328 l -4.7344,-4.7344 0.82422,-0.82422 c 0.83203,-0.83203 0.83203,-2.1719 0,-3.0039 -0.83203,-0.832 -2.1719,-0.83203 -3.0039,0 l -0.82422,0.82422 -4.6836,-4.6836 c -0.83203,-0.83203 -2.1719,-0.83203 -3.0039,0 -0.832,0.83203 -0.83203,2.1719 0,3.0039 l 4.6836,4.6836 -10.141,10.141 c -0.84766,-0.84766 -6.9336,-7.0664 -7.9492,-7.6953 l 4.3359,-4.3359 c 0.83203,-0.83203 0.83203,-2.1719 0,-3.0039 -0.83203,-0.83203 -2.1719,-0.83203 -3.0039,0 l -14.773,14.773 c -2.0547,-2.0547 -5.0664,0.93359 -3.0039,2.9961 l -10.656,10.656 c -0.85547,-0.85547 -6.4414,-6.5664 -7.4336,-7.1875 l 10.078,-10.078 c 0.83203,-0.83203 0.83203,-2.1719 0,-3.0039 -0.83203,-0.83203 -2.1719,-0.83203 -3.0039,0 l -21.297,21.297 -5.9727,-5.9727 c -0.67188,-0.67188 -1.6367,-0.65234 -2.4336,-0.23828 l 2.0547,-2.0547 c 0.83203,-0.83203 0.83203,-2.1719 0,-3.0039 -0.83203,-0.83203 -2.1719,-0.83203 -3.0039,0 l -13.066,13.066 -2.1055,-2.1133 c -0.83203,-0.83203 -2.1719,-0.83203 -3.0039,0 -0.83203,0.83203 -0.83203,2.1719 0,3.0039 l 2.1055,2.1133 c -0.98438,0.98438 -9.0352,8.6641 -9.2734,9.9453 h -3.6484 l -5.5586,-5.5586 13.305,-13.305 c 0.83203,-0.83203 0.83203,-2.1719 0,-3.0039 -0.83203,-0.832 -2.1719,-0.83203 -3.0039,0 l -13.305,13.305 -2.8867,-2.8867 c -1.9688,-1.9688 -4.9883,1.0078 -3.0039,3.0039 l 2.8867,2.8867 c -2.1055,2.1055 -4.5312,3.9805 -1.9102,5.5586 -3.0156,0.0312 -6.0781,0.0312 -9.1172,0.0312 z m 120.71,-26.168 10.141,-10.141 4.7344,4.7344 -10.141,10.141 z m -26.93,21.676 c -0.67969,-0.92578 -7.2305,-7.3906 -8.1133,-8.2812 l 10.656,-10.656 7.8242,7.8242 c -1,0.99219 -10.215,9.8008 -10.367,11.113 z m 5.5391,-21.941 7.6875,-7.6875 c 0.62891,1.0078 6.8477,7.1016 7.6953,7.9492 l -7.5703,7.5703 z m -47.277,8.7148 5.9727,5.9727 -9.1133,9.1133 -7.3047,-7.3047 10.207,-10.207 c -0.41406,0.79688 -0.43359,1.7578 0.23828,2.4258 z m -6.4922,17.742 c -4.6562,-0.008 -9.3945,-0.008 -13.898,-0.0156 l 6.9414,-6.9414 z m 15.469,-8.7656 c 0.80469,0.80469 6.5586,6.6016 7.4258,7.332 -0.34766,0.44141 -0.5,0.94141 -0.44141,1.4688 -5.3125,-0.008 -10.621,-0.0273 -15.746,-0.0273 z m 10.293,4.3281 c -0.85547,-0.91797 -6.4062,-6.4414 -7.2891,-7.3242 l 8.4688,-8.4688 c 0.62109,0.99219 6.3203,6.5742 7.1875,7.4336 z m -57.195,1.8594 2.5547,2.5547 h -5.3789 c 0.95703,-0.57031 1.9727,-1.707 2.8242,-2.5547 z m 58.707,2.6211 9.8438,-9.8438 c 3.9453,3.9453 10.887,12.254 11.523,6.7266 0.0586,0.0859 0.043,0.20312 0.11719,0.28125 0.83203,0.83203 2.1719,0.83203 3.0039,0 l 9.8438,-9.8438 9.3242,9.3242 c -13.078,3.9219 -29.141,3.3906 -43.656,3.3555 z m 48.066,-4.9297 -10.75,-10.75 7.5703,-7.5703 c 0.99219,0.99219 11.156,11.676 12.559,11.676 1.875,0 2.832,-2.2812 1.5,-3.6211 l -3.3242,-3.3242 10.141,-10.141 c 0.88281,0.88281 1.4336,1.707 2.5859,1.7461 -4.2188,11.27 -10.781,18.055 -20.281,21.984 z"
       id="path877"
       style="fill:#ffffff;fill-opacity:1" />
    <path
       d="m 609.59,321.83 h -14.375 c 0.0156,-12.652 2.1055,-21.391 -4.207,-21.391 -6.3047,0 -4.25,9.1797 -4.2773,21.391 h -20 c -5.5898,0 -5.6172,8.4844 0,8.4844 h 19.98 c -0.0273,13.168 -2.1055,22.137 4.207,22.145 2.3594,0 4.2422,-1.9102 4.2422,-4.2422 l 0.0273,-17.902 h 14.391 c 2.3438,0 4.2422,-1.9023 4.2422,-4.2422 0.004,-2.3438 -1.8906,-4.2422 -4.2305,-4.2422 z"
       id="path879"
       style="fill:#ffffff;fill-opacity:1" />
    <path
       d="m 129.5,251.98 c 5.4648,-0.75391 4.5469,-9.043 -1.1445,-8.4102 l -13.133,1.7891 c -0.29688,-10.07 1.5,-19.305 -4.8125,-19.227 -6.3125,0.1875 -3.9727,9.332 -3.6484,20.371 l -16.945,2.3086 c -5.2031,0.71094 -4.668,8.4492 0.57031,8.4492 0.46484,0 16.164,-2.1562 16.629,-2.2227 l 0.53516,18.32 c 0.0664,2.3008 1.9531,4.1133 4.2422,4.1133 h 0.12891 c 2.3438,-0.0664 4.1836,-2.0273 4.1133,-4.3711 l -0.57031,-19.219 z"
       id="path881"
       style="fill:#ffffff;fill-opacity:1" />
    <path
       d="m 233.3,27.066 c 0.12891,14.16 -1.9414,23.258 4.4141,23.258 2.3672,0 4.2578,-1.9336 4.2422,-4.2773 l -0.17969,-19.93 c 6.2891,-0.71094 16.289,-0.08594 15.629,-6.0312 -0.65234,-5.8281 -9.5469,-3.1914 -15.695,-2.5039 -0.0859,-9.3828 1.7734,-17.887 -4.3594,-17.887 -6.5938,0 -4.1758,12.074 -4.1133,18.836 l -19.785,2.2305 c -2.3398,0.26562 -4.0117,2.3672 -3.75,4.6914 0.71094,6.3555 9.6055,3.1914 23.598,1.6133 z"
       id="path883"
       style="fill:#ffffff;fill-opacity:1" />
    <path
       d="m 193.99,95.965 h 15.398 c 0,3.1914 -0.88281,8.2305 2.1211,8.2305 3.0039,0 2.1211,-5.0391 2.1211,-8.2305 h 11.574 v 10.418 c 0,2.8008 4.2422,2.8086 4.2422,0 l 0.004,-10.418 h 19.719 c 0,3.0117 -0.76172,7.2891 2.1211,7.2891 2.8867,0 2.1211,-4.2773 2.1211,-7.2891 h 17.801 v 5.7031 c 0,2.8008 4.2422,2.8086 4.2422,0 V 95.965 h 19.719 c 0,3.4531 -1.0352,9.7656 2.1211,9.7656 3.1563,0 2.1211,-6.3125 2.1211,-9.7656 h 13.965 v 5.6172 c 0,2.8008 4.2422,2.8086 4.2422,0 V 95.965 h 8.4688 c 2.8008,0 2.8086,-4.2422 0,-4.2422 h -8.4688 v -11.293 c 0,-2.8008 -4.2422,-2.8086 -4.2422,0 v 11.301 h -13.965 v -11.301 c 0,-2.8008 -4.2422,-2.8086 -4.2422,0 v 11.301 h -19.719 v -10.828 c 0,-2.8008 -4.2422,-2.8086 -4.2422,0 v 10.816 h -17.801 v -9.375 c 0,-2.8008 -4.2422,-2.8086 -4.2422,0 v 9.375 h -19.719 V 84.254 c 0,-2.8008 -4.2422,-2.8086 -4.2422,0 v 7.4648 h -11.574 v -10.34 c 0,-2.8008 -4.2422,-2.8086 -4.2422,0 v 10.344 h -15.398 v -5.0664 c 0,-2.8008 -4.2422,-2.8086 -4.2422,0 v 5.0664 h -13.219 c -1.1719,0 -2.1211,0.94922 -2.1211,2.1211 0,1.17188 0.94922,2.1211 2.1211,2.1211 h 13.219 v 5.7266 c 0,2.8008 4.2422,2.8086 4.2422,0 z"
       id="path885"
       style="fill:#ffffff;fill-opacity:1" />
    <path
       d="m 198.57,226.79 h 23.758 v 9.0117 c 0,2.8008 4.2422,2.8086 4.2422,0 V 226.79 h 17.801 c 0,3.4531 -1.0352,9.8008 2.1211,9.8008 3.1563,0 2.1211,-6.3477 2.1211,-9.8008 h 13.965 v 8.2539 c 0,2.8008 4.2422,2.8086 4.2422,0 V 226.79 h 18.762 v 10.785 c 0,2.8008 4.2422,2.8086 4.2422,0 V 226.79 h 17.324 v 11.191 c 0,2.8008 4.2422,2.8086 4.2422,0 V 226.79 h 17.191 c 1.1719,0 2.1211,-0.94922 2.1211,-2.1211 0,-1.17188 -0.94922,-2.1211 -2.1211,-2.1211 h -17.188 v -9.375 c 0,-2.8008 -4.2422,-2.8086 -4.2422,0 v 9.375 h -17.324 c 0,-3.2852 0.90625,-8.6289 -2.1211,-8.6289 -3.0273,0 -2.1211,5.3359 -2.1211,8.6289 h -18.762 v -8.9023 c 0,-2.8008 -4.2422,-2.8086 -4.2422,0 v 8.9023 h -13.965 v -8.4258 c 0,-2.8008 -4.2422,-2.8086 -4.2422,0 v 8.4258 h -17.801 V 216.04 c 0,-2.8008 -4.2422,-2.8086 -4.2422,0 v 6.5078 h -23.758 c -1.1719,0 -2.1211,0.94922 -2.1211,2.1211 -0.004,1.168 0.94531,2.1211 2.1172,2.1211 z"
       id="path887"
       style="fill:#ffffff;fill-opacity:1" />
    <path
       d="m 242.3,337.64 v 8.0352 c 0,1.1719 0.94922,2.1211 2.1211,2.1211 1.17188,0 2.1211,-0.94922 2.1211,-2.1211 V 337.64 h 21.094 v 15.113 c 0,2.8008 4.2422,2.8086 4.2422,0 V 337.64 h 11.504 v 10.367 c 0,2.8008 4.2422,2.8086 4.2422,0 V 337.64 h 14.312 c 2.8008,0 2.8086,-4.2422 0,-4.2422 h -14.301 v -8.1445 c 0,-2.8008 -4.2422,-2.8086 -4.2422,0 v 8.1445 h -11.504 v -8.1445 c 0,-2.8008 -4.2422,-2.8086 -4.2422,0 v 8.1445 h -21.094 v -8.1445 c 0,-2.8008 -4.2422,-2.8086 -4.2422,0 v 8.1445 h -29.316 v -6.0938 c 0,-2.8008 -4.2422,-2.8086 -4.2422,0 v 6.0938 h -18.355 c 0,-2.7578 0.59375,-6.168 -2.1211,-6.168 -2.71485,0 -2.1211,3.4023 -2.1211,6.168 h -17.742 c -2.8008,0 -2.8086,4.2422 0,4.2422 h 17.742 v 12.957 c 0,1.1719 0.94922,2.1211 2.1211,2.1211 1.17188,0 2.1211,-0.94922 2.1211,-2.1211 V 337.64 h 18.352 v 17.395 c 0,2.8008 4.2422,2.8086 4.2422,0 V 337.64 Z"
       id="path889"
       style="fill:#ffffff;fill-opacity:1" />
    <path
       d="m 357.52,455.3 h -15.781 v -11.574 c 0,-2.8008 -4.2422,-2.8086 -4.2422,0 V 455.3 h -19.039 v -11.574 c 0,-2.8008 -4.2422,-2.8086 -4.2422,0 V 455.3 h -24.52 v -7.4648 c 0,-2.8008 -4.2422,-2.8086 -4.2422,0 V 455.3 h -33.422 v -12.949 c 0,-2.8008 -4.2422,-2.8086 -4.2422,0 V 455.3 h -22.469 v -10.207 c 0,-2.8008 -4.2422,-2.8086 -4.2422,0 V 455.3 h -17.734 c -2.8008,0 -2.8086,4.2422 0,4.2422 h 17.734 v 11.328 c 0,2.8008 4.2422,2.8086 4.2422,0 v -11.328 h 22.469 v 13.043 c 0,1.1719 0.94922,2.1211 2.1211,2.1211 1.17188,0 2.1211,-0.94922 2.1211,-2.1211 v -13.043 h 33.422 v 13.219 c 0,2.8008 4.2422,2.8086 4.2422,0 v -13.219 h 24.52 c 0,3.2227 -0.90625,8.4102 2.1211,8.4102 3.0273,0 2.1211,-5.1836 2.1211,-8.4102 h 19.039 v 15.797 c 0,2.8008 4.2422,2.8086 4.2422,0 v -15.797 h 15.781 c 1.1719,0 2.1211,-0.94922 2.1211,-2.1211 0.004,-1.1719 -0.94922,-2.1211 -2.1211,-2.1211 z"
       id="path891"
       style="fill:#ffffff;fill-opacity:1" />
  </g>
</svg>
