<?xml version="1.0" encoding="UTF-8" standalone="no"?>
<svg
   xmlns:dc="http://purl.org/dc/elements/1.1/"
   xmlns:cc="http://creativecommons.org/ns#"
   xmlns:rdf="http://www.w3.org/1999/02/22-rdf-syntax-ns#"
   xmlns:svg="http://www.w3.org/2000/svg"
   xmlns="http://www.w3.org/2000/svg"
   xmlns:sodipodi="http://sodipodi.sourceforge.net/DTD/sodipodi-0.dtd"
   xmlns:inkscape="http://www.inkscape.org/namespaces/inkscape"
   width="685"
   height="685"
   version="1.1"
   viewBox="0 0 513.75001 513.75001"
   id="svg10"
   sodipodi:docname="Gnu.svg"
   inkscape:version="1.0.2 (e86c870879, 2021-01-15)"
   inkscape:export-filename="/home/marek/Downloads/Gnu.png"
   inkscape:export-xdpi="28.030001"
   inkscape:export-ydpi="28.030001">
  <metadata
     id="metadata16">
    <rdf:RDF>
      <cc:Work
         rdf:about="">
        <dc:format>image/svg+xml</dc:format>
        <dc:type
           rdf:resource="http://purl.org/dc/dcmitype/StillImage" />
        <dc:title />
      </cc:Work>
    </rdf:RDF>
  </metadata>
  <defs
     id="defs14" />
  <sodipodi:namedview
     pagecolor="#ffffff"
     bordercolor="#666666"
     borderopacity="1"
     objecttolerance="10"
     gridtolerance="10"
     guidetolerance="10"
     inkscape:pageopacity="0"
     inkscape:pageshadow="2"
     inkscape:window-width="1920"
     inkscape:window-height="990"
     id="namedview12"
     showgrid="false"
     units="px"
     inkscape:pagecheckerboard="false"
     inkscape:zoom="0.44410714"
     inkscape:cx="213.80764"
     inkscape:cy="516.52285"
     inkscape:window-x="0"
     inkscape:window-y="30"
     inkscape:window-maximized="1"
     inkscape:current-layer="svg10"
     inkscape:document-rotation="0" />
  <g
     id="g8"
     style="fill:#ffffff;fill-opacity:1"
     transform="translate(-93.127402,-23.127846)">
    <path
       d="m 351.11,163.56 c -7.1367,-0.16797 -14.219,1.2695 -20.727,4.2031 0.19922,1.4727 0.19922,2.9648 0,4.4375 -2.0664,15.27 -10.43,28.98 -23.059,37.805 -12.633,8.8242 -28.383,11.957 -43.43,8.6406 -1.9297,7.082 -6.4414,13.184 -12.645,17.102 -31.301,19.801 -64.625,36.207 -99.406,48.945 -0.80859,0.29688 -1.4258,0.96484 -1.6602,1.793 -0.23438,0.83203 -0.0586,1.7227 0.47656,2.3984 10.562,13.48 26.625,21.496 43.746,21.84 17.121,0.33984 33.488,-7.0312 44.582,-20.078 2.2383,-2.6289 5.8008,-3.7148 9.1211,-2.7812 3.3242,0.92969 5.8047,3.707 6.3516,7.1133 7.4297,46.574 21.918,91.738 42.965,133.94 2.5977,5.1953 2.2812,11.371 -0.83203,16.273 -7.1797,11.27 -10.066,24.75 -8.1328,37.973 1.9375,13.223 8.5664,25.309 18.676,34.047 10.1096,8.738 23.027,13.551 36.391,13.555 h 12.957 c 13.367,0.004 26.289,-4.8047 36.402,-13.543 10.117,-8.7383 16.75,-20.824 18.691,-34.051 1.9375,-13.227 -0.94922,-26.707 -8.1289,-37.98 -3.1328,-4.8945 -3.4648,-11.07 -0.87891,-16.273 21.047,-42.199 35.535,-87.367 42.961,-133.94 0.54688,-3.4062 3.0273,-6.1836 6.3516,-7.1133 3.3203,-0.93359 6.8828,0.15234 9.1211,2.7812 11.094,13.043 27.461,20.414 44.578,20.074 17.121,-0.33984 33.184,-8.3594 43.746,-21.836 0.53516,-0.67578 0.71094,-1.5664 0.47656,-2.3984 -0.23438,-0.82812 -0.85547,-1.4961 -1.6641,-1.793 -34.766,-12.738 -68.078,-29.145 -99.371,-48.945 -6.1992,-3.9219 -10.707,-10.023 -12.637,-17.102 -15.055,3.3281 -30.812,0.20312 -43.453,-8.625 -12.641,-8.8242 -21.012,-22.539 -23.074,-37.82 -0.19922,-1.4727 -0.19922,-2.9648 0,-4.4375 -5.8203,-2.625 -12.105,-4.0508 -18.488,-4.2031 z m 69.305,113.87 c 2.2969,0.043 4.4766,1.0156 6.0469,2.6953 1.5664,1.6758 2.3906,3.918 2.2773,6.2109 0.10547,2.3203 -0.74609,4.5781 -2.3477,6.2539 -1.6016,1.6758 -3.8203,2.6211 -6.1406,2.6211 -2.3203,0 -4.5391,-0.94531 -6.1406,-2.6211 -1.6055,-1.6758 -2.4531,-3.9336 -2.3516,-6.2539 -0.11328,-2.3516 0.75391,-4.6445 2.3945,-6.332 1.64059,-1.6875 3.9102,-2.6211 6.2617,-2.5742 z m -140.85,0.35156 c 2.3008,-0.0469 4.5195,0.83594 6.1523,2.4531 1.6367,1.6133 2.5508,3.8203 2.5312,6.1211 0.0234,2.2695 -0.85938,4.457 -2.457,6.0742 -1.5977,1.6133 -3.7734,2.5234 -6.0469,2.5234 -2.2734,0 -4.4492,-0.91016 -6.0469,-2.5234 -1.5977,-1.6172 -2.4805,-3.8047 -2.457,-6.0742 -0.0391,-4.6562 3.6719,-8.4766 8.3242,-8.5742 z"
       id="path2"
       style="fill:#ffffff;fill-opacity:1" />
    <path
       d="m 590.11,125.47 c 12.449,-13.797 18.32,-32.305 16.098,-50.754 -2.2227,-18.449 -12.32,-35.031 -27.691,-45.477 10.477,16.23 12.996,36.344 6.8438,54.652 -6.1523,18.312 -20.305,32.824 -38.457,39.434 -31.645,6.8203 -64.086,9.2109 -96.391,7.1016 -26.555,2.9922 -51.406,14.559 -70.797,32.949 -2.1094,2.0195 -3.125,4.9297 -2.7227,7.8242 1.7969,13.312 9.1289,25.25 20.191,32.875 11.059,7.6211 24.824,10.227 37.906,7.1719 -0.10547,-9.1406 4.0547,-17.812 11.254,-23.449 17.055,-13.352 37.695,-21.332 59.297,-22.922 33.086,2.3945 65.055,-12.516 84.484,-39.406 z"
       id="path4"
       style="fill:#ffffff;fill-opacity:1" />
    <path
       d="m 109.9,125.47 c 19.43,26.891 51.398,41.805 84.488,39.406 21.59,1.5977 42.219,9.5742 59.266,22.922 7.1992,5.6367 11.359,14.309 11.254,23.449 13.086,3.0664 26.859,0.46484 37.926,-7.1602 11.07,-7.625 18.406,-19.566 20.203,-32.887 0.39062,-2.9023 -0.64062,-5.8125 -2.7656,-7.8242 -19.391,-18.391 -44.246,-29.957 -70.801,-32.949 -32.301,2.1094 -64.738,-0.28125 -96.383,-7.1016 -18.152,-6.6094 -32.305,-21.121 -38.457,-39.434 -6.1523,-18.309 -3.6367,-38.422 6.8398,-54.652 -15.363,10.449 -25.457,27.035 -27.676,45.484 -2.2148,18.449 3.6562,36.953 16.109,50.746 z"
       id="path6"
       style="fill:#ffffff;fill-opacity:1" />
  </g>
</svg>
