<?xml version="1.0" encoding="UTF-8" standalone="no"?>
<svg
   xmlns:dc="http://purl.org/dc/elements/1.1/"
   xmlns:cc="http://creativecommons.org/ns#"
   xmlns:rdf="http://www.w3.org/1999/02/22-rdf-syntax-ns#"
   xmlns:svg="http://www.w3.org/2000/svg"
   xmlns="http://www.w3.org/2000/svg"
   xmlns:sodipodi="http://sodipodi.sourceforge.net/DTD/sodipodi-0.dtd"
   xmlns:inkscape="http://www.inkscape.org/namespaces/inkscape"
   width="656"
   height="656"
   version="1.1"
   viewBox="0 0 491.99999 491.99999"
   id="svg4"
   sodipodi:docname="Intelligence service.svg"
   inkscape:version="1.0.2 (e86c870879, 2021-01-15)"
   inkscape:export-filename="/home/marek/Downloads/Intelligence service.png"
   inkscape:export-xdpi="29.268293"
   inkscape:export-ydpi="29.268293">
  <metadata
     id="metadata10">
    <rdf:RDF>
      <cc:Work
         rdf:about="">
        <dc:format>image/svg+xml</dc:format>
        <dc:type
           rdf:resource="http://purl.org/dc/dcmitype/StillImage" />
        <dc:title></dc:title>
      </cc:Work>
    </rdf:RDF>
  </metadata>
  <defs
     id="defs8" />
  <sodipodi:namedview
     pagecolor="#ffffff"
     bordercolor="#666666"
     borderopacity="1"
     objecttolerance="10"
     gridtolerance="10"
     guidetolerance="10"
     inkscape:pageopacity="0"
     inkscape:pageshadow="2"
     inkscape:window-width="1920"
     inkscape:window-height="990"
     id="namedview6"
     showgrid="false"
     units="px"
     inkscape:zoom="0.44410714"
     inkscape:cx="275.8016"
     inkscape:cy="498.71607"
     inkscape:window-x="0"
     inkscape:window-y="30"
     inkscape:window-maximized="1"
     inkscape:current-layer="svg4" />
  <path
     d="m 245.11135,386.08629 c -38.676,0 -70,-31.324 -70,-70 0,-38.676 31.324,-70 70,-70 38.676,0 70,31.324 70,70 0,38.676 -31.324,70 -70,70 z m 233.98,-156.8 -59.324,-18.199 c 0,-1.2266 0.17578,-2.625 0,-3.8516 l -25.898,-116.549995 c -7.1758,-32.199 -35.176,-54.773 -68.25,-54.773 -1.2266,0 -2.4492,0 -3.6758,0.35156 l -76.824,16.625 -76.824,-16.625 c -1.2266,-0.35156 -2.4492,-0.35156 -3.6758,-0.35156 -33.074,0 -61.074,22.574 -68.249995,54.773 l -25.898,116.549995 c -0.35156,1.3984 0,2.8008 0,4.1992 l -57.926,17.852 c -9.2734002,2.8008 -14.3520002,12.602 -11.5510002,21.875 2.8008,9.2734 12.6020002,14.352 21.8750002,11.551 l 120.229995,-36.926 c 67.375,-20.648 138.43,-20.648 205.8,0 l 120.23,36.926 c 1.75,0.52344 3.5,0.69922 5.0742,0.69922 7.5234,0 14.352,-4.8984 16.801,-12.426 2.8008,-9.2734 -2.2734,-19.074 -11.551,-21.875 z m -93.977,86.801 c 0,-21 -4.5508,-41.125 -13.477,-60.023 -4.1992,-8.75 -14.523,-12.426 -23.273,-8.2266 -8.75,4.1994 -12.426,14.523 -8.2266,23.273 6.6484,14.176 10.148,29.227 10.148,44.977 0,57.926 -47.074,105 -105,105 -57.926,0 -105,-47.074 -105,-105 0,-15.75 3.3242,-30.977 10.148,-44.977 4.1992,-8.75 0.52344,-19.25 -8.2266,-23.273 -8.75,-4.1992 -19.25,-0.52344 -23.273,8.2266 -8.9258,18.898 -13.477,39.023 -13.477,60.023 0,77.176 62.824,140 140,140 77.176,0 140,-62.824 140,-140 z"
     id="path2"
     style="fill:#ffffff;fill-opacity:1" />
</svg>
