<?xml version="1.0" encoding="UTF-8" standalone="no"?>
<svg
   width="677"
   height="677"
   version="1.1"
   viewBox="0 0 507.75001 507.75001"
   id="svg20"
   sodipodi:docname="Kernel.svg"
   inkscape:version="1.1.2 (0a00cf5339, 2022-02-04)"
   inkscape:export-filename="/home/marek/git/UnCiv-Logicians/Images/UnitIcons/Kernel.png"
   inkscape:export-xdpi="28.360415"
   inkscape:export-ydpi="28.360415"
   xmlns:inkscape="http://www.inkscape.org/namespaces/inkscape"
   xmlns:sodipodi="http://sodipodi.sourceforge.net/DTD/sodipodi-0.dtd"
   xmlns="http://www.w3.org/2000/svg"
   xmlns:svg="http://www.w3.org/2000/svg"
   xmlns:rdf="http://www.w3.org/1999/02/22-rdf-syntax-ns#"
   xmlns:cc="http://creativecommons.org/ns#"
   xmlns:dc="http://purl.org/dc/elements/1.1/">
  <metadata
     id="metadata26">
    <rdf:RDF>
      <cc:Work
         rdf:about="">
        <dc:format>image/svg+xml</dc:format>
        <dc:type
           rdf:resource="http://purl.org/dc/dcmitype/StillImage" />
      </cc:Work>
    </rdf:RDF>
  </metadata>
  <defs
     id="defs24" />
  <sodipodi:namedview
     pagecolor="#ffffff"
     bordercolor="#666666"
     borderopacity="1"
     objecttolerance="10"
     gridtolerance="10"
     guidetolerance="10"
     inkscape:pageopacity="0"
     inkscape:pageshadow="2"
     inkscape:window-width="1920"
     inkscape:window-height="1003"
     id="namedview22"
     showgrid="false"
     units="px"
     inkscape:zoom="0.25285714"
     inkscape:cx="468.64407"
     inkscape:cy="466.66667"
     inkscape:window-x="0"
     inkscape:window-y="27"
     inkscape:window-maximized="1"
     inkscape:current-layer="svg20"
     inkscape:pagecheckerboard="0" />
  <g
     id="g18"
     transform="translate(-96.131215,-26.123858)"
     style="fill-rule:evenodd;fill:#ffffff;fill-opacity:1">
    <path
       d="m 265.37,318.9 -103.22,36.777 c -14.406,13.395 -25.062,30.832 -30.18,50.656 l -18.219,127.42 h 220.66 l -84.938,-133.47 c -3.0039,-4.7422 -2.6602,-10.867 0.85547,-15.242 l 9.4336,-11.828 -16.336,-13.637 c -6.0742,-5.0586 -6.3281,-14.301 -0.54688,-19.688 z"
       id="path2"
       inkscape:connector-curvature="0"
       style="fill:#ffffff;fill-opacity:1" />
    <path
       d="m 438.12,320.12 23.309,19.207 c 6.3594,5.2383 6.375,14.977 0.0352,20.234 l -16.371,13.637 9.4688,11.828 c 3.582,4.4766 3.8438,10.758 0.64844,15.516 l -89.379,133.2 h 220.43 l -18.219,-127.42 c -5.1172,-19.824 -15.773,-37.262 -30.18,-50.656 z"
       id="path4"
       inkscape:connector-curvature="0"
       style="fill:#ffffff;fill-opacity:1" />
    <path
       d="m 344.21,26.285 c -31.629,0.54297 -62.746,5.6836 -86.289,15.316 -41.113,16.828 -48.734,47.832 -18.77,68.285 v 0.004 c 0.18359,-0.21484 0.37891,-0.41797 0.58203,-0.61328 9.7695,-10.172004 25.781,-16.281004 45.742,-20.766004 19.965,-4.4805 43.941,-6.7461 68.992,-6.1992 25.051,0.55859 47.918,3.832 66.121,9.2188 14.75,4.3633 26.59,9.695304 34.086,18.023004 33.387,-23.160004 24.199,-55.344004 -21.094,-70.926004 -25.582,-8.8008 -57.738,-12.871 -89.367,-12.336 z"
       id="path6"
       inkscape:connector-curvature="0"
       style="fill:#ffffff;fill-opacity:1" />
    <path
       d="m 354.06,99.848 c -23.734,-0.52344 -46.488,1.6445 -64.75,5.7539 -15.145,3.4023 -26.84,8.4688 -33.332,13.055 v 30.082 h 183.79 v -28.883 c -4.6836,-3.6641 -12.836,-8.168 -24.137,-11.512 -16.207,-4.7969 -37.836,-7.9727 -61.57,-8.4961 z"
       id="path8"
       inkscape:connector-curvature="0"
       style="fill:#ffffff;fill-opacity:1" />
    <path
       d="m 440.14,161.88 c 1.4727,3.5 2.0625,7.3633 1.6211,11.25 l -1.1836,10.5 c -0.80078,7.0742 -3.6406,13.555 -9.8477,17.219 l -3.3633,1.9844 c -3.9805,2.3516 -7.1562,5.8203 -9.1055,9.9688 l -19.184,40.727 c -8.8594,18.812 -28.012,30.848 -49.082,30.848 h -4.3086 c -21.07,0 -40.223,-12.035 -49.082,-30.848 l -19.184,-40.727 c -1.9531,-4.1484 -5.125,-7.6211 -9.1055,-9.9688 l -3.3633,-1.9844 c -6.2031,-3.668 -9.0469,-10.145 -9.8477,-17.219 l -1.1836,-10.5 c -0.4375,-3.8867 0.15625,-7.75 1.6211,-11.25"
       id="path10"
       inkscape:connector-curvature="0"
       style="fill:#ffffff;fill-opacity:1" />
    <path
       d="m 350,297.5 -26.25,8.75 26.25,36.332 26.25,-36.332 z"
       id="path12"
       inkscape:connector-curvature="0"
       style="fill:#ffffff;fill-opacity:1" />
    <path
       d="M 350,342.59 329.766,370.617 350,416.859 370.234,370.617 Z"
       id="path14"
       inkscape:connector-curvature="0"
       style="fill:#ffffff;fill-opacity:1" />
    <path
       d="m 350,533.75 94.316,-140.54 -17.5,-21.875 26.25,-21.875 -41.816,-34.457 -61.25,140 -61.25,-140 -36.934,34.457 26.25,21.875 -17.5,21.875 z"
       id="path16"
       inkscape:connector-curvature="0"
       style="fill:#ffffff;fill-opacity:1" />
  </g>
</svg>
