<?xml version="1.0" encoding="UTF-8" standalone="no"?>
<svg
   xmlns:dc="http://purl.org/dc/elements/1.1/"
   xmlns:cc="http://creativecommons.org/ns#"
   xmlns:rdf="http://www.w3.org/1999/02/22-rdf-syntax-ns#"
   xmlns:svg="http://www.w3.org/2000/svg"
   xmlns="http://www.w3.org/2000/svg"
   xmlns:sodipodi="http://sodipodi.sourceforge.net/DTD/sodipodi-0.dtd"
   xmlns:inkscape="http://www.inkscape.org/namespaces/inkscape"
   width="747"
   height="747"
   version="1.1"
   viewBox="0 0 560.25001 560.25001"
   id="svg1076"
   sodipodi:docname="Missile Defense Tactics.svg"
   inkscape:export-filename="/home/marek/git/UnCiv-Logicians/ImageSources/to_edit/Missile Defense Tactics.png"
   inkscape:export-xdpi="6.425703"
   inkscape:export-ydpi="6.425703"
   inkscape:version="1.0.2 (e86c870879, 2021-01-15)">
  <metadata
     id="metadata1080">
    <rdf:RDF>
      <cc:Work
         rdf:about="">
        <dc:format>image/svg+xml</dc:format>
        <dc:type
           rdf:resource="http://purl.org/dc/dcmitype/StillImage" />
        <dc:title></dc:title>
      </cc:Work>
    </rdf:RDF>
  </metadata>
  <sodipodi:namedview
     pagecolor="#ffffff"
     bordercolor="#666666"
     borderopacity="1"
     objecttolerance="10"
     gridtolerance="10"
     guidetolerance="10"
     inkscape:pageopacity="0"
     inkscape:pageshadow="2"
     inkscape:window-width="1920"
     inkscape:window-height="990"
     id="namedview1078"
     showgrid="false"
     inkscape:pagecheckerboard="true"
     units="px"
     inkscape:zoom="0.31403117"
     inkscape:cx="375.11935"
     inkscape:cy="854.52117"
     inkscape:window-x="0"
     inkscape:window-y="30"
     inkscape:window-maximized="1"
     inkscape:current-layer="svg1076" />
  <defs
     id="defs998">
    <symbol
       id="m"
       overflow="visible">
      <path
         d="m 32.344,-1.9375 c -1.668,0.86719 -3.4062,1.5156 -5.2188,1.9531 -1.8047,0.44531 -3.6836,0.67188 -5.6406,0.67188 -5.8672,0 -10.512,-1.6328 -13.938,-4.9062 -3.4297,-3.2812 -5.1406,-7.7266 -5.1406,-13.344 0,-5.625 1.7109,-10.07 5.1406,-13.344 3.4258,-3.2812 8.0703,-4.9219 13.938,-4.9219 1.957,0 3.8359,0.21875 5.6406,0.65625 1.8125,0.4375 3.5508,1.0898 5.2188,1.9531 v 7.2812 c -1.6797,-1.1445 -3.3359,-1.9844 -4.9688,-2.5156 -1.6367,-0.53125 -3.3594,-0.79688 -5.1719,-0.79688 -3.2422,0 -5.7891,1.0391 -7.6406,3.1094 -1.8555,2.0742 -2.7812,4.9336 -2.7812,8.5781 0,3.625 0.92578,6.4805 2.7812,8.5625 1.8516,2.0742 4.3984,3.1094 7.6406,3.1094 1.8125,0 3.5352,-0.26562 5.1719,-0.79688 1.6328,-0.53906 3.2891,-1.3828 4.9688,-2.5312 z"
         id="path959" />
    </symbol>
    <symbol
       id="h"
       overflow="visible">
      <path
         d="m 23.672,-19.219 c -0.74219,-0.34375 -1.4766,-0.59766 -2.2031,-0.76562 -0.73047,-0.16406 -1.4648,-0.25 -2.2031,-0.25 -2.1797,0 -3.8516,0.69922 -5.0156,2.0938 -1.168,1.3984 -1.75,3.3867 -1.75,5.9688 V -2e-5 H 4.0627 v -26.406 h 8.4375 v 4.3438 c 1.082,-1.7266 2.3281,-2.9883 3.7344,-3.7812 1.4062,-0.80078 3.0859,-1.2031 5.0469,-1.2031 0.28906,0 0.59766,0.01563 0.92188,0.04687 0.33203,0.02344 0.8125,0.07031 1.4375,0.14062 z"
         id="path962" />
    </symbol>
    <symbol
       id="c"
       overflow="visible">
      <path
         d="m 30.406,-13.266 v 2.3906 H 10.672 c 0.20703,1.9922 0.92188,3.4805 2.1406,4.4688 1.2266,0.99219 2.9453,1.4844 5.1562,1.4844 1.7695,0 3.5859,-0.25781 5.4531,-0.78125 1.8633,-0.53125 3.7734,-1.332 5.7344,-2.4062 v 6.5 c -1.9922,0.76172 -3.9844,1.3359 -5.9844,1.7188 -1.9922,0.38281 -3.9844,0.57812 -5.9844,0.57812 -4.7812,0 -8.4961,-1.2109 -11.141,-3.6406 -2.6484,-2.4258 -3.9688,-5.832 -3.9688,-10.219 0,-4.3125 1.2969,-7.7031 3.8906,-10.172 2.6016,-2.4688 6.1875,-3.7031 10.75,-3.7031 4.1445,0 7.4609,1.25 9.9531,3.75 2.4883,2.5 3.7344,5.8438 3.7344,10.031 z m -8.6719,-2.8125 c 0,-1.6016 -0.46875,-2.8945 -1.4062,-3.875 -0.92969,-0.97656 -2.1484,-1.4688 -3.6562,-1.4688 -1.6367,0 -2.9648,0.46094 -3.9844,1.375 -1.0234,0.91797 -1.6562,2.2422 -1.9062,3.9688 z"
         id="path965" />
    </symbol>
    <symbol
       id="b"
       overflow="visible">
      <path
         d="m 15.891,-11.875 c -1.7617,0 -3.0898,0.29688 -3.9844,0.89062 -0.88672,0.59375 -1.3281,1.4766 -1.3281,2.6406 0,1.0625 0.35938,1.9023 1.0781,2.5156 0.71875,0.60547 1.7109,0.90625 2.9844,0.90625 1.582,0 2.9141,-0.56641 4,-1.7031 1.0938,-1.1445 1.6406,-2.5781 1.6406,-4.2969 v -0.95312 z m 12.891,-3.1875 V -5e-4 h -8.5 v -3.9062 c -1.1367,1.5938 -2.4141,2.7617 -3.8281,3.5 -1.418,0.72656 -3.1367,1.0938 -5.1562,1.0938 -2.7422,0 -4.9648,-0.79688 -6.6719,-2.3906 -1.6992,-1.6016 -2.5469,-3.6758 -2.5469,-6.2188 0,-3.0938 1.0625,-5.3633 3.1875,-6.8125 2.1328,-1.4453 5.4766,-2.1719 10.031,-2.1719 h 4.9844 v -0.65625 c 0,-1.332 -0.53125,-2.3047 -1.5938,-2.9219 -1.0547,-0.625 -2.6953,-0.9375 -4.9219,-0.9375 -1.8047,0 -3.4844,0.18359 -5.0469,0.54688 -1.5547,0.35547 -2.9961,0.89062 -4.3281,1.6094 v -6.4375 c 1.8008,-0.4375 3.6133,-0.76953 5.4375,-1 1.8203,-0.22656 3.6445,-0.34375 5.4688,-0.34375 4.7578,0 8.1953,0.94531 10.312,2.8281 2.1133,1.875 3.1719,4.9297 3.1719,9.1562 z"
         id="path968" />
    </symbol>
    <symbol
       id="g"
       overflow="visible">
      <path
         d="m 13.266,-33.906 v 7.5 h 8.7031 v 6.0312 H 13.266 v 11.203 c 0,1.2305 0.24219,2.0625 0.73438,2.5 0.48828,0.42969 1.457,0.64062 2.9062,0.64062 h 4.3281 V 2e-5 h -7.2344 c -3.3359,0 -5.6992,-0.69141 -7.0938,-2.0781 -1.3867,-1.3945 -2.0781,-3.7578 -2.0781,-7.0938 v -11.203 h -4.1875 v -6.0312 h 4.1875 v -7.5 z"
         id="path971" />
    </symbol>
    <symbol
       id="f"
       overflow="visible">
      <path
         d="m 22.016,-22.531 v -14.156 h 8.4844 V 0.001 H 22.016 v -3.8125 c -1.1562,1.5547 -2.4375,2.6953 -3.8438,3.4219 -1.3984,0.71875 -3.0156,1.0781 -4.8594,1.0781 -3.25,0 -5.9219,-1.2891 -8.0156,-3.875 -2.0859,-2.5938 -3.125,-5.9219 -3.125,-9.9844 0,-4.0703 1.0391,-7.3984 3.125,-9.9844 2.0938,-2.5938 4.7656,-3.8906 8.0156,-3.8906 1.8203,0 3.4375,0.37109 4.8438,1.1094 1.4141,0.73047 2.7031,1.8672 3.8594,3.4062 z m -5.5625,17.078 c 1.8125,0 3.1914,-0.65625 4.1406,-1.9688 0.94531,-1.3203 1.4219,-3.2383 1.4219,-5.75 0,-2.5195 -0.47656,-4.4375 -1.4219,-5.75 -0.94922,-1.3203 -2.3281,-1.9844 -4.1406,-1.9844 -1.793,0 -3.1641,0.66406 -4.1094,1.9844 -0.94922,1.3125 -1.4219,3.2305 -1.4219,5.75 0,2.5117 0.47266,4.4297 1.4219,5.75 0.94531,1.3125 2.3164,1.9688 4.1094,1.9688 z"
         id="path974" />
    </symbol>
    <symbol
       id="e"
       overflow="visible">
      <path
         d="m 18.109,-5.4531 c 1.8008,0 3.1758,-0.65625 4.125,-1.9688 0.95703,-1.3203 1.4375,-3.2383 1.4375,-5.75 0,-2.5195 -0.48047,-4.4375 -1.4375,-5.75 -0.94922,-1.3203 -2.3242,-1.9844 -4.125,-1.9844 -1.8125,0 -3.2031,0.66797 -4.1719,2 -0.96094,1.3242 -1.4375,3.2344 -1.4375,5.7344 0,2.4922 0.47656,4.4023 1.4375,5.7344 0.96875,1.3242 2.3594,1.9844 4.1719,1.9844 z m -5.6094,-17.078 c 1.1562,-1.5391 2.4414,-2.6758 3.8594,-3.4062 1.4141,-0.73828 3.0391,-1.1094 4.875,-1.1094 3.2578,0 5.9297,1.2969 8.0156,3.8906 2.0938,2.5859 3.1406,5.9141 3.1406,9.9844 0,4.0625 -1.0469,7.3906 -3.1406,9.9844 -2.0859,2.5859 -4.7578,3.875 -8.0156,3.875 -1.8359,0 -3.4609,-0.36719 -4.875,-1.0938 -1.418,-0.73828 -2.7031,-1.875 -3.8594,-3.4062 V 2e-4 H 4.0621 v -36.688 h 8.4375 z"
         id="path977" />
    </symbol>
    <symbol
       id="a"
       overflow="visible">
      <path
         d="m 0.59375,-26.406 h 8.4375 l 7.0938,17.922 6.0312,-17.922 h 8.4375 L 19.49975,2.5 c -1.1172,2.9375 -2.418,4.9883 -3.9062,6.1562 -1.4922,1.1758 -3.4492,1.7656 -5.875,1.7656 H 4.82795 V 4.8749 h 2.6406 c 1.4375,0 2.4766,-0.23047 3.125,-0.6875 0.65625,-0.44922 1.1641,-1.2617 1.5312,-2.4375 l 0.23438,-0.73438 z"
         id="path980" />
    </symbol>
    <symbol
       id="d"
       overflow="visible">
      <path
         d="m 4.4375,-35.203 h 24.484 v 6.8594 h -15.406 v 6.5625 h 14.484 v 6.8594 h -14.484 v 8.0625 h 15.922 V 2e-4 h -25 z"
         id="path983" />
    </symbol>
    <symbol
       id="l"
       overflow="visible">
      <path
         d="m 3.7656,-10.281 v -16.125 h 8.5 v 2.6406 c 0,1.4297 -0.01172,3.2266 -0.03125,5.3906 -0.01172,2.1562 -0.01563,3.6016 -0.01563,4.3281 0,2.1172 0.05078,3.6406 0.15625,4.5781 0.11328,0.9375 0.30078,1.6211 0.5625,2.0469 0.35156,0.55469 0.80469,0.98047 1.3594,1.2812 0.5625,0.29297 1.2031,0.4375 1.9219,0.4375 1.7578,0 3.1406,-0.67578 4.1406,-2.0312 1.0078,-1.3516 1.5156,-3.2266 1.5156,-5.625 v -13.047 h 8.4375 V -2e-4 h -8.4375 v -3.8125 c -1.2734,1.5312 -2.6211,2.668 -4.0469,3.4062 -1.418,0.72656 -2.9844,1.0938 -4.7031,1.0938 -3.043,0 -5.3672,-0.92969 -6.9688,-2.7969 -1.5938,-1.875 -2.3906,-4.5977 -2.3906,-8.1719 z"
         id="path986" />
    </symbol>
    <symbol
       id="k"
       overflow="visible">
      <path
         d="m 25.391,-25.578 v 6.8906 c -1.1484,-0.78906 -2.2969,-1.375 -3.4531,-1.75 -1.1562,-0.375 -2.3555,-0.5625 -3.5938,-0.5625 -2.3555,0 -4.1875,0.6875 -5.5,2.0625 -1.3125,1.375 -1.9688,3.2969 -1.9688,5.7656 0,2.4609 0.65625,4.3828 1.9688,5.7656 1.3125,1.375 3.1445,2.0625 5.5,2.0625 1.3203,0 2.5703,-0.19531 3.75,-0.59375 1.1875,-0.39453 2.2852,-0.97656 3.2969,-1.75 v 6.9062 c -1.3242,0.49219 -2.668,0.85156 -4.0312,1.0938 -1.3555,0.25 -2.7148,0.375 -4.0781,0.375 -4.7617,0 -8.4844,-1.2188 -11.172,-3.6562 -2.6875,-2.4453 -4.0312,-5.8477 -4.0312,-10.203 0,-4.3516 1.3438,-7.7539 4.0312,-10.203 2.6875,-2.4453 6.4102,-3.6719 11.172,-3.6719 1.3828,0 2.75,0.125 4.0938,0.375 1.3438,0.24219 2.6797,0.60547 4.0156,1.0938 z"
         id="path989" />
    </symbol>
    <symbol
       id="j"
       overflow="visible">
      <path
         d="M 4.0625,-36.688 H 12.5 V 0 H 4.0625 Z"
         id="path992" />
    </symbol>
    <symbol
       id="i"
       overflow="visible">
      <path
         d="m 12.5,-3.8125 v 13.859 H 4.0625 v -36.453 H 12.5 v 3.875 c 1.1562,-1.5391 2.4414,-2.6758 3.8594,-3.4062 1.4141,-0.73828 3.0391,-1.1094 4.875,-1.1094 3.2578,0 5.9297,1.2969 8.0156,3.8906 2.0938,2.5859 3.1406,5.9141 3.1406,9.9844 0,4.0625 -1.0469,7.3906 -3.1406,9.9844 -2.0859,2.5859 -4.7578,3.875 -8.0156,3.875 -1.8359,0 -3.4609,-0.36719 -4.875,-1.0938 -1.418,-0.73828 -2.7031,-1.875 -3.8594,-3.4062 z m 5.6094,-17.094 c -1.8125,0 -3.2031,0.66797 -4.1719,2 -0.96094,1.3242 -1.4375,3.2344 -1.4375,5.7344 0,2.4922 0.47656,4.4023 1.4375,5.7344 0.96875,1.3242 2.3594,1.9844 4.1719,1.9844 1.8008,0 3.1758,-0.65625 4.125,-1.9688 0.95703,-1.3203 1.4375,-3.2383 1.4375,-5.75 0,-2.5195 -0.48047,-4.4375 -1.4375,-5.75 -0.94922,-1.3203 -2.3242,-1.9844 -4.125,-1.9844 z"
         id="path995" />
    </symbol>
  </defs>
  <g
     id="g8806"
     transform="translate(-69.872095,0.12313)"
     style="fill-opacity:1;fill:#ffffff">
    <path
       d="m 161.51,231.72 c -4.2578,0 -7.9766,2.7422 -9.2305,6.8281 l -4.9258,12.484 h 135.06 v -9.6562 c 0,-5.3281 -4.3242,-9.6562 -9.6562,-9.6562 z"
       id="path1000"
       style="fill-opacity:1;fill:#ffffff" />
    <path
       d="m 127.93,450.75 v -72.453 c 0,-2.3164 0.41406,-4.6055 1.2266,-6.7773 l 26,-69.352 c 2.8203,-7.4844 10.094,-12.512 18.086,-12.512 h 70.551 c 10.648,0 19.309,8.6602 19.309,19.309 v 154.48 h 232.8 c 12.195,-11.926 28.852,-19.309 47.203,-19.309 18.355,0 35.008,7.3867 47.203,19.309 h 28.754 l -6.1875,-49.473 c -0.59766,-4.8203 -4.7227,-8.4609 -9.5781,-8.4609 h -301.57 c -10.648,0 -19.309,-8.6602 -19.309,-19.309 v -115.86 h -142.66 l -33.164,84.223 -31.254,15.633 c -3.293,1.6406 -5.3398,4.9414 -5.3398,8.6328 v 84.617 h 39.691 c 5.3008,-5.1875 11.473,-9.4648 18.238,-12.699 z"
       id="path1002"
       style="fill-opacity:1;fill:#ffffff" />
    <path
       d="m 398.28,386.21 v -71.254 l -19.312,-3.8633 v 75.117 z"
       id="path1004"
       style="fill-opacity:1;fill:#ffffff" />
    <path
       d="m 436.9,386.21 v -63.531 l -19.312,-3.8633 v 67.395 z"
       id="path1006"
       style="fill-opacity:1;fill:#ffffff" />
    <path
       d="m 591.38,386.21 v -62.672 c 0,-3.8242 -2.7227,-7.1172 -6.4805,-7.8516 l -235.07,-45.195 c -5.4336,-1.1484 -9.4805,2.957 -9.4805,7.832 v 107.89 h 19.309 l 0.004,-98.676 212.41,42.484 v 56.191 z"
       id="path1008"
       style="fill-opacity:1;fill:#ffffff" />
    <path
       d="m 243.79,308.96 h -70.551 l -21.723,57.934 h 92.273 z"
       id="path1010"
       style="fill-opacity:1;fill:#ffffff" />
    <path
       d="m 475.52,386.21 v -55.816 l -19.309,-3.8516 v 59.668 z"
       id="path1012"
       style="fill-opacity:1;fill:#ffffff" />
    <path
       d="m 552.76,386.21 v -40.367 l -19.309,-3.8633 v 44.23 z"
       id="path1014"
       style="fill-opacity:1;fill:#ffffff" />
    <path
       d="m 514.14,386.21 v -48.094 l -19.309,-3.8594 v 51.953 z"
       id="path1016"
       style="fill-opacity:1;fill:#ffffff" />
    <path
       d="m 147.24,444.91 c 3.168,-0.45312 6.3711,-0.77344 9.6562,-0.77344 18.363,0 35.008,7.3867 47.203,19.309 l 39.691,0.004 v -77.242 h -96.551 z m 38.621,-39.395 h 38.621 v 19.309 h -38.621 z"
       id="path1018"
       style="fill-opacity:1;fill:#ffffff" />
    <path
       d="m 223.71,502.07 h 252.58 c 0.98438,-6.8164 2.9727,-13.305 5.8398,-19.309 h -264.26 c 2.8711,6.0039 4.8594,12.492 5.8438,19.309 z"
       id="path1020"
       style="fill-opacity:1;fill:#ffffff" />
    <path
       d="m 156.9,463.45 c -26.621,0 -48.277,21.656 -48.277,48.277 0,26.621 21.656,48.277 48.277,48.277 26.621,0 48.277,-21.656 48.277,-48.277 -0.004,-26.621 -21.66,-48.277 -48.277,-48.277 z m 0,67.586 c -10.668,0 -19.309,-8.6406 -19.309,-19.309 0,-10.668 8.6406,-19.309 19.309,-19.309 10.668,0 19.309,8.6406 19.309,19.309 0,10.668 -8.6406,19.309 -19.309,19.309 z"
       id="path1022"
       style="fill-opacity:1;fill:#ffffff" />
    <path
       d="m 543.1,463.45 c -26.621,0 -48.277,21.656 -48.277,48.277 0,26.621 21.656,48.277 48.277,48.277 26.621,0 48.277,-21.656 48.277,-48.277 0,-26.621 -21.656,-48.277 -48.277,-48.277 z m 0,67.586 c -10.668,0 -19.309,-8.6406 -19.309,-19.309 0,-10.668 8.6406,-19.309 19.309,-19.309 10.668,0 19.309,8.6406 19.309,19.309 0.004,10.668 -8.6367,19.309 -19.309,19.309 z"
       id="path1024"
       style="fill-opacity:1;fill:#ffffff" />
    <path
       d="m 604.07,482.76 c 2.8672,6.0039 4.8555,12.492 5.8398,19.309 l 20.086,0.004 v -19.309 z"
       id="path1026"
       style="fill-opacity:1;fill:#ffffff" />
    <path
       d="m 70,492.41 c 0,5.3281 4.3242,9.6562 9.6562,9.6562 h 10.426 c 0.98438,-6.8164 2.9727,-13.305 5.8398,-19.309 L 70,482.75329 Z"
       id="path1028"
       style="fill-opacity:1;fill:#ffffff" />
    <path
       d="m 393.2,106.02 -102.91,-19.301 3.5625,-18.973 104.05,19.512 7.0078,-28.047 -213.41,-43.941 -12.535,75.195 208.01,40.457 z m -141.64,-28.977 -48.277,-9.6562 3.793,-18.934 48.277,9.6562 z"
       id="path1030"
       style="fill-opacity:1;fill:#ffffff" />
    <path
       d="m 441.03,131.71 c 11.973,21.262 32.848,36.391 56.906,40.852 l 10.09,-30.289 9.1641,3.0508 c 17.359,5.7852 36.023,6.9336 53.953,3.3594 l 51.973,-10.391 -5.457,-7.6484 c -20.508,-28.723 -50.98,-47.727 -85.797,-53.539 l -18.508,-3.0781 23.105,-23.113 -12.785,-6.3906 c -7.7266,-3.8633 -16.371,-5.8984 -25.02,-5.8984 -17.504,0 -34.238,8.3633 -44.75,22.371 l -0.61719,0.83203 c 1.8203,3.8711 2.9219,8.1094 2.9219,12.59 0,2.7422 -0.375,5.4922 -1.1289,8.168 z m 18.172,-23.23 16.52,5.3789 c 6.5664,2.1523 13.645,2.5664 20.469,1.2539 l 17.359,-3.3984 -3.8711,-3.7734 c -10.738,-10.496 -26.387,-14.086 -40.82,-9.3867 l -5.9883,-18.355 c 21.301,-6.9414 44.402,-1.582 60.285,13.922 l 30.191,29.496 -53.469,10.445 c -3.793,0.74609 -7.6562,1.1133 -11.508,1.1133 -6.3164,0 -12.621,-0.99609 -18.633,-2.9531 l -16.52,-5.3789 z"
       id="path1032"
       style="fill-opacity:1;fill:#ffffff" />
    <path
       d="m 372.08,190.49 10.195,-40.793 -34.75,-6.7578 17.977,47.93 c 1.0547,2.8242 5.8359,2.5547 6.5781,-0.37891 z"
       id="path1034"
       style="fill-opacity:1;fill:#ffffff" />
    <path
       d="m 100.74,75.262 59.262,11.527 12.57,-75.406 -51.488,-10.602 c -2.5312,-0.51953 -5.0977,-0.78125 -7.668,-0.78125 h -5.4336 c -20.941,0 -37.984,17.043 -37.984,37.984 0,18.133 12.93,33.812 30.742,37.277 z"
       id="path1036"
       style="fill-opacity:1;fill:#ffffff" />
    <path
       d="m 417.45,9.0078 c 0.0898,-0.36719 0.13672,-0.73437 0.13672,-1.0898 V 4.4414 c 0,-3.5039 -4.6328,-5.6875 -7.3398,-3.3711 l -37.191,31.871 36.527,7.5195 z"
       id="path1038"
       style="fill-opacity:1;fill:#ffffff" />
    <path
       d="m 407.86,134.98 c 0.65625,0.125 1.3438,0.19141 2.0273,0.19141 h 2.1133 c 4.6836,0 8.8633,-3.1484 10.148,-7.6562 l 14.348,-50.195 c 0.25781,-0.9375 0.40625,-1.9219 0.40625,-2.9062 0,-4.9922 -3.543,-9.3359 -8.4297,-10.34 l -4.6445,-0.95703 -17.883,71.496 z"
       id="path1040"
       style="fill-opacity:1;fill:#ffffff" />
  </g>
</svg>
