<?xml version="1.0" encoding="UTF-8" standalone="no"?>
<svg
   xmlns:dc="http://purl.org/dc/elements/1.1/"
   xmlns:cc="http://creativecommons.org/ns#"
   xmlns:rdf="http://www.w3.org/1999/02/22-rdf-syntax-ns#"
   xmlns:svg="http://www.w3.org/2000/svg"
   xmlns="http://www.w3.org/2000/svg"
   xmlns:sodipodi="http://sodipodi.sourceforge.net/DTD/sodipodi-0.dtd"
   xmlns:inkscape="http://www.inkscape.org/namespaces/inkscape"
   version="1.1"
   x="0px"
   y="0px"
   viewBox="0 0 93 93"
   enable-background="new 0 0 100 100"
   xml:space="preserve"
   id="svg8"
   sodipodi:docname="Nuclear U-Boot.svg"
   width="93"
   height="93"
   inkscape:export-filename="/home/marek/Downloads/Nuclear U-Boot.png"
   inkscape:export-xdpi="206.45161"
   inkscape:export-ydpi="206.45161"
   inkscape:version="1.0.2 (e86c870879, 2021-01-15)"><metadata
     id="metadata14"><rdf:RDF><cc:Work
         rdf:about=""><dc:format>image/svg+xml</dc:format><dc:type
           rdf:resource="http://purl.org/dc/dcmitype/StillImage" /><dc:title></dc:title></cc:Work></rdf:RDF></metadata><defs
     id="defs12" /><sodipodi:namedview
     pagecolor="#ffffff"
     bordercolor="#666666"
     borderopacity="1"
     objecttolerance="10"
     gridtolerance="10"
     guidetolerance="10"
     inkscape:pageopacity="0"
     inkscape:pageshadow="2"
     inkscape:window-width="1920"
     inkscape:window-height="990"
     id="namedview10"
     showgrid="false"
     inkscape:pagecheckerboard="true"
     inkscape:zoom="6.632"
     inkscape:cx="50"
     inkscape:cy="69.883402"
     inkscape:window-x="0"
     inkscape:window-y="30"
     inkscape:window-maximized="1"
     inkscape:current-layer="svg8" /><path
     fill="#000000"
     d="m 0.3,50.443311 c 0,-1.9 2.4,-4.3 6.2,-4.9 3.7,-0.6 8.9,-1 8.9,-1 0,0 0,-0.9 0.7,-1 0.6,-0.1 0.7,0.8 0.7,0.8 l 10,-0.1 1.5,-1.3 v -5.2 c 0,0 0.2,-0.7 1.7,-0.7 5.6,-0.1 11.8,0.9 11.8,0.9 0,0 0.6,3.9 0.8,4.5 0.2,0.6 0.5,1.8 0.5,1.8 h 25.1 c 0,0 5,0 7.6,0.6 2.6,0.6 5.4,1.7 5.9,1.7 0.5,0 1.3,0.1 1.6,-0.9 0.3,-1 1,-3.8 1,-3.8 0,0 1.3,0.1 2.2,0.3 1,0.1 1.5,0.4 1.5,0.4 v 6 c 0,0 1.3,0.4 1.9,0.7 0.6,0.3 1.3,0.7 1.3,0.7 h 0.4 c 0,0 0.2,-2.4 0.7,-2.3 0.5,0.1 0.4,1 0.3,1.4 -0.1,0.4 -0.3,1 -0.3,1 0,0 0.4,0.1 0.4,0.4 0,0.3 -0.3,0.5 -0.3,0.5 0,0 0.2,0.6 0.2,0.9 0.1,0.3 0,1.6 -0.3,1.6 -0.3,0 -0.6,-1 -0.7,-1.4 -0.1,-0.4 0.1,-1.1 0.1,-1.1 l -0.5,0.2 c 0,0 -1.3,0.5 -1.7,0.7 -0.4,0.2 -1.4,0.4 -1.4,0.4 l -0.1,3.1 c 0,0 -1,0.5 -1.9,0.6 -0.9,0.1 -2.3,-0.2 -2.3,-0.2 l -0.9,-1.9 c 0,0 -6.8,1.5 -10,1.5 -3.2,0 -63.5,0 -63.5,0 0,0 -9.1,0.4 -9.1,-4.9"
     id="path2"
     style="fill:#ffffff;fill-opacity:1" /></svg>
