<?xml version="1.0" encoding="UTF-8" standalone="no"?>
<svg
   xmlns:dc="http://purl.org/dc/elements/1.1/"
   xmlns:cc="http://creativecommons.org/ns#"
   xmlns:rdf="http://www.w3.org/1999/02/22-rdf-syntax-ns#"
   xmlns:svg="http://www.w3.org/2000/svg"
   xmlns="http://www.w3.org/2000/svg"
   xmlns:sodipodi="http://sodipodi.sourceforge.net/DTD/sodipodi-0.dtd"
   xmlns:inkscape="http://www.inkscape.org/namespaces/inkscape"
   width="747"
   height="747"
   version="1.1"
   viewBox="0 0 560.25001 560.25001"
   id="svg1239"
   sodipodi:docname="Paratrooper training.svg"
   inkscape:export-filename="/home/marek/git/UnCiv-Logicians/ImageSources/to_edit/Paratrooper training.png"
   inkscape:export-xdpi="6.425703"
   inkscape:export-ydpi="6.425703"
   inkscape:version="1.0.2 (e86c870879, 2021-01-15)">
  <metadata
     id="metadata1245">
    <rdf:RDF>
      <cc:Work
         rdf:about="">
        <dc:format>image/svg+xml</dc:format>
        <dc:type
           rdf:resource="http://purl.org/dc/dcmitype/StillImage" />
        <dc:title></dc:title>
      </cc:Work>
    </rdf:RDF>
  </metadata>
  <defs
     id="defs1243" />
  <sodipodi:namedview
     pagecolor="#ffffff"
     bordercolor="#666666"
     borderopacity="1"
     objecttolerance="10"
     gridtolerance="10"
     guidetolerance="10"
     inkscape:pageopacity="0"
     inkscape:pageshadow="2"
     inkscape:window-width="1920"
     inkscape:window-height="990"
     id="namedview1241"
     showgrid="false"
     inkscape:pagecheckerboard="true"
     units="px"
     inkscape:zoom="0.62806234"
     inkscape:cx="369.05619"
     inkscape:cy="493.52459"
     inkscape:window-x="0"
     inkscape:window-y="30"
     inkscape:window-maximized="1"
     inkscape:current-layer="svg1239" />
  <path
     d="m 363.25033,17.622487 c -3.9727,0.01563 -7.8242,1.3828 -10.918,3.8789 l -38.945,31.137 H 52.637326 c -28.785,0 -52.51599981,23.73 -52.51599981,52.520003 0,28.785 23.72999981,52.5 52.51599981,52.5 H 315.12733 c 25.16,0 48.484,-13.402 61.164,-35.137 l 45.797,-78.547003 c 2.0898,-3.5625 2.8516,-7.75 2.1484,-11.82 -0.69922,-4.0703 -2.8203,-7.7656 -5.9805,-10.422 -3.1602,-2.6602 -7.1602,-4.1172 -11.293,-4.1094 z m 6.1367,35.016 h 7.1602 l -30.488,52.262003 c -6.4336,11.027 -18.164,17.758 -30.93,17.758 H 52.639226 c -9.8711,0 -17.5,-7.6289 -17.5,-17.5 0,-9.871103 7.6289,-17.516003 17.5,-17.516003 l 266.880004,-0.0039 c 3.9688,0.0039 7.8164,-1.3398 10.922,-3.8086 z m -258.3,140.040003 c -47.117004,0 -83.434004,42.918 -75.688004,89.398 l 5.9297,35.973 c 0.0273,0.125 0.0547,0.25 0.0859,0.375 0.0234,0.17188 0.0547,0.34375 0.082,0.51562 0.0117,0.043 0.0234,0.0898 0.0352,0.13672 0.23439,1 0.55469,1.9766 0.95704,2.9219 0.0469,0.0977 0.0898,0.19141 0.13671,0.28906 0.0937,0.21875 0.19142,0.43359 0.29297,0.64844 0.0195,0.0469 0.043,0.0937 0.0664,0.13672 0.19141,0.37891 0.39844,0.75 0.61719,1.1133 l 49.988,83.262 v 12.715 h -0.004 c -0.004,4.6445 1.8359,9.0977 5.1211,12.383 3.281204,3.2891 7.734404,5.1328 12.379004,5.1328 4.6445,0 9.0977,-1.8438 12.379,-5.1328 3.2852,-3.2852 5.125,-7.7383 5.1211,-12.383 v -12.598 l 50.004,-83.379 c 0.30469,-0.51172 0.58203,-1.0352 0.83594,-1.5742 0.0391,-0.0898 0.082,-0.17969 0.12109,-0.27344 0.61328,-1.3672 1.0508,-2.8086 1.2969,-4.2891 l 0.12109,-0.69922 v -0.0352 l 5.8945,-35.238 c 7.7461,-46.48 -28.656,-89.398 -75.773,-89.398 z m 0,35 c 26.168,0 45.574,22.828 41.27,48.637 l -3.5547,21.328 H 73.439326 l -3.5547,-21.328 c -4.3008,-25.809 15.035,-48.637 41.203004,-48.637 z m 372.24,0 c -47.117,0 -83.52,42.918 -75.773,89.398 l 6.0156,35.973 c 0.40234,2.4062 1.3047,4.6992 2.6484,6.7344 l 49.594,82.645 v 12.75 c 0,4.6445 1.8477,9.0977 5.1328,12.383 3.2852,3.2812 7.7383,5.1211 12.383,5.1172 4.6406,0 9.0938,-1.8438 12.375,-5.125 3.2812,-3.2812 5.125,-7.7344 5.125,-12.375 v -12.715 l 49.523,-82.562 v 0.004 c 1.3906,-2.0664 2.3203,-4.4023 2.7344,-6.8555 l 6,-35.973 c 7.7461,-46.477 -28.641,-89.398 -75.758,-89.398 z m 0,34.949 c 26.168,0 45.504,22.895 41.203,48.707 l -3.5547,21.309 h -75.312 l -3.5547,-21.309 c -4.3008,-25.812 15.055,-48.707 41.219,-48.707 z m -185.69,35.016 c -47.117,0 -83.52,42.969 -75.773,89.449 l 5.9453,35.562 v 0.004 c 0.0664,0.41797 0.14453,0.83203 0.23828,1.2461 0.28906,1.3203 0.73438,2.6055 1.3164,3.8281 0.0312,0.0508 0.0586,0.10156 0.0859,0.15234 0.008,0.0156 0.0117,0.0312 0.0195,0.0469 0.13281,0.27344 0.27734,0.54297 0.42578,0.80469 0.1875,0.34375 0.38672,0.67969 0.59766,1.0078 l 49.629,82.699 v 12.684 c 0,4.6445 1.8438,9.0977 5.1289,12.379 3.2852,3.2852 7.7422,5.125 12.387,5.1211 4.6406,0 9.0898,-1.8438 12.375,-5.125 3.2812,-3.2812 5.125,-7.7344 5.125,-12.375 v -12.68 l 49.816,-83.004 -0.004,-0.004 c 0.61719,-0.97656 1.1289,-2.0117 1.5391,-3.0898 0.0859,-0.22266 0.16406,-0.44531 0.23828,-0.66797 0.0352,-0.10938 0.0703,-0.21484 0.10156,-0.32422 0.0703,-0.22266 0.13281,-0.44141 0.19141,-0.66797 0.0274,-0.11328 0.0586,-0.22656 0.0859,-0.33984 0.0547,-0.22266 0.10547,-0.44531 0.15234,-0.66797 0.0234,-0.11328 0.0469,-0.22656 0.0664,-0.33984 0.0195,-0.10938 0.0391,-0.21484 0.0547,-0.32422 l 6.0156,-35.922 c 7.7461,-46.477 -28.641,-89.449 -75.758,-89.449 z m -208.100004,35 h 43.203004 l -21.582,35.973 z m 208.100004,0 c 26.168,0 45.504,22.895 41.203,48.707 l -3.5547,21.312 h -75.312 l -3.5547,-21.312 c -4.3008,-25.812 15.051,-48.707 41.219,-48.707 z m 164.07,35.016 h 43.184 l -21.566,35.973 z m -185.66,70.02 h 43.137 l -21.551,35.977 z"
     fill-rule="evenodd"
     id="path1237"
     style="fill:#ffffff;fill-opacity:1" />
</svg>
