<?xml version="1.0" encoding="UTF-8" standalone="no"?>
<svg
   xmlns:dc="http://purl.org/dc/elements/1.1/"
   xmlns:cc="http://creativecommons.org/ns#"
   xmlns:rdf="http://www.w3.org/1999/02/22-rdf-syntax-ns#"
   xmlns:svg="http://www.w3.org/2000/svg"
   xmlns="http://www.w3.org/2000/svg"
   xmlns:sodipodi="http://sodipodi.sourceforge.net/DTD/sodipodi-0.dtd"
   xmlns:inkscape="http://www.inkscape.org/namespaces/inkscape"
   width="934"
   height="934"
   version="1.1"
   viewBox="0 0 700.50002 700.50002"
   id="svg191"
   sodipodi:docname="Private military company.svg"
   inkscape:version="1.0.2 (e86c870879, 2021-01-15)">
  <metadata
     id="metadata195">
    <rdf:RDF>
      <cc:Work
         rdf:about="">
        <dc:format>image/svg+xml</dc:format>
        <dc:type
           rdf:resource="http://purl.org/dc/dcmitype/StillImage" />
        <dc:title></dc:title>
      </cc:Work>
    </rdf:RDF>
  </metadata>
  <sodipodi:namedview
     pagecolor="#ffffff"
     bordercolor="#666666"
     borderopacity="1"
     objecttolerance="10"
     gridtolerance="10"
     guidetolerance="10"
     inkscape:pageopacity="0"
     inkscape:pageshadow="2"
     inkscape:window-width="1920"
     inkscape:window-height="990"
     id="namedview193"
     showgrid="false"
     units="px"
     inkscape:zoom="0.62806234"
     inkscape:cx="420.2707"
     inkscape:cy="486.82202"
     inkscape:window-x="0"
     inkscape:window-y="30"
     inkscape:window-maximized="1"
     inkscape:current-layer="svg191" />
  <defs
     id="defs65">
    <symbol
       id="u"
       overflow="visible">
      <path
         d="M 6.1406,-0.35938 C 5.81638,-0.20313 5.48435,-0.08204 5.1406,0 4.79685,0.08204 4.44138,0.125 4.0781,0.125 c -1.1172,0 -2,-0.30469 -2.6562,-0.92188 -0.64844,-0.625 -0.96875,-1.4688 -0.96875,-2.5312 0,-1.0703 0.32031,-1.9141 0.96875,-2.5312 0.65625,-0.625 1.5391,-0.9375 2.6562,-0.9375 0.36328,0 0.71875,0.042969 1.0625,0.125 0.34375,0.085937 0.67578,0.21094 1,0.375 v 1.375 C 5.81638,-5.14053 5.49998,-5.29678 5.18748,-5.39053 4.87498,-5.49209 4.55076,-5.54678 4.21873,-5.54678 c -0.61719,0 -1.1016,0.19922 -1.4531,0.59375 -0.35547,0.38672 -0.53125,0.92969 -0.53125,1.625 0,0.6875 0.17578,1.2305 0.53125,1.625 0.35156,0.38672 0.83594,0.57812 1.4531,0.57812 0.33203,0 0.65625,-0.046875 0.96875,-0.14062 0.3125,-0.10156 0.62891,-0.26562 0.95312,-0.48438 z"
         id="path2" />
    </symbol>
    <symbol
       id="e"
       overflow="visible">
      <path
         d="M 4.4844,-3.6406 C 4.34768,-3.7031 4.20706,-3.74998 4.06252,-3.78122 3.9258,-3.820282 3.78908,-3.84372 3.65627,-3.84372 c -0.41797,0 -0.73438,0.13672 -0.95312,0.40625 -0.21875,0.26172 -0.32812,0.63672 -0.32812,1.125 V 3e-5 h -1.6094 v -5 h 1.6094 v 0.8125 c 0.19531,-0.32031 0.42969,-0.55469 0.70312,-0.70312 0.26953,-0.15625 0.58594,-0.23438 0.95312,-0.23438 0.0625,0 0.125,0.00781 0.1875,0.015625 0.0625,0 0.14844,0.00781 0.26562,0.015625 z"
         id="path5" />
    </symbol>
    <symbol
       id="b"
       overflow="visible">
      <path
         d="m 5.7656,-2.5156 v 0.45312 H 2.0312 c 0.03125,0.375 0.16016,0.65625 0.39062,0.84375 0.23828,0.1875 0.56641,0.28125 0.98438,0.28125 0.33203,0 0.67578,-0.046875 1.0312,-0.14062 0.35156,-0.10156 0.71875,-0.25391 1.0938,-0.45312 v 1.2344 c -0.375,0.13672 -0.75781,0.24219 -1.1406,0.3125 -0.375,0.070312 -0.75,0.10938 -1.125,0.10938 -0.90625,0 -1.6172,-0.22656 -2.125,-0.6875 -0.5,-0.45703 -0.75,-1.1016 -0.75,-1.9375 0,-0.8125 0.24219,-1.4531 0.73438,-1.9219 0.5,-0.46875 1.1797,-0.70312 2.0469,-0.70312 0.78125,0 1.4062,0.24219 1.875,0.71875 0.47656,0.46875 0.71875,1.1016 0.71875,1.8906 z M 4.125,-3.04685 c 0,-0.30078 -0.089844,-0.54688 -0.26562,-0.73438 -0.17969,-0.1875 -0.41406,-0.28125 -0.70312,-0.28125 -0.30469,0 -0.55469,0.089844 -0.75,0.26562 -0.19922,0.16797 -0.32031,0.41797 -0.35938,0.75 z"
         id="path8" />
    </symbol>
    <symbol
       id="d"
       overflow="visible">
      <path
         d="m 3.0156,-2.25 c -0.33594,0 -0.58984,0.058594 -0.76562,0.17188 -0.16797,0.11719 -0.25,0.28125 -0.25,0.5 0,0.19922 0.066406,0.35547 0.20312,0.46875 0.14453,0.11719 0.33594,0.17188 0.57812,0.17188 0.30078,0 0.55078,-0.10156 0.75,-0.3125 0.20703,-0.21875 0.3125,-0.48828 0.3125,-0.8125 v -0.1875 z M 5.4531,-2.85938 V 2e-5 H 3.8437 V -0.73436 C 3.62495,-0.42967 3.37886,-0.21092 3.10932,-0.07811 2.8476,0.0547 2.52338,0.12501 2.14057,0.12501 c -0.52344,0 -0.94531,-0.14844 -1.2656,-0.45312 -0.32422,-0.30078 -0.48438,-0.69141 -0.48438,-1.1719 0,-0.59375 0.20312,-1.0234 0.60938,-1.2969 0.40625,-0.26953 1.0391,-0.40625 1.9062,-0.40625 h 0.9375 v -0.125 c 0,-0.25 -0.10156,-0.42969 -0.29688,-0.54688 -0.19922,-0.125 -0.51172,-0.1875 -0.9375,-0.1875 -0.34375,0 -0.66406,0.039062 -0.95312,0.10938 -0.29297,0.0625 -0.57031,0.16406 -0.82812,0.29688 v -1.2188 c 0.34375,-0.082031 0.6875,-0.14453 1.0312,-0.1875 0.35156,-0.039062 0.70312,-0.0625 1.0469,-0.0625 0.89453,0 1.5391,0.17969 1.9375,0.53125 0.40625,0.35547 0.60938,0.93359 0.60938,1.7344 z"
         id="path11" />
    </symbol>
    <symbol
       id="c"
       overflow="visible">
      <path
         d="M 2.5156,-6.4219 V -5 h 1.6562 v 1.1406 H 2.5156 v 2.125 c 0,0.23047 0.046875,0.38672 0.14062,0.46875 0.09375,0.085937 0.27344,0.125 0.54688,0.125 H 4.03122 V -5e-5 h -1.375 C 2.0195,-5e-5 1.57032,-0.12896 1.31242,-0.39067 1.0507,-0.6602 0.9218,-1.10942 0.9218,-1.73447 v -2.125 H 0.12492 v -1.1406 H 0.9218 v -1.4219 z"
         id="path14" />
    </symbol>
    <symbol
       id="k"
       overflow="visible">
      <path
         d="M 4.1719,-4.2812 V -6.9531 H 5.7813 V 0 H 4.1719 V -0.71875 C 3.95315,-0.42578 3.70706,-0.21094 3.43752,-0.07813 3.1758,0.05468 2.87502,0.12499 2.53127,0.12499 c -0.625,0 -1.1367,-0.24219 -1.5312,-0.73438 -0.39844,-0.48828 -0.59375,-1.1172 -0.59375,-1.8906 0,-0.76953 0.19531,-1.3984 0.59375,-1.8906 0.39453,-0.48828 0.90625,-0.73438 1.5312,-0.73438 0.34375,0 0.64453,0.070312 0.90625,0.20312 0.26953,0.13672 0.51562,0.35156 0.73438,0.64062 z m -1.0469,3.25 c 0.34375,0 0.60156,-0.125 0.78125,-0.375 0.17578,-0.25 0.26562,-0.61328 0.26562,-1.0938 0,-0.47656 -0.089844,-0.84375 -0.26562,-1.0938 -0.17969,-0.25 -0.4375,-0.375 -0.78125,-0.375 -0.34375,0 -0.60938,0.125 -0.79688,0.375 -0.17969,0.25 -0.26562,0.61719 -0.26562,1.0938 0,0.48047 0.085938,0.84375 0.26562,1.0938 0.1875,0.25 0.45312,0.375 0.79688,0.375 z"
         id="path17" />
    </symbol>
    <symbol
       id="j"
       overflow="visible">
      <path
         d="m 3.4375,-1.0312 c 0.34375,0 0.60156,-0.125 0.78125,-0.375 0.17578,-0.25 0.26562,-0.61328 0.26562,-1.0938 0,-0.47656 -0.089844,-0.84375 -0.26562,-1.0938 -0.17969,-0.25 -0.4375,-0.375 -0.78125,-0.375 -0.34375,0 -0.60938,0.13281 -0.79688,0.39062 -0.17969,0.25 -0.26562,0.60938 -0.26562,1.0781 0,0.48047 0.085938,0.84375 0.26562,1.0938 0.1875,0.25 0.45312,0.375 0.79688,0.375 z m -1.0625,-3.25 c 0.21875,-0.28906 0.45703,-0.50391 0.71875,-0.64062 0.26953,-0.13281 0.58203,-0.20312 0.9375,-0.20312 0.61328,0 1.1172,0.24609 1.5156,0.73438 0.39453,0.49219 0.59375,1.1211 0.59375,1.8906 0,0.77344 -0.19922,1.4023 -0.59375,1.8906 -0.39844,0.49219 -0.90234,0.73438 -1.5156,0.73438 -0.35547,0 -0.66797,-0.070312 -0.9375,-0.20312 -0.26172,-0.13281 -0.5,-0.34766 -0.71875,-0.64062 V 3e-5 H 0.7656 v -6.9531 H 2.375 Z"
         id="path20" />
    </symbol>
    <symbol
       id="g"
       overflow="visible">
      <path
         d="m 0.10938,-5 h 1.6094 L 3.06258,-1.6094 4.20318,-5 h 1.5938 L 3.70318,0.4688 C 3.48443,1.0313 3.23443,1.42192 2.95318,1.6407 2.67193,1.85948 2.30084,1.96882 1.84378,1.96882 H 0.9219 v -1.0469 h 0.5 c 0.26953,0 0.46094,-0.042969 0.57812,-0.125 C 2.12502,0.710983 2.22268,0.55473 2.2969,0.32817 L 2.343775,0.18755 Z"
         id="path23" />
    </symbol>
    <symbol
       id="i"
       overflow="visible">
      <path
         d="M 6.8438,-0.5 C 6.41411,-0.28906 5.9688,-0.13281 5.5,-0.03125 5.03906,0.07031 4.56641,0.125 4.0781,0.125 c -1.1172,0 -2,-0.30469 -2.6562,-0.92188 -0.64844,-0.625 -0.96875,-1.4688 -0.96875,-2.5312 0,-1.0703 0.32812,-1.9141 0.98438,-2.5312 0.66406,-0.625 1.5781,-0.9375 2.7344,-0.9375 0.4375,0 0.85938,0.042969 1.2656,0.125 0.40625,0.085937 0.78906,0.21094 1.1562,0.375 v 1.375 c -0.375,-0.20703 -0.74609,-0.36328 -1.1094,-0.46875 -0.36719,-0.10156 -0.73438,-0.15625 -1.1094,-0.15625 -0.6875,0 -1.2188,0.19531 -1.5938,0.57812 -0.36719,0.375 -0.54688,0.92188 -0.54688,1.6406 0,0.71094 0.17578,1.2578 0.53125,1.6406 0.36328,0.375 0.875,0.5625 1.5312,0.5625 0.17578,0 0.34375,-0.00781 0.5,-0.03125 0.15625,-0.019531 0.28906,-0.050781 0.40625,-0.09375 v -1.2969 h -1.0469 v -1.1562 h 2.6875 z"
         id="path26" />
    </symbol>
    <symbol
       id="f"
       overflow="visible">
      <path
         d="M 5.7969,-3.0469 V 0 H 4.1875 v -2.3281 c 0,-0.4375 -0.011719,-0.73438 -0.03125,-0.89062 C 4.144531,-3.38278 4.113281,-3.50778 4.0625,-3.59372 4,-3.69528 3.91016,-3.77341 3.79688,-3.8281 3.69141,-3.8906 3.57032,-3.92185 3.4375,-3.92185 c -0.33594,0 -0.59375,0.13281 -0.78125,0.39062 C 2.46875,-3.26951 2.375,-2.91404 2.375,-2.46873 V 7e-5 H 0.7656 v -5 H 2.375 v 0.71875 c 0.23828,-0.28906 0.49219,-0.50391 0.76562,-0.64062 0.26953,-0.13281 0.56641,-0.20312 0.89062,-0.20312 0.58203,0 1.0195,0.17969 1.3125,0.53125 0.30078,0.35547 0.45312,0.87109 0.45312,1.5469 z"
         id="path29" />
    </symbol>
    <symbol
       id="t"
       overflow="visible">
      <path
         d="m 0.84375,-6.6719 h 1.7188 v 2.4375 l 2.4844,-2.4375 h 2 l -3.2188,3.1562 3.5469,3.5156 h -2.1562 l -2.6562,-2.625 v 2.625 h -1.7188 z"
         id="path32" />
    </symbol>
    <symbol
       id="h"
       overflow="visible">
      <path
         d="M 5.7969,-3.0469 V 0 H 4.1875 v -2.3281 c 0,-0.4375 -0.011719,-0.73438 -0.03125,-0.89062 C 4.144531,-3.38278 4.113281,-3.50778 4.0625,-3.59372 4,-3.69528 3.91016,-3.77341 3.79688,-3.8281 3.69141,-3.8906 3.57032,-3.92185 3.4375,-3.92185 c -0.33594,0 -0.59375,0.13281 -0.78125,0.39062 C 2.46875,-3.26951 2.375,-2.91404 2.375,-2.46873 V 7e-5 H 0.7656 v -6.9531 H 2.375 v 2.6719 c 0.23828,-0.28906 0.49219,-0.50391 0.76562,-0.64062 0.26953,-0.13281 0.56641,-0.20312 0.89062,-0.20312 0.58203,0 1.0195,0.17969 1.3125,0.53125 0.30078,0.35547 0.45312,0.87109 0.45312,1.5469 z"
         id="path35" />
    </symbol>
    <symbol
       id="a"
       overflow="visible">
      <path
         d="m 3.1562,-3.9844 c -0.35547,0 -0.625,0.13281 -0.8125,0.39062 -0.1875,0.25 -0.28125,0.61719 -0.28125,1.0938 0,0.48047 0.09375,0.85156 0.28125,1.1094 0.1875,0.25 0.45703,0.375 0.8125,0.375 0.34375,0 0.60938,-0.125 0.79688,-0.375 0.1875,-0.25781 0.28125,-0.62891 0.28125,-1.1094 0,-0.47656 -0.09375,-0.84375 -0.28125,-1.0938 C 3.76558,-3.85159 3.49996,-3.9844 3.1562,-3.9844 Z m 0,-1.1406 c 0.85156,0 1.5195,0.23438 2,0.70312 0.48828,0.46094 0.73438,1.1016 0.73438,1.9219 0,0.82422 -0.24609,1.4688 -0.73438,1.9375 -0.48047,0.46094 -1.1484,0.6875 -2,0.6875 -0.86719,0 -1.543,-0.22656 -2.0312,-0.6875 -0.49219,-0.46875 -0.73438,-1.1133 -0.73438,-1.9375 0,-0.82031 0.24219,-1.4609 0.73438,-1.9219 C 1.61328,-4.89063 2.2891,-5.125 3.1562,-5.125 Z"
         id="path38" />
    </symbol>
    <symbol
       id="s"
       overflow="visible">
      <path
         d="m 0.84375,-6.6719 h 1.7188 v 5.375 h 3.0156 V 0 h -4.7344 z"
         id="path41" />
    </symbol>
    <symbol
       id="r"
       overflow="visible">
      <path
         d="m 4.0625,-6.9531 v 1.0469 H 3.17188 c -0.21875,0 -0.375,0.042969 -0.46875,0.125 -0.085937,0.085938 -0.125,0.22656 -0.125,0.42188 v 0.35938 h 1.3594 v 1.1406 H 2.57813 V 6e-5 h -1.6094 v -3.8594 H 0.17185 v -1.1406 h 0.79688 v -0.35938 c 0,-0.53906 0.14844,-0.94141 0.45312,-1.2031 0.30078,-0.25781 0.77344,-0.39062 1.4219,-0.39062 z"
         id="path44" />
    </symbol>
    <symbol
       id="q"
       overflow="visible">
      <path
         d="m 5.4062,-4.1719 c 0.20703,-0.3125 0.44531,-0.54688 0.71875,-0.70312 0.28125,-0.16406 0.58594,-0.25 0.92188,-0.25 0.57031,0 1.0078,0.17969 1.3125,0.53125 0.30078,0.35547 0.45312,0.87109 0.45312,1.5469 V 3e-5 h -1.6094 v -2.6094 c 0.00781,-0.039063 0.015625,-0.082031 0.015625,-0.125 v -0.17188 c 0,-0.35156 -0.054688,-0.60938 -0.15625,-0.76562 -0.10547,-0.16406 -0.27734,-0.25 -0.51562,-0.25 -0.30469,0 -0.53906,0.125 -0.70312,0.375 -0.15625,0.25 -0.24219,0.61719 -0.25,1.0938 V 3e-5 h -1.6094 v -2.6094 c 0,-0.55078 -0.046875,-0.90625 -0.14062,-1.0625 -0.09375,-0.16406 -0.26562,-0.25 -0.51562,-0.25 -0.30469,0 -0.53906,0.125 -0.70312,0.375 -0.16797,0.25 -0.25,0.60938 -0.25,1.0781 V 3e-5 h -1.6094 v -5 h 1.6094 v 0.71875 c 0.19531,-0.28125 0.42188,-0.48828 0.67188,-0.625 0.25,-0.14453 0.53125,-0.21875 0.84375,-0.21875 0.34375,0 0.64453,0.085938 0.90625,0.25 0.26953,0.16797 0.47266,0.40234 0.60938,0.70312 z"
         id="path47" />
    </symbol>
    <symbol
       id="p"
       overflow="visible">
      <path
         d="m 0.84375,-6.6719 h 1.9219 l 2.4219,4.5781 v -4.5781 h 1.6406 V 0 H 4.90625 L 2.46875,-4.5781 V 0 h -1.625 z"
         id="path50" />
    </symbol>
    <symbol
       id="o"
       overflow="visible">
      <path
         d="M 0.71875,-1.9531 V -5 h 1.6094 v 0.5 c 0,0.27344 -0.00781,0.60938 -0.015625,1.0156 v 0.8125 c 0,0.40625 0.00781,0.69922 0.03125,0.875 0.019531,0.17969 0.054688,0.30859 0.10938,0.39062 0.0625,0.10547 0.14453,0.1875 0.25,0.25 0.11328,0.054688 0.23828,0.078125 0.375,0.078125 0.33203,0 0.59375,-0.125 0.78125,-0.375 0.19531,-0.25781 0.29688,-0.61719 0.29688,-1.0781 v -2.4688 h 1.5938 v 5 h -1.5938 v -0.71875 c -0.25,0.29297 -0.51172,0.50781 -0.78125,0.64062 -0.26172,0.13281 -0.55859,0.20312 -0.89062,0.20312 -0.57422,0 -1.0117,-0.17578 -1.3125,-0.53125 -0.30469,-0.35156 -0.45312,-0.86719 -0.45312,-1.5469 z"
         id="path53" />
    </symbol>
    <symbol
       id="n"
       overflow="visible">
      <path
         d="m 0.84375,-6.6719 h 2.8594 c 0.84375,0 1.4883,0.1875 1.9375,0.5625 0.45703,0.375 0.6875,0.91406 0.6875,1.6094 0,0.69922 -0.23047,1.2422 -0.6875,1.625 -0.44922,0.375 -1.0938,0.5625 -1.9375,0.5625 H 2.56255 V 0 h -1.7188 z m 1.7188,1.25 v 1.8594 h 0.95312 c 0.33203,0 0.58594,-0.078125 0.76562,-0.23438 0.1875,-0.16406 0.28125,-0.39844 0.28125,-0.70312 0,-0.28906 -0.09375,-0.51562 -0.28125,-0.67188 -0.17969,-0.16406 -0.43359,-0.25 -0.76562,-0.25 z"
         id="path56" />
    </symbol>
    <symbol
       id="m"
       overflow="visible">
      <path
         d="m 0.76562,-5 h 1.6094 v 4.9062 c 0,0.67578 -0.16406,1.1875 -0.48438,1.5312 -0.32422,0.35156 -0.79297,0.53125 -1.4062,0.53125 h -0.78125 v -1.0469 h 0.26562 c 0.30078,0 0.50781,-0.070313 0.625,-0.20312 0.11328,-0.13672 0.17188,-0.40625 0.17188,-0.8125 z m 0,-1.9531 h 1.6094 v 1.2969 h -1.6094 z"
         id="path59" />
    </symbol>
    <symbol
       id="l"
       overflow="visible">
      <path
         d="m 4.8125,-4.8438 v 1.2969 C 4.59375,-3.69143 4.375,-3.80081 4.15625,-3.87502 3.9375,-3.945332 3.71094,-3.9844 3.48437,-3.9844 c -0.44922,0 -0.79688,0.13281 -1.0469,0.39062 -0.25,0.26172 -0.375,0.625 -0.375,1.0938 0,0.4688 0.125,0.83594 0.375,1.0938 0.25,0.26172 0.59766,0.39062 1.0469,0.39062 0.25,0 0.48438,-0.035156 0.70312,-0.10938 0.22656,-0.070312 0.4375,-0.17969 0.625,-0.32812 v 1.3125 c -0.25,0.085938 -0.50781,0.14453 -0.76562,0.1875 -0.25,0.050781 -0.50781,0.078125 -0.76562,0.078125 -0.90625,0 -1.6172,-0.22656 -2.125,-0.6875 -0.51172,-0.46875 -0.76562,-1.1133 -0.76562,-1.9375 0,-0.82031 0.25391,-1.4609 0.76562,-1.9219 0.50781,-0.46875 1.2188,-0.70312 2.125,-0.70312 0.25781,0 0.51562,0.027344 0.76562,0.078125 0.25781,0.042969 0.51562,0.10938 0.76562,0.20312 z"
         id="path62" />
    </symbol>
  </defs>
  <g
     id="g1104"
     transform="translate(0.25003327,54.5732)"
     style="fill:#ffffff;fill-opacity:1">
    <path
       d="m 218.52,321.6 c 16.262,-3.8047 35.566,-7.1211 57.469,-9.8164 10.496,-1.2969 21.188,-2.3984 31.965,-3.3203 4.7578,-0.41016 9.5508,-0.76953 14.355,-1.1133 0.51562,-0.0391 1.0234,-0.0859 1.5391,-0.11719 3.2578,-0.22656 6.5391,-0.41016 9.8125,-0.60547 2.082,-0.125 4.1562,-0.27344 6.2422,-0.38672 h 0.0273 0.0391 c 3.8516,-0.20703 7.7266,-0.375 11.598,-0.54688 1.4414,-0.0625 2.8711,-0.14453 4.3164,-0.20312 0.20703,-0.008 0.41406,-0.0117 0.61719,-0.0234 l -1.8125,-3.3945 c -1.8477,-0.125 -3.5586,-0.24609 -5.1484,-0.35547 -5.9141,0.22656 -11.824,0.49219 -17.707,0.79688 -12.184,0.62891 -24.367,1.4297 -36.43,2.4141 -12.344,1.0039 -24.66,2.2031 -36.836,3.6172 -24.031,2.793 -45.734,6.2266 -64.734,10.172 -0.11719,3.2812 -0.26563,6.6055 -0.43359,9.9727 7.3594,-2.5273 15.758,-4.9023 25.121,-7.0898 z"
       id="path67"
       style="fill:#ffffff;fill-opacity:1" />
    <path
       d="m 355.88,305.48 c -1.4414,0.0586 -2.8711,0.14062 -4.3164,0.20312 1.4453,-0.0625 2.875,-0.14453 4.3164,-0.20312 z"
       id="path69"
       style="fill:#ffffff;fill-opacity:1" />
    <path
       d="m 397.25,304.58 c -4.6719,0.0273 -9.3398,0.0742 -14.008,0.15234 4.6719,-0.0781 9.3438,-0.12891 14.016,-0.15234 z"
       id="path71"
       style="fill:#ffffff;fill-opacity:1" />
    <path
       d="m 333.66,306.62 c 2.0938,-0.125 4.1719,-0.27344 6.2695,-0.38672 h -0.0273 c -2.0859,0.11328 -4.1602,0.26172 -6.2422,0.38672 z"
       id="path73"
       style="fill:#ffffff;fill-opacity:1" />
    <path
       d="m 500.2,308.46 c 10.773,0.92188 21.465,2.0234 31.961,3.3203 21.902,2.6953 41.207,6.0117 57.469,9.8164 17.555,4.1055 31.844,8.8438 41.902,14.023 11.035,5.6797 17.078,11.938 16.543,18.438 -0.58984,7.1875 -9.2188,14.652 -27.918,21.773 -10.031,3.8203 -22.383,7.3203 -36.777,10.441 -14.953,3.2422 -31.945,6.043 -50.578,8.3477 -19.137,2.3672 -39.766,4.1914 -61.387,5.4219 -21.918,1.2539 -44.555,1.8828 -67.352,1.8828 -22.797,0 -45.434,-0.62891 -67.348,-1.8789 -21.617,-1.2344 -42.242,-3.0508 -61.379,-5.4219 -18.633,-2.3086 -35.621,-5.1055 -50.574,-8.3477 -14.395,-3.1211 -26.746,-6.6211 -36.777,-10.441 -16.02,-6.1016 -24.629,-12.457 -27.141,-18.672 -3.1445,-0.84375 -6.082,-2.2578 -8.6758,-4.207 v 40.473 c 7.043,2.3594 14.844,4.6133 23.375,6.7578 17.938,4.4961 38.832,8.4219 62.184,11.68 24.168,3.375 50.574,5.9844 78.527,7.7617 28.453,1.8086 58,2.7266 87.816,2.7266 29.816,0 59.367,-0.91797 87.82,-2.7266 27.949,-1.7773 54.359,-4.3867 78.527,-7.7617 23.355,-3.2578 44.25,-7.1836 62.188,-11.68 17.09,-4.2891 31.27,-9.043 42.246,-14.168 20.098,-9.3984 27.246,-19.02 24.629,-28.07 -2.3164,-8.0156 -12.285,-15.582 -27.707,-22.324 -13.824,-6.043 -32.184,-11.496 -53.848,-16.16 -19.832,-4.2656 -42.793,-7.9531 -68.344,-10.922 -10.051,-1.168 -20.207,-2.1562 -30.387,-3.0391 -11.254,0.77734 -25.172,1.2422 -42.41,1.2656 7.8516,0.48437 15.68,1.0273 23.414,1.6914 z"
       id="path75"
       style="fill:#ffffff;fill-opacity:1" />
    <path
       d="m 382.75,303.8 0.49609,0.92578 c 4.668,-0.082 9.3359,-0.12891 14.008,-0.15234 -4.7734,-0.23828 -9.6094,-0.49609 -14.504,-0.77344 z"
       id="path77"
       style="fill:#ffffff;fill-opacity:1" />
    <path
       d="m 323.85,307.23 c -0.51562,0.0352 -1.0234,0.082 -1.5391,0.11719 0.51562,-0.0352 1.0195,-0.082 1.5391,-0.11719 z"
       id="path79"
       style="fill:#ffffff;fill-opacity:1" />
    <path
       d="m 386.55,310.89 3.6094,6.7188 47.379,7.6289 -39.48,7.0703 2.0078,3.7383 h 26.254 l 25.379,-4.9141 -6.0938,-11.41 -58.797,-8.8711 z"
       id="path81"
       style="fill:#ffffff;fill-opacity:1" />
    <path
       d="m 240.99,331.68 193.01,46.867 30.242,-8.0781 -85.379,-18.816 h -50.93 v -11.234 l -58.234,-12.836 z"
       id="path83"
       style="fill:#ffffff;fill-opacity:1" />
    <path
       d="m 479.37,331.98 24.91,4.0117 c 2.4531,-0.375 7.0234,-2.2578 12.629,-5.5039 l -41.723,-6.2969 z"
       id="path85"
       style="fill:#ffffff;fill-opacity:1" />
    <path
       d="m 578.93,339.85 -39.418,-5.9453 c -3.0586,2.3555 -5.9844,4.4688 -8.7773,6.3516 l 29.102,4.6875 z"
       id="path87"
       style="fill:#ffffff;fill-opacity:1" />
    <path
       d="m 507.41,215.88 c -17.062,-9.0469 -67.637,-12.742 -67.637,-12.742 l -10.441,-0.0508 v -17.977 h -35.617 l 0.0937,-19.941 c 6.5938,-0.46875 12.254,-2.1172 15.793,-4.4414 10.723,0.99219 27.301,3.1211 31.238,7.043 5.9219,5.8984 183.6,-3.0234 183.6,-3.0234 l 5.0117,-7.7031 -216.17,-3.3242 c -1.5312,-5.0703 -11.445,-9.0234 -23.512,-9.082 -10.473,-0.0508 -19.355,2.8555 -22.555,6.9297 -10.625,-1.082 -24.992,-3.1758 -28.617,-6.7852 -5.9258,-5.9102 -183.61,3.0156 -183.61,3.0156 l -5.0039,7.707 217.76,3.3516 c 3.0625,3.2148 9.7188,5.6211 17.785,6.2773 l -0.0977,19.98 h -34.703 v 17.594 l -12.652,-0.0586 -0.0508,10.203 -62.133,8.3242 -89.207,3.3984 c 1.3359,5.3047 2.4922,10.941 3.4727,16.902 h 62.312 c 5.8633,13.219 26.672,47.293 85.188,48.531 l -0.0351,7.1445 c 0,0 7.3281,0.58984 19.336,1.3945 l 21.992,41.168 h -47.352 v 8.2656 h 83.117 88.551 c 9.5898,-0.26562 22.758,-7.9375 37.254,-19.535 l -5.2188,-6.4141 c -13.438,11.145 -27.156,17.945 -32.031,17.68 h -23.902 l -19.73,-36.723 c 48.344,0.66406 98.418,-3.1055 108.5,-13.504 1.9414,-2.0039 2.4219,-4.2461 1.0977,-6.7539 -7.4258,-14.066 -16.156,-26.164 -25.051,-36.227 -13.129,-14.848 -26.609,-25.23 -36.781,-30.625 z m -105.75,38.141 h 31.145 v 5.9531 H 401.66 Z m 58.785,85.695 h -62.562 l -21.461,-39.945 c 18.145,1.0703 40.859,2.1953 64.188,2.832 z m -3.7031,-116.16 c -1.5039,-10.766 40.066,-1.4648 47.824,2.6719 7.7539,4.1367 32.836,23.527 36.453,36.973 3.6211,13.441 -75.66,22.055 -84.277,-39.645 z"
       id="path89"
       style="fill:#ffffff;fill-opacity:1" />
    <path
       d="m 494.09,234.04 2.2422,-2.2422 18.137,18.137 -2.2422,2.2422 z"
       id="path91"
       style="fill:#ffffff;fill-opacity:1" />
    <path
       d="m 483.84,244.37 2.2422,-2.2422 18.137,18.137 -2.2422,2.2422 z"
       id="path93"
       style="fill:#ffffff;fill-opacity:1" />
    <path
       d="m 480.41,230.46 2.2422,-2.2422 35.41,35.41 -2.2422,2.2422 z"
       id="path95"
       style="fill:#ffffff;fill-opacity:1" />
    <path
       d="m 7.8398,303.4 c 6.1562,1.125 13.84,2.3477 21.555,3.1484 -0.04687,-2.8633 -0.07813,-5.668 -0.07813,-8.3828 -0.0625,-44.363 6.4023,-69.285 12.758,-82.293 v 274.43 c 0,12.508 10.145,22.648 22.648,22.648 12.508,0 22.652,-10.141 22.652,-22.648 v -165.39 h 8.4922 v 165.39 c 0,12.508 10.14499,22.648 22.64799,22.648 12.508,0 22.652,-10.141 22.652,-22.648 l 0.008,-274.35 c 1.0859,2.2266 2.1797,4.7773 3.2539,7.7539 5.168,14.312 9.5117,37.801 9.4922,74.457 0,2.7148 -0.0274,5.5195 -0.0742,8.3789 7.7109,-0.79688 15.398,-2.0234 21.559,-3.1484 3.0391,-0.55859 5.6875,-1.082 7.8047,-1.5195 0.008,-1.2344 0.0312,-2.5 0.0312,-3.7109 -0.0781,-55.293 -8.9102,-85.902 -20.953,-104.3 -6.0195,-9.1328 -13.059,-14.992 -19.562,-18.238 -4.2539,-2.1484 -8.1523,-3.1562 -11.262,-3.6016 -1.3984,-0.46484 -2.8906,-0.72266 -4.4492,-0.72266 h -16.105 c 2.1211,20.367 9.6133,101.45 -3.8555,116.84 -15.421997,17.633 -15.421997,17.633 -30.854997,0 -13.465,-15.395 -5.9805,-96.473 -3.8555,-116.84 h -16.105 c -1.5547,0 -3.0469,0.26172 -4.4453,0.72266 -3.1133,0.44531 -7.0117,1.4531 -11.27,3.6016 -9.8555,4.8828 -20.48,15.574 -27.914,34.52 -7.5273,19.016 -12.578,46.508 -12.609,88.027 0,1.2109 0.023438,2.4766 0.03125,3.7109 2.1133,0.43359 4.7695,0.96094 7.8086,1.5195 z"
       id="path97"
       style="fill:#ffffff;fill-opacity:1" />
    <path
       d="m 153.55,317.57 c 7.8164,-0.79687 15.621,-2.0391 21.863,-3.1797 2.9453,-0.53906 5.5312,-1.0508 7.6133,-1.4805 0.0508,-1.8203 0.0937,-3.6328 0.125,-5.4062 -6.8242,1.3906 -18.059,3.4531 -29.426,4.5898 -0.0469,1.793 -0.10938,3.6289 -0.17578,5.4766 z"
       id="path99"
       style="fill:#ffffff;fill-opacity:1" />
    <path
       d="m 0.09375,307.5 c 0.03125,1.7734 0.078125,3.582 0.125,5.4062 2.082,0.42969 4.6719,0.94531 7.6211,1.4844 6.2383,1.1406 14.047,2.3828 21.863,3.1797 -0.06641,-1.8516 -0.12891,-3.6875 -0.17969,-5.4805 -11.371,-1.1367 -22.609,-3.2031 -29.43,-4.5898 z"
       id="path101"
       style="fill:#ffffff;fill-opacity:1" />
    <path
       d="m 182.84,318.55 c -6.9297,1.4023 -18.18,3.4531 -29.512,4.5664 -0.125,2.7539 -0.26562,5.5586 -0.43359,8.4336 -0.47266,8.0781 5.6953,15.016 13.777,15.488 0.28516,0.0156 0.57812,0.0273 0.85938,0.0273 7.707,0 14.168,-6.0117 14.625,-13.805 0.29688,-5.0859 0.51172,-9.957 0.68359,-14.711 z"
       id="path103"
       style="fill:#ffffff;fill-opacity:1" />
    <path
       d="m 97.875,189.09 1.4492,-3.1016 -2.5664,-13.742 h -10.262 l -2.5664,13.742 1.4492,3.1055 c 1.9844,0.87109 4.1055,1.3242 6.2383,1.3242 2.1445,0.004 4.2734,-0.44922 6.2578,-1.3281 z"
       id="path105"
       style="fill:#ffffff;fill-opacity:1" />
    <path
       d="m 97.129,195.18 c -1.7969,0.48828 -3.6406,0.75 -5.4844,0.75 h -0.01172 l -0.0078,-0.004 c -1.8477,0 -3.6953,-0.26172 -5.4922,-0.74609 l -7.3281,73.266 12.824,21.984 12.824,-21.984 z"
       id="path107"
       style="fill:#ffffff;fill-opacity:1" />
    <path
       d="m 98.297,160.3 c 15.973,-2.625 29.57,-14.582 33.469,-31.328 5.1641,-22.168 -8.6289,-44.324 -30.793,-49.488 -22.168,-5.1562 -44.324,8.6289 -49.488,30.797 -5.1602,22.168 8.6289,44.324 30.797,49.484 0.92188,0.21484 1.8438,0.38281 2.7656,0.53516 4.4922,0.73437 8.957,0.70703 13.25,0 z"
       id="path109"
       style="fill:#ffffff;fill-opacity:1" />
    <path
       d="m 32.121,357.4 h -9.6172 v -12.004 c 4.9531,-2.5898 8.2031,-7.9023 7.8555,-13.844 -0.16797,-2.8711 -0.3125,-5.6758 -0.4375,-8.4258 -11.336,-1.1133 -22.586,-3.1641 -29.516,-4.5664 0.17578,4.7578 0.39062,9.625 0.69141,14.707 0.35547,6.1484 4.4648,11.168 9.9609,13.02 v 11.113 l -1.0078,-0.004 h -8.6172 v 80.613 h 30.688 z"
       id="path111"
       style="fill:#ffffff;fill-opacity:1" />
  </g>
</svg>
