<?xml version="1.0" encoding="UTF-8" standalone="no"?>
<svg
   xmlns:dc="http://purl.org/dc/elements/1.1/"
   xmlns:cc="http://creativecommons.org/ns#"
   xmlns:rdf="http://www.w3.org/1999/02/22-rdf-syntax-ns#"
   xmlns:svg="http://www.w3.org/2000/svg"
   xmlns="http://www.w3.org/2000/svg"
   xmlns:sodipodi="http://sodipodi.sourceforge.net/DTD/sodipodi-0.dtd"
   xmlns:inkscape="http://www.inkscape.org/namespaces/inkscape"
   width="747"
   height="747"
   version="1.1"
   viewBox="0 0 560.25 560.25001"
   id="svg184"
   sodipodi:docname="Religious architect.svg"
   inkscape:version="1.0.2 (e86c870879, 2021-01-15)"
   inkscape:export-filename="/home/marek/Downloads/Religious architect.png"
   inkscape:export-xdpi="25.702812"
   inkscape:export-ydpi="25.702812">
  <metadata
     id="metadata188">
    <rdf:RDF>
      <cc:Work
         rdf:about="">
        <dc:format>image/svg+xml</dc:format>
        <dc:type
           rdf:resource="http://purl.org/dc/dcmitype/StillImage" />
        <dc:title></dc:title>
      </cc:Work>
    </rdf:RDF>
  </metadata>
  <sodipodi:namedview
     pagecolor="#ffffff"
     bordercolor="#666666"
     borderopacity="1"
     objecttolerance="10"
     gridtolerance="10"
     guidetolerance="10"
     inkscape:pageopacity="0"
     inkscape:pageshadow="2"
     inkscape:window-width="1920"
     inkscape:window-height="990"
     id="namedview186"
     showgrid="false"
     inkscape:pagecheckerboard="false"
     units="px"
     inkscape:zoom="0.62806234"
     inkscape:cx="316.27067"
     inkscape:cy="468.29887"
     inkscape:window-x="0"
     inkscape:window-y="30"
     inkscape:window-maximized="1"
     inkscape:current-layer="svg184"
     inkscape:document-rotation="0" />
  <defs
     id="defs68">
    <symbol
       id="v"
       overflow="visible">
      <path
         d="M 3.8438,-0.23438 C 3.64458,-0.12891 3.43755,-0.05079 3.2188,0 3.00786,0.050781 2.78521,0.078125 2.54692,0.078125 c -0.69922,0 -1.25,-0.19141 -1.6562,-0.57812 -0.40625,-0.39453 -0.60938,-0.92578 -0.60938,-1.5938 0,-0.66406 0.20312,-1.1914 0.60938,-1.5781 0.40625,-0.38281 0.95703,-0.57812 1.6562,-0.57812 0.23828,0 0.46094,0.027344 0.67188,0.078125 0.21875,0.054687 0.42578,0.13281 0.625,0.23438 v 0.85938 C 3.64458,-3.21094 3.44536,-3.31251 3.25005,-3.37501 3.05083,-3.43751 2.84771,-3.46876 2.64067,-3.46876 c -0.38672,0 -0.6875,0.125 -0.90625,0.375 -0.21875,0.24219 -0.32812,0.57422 -0.32812,1 0,0.4375 0.10938,0.78125 0.32812,1.0312 0.21875,0.24219 0.51953,0.35938 0.90625,0.35938 0.20703,0 0.41016,-0.03125 0.60938,-0.09375 0.19531,-0.0625 0.39453,-0.16016 0.59375,-0.29688 z"
         id="path2" />
    </symbol>
    <symbol
       id="d"
       overflow="visible">
      <path
         d="M 2.8125,-2.2812 C 2.71875,-2.320262 2.62891,-2.351512 2.54688,-2.37495 2.460943,-2.394481 2.375,-2.4062 2.28126,-2.4062 c -0.25,0 -0.44922,0.085938 -0.59375,0.25 -0.13672,0.16797 -0.20312,0.40625 -0.20312,0.71875 V 5e-5 h -1 v -3.1406 h 1 v 0.51562 c 0.125,-0.19531 0.26953,-0.34375 0.4375,-0.4375 0.16406,-0.10156 0.36719,-0.15625 0.60938,-0.15625 0.03125,0 0.066406,0.00781 0.10938,0.015625 0.039063,0 0.097656,0.00781 0.17188,0.015625 z"
         id="path5" />
    </symbol>
    <symbol
       id="b"
       overflow="visible">
      <path
         d="m 3.6094,-1.5781 v 0.28125 H 1.2656 c 0.03125,0.24219 0.11328,0.42188 0.25,0.54688 0.14453,0.11719 0.35156,0.17188 0.625,0.17188 0.20703,0 0.42188,-0.03125 0.64062,-0.09375 0.21874,-0.0625 0.44531,-0.16016 0.6875,-0.29688 v 0.78125 C 3.22653,-0.101532 2.98825,-0.03903 2.74997,3e-5 2.50778,0.050811 2.27341,0.078155 2.04685,0.078155 c -0.57422,0 -1.0156,-0.14062 -1.3281,-0.42188 -0.3125,-0.28906 -0.46875,-0.69531 -0.46875,-1.2188 0,-0.50781 0.14844,-0.91016 0.45312,-1.2031 0.3125,-0.30078 0.73828,-0.45312 1.2812,-0.45312 0.48828,0 0.87891,0.15234 1.1719,0.45312 0.30078,0.29297 0.45312,0.6875 0.45312,1.1875 z M 2.5782,-1.90622 c 0,-0.1875 -0.058594,-0.33594 -0.17188,-0.45312 -0.10547,-0.125 -0.24609,-0.1875 -0.42188,-0.1875 -0.19922,0 -0.35938,0.058594 -0.48438,0.17188 -0.11719,0.10547 -0.1875,0.26172 -0.21875,0.46875 z"
         id="path8" />
    </symbol>
    <symbol
       id="l"
       overflow="visible">
      <path
         d="m 1.8906,-1.4062 c -0.21094,0 -0.37109,0.039062 -0.48438,0.10938 -0.10547,0.0625 -0.15625,0.16797 -0.15625,0.3125 0,0.125 0.039062,0.22656 0.125,0.29688 0.09375,0.074219 0.21094,0.10938 0.35938,0.10938 0.1875,0 0.34375,-0.066406 0.46875,-0.20312 0.13281,-0.13281 0.20312,-0.30469 0.20312,-0.51562 V -1.40618 Z M 3.4218,-1.79682 V 8e-5 H 2.4062 v -0.46875 c -0.13672,0.19922 -0.28906,0.33984 -0.45312,0.42188 -0.16797,0.082031 -0.37109,0.125 -0.60938,0.125 -0.32422,0 -0.58984,-0.09375 -0.79688,-0.28125 -0.19922,-0.1875 -0.29688,-0.42969 -0.29688,-0.73438 0,-0.375 0.125,-0.64453 0.375,-0.8125 0.25,-0.16406 0.64453,-0.25 1.1875,-0.25 h 0.59375 v -0.09375 c 0,-0.15625 -0.0625,-0.26953 -0.1875,-0.34375 -0.125,-0.070312 -0.32031,-0.10938 -0.57812,-0.10938 -0.21875,0 -0.42188,0.023437 -0.60938,0.0625 -0.17969,0.042969 -0.35156,0.10938 -0.51562,0.20312 V -3.0468 c 0.21875,-0.050781 0.4375,-0.09375 0.65625,-0.125 0.21875,-0.03125 0.42969,-0.046875 0.64062,-0.046875 0.57031,0 0.98438,0.11719 1.2344,0.34375 0.25,0.21875 0.375,0.57812 0.375,1.0781 z"
         id="path11" />
    </symbol>
    <symbol
       id="a"
       overflow="visible">
      <path
         d="m 1.5781,-4.0312 v 0.89062 h 1.0312 v 0.71875 H 1.5781 v 1.3281 c 0,0.14844 0.023437,0.24609 0.078125,0.29688 0.0625,0.054687 0.17578,0.078125 0.34375,0.078125 h 0.51562 V 2.5e-5 h -0.85938 c -0.39844,0 -0.67969,-0.082031 -0.84375,-0.25 -0.15625,-0.16406 -0.23438,-0.44531 -0.23438,-0.84375 v -1.3281 h -0.5 v -0.71875 h 0.5 v -0.89062 z"
         id="path14" />
    </symbol>
    <symbol
       id="f"
       overflow="visible">
      <path
         d="M 2.6094,-2.6719 V -4.3594 H 3.625 V 0 H 2.6094 v -0.45312 c -0.13672,0.1875 -0.28906,0.32422 -0.45312,0.40625 -0.16797,0.082031 -0.35938,0.125 -0.57812,0.125 -0.38672,0 -0.70312,-0.14844 -0.95312,-0.45312 -0.25,-0.3125 -0.375,-0.70703 -0.375,-1.1875 0,-0.48828 0.125,-0.88281 0.375,-1.1875 0.25,-0.3125 0.56641,-0.46875 0.95312,-0.46875 0.21875,0 0.41016,0.046875 0.57812,0.14062 0.16406,0.085937 0.31641,0.21875 0.45312,0.40625 z m -0.65625,2.0312 c 0.21875,0 0.37891,-0.078125 0.48438,-0.23438 0.11328,-0.16406 0.17188,-0.39453 0.17188,-0.6875 0,-0.30078 -0.058594,-0.53125 -0.17188,-0.6875 -0.10547,-0.15625 -0.26562,-0.23438 -0.48438,-0.23438 -0.21094,0 -0.37109,0.078125 -0.48438,0.23438 -0.11719,0.15625 -0.17188,0.38672 -0.17188,0.6875 0,0.29297 0.054687,0.52344 0.17188,0.6875 0.11328,0.15625 0.27344,0.23438 0.48438,0.23438 z"
         id="path17" />
    </symbol>
    <symbol
       id="k"
       overflow="visible">
      <path
         d="m 2.1562,-0.64062 c 0.20703,0 0.36719,-0.078125 0.48438,-0.23438 0.11328,-0.16406 0.17188,-0.39453 0.17188,-0.6875 0,-0.30078 -0.058594,-0.53125 -0.17188,-0.6875 -0.11719,-0.15625 -0.27734,-0.23438 -0.48438,-0.23438 -0.21875,0 -0.38672,0.078125 -0.5,0.23438 -0.11719,0.15625 -0.17188,0.38672 -0.17188,0.6875 0,0.29297 0.054687,0.52344 0.17188,0.6875 0.11328,0.15625 0.28125,0.23438 0.5,0.23438 z m -0.67188,-2.0312 c 0.13281,-0.1875 0.28516,-0.32031 0.45312,-0.40625 0.16406,-0.09375 0.35938,-0.14062 0.57812,-0.14062 0.39453,0 0.71094,0.15625 0.95312,0.46875 0.25,0.30469 0.375,0.69922 0.375,1.1875 0,0.48047 -0.125,0.875 -0.375,1.1875 -0.24219,0.30469 -0.55859,0.45312 -0.95312,0.45312 -0.21875,0 -0.41406,-0.042969 -0.57812,-0.125 C 1.76947,-0.128851 1.61713,-0.26557 1.48432,-0.45307 V 5e-5 h -1 v -4.3594 h 1 z"
         id="path20" />
    </symbol>
    <symbol
       id="e"
       overflow="visible">
      <path
         d="m 0.0625,-3.1406 h 1.0156 l 0.84375,2.125 0.70312,-2.125 h 1.0156 L 2.31247,0.2969 C 2.17575,0.64846 2.0195,0.89456 1.84372,1.03128 1.67575,1.16409 1.44528,1.2344 1.15622,1.2344 H 0.5781 V 0.57815 h 0.3125 c 0.16406,0 0.28516,-0.027344 0.35938,-0.078125 0.082031,-0.054688 0.14453,-0.15234 0.1875,-0.29688 L 1.46873,0.12502 Z"
         id="path23" />
    </symbol>
    <symbol
       id="j"
       overflow="visible">
      <path
         d="M 3.0625,-0.76562 H 1.375 L 1.10938,0 h -1.0781 l 1.5469,-4.1875 h 1.2812 L 4.40628,0 H 3.32818 Z M 1.6406,-1.53124 h 1.1562 l -0.57812,-1.6719 z"
         id="path26" />
    </symbol>
    <symbol
       id="i"
       overflow="visible">
      <path
         d="m 3.3906,-2.6094 c 0.125,-0.19531 0.27344,-0.34766 0.45312,-0.45312 0.17578,-0.10156 0.36719,-0.15625 0.57812,-0.15625 0.35156,0 0.625,0.11719 0.8125,0.34375 0.1875,0.21875 0.28125,0.54297 0.28125,0.96875 V -7e-5 h -1 v -1.6406 -0.0625 -0.125 c 0,-0.21875 -0.03125,-0.375 -0.09375,-0.46875 -0.0625,-0.10156 -0.16797,-0.15625 -0.3125,-0.15625 -0.19922,0 -0.35156,0.078125 -0.45312,0.23438 -0.09375,0.15625 -0.14844,0.38281 -0.15625,0.67188 V -1e-5 h -1 v -1.6406 c 0,-0.34375 -0.03125,-0.5625 -0.09375,-0.65625 -0.0625,-0.10156 -0.16797,-0.15625 -0.3125,-0.15625 -0.19922,0 -0.35156,0.078125 -0.45312,0.23438 -0.10547,0.15625 -0.15625,0.38281 -0.15625,0.67188 V 5e-5 h -1.0156 v -3.1406 h 1.0156 v 0.46875 c 0.125,-0.17578 0.26562,-0.3125 0.42188,-0.40625 0.15626,-0.09375 0.33203,-0.14062 0.53125,-0.14062 0.21875,0 0.41016,0.058594 0.57812,0.17188 0.16406,0.10547 0.28906,0.25 0.375,0.4375 z"
         id="path29" />
    </symbol>
    <symbol
       id="h"
       overflow="visible">
      <path
         d="M 3.6406,-1.9062 V 0 H 2.625 v -1.4531 c 0,-0.28125 -0.00781,-0.46875 -0.015625,-0.5625 -0.011719,-0.10156 -0.03125,-0.17969 -0.0625,-0.23438 -0.042969,-0.0625 -0.10156,-0.10938 -0.17188,-0.14062 -0.0625,-0.039063 -0.13672,-0.0625 -0.21875,-0.0625 -0.21094,0 -0.375,0.085937 -0.5,0.25 -0.11719,0.15625 -0.17188,0.375 -0.17188,0.65625 V 5e-5 h -1 v -4.3594 h 1 v 1.6875 c 0.14453,-0.1875 0.30078,-0.32031 0.46875,-0.40625 0.17578,-0.09375 0.36719,-0.14062 0.57812,-0.14062 0.36328,0 0.64062,0.11719 0.82812,0.34375 0.1875,0.21875 0.28125,0.54297 0.28125,0.96875 z"
         id="path32" />
    </symbol>
    <symbol
       id="u"
       overflow="visible">
      <path
         d="m 2.9375,-3.0312 v 0.75 C 2.71875,-2.363231 2.50781,-2.42573 2.3125,-2.4687 2.11328,-2.519481 1.92578,-2.546825 1.75,-2.546825 c -0.19922,0 -0.34375,0.027344 -0.4375,0.078125 -0.085938,0.042969 -0.125,0.11719 -0.125,0.21875 0,0.074219 0.03125,0.13672 0.09375,0.1875 0.070312,0.042969 0.19531,0.074219 0.375,0.09375 l 0.1875,0.015625 c 0.50781,0.074219 0.85156,0.18359 1.0312,0.32812 0.17578,0.14844 0.26562,0.38281 0.26562,0.70312 0,0.33594 -0.125,0.58594 -0.375,0.75 -0.24219,0.16797 -0.60547,0.25 -1.0938,0.25 C 1.46083,0.078165 1.24208,0.06254 1.01552,0.03129 0.79677,4e-5 0.57021,-0.046835 0.34364,-0.10933 v -0.76562 c 0.19531,0.09375 0.39844,0.16797 0.60938,0.21875 0.21875,0.054688 0.42969,0.078125 0.64062,0.078125 0.19531,0 0.34375,-0.023437 0.4375,-0.078125 0.10156,-0.0625 0.15625,-0.14453 0.15625,-0.25 0,-0.09375 -0.039062,-0.16016 -0.10938,-0.20312 C 2.01551,-1.148383 1.8827,-1.179633 1.68739,-1.20307 L 1.49989,-1.23432 C 1.05067,-1.285101 0.73817,-1.38276 0.56239,-1.5312 0.3827,-1.68745 0.29677,-1.92182 0.29677,-2.23432 c 0,-0.33203 0.11328,-0.57812 0.34375,-0.73438 0.22656,-0.16406 0.57812,-0.25 1.0469,-0.25 0.1875,0 0.37891,0.015625 0.57812,0.046875 0.20703,0.03125 0.42969,0.078125 0.67188,0.14062 z"
         id="path35" />
    </symbol>
    <symbol
       id="t"
       overflow="visible">
      <path
         d="m 3.4375,-4.0469 v 0.89062 C 3.20703,-3.25784 2.98438,-3.33597 2.76562,-3.39066 2.54687,-3.441441 2.33593,-3.468785 2.14062,-3.468785 c -0.25,0 -0.4375,0.039062 -0.5625,0.10938 -0.125,0.0625 -0.1875,0.17188 -0.1875,0.32812 0,0.10547 0.039063,0.1875 0.125,0.25 0.082031,0.0625 0.23438,0.12109 0.45312,0.17188 l 0.45312,0.09375 c 0.46875,0.09375 0.79688,0.23438 0.98438,0.42188 0.19531,0.1875 0.29688,0.46094 0.29688,0.8125 0,0.46094 -0.13672,0.80469 -0.40625,1.0312 -0.27344,0.21875 -0.6875,0.32812 -1.25,0.32812 C 1.78515,0.078045 1.51953,0.050701 1.24999,-8e-5 0.97655,-0.039142 0.71093,-0.11336 0.45311,-0.21883 v -0.90625 c 0.25781,0.13672 0.51562,0.24219 0.76562,0.3125 0.25,0.074219 0.48828,0.10938 0.71875,0.10938 0.23828,0 0.42188,-0.035156 0.54688,-0.10938 0.125,-0.082031 0.1875,-0.19531 0.1875,-0.34375 0,-0.125 -0.042969,-0.22266 -0.125,-0.29688 C 2.460923,-1.523523 2.28905,-1.58602 2.03124,-1.64071 L 1.62499,-1.73446 C 1.1953,-1.82821 0.8828,-1.97274 0.68749,-2.17196 0.49999,-2.36727 0.40624,-2.62899 0.40624,-2.95321 c 0,-0.41406 0.13281,-0.73438 0.40625,-0.95312 0.26953,-0.22656 0.65625,-0.34375 1.1562,-0.34375 0.22656,0 0.46094,0.015625 0.70312,0.046875 0.25,0.03125 0.50391,0.085937 0.76562,0.15625 z"
         id="path38" />
    </symbol>
    <symbol
       id="g"
       overflow="visible">
      <path
         d="m 0.45312,-1.2188 v -1.9219 h 1 v 0.3125 0.65625 0.5 c 0,0.25 0.00391,0.43359 0.015625,0.54688 0.00781,0.11719 0.03125,0.19922 0.0625,0.25 0.039062,0.0625 0.09375,0.11719 0.15625,0.15625 0.070312,0.03125 0.14844,0.046875 0.23438,0.046875 0.20703,0 0.36719,-0.078125 0.48438,-0.23438 0.125,-0.16406 0.1875,-0.39453 0.1875,-0.6875 v -1.5469 h 1 v 3.1406 h -1 v -0.45312 c -0.14844,0.1875 -0.30859,0.32422 -0.48438,0.40625 -0.16797,0.082031 -0.35156,0.125 -0.54688,0.125 -0.36719,0 -0.64062,-0.10938 -0.82812,-0.32812 -0.1875,-0.21874 -0.28125,-0.53906 -0.28125,-0.96875 z"
         id="path41" />
    </symbol>
    <symbol
       id="s"
       overflow="visible">
      <path
         d="m 0.48438,-3.1406 h 1 V 0 h -1 z m 0,-1.2188 h 1 v 0.8125 h -1 z"
         id="path44" />
    </symbol>
    <symbol
       id="c"
       overflow="visible">
      <path
         d="m 1.9688,-2.5 c -0.21875,0 -0.38672,0.085938 -0.5,0.25 -0.11719,0.15625 -0.17188,0.38672 -0.17188,0.6875 0,0.30469 0.054687,0.53125 0.17188,0.6875 0.11328,0.15625 0.28125,0.23438 0.5,0.23438 0.21875,0 0.38281,-0.078125 0.5,-0.23438 0.125,-0.15625 0.1875,-0.38281 0.1875,-0.6875 0,-0.30078 -0.0625,-0.53125 -0.1875,-0.6875 -0.11719,-0.16406 -0.28125,-0.25 -0.5,-0.25 z m 0,-0.71875 c 0.53906,0 0.96094,0.14844 1.2656,0.4375 0.30078,0.29297 0.45312,0.69922 0.45312,1.2188 0,0.51172 -0.15234,0.91406 -0.45312,1.2031 -0.30469,0.29297 -0.72656,0.4375 -1.2656,0.4375 -0.54297,0 -0.96484,-0.14453 -1.2656,-0.4375 -0.30469,-0.28906 -0.45312,-0.69141 -0.45312,-1.2031 0,-0.51953 0.14844,-0.92578 0.45312,-1.2188 0.30078,-0.28906 0.72266,-0.4375 1.2656,-0.4375 z"
         id="path47" />
    </symbol>
    <symbol
       id="r"
       overflow="visible">
      <path
         d="m 2.5469,-4.3594 v 0.65625 H 1.9844 c -0.13672,0 -0.23438,0.027344 -0.29688,0.078125 -0.054688,0.054688 -0.078125,0.14062 -0.078125,0.26562 v 0.21875 h 0.85938 v 0.71875 H 1.609395 V -5e-6 h -1 v -2.4219 h -0.5 v -0.71875 h 0.5 v -0.21875 c 0,-0.33203 0.09375,-0.58203 0.28125,-0.75 0.1875,-0.16406 0.48438,-0.25 0.89062,-0.25 z"
         id="path50" />
    </symbol>
    <symbol
       id="q"
       overflow="visible">
      <path
         d="m 0.53125,-4.1875 h 1.2031 l 1.5156,2.875 v -2.875 h 1.0156 V 0 H 3.06245 L 1.54685,-2.875 V 0 h -1.0156 z"
         id="path53" />
    </symbol>
    <symbol
       id="p"
       overflow="visible">
      <path
         d="M 3.6406,-1.9062 V 0 H 2.625 v -1.4688 c 0,-0.26953 -0.00781,-0.45312 -0.015625,-0.54688 -0.011719,-0.10156 -0.03125,-0.17969 -0.0625,-0.23438 -0.042969,-0.0625 -0.10156,-0.10938 -0.17188,-0.14062 -0.0625,-0.039063 -0.13672,-0.0625 -0.21875,-0.0625 -0.21094,0 -0.375,0.085937 -0.5,0.25 -0.11719,0.15625 -0.17188,0.375 -0.17188,0.65625 V -3e-5 h -1 v -3.1406 h 1 v 0.46875 c 0.14453,-0.1875 0.30078,-0.32031 0.46875,-0.40625 0.17578,-0.09375 0.36719,-0.14062 0.57812,-0.14062 0.36328,0 0.64062,0.11719 0.82812,0.34375 0.1875,0.21875 0.28125,0.54297 0.28125,0.96875 z"
         id="path56" />
    </symbol>
    <symbol
       id="o"
       overflow="visible">
      <path
         d="m 0.53125,-4.1875 h 1.7812 c 0.53125,0 0.9375,0.12109 1.2188,0.35938 0.28906,0.24219 0.4375,0.57812 0.4375,1.0156 0,0.43748 -0.14844,0.77734 -0.4375,1.0156 -0.28125,0.23047 -0.6875,0.34375 -1.2188,0.34375 H 1.60933 V -7e-5 h -1.0781 z m 1.0781,0.78125 v 1.1719 H 2.2031 c 0.20703,0 0.36719,-0.046875 0.48438,-0.14062 0.11328,-0.10156 0.17188,-0.25 0.17188,-0.4375 0,-0.1875 -0.058594,-0.33203 -0.17188,-0.4375 C 2.57029,-3.35153 2.41014,-3.40622 2.2031,-3.40622 Z"
         id="path59" />
    </symbol>
    <symbol
       id="n"
       overflow="visible">
      <path
         d="m 0.48438,-3.1406 h 1 v 3.0781 c 0,0.42578 -0.10547,0.75 -0.3125,0.96875 C 0.97266,1.125 0.6875,1.23437 0.3125,1.23437 h -0.5 V 0.57812 h 0.17188 c 0.1875,0 0.31641,-0.042969 0.39062,-0.125 C 0.445312,0.367183 0.48438,0.19531 0.48438,-0.0625 Z m 0,-1.2188 h 1 v 0.8125 h -1 z"
         id="path62" />
    </symbol>
    <symbol
       id="m"
       overflow="visible">
      <path
         d="m 3.0156,-3.0312 v 0.8125 C 2.87888,-2.31245 2.74216,-2.37886 2.60935,-2.42182 2.47263,-2.472601 2.3281,-2.499945 2.17185,-2.499945 c -0.27344,0 -0.48438,0.085938 -0.64062,0.25 -0.15625,0.16797 -0.23438,0.39844 -0.23438,0.6875 0,0.29297 0.078125,0.52344 0.23438,0.6875 0.15625,0.15625 0.36719,0.23438 0.64062,0.23438 0.15625,0 0.30469,-0.019531 0.45312,-0.0625 0.14453,-0.050781 0.27344,-0.11719 0.39062,-0.20312 v 0.8125 c -0.15625,0.0625 -0.32031,0.10156 -0.48438,0.125 C 2.37496,0.062565 2.2109,0.07819 2.04683,0.07819 c -0.5625,0 -1.0078,-0.14453 -1.3281,-0.4375 -0.3125,-0.28906 -0.46875,-0.69141 -0.46875,-1.2031 0,-0.51953 0.15625,-0.92578 0.46875,-1.2188 0.32031,-0.28906 0.76562,-0.4375 1.3281,-0.4375 0.16406,0 0.32812,0.015625 0.48438,0.046875 0.16406,0.03125 0.32812,0.078125 0.48438,0.14062 z"
         id="path65" />
    </symbol>
  </defs>
  <g
     id="g1084"
     transform="translate(-69.871765,0.12698236)"
     style="fill:#ffffff;fill-opacity:1"
     inkscape:export-xdpi="28"
     inkscape:export-ydpi="28">
    <path
       d="m 411.62,377.39 c -7.7227,0.5625 -15.918,0.84766 -24.613,0.84766 -11.57,0 -22.27,-0.49609 -32.117,-1.4883 v 19.844 c 0,2.9805 -0.54688,5.7891 -1.5312,8.4453 l 25.48,24.617 c 9.207,-23.625 23.504,-41.969 32.781,-52.266 z"
       id="path70"
       style="fill:#ffffff;fill-opacity:1" />
    <path
       d="m 329.06,427.97 c -2.1641,13.871 -3.8477,44.527 10.254,49.801 10.434,3.9062 24.113,-10.074 31.844,-19.488 0.96875,-6.6328 2.4648,-13.008 4.3438,-19.094 l -26.906,-25.996 c -4.6211,5.6797 -11.488,10.527 -19.535,14.777 z"
       id="path72"
       style="fill:#ffffff;fill-opacity:1" />
    <path
       d="M 524.98,139.45 C 522.6753,63.079 487.234,15.93 423.71,3.38 v 110.98 c 30.242,2.457 58.051,7.9297 80.574,16.035 7.7305,2.7812 14.637,5.8125 20.691,9.0547 z"
       id="path74"
       style="fill:#ffffff;fill-opacity:1" />
    <path
       d="m 485.5,341.43 c 17.539,-19.316 25.391,-87.613 25.391,-146.73 0,-3.9336 -0.0391,-8 -0.11328,-12.086 -0.0977,-5.293 -2.9609,-10.203 -7.4766,-12.82 -16.461,-9.5469 -53.457,-25.562 -116.29,-25.562 -62.836,0 -99.832,16.016 -116.29,25.562 -4.5156,2.6172 -7.3789,7.5312 -7.4766,12.824 -0.0742,4.0859 -0.11328,8.1523 -0.11328,12.086 0,59.117 7.8516,127.41 25.391,146.73 16.645,18.332 49.781,27.625 98.492,27.625 48.707,0 81.844,-9.2969 98.492,-27.629 z m -184.47,-159 c 0.39844,-0.43359 9.9883,-10.664 28.617,-10.664 18.6287,0 28.219,10.227 28.617,10.664 1.7109,1.8672 1.5859,4.7695 -0.28125,6.4805 -0.88281,0.80859 -1.9922,1.207 -3.0977,1.207 -1.2422,0 -2.4805,-0.5 -3.3828,-1.4883 -0.27344,-0.28906 -7.4492,-7.6875 -21.855,-7.6875 -14.402,0 -21.578,7.4023 -21.879,7.7148 -1.7305,1.8281 -4.6289,1.9336 -6.4727,0.21484 -1.8398,-1.7148 -1.9648,-4.582 -0.26562,-6.4414 z m 33.207,48.984 c -7.418,0 -13.645,-5.0391 -15.488,-11.875 -5.5859,-1.3555 -10.145,-4.1289 -13.359,-8.2344 -1.5625,-1.9961 -1.2109,-4.8789 0.78516,-6.4414 1.9961,-1.5625 4.8789,-1.2109 6.4414,0.78516 1.707,2.1836 3.9609,3.5898 6.4531,4.4648 0.37109,-1.0781 0.85547,-2.1016 1.4414,-3.0625 -0.99219,-2.1172 -1.7461,-4.3984 -2.2383,-6.8516 -0.5,-2.4844 1.1055,-4.9023 3.5898,-5.4062 2.4805,-0.5 4.9023,1.1055 5.4062,3.5898 0.15625,0.77734 0.35156,1.5156 0.57812,2.2383 1.9609,-0.85156 4.1211,-1.332 6.3945,-1.332 8.8672,0 16.059,7.1914 16.059,16.059 -0.004,8.875 -7.1953,16.066 -16.062,16.066 z m 88.129,49.129 c -0.42969,0.42969 -10.805,10.52 -35.363,10.52 -24.559,0 -34.934,-10.09 -35.363,-10.52 -1.793,-1.793 -1.793,-4.6953 0,-6.4883 1.793,-1.793 4.6953,-1.793 6.4883,0 0.043,0.0391 8.4609,7.832 28.871,7.832 20.4101,0 28.832,-7.793 28.914,-7.8711 1.8203,-1.7344 4.7148,-1.6992 6.4688,0.0977 1.7578,1.7969 1.7578,4.6523 -0.0156,6.4297 z m 46.246,-69.238 c -3.2148,4.1055 -7.7695,6.8789 -13.359,8.2344 -1.8438,6.8359 -8.0703,11.875 -15.488,11.875 -8.8672,0 -16.059,-7.1914 -16.059,-16.059 0,-8.8672 7.1914,-16.059 16.059,-16.059 2.2734,0 4.4336,0.48047 6.3945,1.332 0.22656,-0.72266 0.42188,-1.4648 0.57813,-2.2383 0.5,-2.4844 2.9219,-4.0938 5.4062,-3.5898 2.4844,0.5 4.0898,2.9219 3.5898,5.4062 -0.49609,2.4531 -1.2461,4.7344 -2.2383,6.8516 0.58203,0.96094 1.0664,1.9844 1.4414,3.0625 2.4922,-0.875 4.7422,-2.2852 6.4531,-4.4688 1.5625,-1.9961 4.4453,-2.3477 6.4414,-0.78516 1.9922,1.5547 2.3438,4.4414 0.78125,6.4375 z m 4.082,-22.391 c -0.88281,0.80859 -1.9922,1.207 -3.0977,1.207 -1.2305,0 -2.4609,-0.49219 -3.3633,-1.4648 -0.34375,-0.36328 -7.5195,-7.7109 -21.875,-7.7109 -14.406,0 -21.578,7.3984 -21.879,7.7148 -1.7305,1.8281 -4.6289,1.9336 -6.4727,0.21484 -1.8438,-1.71876 -1.9688,-4.5859 -0.26562,-6.4414 0.39844,-0.43359 9.9883,-10.664 28.617,-10.664 18.629,0 28.219,10.227 28.617,10.664 1.7109,1.8672 1.5859,4.7656 -0.28125,6.4805 z"
       id="path76"
       style="fill:#ffffff;fill-opacity:1" />
    <path
       d="m 249.36,176.35 c 1.7969,0 3.6094,0.32031 5.3789,0.90234 1.5352,-6.4102 5.6172,-12.055 11.375,-15.395 17.258,-10.008 55.914,-26.801 120.89,-26.801 64.984,0 103.64,16.793 120.89,26.801 5.7578,3.3398 9.8398,8.9805 11.375,15.395 1.7695,-0.58203 3.5781,-0.90234 5.3789,-0.90234 6.7422,0 12.844,4.2305 17.582,11.352 2.5352,-3.7656 3.8438,-7.5664 3.8438,-11.352 0,-26.219 -63.922,-54.289 -159.07,-54.289 -95.156,0 -159.07,28.07 -159.07,54.289 0,3.7852 1.3086,7.5859 3.8438,11.352 4.7383,-7.125 10.84,-11.352 17.582,-11.352 z"
       id="path78"
       style="fill:#ffffff;fill-opacity:1" />
    <path
       d="M 414.54,113.71 V 1.83 c -8.6992,-1.2188 -17.879,-1.8359 -27.531,-1.8359 -9.652,0 -18.832,0.61719 -27.531,1.8359 v 111.88 c 9.0195,-0.54297 18.211,-0.83203 27.531,-0.83203 9.3203,-0.004 18.516,0.28906 27.531,0.83203 z"
       id="path80"
       style="fill:#ffffff;fill-opacity:1" />
    <path
       d="m 249.36,185.52 c -8.6797,0 -18.352,16.961 -18.352,41.293 0,24.336 9.6719,41.293 18.352,41.293 3.2734,0 6.0664,-2.293 8.082,-4.6484 -3.1836,-30.418 -3.4922,-59.023 -3.4922,-68.762 0,-2.5391 0.0234,-5.1445 0.0547,-7.7617 -1.5273,-0.91016 -3.1484,-1.4141 -4.6445,-1.4141 z"
       id="path82"
       style="fill:#ffffff;fill-opacity:1" />
    <path
       d="M 350.3,114.36 V 3.38 c -63.52,12.543 -98.965,59.695 -101.27,136.07 6.0547,-3.2422 12.961,-6.2734 20.691,-9.0547 22.523,-8.1055 50.332,-13.578 80.574,-16.035 z"
       id="path84"
       style="fill:#ffffff;fill-opacity:1" />
    <path
       d="m 231.01,560 h 20.398 L 231.01,519.051 Z"
       id="path86"
       style="fill:#ffffff;fill-opacity:1" />
    <path
       d="m 211.42,347.04 c -17.012,8.4766 -36.547,13.645 -50.027,11.688 l 100.27,201.27 h 78.309 l -95.133,-237.38 c -7.6602,8.7539 -19.57,17.52 -33.418,24.418 z"
       id="path88"
       style="fill:#ffffff;fill-opacity:1" />
    <path
       d="m 207.33,338.83 c 9.418,-4.6914 17.945,-10.387 24.516,-16.199 l -5.1055,-10.25 c -8.6719,11.836 -29.801,21.727 -32.504,22.961 -0.61719,0.28125 -1.2656,0.41406 -1.8984,0.41406 -1.7422,0 -3.4062,-0.99609 -4.1758,-2.6836 -1.0508,-2.3047 -0.0352,-5.0273 2.2695,-6.0781 10.352,-4.7266 27.809,-15.148 30.586,-22.996 0.57031,-1.6094 0.27734,-2.5508 -0.043,-3.1953 -0.37891,-0.76562 -1.7188,-1.1992 -2.4805,-1.3906 -9.1641,-2.3047 -30.777,4.3789 -43.633,13.488 -15.301,10.832 -23.902,24.895 -20.008,32.707 3.2266,6.4766 24.754,7.0352 52.477,-6.7773 z"
       id="path90"
       style="fill:#ffffff;fill-opacity:1" />
    <path
       d="m 369.93,475.07 c 0,-0.61328 0.0117,-1.2227 0.0234,-1.832 -9.6562,9.4961 -18.77,14.363 -26.953,14.363 -2.3828,0 -4.6875,-0.41016 -6.9023,-1.2383 -19.375,-7.25 -18.609,-38.168 -16.914,-53.699 -5.6602,2.4453 -11.637,4.6797 -17.66,6.7539 l 48.324,120.58 h 64.484 c -24.801,-13.707 -44.402,-42.547 -44.402,-84.926 z"
       id="path92"
       style="fill:#ffffff;fill-opacity:1" />
    <path
       d="m 516.26,454.9 c -3.3828,-2.1094 -9.793,-4.418 -16.023,-6.4766 -5.5078,4.9141 -11.07,9.4375 -16.316,13.637 -0.67578,4.6445 -1.9883,18.551 5.043,25.891 8.1992,8.5547 20.645,5.2109 21.168,5.0664 1.3828,-0.38672 2.875,-0.10547 4.0156,0.76172 1.1406,0.86719 1.8242,2.2188 1.8242,3.6523 0,0.72656 -0.0937,18.004 -8.2188,35.508 -4.3594,9.3945 -11.551,19.812 -23.301,27.059 h 58.551 l 0.004,-56.875 c 0,-20.934 -9,-37.156 -26.746,-48.223 z"
       id="path94"
       style="fill:#ffffff;fill-opacity:1" />
    <path
       d="m 524.66,185.52 c -1.4961,0 -3.1172,0.50391 -4.6406,1.4141 0.0312,2.6211 0.0547,5.2227 0.0547,7.7617 0,9.7422 -0.30859,38.348 -3.4922,68.762 2.0117,2.3555 4.8086,4.6484 8.082,4.6484 8.6797,0 18.352,-16.961 18.352,-41.293 -0.004,-24.336 -9.6758,-41.293 -18.355,-41.293 z"
       id="path96"
       style="fill:#ffffff;fill-opacity:1" />
    <path
       d="m 506.48,502.84 c -6.3516,0.46094 -16.367,-0.42188 -24.141,-8.5352 -6.5703,-6.8555 -8.1094,-16.793 -8.1406,-24.445 -7.0781,5.7617 -12.977,10.941 -16.434,15.715 -15.047,20.781 -5.7891,49.836 -5.6953,50.125 0.78906,2.4062 -0.52344,4.9961 -2.9258,5.7891 -0.47656,0.15625 -0.96094,0.23047 -1.4375,0.23047 -1.9258,0 -3.7148,-1.2188 -4.3516,-3.1445 -0.45312,-1.3672 -10.859,-33.75 6.9766,-58.383 5.2617,-7.2656 14.422,-14.574 25.027,-23.035 24.516,-19.555 55.02,-43.895 55.02,-81.348 0,-31.926 -13.547,-48.258 -24.152,-56.152 -3.2109,10.418 -7.1641,19.332 -12.027,25.637 4.8164,12.602 7.5156,37.184 -4.4258,56.148 -8.5977,13.656 -23.43,26.133 -37.777,38.199 -12.59,10.59 -24.484,20.594 -31.961,30.922 -15.047,20.781 -5.7891,49.836 -5.6953,50.125 0.78906,2.4062 -0.52344,4.9961 -2.9258,5.7891 -0.47656,0.15625 -0.96094,0.23047 -1.4375,0.23047 -1.9258,0 -3.7148,-1.2188 -4.3516,-3.1445 -0.45312,-1.3672 -10.859,-33.75 6.9766,-58.383 8.1406,-11.242 21.027,-22.082 33.488,-32.562 13.805,-11.613 28.082,-23.621 35.918,-36.066 8.5859,-13.637 8.2539,-31.918 5,-43.789 -13.742,12.004 -33.992,19.691 -61.258,23.215 -6.9141,6.6602 -46.648,47.215 -46.648,99.098 0,55.16 36.035,84.926 69.941,84.926 47.566,0.004 55.961,-41.883 57.438,-57.16 z"
       id="path98"
       style="fill:#ffffff;fill-opacity:1" />
  </g>
</svg>
