<?xml version="1.0" encoding="UTF-8" standalone="no"?>
<svg
   xmlns:dc="http://purl.org/dc/elements/1.1/"
   xmlns:cc="http://creativecommons.org/ns#"
   xmlns:rdf="http://www.w3.org/1999/02/22-rdf-syntax-ns#"
   xmlns:svg="http://www.w3.org/2000/svg"
   xmlns="http://www.w3.org/2000/svg"
   xmlns:sodipodi="http://sodipodi.sourceforge.net/DTD/sodipodi-0.dtd"
   xmlns:inkscape="http://www.inkscape.org/namespaces/inkscape"
   width="747"
   height="747"
   version="1.1"
   viewBox="0 0 560.25001 560.25001"
   id="svg1439"
   sodipodi:docname="Retreat.svg"
   inkscape:export-filename="/home/marek/git/UnCiv-Logicians/ImageSources/to_edit/Retreat.png"
   inkscape:export-xdpi="6.425703"
   inkscape:export-ydpi="6.425703"
   inkscape:version="1.0.2 (e86c870879, 2021-01-15)">
  <metadata
     id="metadata1443">
    <rdf:RDF>
      <cc:Work
         rdf:about="">
        <dc:format>image/svg+xml</dc:format>
        <dc:type
           rdf:resource="http://purl.org/dc/dcmitype/StillImage" />
        <dc:title></dc:title>
      </cc:Work>
    </rdf:RDF>
  </metadata>
  <sodipodi:namedview
     pagecolor="#ffffff"
     bordercolor="#666666"
     borderopacity="1"
     objecttolerance="10"
     gridtolerance="10"
     guidetolerance="10"
     inkscape:pageopacity="0"
     inkscape:pageshadow="2"
     inkscape:window-width="1920"
     inkscape:window-height="990"
     id="namedview1441"
     showgrid="false"
     inkscape:pagecheckerboard="true"
     units="px"
     inkscape:zoom="0.62806234"
     inkscape:cx="493.723"
     inkscape:cy="525.0987"
     inkscape:window-x="0"
     inkscape:window-y="30"
     inkscape:window-maximized="1"
     inkscape:current-layer="svg1439" />
  <defs
     id="defs1313">
    <symbol
       id="v"
       overflow="visible">
      <path
         d="M 3.8125,-0.23438 C 3.61328,-0.12891 3.40625,-0.05079 3.1875,0 2.97656,0.050781 2.75781,0.078125 2.53125,0.078125 c -0.6875,0 -1.2344,-0.19141 -1.6406,-0.57812 -0.40625,-0.38281 -0.60938,-0.90625 -0.60938,-1.5625 0,-0.66406 0.20312,-1.1914 0.60938,-1.5781 0.40625,-0.38281 0.95312,-0.57812 1.6406,-0.57812 0.22656,0 0.44531,0.027344 0.65625,0.078125 0.21875,0.054687 0.42578,0.13281 0.625,0.23438 v 0.84375 C 3.61328,-3.18746 3.41406,-3.28121 3.21875,-3.34371 3.03125,-3.414022 2.82813,-3.45309 2.60937,-3.45309 c -0.375,0 -0.67188,0.125 -0.89062,0.375 -0.21875,0.24219 -0.32812,0.57812 -0.32812,1.0156 0,0.42969 0.10938,0.76562 0.32812,1.0156 0.21875,0.24219 0.51562,0.35938 0.89062,0.35938 0.21875,0 0.42188,-0.03125 0.60938,-0.09375 0.19531,-0.070312 0.39453,-0.17188 0.59375,-0.29688 z"
         id="path1247" />
    </symbol>
    <symbol
       id="d"
       overflow="visible">
      <path
         d="m 2.7812,-2.2656 c -0.085938,-0.039063 -0.16797,-0.066406 -0.25,-0.078125 -0.085938,-0.019531 -0.17188,-0.03125 -0.26562,-0.03125 -0.25,0 -0.44922,0.085938 -0.59375,0.25 -0.13672,0.15625 -0.20312,0.38672 -0.20312,0.6875 V 2.5e-5 H 0.48433 v -3.1094 h 0.98438 v 0.51562 c 0.125,-0.20703 0.26953,-0.35938 0.4375,-0.45312 0.16406,-0.09375 0.36328,-0.14062 0.59375,-0.14062 0.039062,0 0.078125,0.00781 0.10938,0.015625 0.039063,0 0.097656,0.00781 0.17188,0.015625 z"
         id="path1250" />
    </symbol>
    <symbol
       id="b"
       overflow="visible">
      <path
         d="m 3.5781,-1.5625 v 0.28125 H 1.2656 c 0.019531,0.23047 0.10156,0.40625 0.25,0.53125 0.14453,0.11719 0.34375,0.17188 0.59375,0.17188 0.21875,0 0.4375,-0.03125 0.65625,-0.09375 0.21875,-0.0625 0.44141,-0.15625 0.67188,-0.28125 V -0.1875 C 3.19529,-0.101562 2.95701,-0.03906 2.71873,0 2.48826,0.050781 2.25779,0.078125 2.03123,0.078125 c -0.5625,0 -1,-0.14062 -1.3125,-0.42188 -0.3125,-0.28906 -0.46875,-0.69141 -0.46875,-1.2031 0,-0.50781 0.14844,-0.91016 0.45312,-1.2031 0.30078,-0.28906 0.72266,-0.4375 1.2656,-0.4375 0.48828,0 0.87891,0.15234 1.1719,0.45312 0.28906,0.29297 0.4375,0.68359 0.4375,1.1719 z M 2.5625,-1.89062 c 0,-0.1875 -0.058594,-0.33594 -0.17188,-0.45312 -0.10547,-0.125 -0.24609,-0.1875 -0.42188,-0.1875 -0.19922,0 -0.35938,0.058594 -0.48438,0.17188 -0.11719,0.10547 -0.1875,0.26172 -0.21875,0.46875 z"
         id="path1253" />
    </symbol>
    <symbol
       id="l"
       overflow="visible">
      <path
         d="m 1.875,-1.4062 c -0.21094,0 -0.36719,0.039062 -0.46875,0.10938 C 1.30078,-1.222601 1.25,-1.11713 1.25,-0.98432 c 0,0.125 0.039062,0.22656 0.125,0.29688 0.082031,0.074219 0.19531,0.10938 0.34375,0.10938 0.1875,0 0.34375,-0.066406 0.46875,-0.20312 0.13281,-0.13281 0.20312,-0.30078 0.20312,-0.5 v -0.125 z m 1.5156,-0.375 V 0 h -1 v -0.46875 c -0.13672,0.19922 -0.28906,0.33984 -0.45312,0.42188 -0.16797,0.082031 -0.37109,0.125 -0.60938,0.125 -0.32422,0 -0.58594,-0.09375 -0.78125,-0.28125 -0.19922,-0.1875 -0.29688,-0.42969 -0.29688,-0.73438 0,-0.36328 0.125,-0.62891 0.375,-0.79688 0.25,-0.16406 0.64062,-0.25 1.1719,-0.25 h 0.59375 v -0.078125 c 0,-0.16406 -0.0625,-0.28516 -0.1875,-0.35938 -0.125,-0.070313 -0.32031,-0.10938 -0.57812,-0.10938 -0.21875,0 -0.42188,0.027344 -0.60938,0.078125 -0.17969,0.042969 -0.34375,0.10547 -0.5,0.1875 v -0.76562 c 0.20703,-0.050781 0.42188,-0.085938 0.64062,-0.10938 0.21875,-0.03125 0.42969,-0.046875 0.64062,-0.046875 0.5625,0 0.96875,0.11719 1.2188,0.34375 0.25,0.21875 0.375,0.57422 0.375,1.0625 z"
         id="path1256" />
    </symbol>
    <symbol
       id="a"
       overflow="visible">
      <path
         d="m 1.5625,-4 v 0.89062 h 1.0312 v 0.70312 H 1.5625 v 1.3281 c 0,0.14844 0.023438,0.24609 0.078125,0.29688 0.0625,0.042969 0.17578,0.0625 0.34375,0.0625 h 0.51562 V -3e-5 h -0.84375 c -0.39844,0 -0.67969,-0.078125 -0.84375,-0.23438 -0.16797,-0.16406 -0.25,-0.44531 -0.25,-0.84375 v -1.3281 h -0.48438 v -0.70312 h 0.48438 V -4 Z"
         id="path1259" />
    </symbol>
    <symbol
       id="f"
       overflow="visible">
      <path
         d="m 2.5938,-2.6562 v -1.6719 h 1 V 0 h -1 v -0.45312 c -0.13672,0.1875 -0.28906,0.32422 -0.45312,0.40625 -0.16797,0.082031 -0.35938,0.125 -0.57812,0.125 -0.375,0 -0.6875,-0.14844 -0.9375,-0.45312 -0.25,-0.30078 -0.375,-0.69141 -0.375,-1.1719 0,-0.47656 0.125,-0.86719 0.375,-1.1719 0.25,-0.3125 0.5625,-0.46875 0.9375,-0.46875 0.21875,0 0.41016,0.046875 0.57812,0.14062 0.16406,0.085937 0.31641,0.21484 0.45312,0.39062 z m -0.65625,2.0156 c 0.20703,0 0.36719,-0.078125 0.48438,-0.23438 0.11328,-0.15625 0.17188,-0.37891 0.17188,-0.67188 0,-0.30078 -0.058594,-0.53125 -0.17188,-0.6875 -0.11719,-0.15625 -0.27734,-0.23438 -0.48438,-0.23438 -0.21094,0 -0.37109,0.078125 -0.48438,0.23438 -0.11719,0.15625 -0.17188,0.38672 -0.17188,0.6875 0,0.29297 0.054688,0.51562 0.17188,0.67188 0.11328,0.15625 0.27344,0.23438 0.48438,0.23438 z"
         id="path1262" />
    </symbol>
    <symbol
       id="k"
       overflow="visible">
      <path
         d="m 2.1406,-0.64062 c 0.20703,0 0.36328,-0.078125 0.46875,-0.23438 0.11328,-0.15625 0.17188,-0.37891 0.17188,-0.67188 0,-0.30078 -0.058594,-0.53125 -0.17188,-0.6875 -0.10547,-0.15625 -0.26172,-0.23438 -0.46875,-0.23438 -0.21875,0 -0.38672,0.078125 -0.5,0.23438 -0.11719,0.15625 -0.17188,0.38672 -0.17188,0.6875 0,0.29297 0.054688,0.51562 0.17188,0.67188 0.11328,0.15625 0.28125,0.23438 0.5,0.23438 z M 1.46872,-2.65622 C 1.60153,-2.832 1.75388,-2.96091 1.92184,-3.04684 2.0859,-3.14059 2.28122,-3.18746 2.49996,-3.18746 c 0.38281,0 0.69531,0.15625 0.9375,0.46875 0.25,0.30469 0.375,0.69531 0.375,1.1719 0,0.48047 -0.125,0.87109 -0.375,1.1719 -0.24219,0.30469 -0.55469,0.45312 -0.9375,0.45312 -0.21875,0 -0.41406,-0.042969 -0.57812,-0.125 C 1.75387,-0.128821 1.60153,-0.26554 1.46872,-0.45304 V 8e-5 H 0.48434 v -4.3281 h 0.98438 z"
         id="path1265" />
    </symbol>
    <symbol
       id="e"
       overflow="visible">
      <path
         d="m 0.0625,-3.1094 h 1 L 1.90625,-1 2.60937,-3.1094 h 1 L 2.29687,0.2968 C 2.16015,0.64055 2.0039,0.87883 1.82812,1.01555 1.66015,1.16008 1.42968,1.2343 1.14062,1.2343 H 0.5625 V 0.57805 H 0.875 C 1.05078,0.57805 1.17578,0.5468 1.25,0.4843 1.320312,0.429613 1.37891,0.33586 1.42188,0.20305 L 1.45313,0.124925 Z"
         id="path1268" />
    </symbol>
    <symbol
       id="j"
       overflow="visible">
      <path
         d="M 3.0312,-0.75 H 1.3593 L 1.1093,0 H 0.0312 L 1.5624,-4.1406 H 2.8436 L 4.3748,0 H 3.2967 Z M 1.6406,-1.53125 h 1.125 l -0.5625,-1.6406 z"
         id="path1271" />
    </symbol>
    <symbol
       id="i"
       overflow="visible">
      <path
         d="m 3.3594,-2.5938 c 0.125,-0.1875 0.26953,-0.33203 0.4375,-0.4375 0.17578,-0.10156 0.36719,-0.15625 0.57812,-0.15625 0.36328,0 0.63281,0.10938 0.8125,0.32812 0.1875,0.21875 0.28125,0.54297 0.28125,0.96875 V -8e-5 H 4.48439 v -1.625 -0.0625 -0.125 c 0,-0.21875 -0.039063,-0.375 -0.10938,-0.46875 -0.0625,-0.10156 -0.16406,-0.15625 -0.29688,-0.15625 -0.19922,0 -0.35156,0.078125 -0.45312,0.23438 -0.09375,0.15625 -0.14844,0.38281 -0.15625,0.67188 v 1.5312 h -1 v -1.625 c 0,-0.34375 -0.03125,-0.5625 -0.09375,-0.65625 -0.054688,-0.10156 -0.15625,-0.15625 -0.3125,-0.15625 -0.1875,0 -0.33594,0.078125 -0.4375,0.23438 -0.10547,0.15625 -0.15625,0.38281 -0.15625,0.67188 v 1.5312 h -1 v -3.1094 h 1 v 0.45312 c 0.125,-0.17578 0.26562,-0.30469 0.42188,-0.39062 0.15625,-0.09375 0.33203,-0.14062 0.53125,-0.14062 0.20703,0 0.39453,0.054688 0.5625,0.15625 0.16406,0.10547 0.28906,0.25 0.375,0.4375 z"
         id="path1274" />
    </symbol>
    <symbol
       id="h"
       overflow="visible">
      <path
         d="M 3.6094,-1.8906 V 0 h -1 V -1.4375 C 2.6094,-1.71875 2.597681,-1.90625 2.57815,-2 2.566431,-2.10156 2.550806,-2.17969 2.531275,-2.23438 2.488306,-2.29688 2.429715,-2.34376 2.359395,-2.375 c -0.0625,-0.039062 -0.13672,-0.0625 -0.21875,-0.0625 -0.21094,0 -0.375,0.085938 -0.5,0.25 -0.11719,0.15625 -0.17188,0.375 -0.17188,0.65625 V -5e-5 h -0.98438 v -4.3281 h 0.98438 v 1.6719 c 0.15625,-0.17578 0.31641,-0.30469 0.48438,-0.39062 0.16406,-0.09375 0.34766,-0.14062 0.54688,-0.14062 0.36328,0 0.64062,0.10938 0.82812,0.32812 0.1875,0.21874 0.28125,0.54297 0.28125,0.96875 z"
         id="path1277" />
    </symbol>
    <symbol
       id="u"
       overflow="visible">
      <path
         d="m 2.9062,-3.0156 v 0.76562 C 2.69526,-2.34373 2.49214,-2.41014 2.29682,-2.4531 2.0976,-2.503881 1.9101,-2.531225 1.73432,-2.531225 c -0.1875,0 -0.32812,0.027344 -0.42188,0.078125 -0.09375,0.054687 -0.14062,0.125 -0.14062,0.21875 0,0.085937 0.03125,0.14844 0.09375,0.1875 0.070313,0.042969 0.20312,0.074219 0.39062,0.09375 l 0.17188,0.015625 c 0.50781,0.074219 0.84766,0.18359 1.0156,0.32812 0.17578,0.14844 0.26562,0.375 0.26562,0.6875 0,0.33594 -0.125,0.58594 -0.375,0.75 -0.24219,0.16797 -0.60156,0.25 -1.0781,0.25 C 1.44525,0.078145 1.23431,0.06252 1.01557,0.03127 0.79683,2e-5 0.57026,-0.046855 0.34369,-0.10935 v -0.76562 c 0.19531,0.10547 0.39844,0.18359 0.60938,0.23438 0.20703,0.042969 0.41406,0.0625 0.625,0.0625 0.19531,0 0.34375,-0.023437 0.4375,-0.078125 0.10156,-0.050781 0.15625,-0.13281 0.15625,-0.25 0,-0.082031 -0.039063,-0.14453 -0.10938,-0.1875 C 1.99994,-1.132777 1.86713,-1.17184 1.67182,-1.203095 L 1.48432,-1.21872 c -0.4375,-0.0625 -0.74609,-0.16406 -0.92188,-0.3125 -0.17969,-0.14453 -0.26562,-0.375 -0.26562,-0.6875 0,-0.32031 0.10938,-0.5625 0.32812,-0.71875 0.22656,-0.16406 0.57812,-0.25 1.0469,-0.25 0.1875,0 0.37891,0.015625 0.57812,0.046875 0.19531,0.023437 0.41406,0.0625 0.65625,0.125 z"
         id="path1280" />
    </symbol>
    <symbol
       id="t"
       overflow="visible">
      <path
         d="m 3.4062,-4.0156 v 0.875 C 3.17573,-3.24216 2.95308,-3.32029 2.73432,-3.37498 2.52338,-3.425761 2.32026,-3.453105 2.12494,-3.453105 c -0.25,0 -0.4375,0.039063 -0.5625,0.10938 -0.125,0.074219 -0.1875,0.18359 -0.1875,0.32812 0,0.11719 0.039062,0.20312 0.125,0.26562 0.082031,0.0625 0.23438,0.11719 0.45312,0.15625 l 0.45312,0.09375 c 0.45703,0.09375 0.78125,0.23438 0.96875,0.42188 0.19531,0.1875 0.29688,0.45312 0.29688,0.79688 0,0.46094 -0.13672,0.80469 -0.40625,1.0312 -0.27344,0.21875 -0.68359,0.32812 -1.2344,0.32812 C 1.76944,0.078095 1.50382,0.050751 1.23428,-3e-5 0.97256,-0.039092 0.70694,-0.11331 0.4374,-0.21878 v -0.90625 c 0.26953,0.14844 0.52344,0.25781 0.76562,0.32812 0.25,0.074219 0.48828,0.10938 0.71875,0.10938 0.23828,0 0.42188,-0.035156 0.54688,-0.10938 0.125,-0.082031 0.1875,-0.19531 0.1875,-0.34375 0,-0.13281 -0.046875,-0.23438 -0.14062,-0.29688 -0.085937,-0.070312 -0.25,-0.14062 -0.5,-0.20312 L 1.60928,-1.718785 c -0.41797,-0.09375 -0.72656,-0.23438 -0.92188,-0.42188 -0.1875,-0.19531 -0.28125,-0.46094 -0.28125,-0.79688 0,-0.41406 0.12891,-0.73438 0.39062,-0.95312 0.26953,-0.21875 0.65625,-0.32812 1.1562,-0.32812 0.22656,0 0.46094,0.015625 0.70312,0.046875 0.23828,0.03125 0.48828,0.085937 0.75,0.15625 z"
         id="path1283" />
    </symbol>
    <symbol
       id="g"
       overflow="visible">
      <path
         d="m 0.4375,-1.2031 v -1.9062 h 1 v 0.3125 0.64062 0.5 c 0,0.25 0.00391,0.43359 0.015625,0.54688 0.019531,0.10547 0.046875,0.18359 0.078125,0.23438 0.03125,0.0625 0.078125,0.11719 0.14062,0.15625 0.070313,0.03125 0.14844,0.046875 0.23438,0.046875 0.20703,0 0.36719,-0.078125 0.48438,-0.23438 0.125,-0.16406 0.1875,-0.39062 0.1875,-0.67188 v -1.5312 h 1 v 3.1094 h -1 v -0.45312 c -0.14844,0.1875 -0.30859,0.32422 -0.48438,0.40625 -0.16797,0.082031 -0.35156,0.125 -0.54688,0.125 -0.35547,0 -0.63281,-0.10938 -0.82812,-0.32812 -0.1875,-0.21875 -0.28125,-0.53516 -0.28125,-0.95312 z"
         id="path1286" />
    </symbol>
    <symbol
       id="s"
       overflow="visible">
      <path
         d="M 0.48438,-3.1094 H 1.46876 V 0 H 0.48438 Z m 0,-1.2188 h 0.98438 v 0.8125 H 0.48438 Z"
         id="path1289" />
    </symbol>
    <symbol
       id="c"
       overflow="visible">
      <path
         d="m 1.9531,-2.4688 c -0.21875,0 -0.38672,0.078125 -0.5,0.23438 -0.11719,0.15625 -0.17188,0.38672 -0.17188,0.6875 0,0.29297 0.054688,0.52344 0.17188,0.6875 0.11328,0.15625 0.28125,0.23438 0.5,0.23438 0.21875,0 0.38281,-0.078125 0.5,-0.23438 0.11328,-0.16406 0.17188,-0.39453 0.17188,-0.6875 0,-0.30078 -0.058594,-0.53125 -0.17188,-0.6875 -0.11719,-0.15625 -0.28125,-0.23438 -0.5,-0.23438 z m 0,-0.71875 c 0.53906,0 0.95703,0.14844 1.25,0.4375 0.30078,0.29297 0.45312,0.69531 0.45312,1.2031 0,0.51172 -0.15234,0.91406 -0.45312,1.2031 -0.29297,0.28125 -0.71094,0.42188 -1.25,0.42188 -0.53125,0 -0.94922,-0.14062 -1.25,-0.42188 -0.30469,-0.28906 -0.45312,-0.69141 -0.45312,-1.2031 0,-0.50781 0.14844,-0.91016 0.45312,-1.2031 0.30078,-0.28906 0.71875,-0.4375 1.25,-0.4375 z"
         id="path1292" />
    </symbol>
    <symbol
       id="r"
       overflow="visible">
      <path
         d="m 2.5312,-4.3281 v 0.65625 H 1.9687 c -0.13672,0 -0.23438,0.027344 -0.29688,0.078125 -0.054687,0.054688 -0.078125,0.14062 -0.078125,0.26562 v 0.21875 h 0.85938 v 0.70312 h -0.85938 v 2.4062 h -0.98438 v -2.4062 h -0.5 v -0.70312 h 0.5 v -0.21875 c 0,-0.33203 0.09375,-0.58203 0.28125,-0.75 0.1875,-0.16406 0.47656,-0.25 0.875,-0.25 z"
         id="path1295" />
    </symbol>
    <symbol
       id="q"
       overflow="visible">
      <path
         d="m 0.51562,-4.1406 h 1.2031 l 1.5,2.8438 v -2.8438 h 1.0156 V 0 H 3.04682 L 1.53122,-2.8438 V 0 h -1.0156 z"
         id="path1298" />
    </symbol>
    <symbol
       id="p"
       overflow="visible">
      <path
         d="M 3.6094,-1.8906 V 0 h -1 v -1.4531 c 0,-0.26953 -0.011719,-0.45312 -0.03125,-0.54688 -0.011719,-0.10156 -0.027344,-0.17969 -0.046875,-0.23438 -0.042969,-0.0625 -0.10156,-0.10938 -0.17188,-0.14062 -0.0625,-0.039062 -0.13672,-0.0625 -0.21875,-0.0625 -0.21094,0 -0.375,0.085938 -0.5,0.25 -0.11719,0.15625 -0.17188,0.375 -0.17188,0.65625 V -3e-5 h -0.98438 v -3.1094 h 0.98438 v 0.45312 c 0.15625,-0.17578 0.31641,-0.30469 0.48438,-0.39062 0.16406,-0.09375 0.34766,-0.14062 0.54688,-0.14062 0.36328,0 0.64062,0.10938 0.82812,0.32812 0.1875,0.21874 0.28125,0.54297 0.28125,0.96875 z"
         id="path1301" />
    </symbol>
    <symbol
       id="o"
       overflow="visible">
      <path
         d="m 0.51562,-4.1406 h 1.7812 c 0.53125,0 0.9375,0.12109 1.2188,0.35938 0.28125,0.23047 0.42188,0.55859 0.42188,0.98438 0,0.4375 -0.14062,0.77734 -0.42188,1.0156 -0.28125,0.23047 -0.6875,0.34375 -1.2188,0.34375 H 1.5937 V 1e-5 H 0.5156 Z m 1.0781,0.76562 v 1.1562 h 0.59375 c 0.20703,0 0.36328,-0.046875 0.46875,-0.14062 0.11328,-0.10156 0.17188,-0.25 0.17188,-0.4375 0,-0.1875 -0.058594,-0.32812 -0.17188,-0.42188 C 2.55075,-3.32034 2.3945,-3.37503 2.18747,-3.37503 Z"
         id="path1304" />
    </symbol>
    <symbol
       id="n"
       overflow="visible">
      <path
         d="m 0.48438,-3.1094 h 0.98438 v 3.0469 c 0,0.41406 -0.10156,0.73438 -0.29688,0.95312 -0.19922,0.22656 -0.49219,0.34375 -0.875,0.34375 H -0.1875 V 0.57812 h 0.17188 c 0.1875,0 0.31641,-0.046875 0.39062,-0.14062 0.070312,-0.085938 0.10938,-0.25 0.10938,-0.5 z m 0,-1.2188 h 0.98438 v 0.8125 H 0.48438 Z"
         id="path1307" />
    </symbol>
    <symbol
       id="m"
       overflow="visible">
      <path
         d="m 2.9844,-3.0156 v 0.8125 C 2.84768,-2.29685 2.71096,-2.36326 2.57815,-2.40622 2.44143,-2.445282 2.30081,-2.46872 2.15627,-2.46872 c -0.27344,0 -0.48438,0.085938 -0.64062,0.25 -0.15625,0.15625 -0.23438,0.38281 -0.23438,0.67188 0,0.29297 0.078125,0.52344 0.23438,0.6875 0.15625,0.15625 0.36719,0.23438 0.64062,0.23438 0.15625,0 0.30078,-0.019531 0.4375,-0.0625 0.14453,-0.050781 0.27344,-0.125 0.39062,-0.21875 v 0.8125 c -0.15625,0.0625 -0.3125,0.10156 -0.46875,0.125 -0.15625,0.03125 -0.32031,0.046875 -0.48438,0.046875 -0.5625,0 -1,-0.14062 -1.3125,-0.42188 -0.3125,-0.28906 -0.46875,-0.69141 -0.46875,-1.2031 0,-0.51953 0.15625,-0.92188 0.46875,-1.2031 0.3125,-0.28906 0.75,-0.4375 1.3125,-0.4375 0.16406,0 0.32812,0.015625 0.48438,0.046875 0.15626,0.03125 0.3125,0.074219 0.46875,0.125 z"
         id="path1310" />
    </symbol>
  </defs>
  <g
     id="g8701"
     transform="translate(-69.866215,0.12832098)"
     style="fill:#ffffff;fill-opacity:1">
    <path
       d="m 459.42,311.92 c 5.6484,1.4102 14.613,3.0234 22.605,1.7422 7.2266,-1.1602 13.727,-4.9492 17.965,-7.9688 -9.0625,-5.2891 -17.762,-12.48 -25.762,-20.387 -4.957,10.059 -9.8867,18.922 -14.809,26.613 z"
       id="path1315"
       style="fill:#ffffff;fill-opacity:1" />
    <path
       d="m 355.91,299.98 c 1.375,16.051 10.859,25.898 18.574,31.332 12.293,8.6602 29.242,12.504 41.223,9.3438 16.523,-4.3555 33.941,-25.324 51.789,-62.32 -7.6172,-8.2617 -14.426,-16.891 -20.09,-24.668 -9.5547,-13.117 -7.6367,-31.133 4.457,-41.91 7.0352,-6.2656 16.41,-9.0156 25.707,-7.5469 3.3359,0.52734 6.5117,1.582 9.4375,3.0781 0.0469,-5.1914 -0.27734,-10.164 -0.96484,-14.754 -7.3438,-1.2227 -27.254,-3.2227 -40.852,7.7969 -8.7344,7.0781 -12.285,16.281 -15.723,25.184 -3.5195,9.1172 -6.8398,17.73 -15.508,21.555 -2.9648,1.3086 -6.2148,1.9492 -9.5547,1.9492 -5.9141,0 -12.113,-2.0117 -17.535,-5.8828 -0.10547,-0.0742 -0.20312,-0.15625 -0.30469,-0.23047 -8.3555,6.8633 -33.016,29.555 -30.656,57.074 z"
       id="path1317"
       style="fill:#ffffff;fill-opacity:1" />
    <path
       d="m 392.17,235.74 c 5.8828,4.1953 12.828,5.3516 18.121,3.0117 5.207,-2.2969 7.6289,-8.5664 10.691,-16.504 3.5039,-9.0781 7.8594,-20.375 18.48,-28.98 14.605,-11.84 34.078,-11.512 44.457,-10.25 -3.168,-10.395 -10.824,-18.129 -22.773,-23.312 -6.4688,-3.0156 -13.168,-4.5352 -19.684,-4.5352 -4.8906,0 -9.6797,0.85547 -14.195,2.5781 -25.648,9.7852 -42.32,48.66 -43.48,62.395 -0.47656,5.6797 2.6562,11.512 8.3828,15.598 z"
       id="path1319"
       style="fill:#ffffff;fill-opacity:1" />
    <path
       d="m 454.02,319.91 c -3.9805,5.5352 -7.957,10.324 -11.941,14.348 8.9648,3.2344 26.246,8.0586 44.086,5.332 17.883,-2.7344 33.41,-15.84 41.145,-23.484 l -18.277,-5.8516 c -4.2812,3.5508 -13.945,10.543 -25.555,12.406 -2.5508,0.41016 -5.1523,0.58203 -7.7188,0.58203 -8.8438,-0.004 -17.254,-2.0312 -21.738,-3.332 z"
       id="path1321"
       style="fill:#ffffff;fill-opacity:1" />
    <path
       d="m 499.82,219.43 c 12.219,20.879 24.379,34.91 35.418,40.988 -2.0859,-12.914 -6.1211,-25.441 -11.836,-36.613 -7.0508,-13.781 -19.766,-21.383 -27.512,-24.938 0.30859,4.5 0.34375,9.5664 -0.0234,15.207 1.4844,1.625 2.8164,3.4102 3.9531,5.3555 z"
       id="path1323"
       style="fill:#ffffff;fill-opacity:1" />
    <path
       d="m 508.58,162.73 -11.773,26.578 c 6.3945,2.5859 17.656,8.25 26.785,18.703 l 6.3359,-11.625 c -3.9453,-4.8711 -6.4922,-10.203 -7.7383,-14.281 -0.73438,-2.4062 0.62109,-4.9492 3.0234,-5.6836 2.4062,-0.73047 4.9414,0.61719 5.6797,3.0117 0.30469,0.96875 7.6328,23.695 28.988,20.676 22.43,-3.1797 34.16,-43.207 34.16,-63.773 0,-18.633 -8.8125,-41.164 -28.156,-46.602 -19.375,-5.4453 -42.215,4.3867 -50.91,21.918 -8.918,17.977 -6.418,50.75 -6.3945,51.078 z"
       id="path1325"
       style="fill:#ffffff;fill-opacity:1" />
    <path
       d="m 611.72,283 c -24.07,-1.3438 -56.852,-4.5898 -76.328,-12.414 -14.043,-5.6406 -28.656,-21.305 -43.434,-46.559 -3.4062,-5.8203 -9.168,-9.7617 -15.809,-10.812 -6.5977,-1.043 -13.238,0.91016 -18.23,5.3516 -8.582,7.6445 -9.9375,20.434 -3.1523,29.75 14.328,19.676 36.195,45.027 58.992,54.047 25.789,10.207 71.395,13.496 96.281,14.551 4.668,0.19141 9.082,-1.4727 12.449,-4.6992 3.375,-3.2344 5.2305,-7.5898 5.2305,-12.266 0,-9.0039 -7.0273,-16.449 -16,-16.949 z"
       id="path1327"
       style="fill:#ffffff;fill-opacity:1" />
    <path
       d="m 565.63,459.91 c -8.543,-22.633 -37.301,-57.992 -49.266,-72.145 -5.4531,-6.4492 -6.875,-15.312 -3.7148,-23.137 3.3398,-8.2695 8.5859,-21.605 13.273,-34.961 -9.3984,7.8047 -22.941,16.559 -38.391,18.922 -4.2109,0.64453 -8.3789,0.91797 -12.414,0.91797 -17.57,0 -32.766,-5.2148 -39.59,-7.9805 -0.60547,0.99219 -1.3398,2.1914 -2.2461,3.6562 l -34.859,56.715 c -5.1094,8.3125 -14.953,12.473 -24.477,10.355 l -53.59,-11.91 c -10.703,-2.375 -21.512,3.6328 -25.141,13.977 -1.9258,5.4922 -1.5859,11.402 0.96094,16.637 2.5508,5.2422 6.9961,9.168 12.52,11.047 27.391,9.3242 77.094,23.77 102.19,15.75 36.285,-11.594 57.578,-67.578 57.789,-68.145 0.87891,-2.3555 3.5039,-3.5508 5.8555,-2.6719 2.3555,0.87891 3.5508,3.5 2.6758,5.8555 -0.39453,1.0586 -4.6797,12.348 -12.633,25.922 11.875,9.5469 52.738,43.012 60.699,57.797 4.6367,8.6133 8.6953,30.504 12.051,65.066 1.0195,10.496 9.7344,18.414 20.273,18.414 5.7227,0 11.02,-2.3047 14.914,-6.4922 3.8945,-4.1836 5.8125,-9.6328 5.4023,-15.336 -2.625,-36.426 -6.9883,-64.219 -12.285,-78.254 z"
       id="path1329"
       style="fill:#ffffff;fill-opacity:1" />
    <path
       d="m 441.01,92.156 c 8.5977,0 14.012,-4.1094 19.738,-8.4609 3.0508,-2.3164 6.207,-4.7148 9.7734,-6.3047 4.4219,-1.9727 9.8633,-2.8789 14.656,-3.2656 -12.129,-9.6992 -27.176,-15.633 -40.582,-15.633 -13.207,0 -22.238,6.1797 -23.008,15.742 -0.33984,4.2031 1.207,8.5 4.2383,11.785 3.6562,3.9531 9.0469,6.1367 15.184,6.1367 z"
       id="path1331"
       style="fill:#ffffff;fill-opacity:1" />
    <path
       d="m 482.1,28.035 c 4.5977,3.2773 12.223,3.7578 18.953,4.1797 3.4648,0.21875 6.7422,0.42188 9.6133,0.98438 3.4375,0.67188 7.0039,2.2305 10.156,3.9531 -3.75,-11.562 -10.797,-21.91 -19.375,-27.934 -4.4414,-3.1172 -8.9023,-4.6836 -12.844,-4.6836 -3.7539,0 -7.043,1.418 -9.4023,4.2656 -2.0938,2.5273 -3.0195,6.0938 -2.5391,9.7852 0.50391,3.9023 2.4883,7.3438 5.4375,9.4492 z"
       id="path1333"
       style="fill:#ffffff;fill-opacity:1" />
    <path
       d="m 79.484,497.4 c 9.7734,-1.7695 23.789,-3.7578 37.395,-3.7578 7.1406,0 14.168,0.54688 20.406,1.9688 17.461,3.9648 35.777,17.477 47.016,27.008 -2.3008,-13.547 -3.8477,-34.121 3.3242,-50.574 6.9961,-16.062 25.379,-28.145 39.293,-35.355 -14.031,-1.8789 -32.582,-6.6719 -43.656,-18.773 -11.418,-12.477 -15.789,-31.387 -17.441,-45.223 -5.7461,8.8242 -14.848,19.469 -27.992,25.918 -17.281,8.4844 -37.793,7.3711 -49.176,5.7852 4.2188,10.613 10.66,30.094 9.8398,48.402 -0.76953,17.105 -11.215,34.152 -19.008,44.602 z"
       id="path1335"
       style="fill:#ffffff;fill-opacity:1" />
    <path
       d="m 168.54,121.63 c 6.8672,-1.3086 13.836,-1.9688 20.812,-1.9688 24.793,0 47.719,8.1484 66.242,21.906 -0.21875,-10.438 0.86719,-26.441 8.0352,-38.848 5.9922,-10.371 17.852,-17.957 28.035,-22.902 -13.496,-2.0312 -31.258,-6.2031 -43.371,-14.727 -14.492,-10.199 -21.59,-29.75 -24.801,-42.367 -5.7812,8.7656 -15.035,20.922 -25.277,27.07 -11.082,6.6562 -24.398,9.7891 -32.27,11.16 5.0156,10.004 7.8555,21.277 7.8555,33.207 0,9.418 -1.8008,18.758 -5.2617,27.469 z"
       id="path1337"
       style="fill:#ffffff;fill-opacity:1" />
    <path
       d="m 236.57,506.41 c 18.711,-11.145 30.336,-31.566 30.336,-53.309 0,-22.152 -11.965,-42.773 -31.223,-53.812 -1.0977,-0.62891 -1.8867,-1.6914 -2.1719,-2.9258 -0.28516,-1.2344 -0.0391,-2.5352 0.67188,-3.582 7.0078,-10.297 10.711,-22.344 10.711,-34.84 0,-10.852 -2.8633,-21.547 -8.2773,-30.93 -0.61328,-1.0625 -0.76953,-2.3242 -0.44141,-3.5039 0.33203,-1.1797 1.1211,-2.1758 2.1992,-2.7656 32.82,-17.973 53.207,-52.355 53.207,-89.727 0,-56.375 -45.863,-102.24 -102.24,-102.24 -9.3555,0 -18.691,1.293 -27.754,3.8438 -1.7695,0.5 -3.668,-0.11719 -4.8125,-1.5664 -1.1406,-1.4453 -1.2969,-3.4375 -0.39453,-5.043 5.4297,-9.6914 8.3008,-20.703 8.3008,-31.844 0,-35.98 -29.273,-65.254 -65.254,-65.254 -9.5117,0 -18.637,1.9844 -27.164,5.9023 v 456.96 c 7.0742,-9.5234 16.465,-24.781 17.117,-39.379 1.082,-24.09 -12.258,-51.73 -12.391,-52.004 -0.77734,-1.5898 -0.55859,-3.4844 0.55469,-4.8633 1.1133,-1.375 2.9258,-1.9766 4.6406,-1.5508 0.29297,0.0703 29.75,7.1953 51.617,-3.5352 21.703,-10.652 31.219,-35.68 31.312,-35.934 0.76953,-2.0625 2.9023,-3.2812 5.0742,-2.8984 2.168,0.39062 3.7461,2.2734 3.7461,4.4805 v 0.16016 c -0.0352,3.8516 0.11719,38.137 16.031,55.52 16.34,17.855 55.125,17 55.504,16.988 2.2305,-0.0664 4.1875,1.5078 4.5977,3.707 0.41406,2.1992 -0.82812,4.3711 -2.9336,5.1289 -0.41016,0.14844 -41.137,15.023 -51.184,38.086 -10.156,23.316 0.17578,58.367 0.28125,58.719 0.60156,2.0039 -0.23828,4.1562 -2.0352,5.2266 -0.72266,0.42969 -1.5273,0.64062 -2.3242,0.64062 -1.1875,0 -2.3594,-0.46094 -3.2383,-1.3516 -0.28516,-0.28906 -28.73,-28.824 -53.391,-34.426 -20.664,-4.7031 -52.52,1.3789 -62.969,3.6328 v 51.871 l 182.55,0.004 c 0.39453,-2.4922 0.59375,-5.0312 0.59375,-7.5742 0,-15.27 -7.0156,-29.289 -19.254,-38.469 -1.2148,-0.91016 -1.8945,-2.3672 -1.8164,-3.8828 0.082,-1.5156 0.91406,-2.8906 2.2188,-3.668 z M 152.613,335.74 c -2.5156,0 -4.5547,-2.0391 -4.5547,-4.5547 0,-2.5156 2.0391,-4.5547 4.5547,-4.5547 21.227,0 38.496,-17.27 38.496,-38.496 0,-16.062 -10.125,-30.582 -25.191,-36.133 -1.168,-0.42969 -2.1094,-1.3203 -2.6016,-2.4609 -0.49609,-1.1406 -0.5,-2.4375 -0.0195,-3.582 2,-4.7344 3.0117,-9.7656 3.0117,-14.953 0,-21.227 -17.27,-38.496 -38.496,-38.496 -12.312,0 -23.59,5.6797 -30.938001,15.578 -1.4961,2.0195 -4.3477,2.4414 -6.3711,0.94141 -2.0195,-1.5 -2.4414,-4.3516 -0.94141,-6.3711 8.9492,-12.059 23.246001,-19.258 38.250001,-19.258 26.246,0 47.602,21.355 47.602,47.602 0,4.875 -0.72656,9.6445 -2.1641,14.227 16.297,7.8594 26.965,24.566 26.965,42.902 -0.004,26.254 -21.355,47.609 -47.602,47.609 z"
       id="path1339"
       style="fill:#ffffff;fill-opacity:1" />
    <path
       d="m 334.42,526.2 -53.109,-18.598 c -2.375,-0.83203 -4.9688,0.42188 -5.8008,2.793 -0.83203,2.375 0.41797,4.9688 2.793,5.8008 l 54.613,18.855 c 1.8789,0 3.6406,-1.1719 4.2969,-3.0508 0.82812,-2.375 -0.41797,-4.9688 -2.793,-5.8008 z"
       id="path1341"
       style="fill:#ffffff;fill-opacity:1" />
    <path
       d="m 363.56,530.23 c -5.4062,-1.8945 -11.328,0.95312 -13.219,6.3633 -1.8945,5.4062 0.95312,11.328 6.3633,13.223 5.4062,1.8945 11.328,-0.95312 13.219,-6.3633 1.8906,-5.4102 -0.95703,-11.328 -6.3633,-13.223 z"
       id="path1343"
       style="fill:#ffffff;fill-opacity:1" />
    <path
       d="m 288.07,53.262 c 0.6875,0 1.3906,-0.15625 2.0469,-0.48828 l 50.242,-25.344 c 2.2461,-1.1328 3.1484,-3.8711 2.0156,-6.1172 -1.1328,-2.2461 -3.8711,-3.1484 -6.1172,-2.0156 l -50.242,25.344 c -2.2461,1.1328 -3.1484,3.8711 -2.0156,6.1172 0.80469,1.5898 2.4062,2.5039 4.0703,2.5039 z"
       id="path1345"
       style="fill:#ffffff;fill-opacity:1" />
    <path
       d="m 297.79,163.68 c 0.80078,1.5859 2.4023,2.5039 4.0664,2.5039 0.6875,0 1.3906,-0.15625 2.0469,-0.48828 l 50.242,-25.344 c 2.2461,-1.1328 3.1484,-3.8711 2.0156,-6.1172 -1.1328,-2.2461 -3.8672,-3.1484 -6.1172,-2.0156 l -50.242,25.344 c -2.2422,1.1328 -3.1445,3.8711 -2.0117,6.1172 z"
       id="path1347"
       style="fill:#ffffff;fill-opacity:1" />
    <path
       d="m 373.64,6.3984 c 2.1953,5.293 -0.31641,11.363 -5.6094,13.562 -5.293,2.1953 -11.363,-0.31641 -13.559,-5.6094 -2.1953,-5.293 0.31641,-11.363 5.6094,-13.559 5.293,-2.1953 11.363,0.31641 13.559,5.6055"
       id="path1349"
       style="fill:#ffffff;fill-opacity:1" />
    <path
       d="m 187.67,16.051 c 0,5.7305 -4.6484,10.375 -10.375,10.375 -5.7305,0 -10.375,-4.6445 -10.375,-10.375 0,-5.7305 4.6445,-10.375 10.375,-10.375 5.7266,0 10.375,4.6445 10.375,10.375"
       id="path1351"
       style="fill:#ffffff;fill-opacity:1" />
    <path
       d="m 312.12,332.65 c 2.418,-0.68359 3.8281,-3.1992 3.1445,-5.6211 -0.68359,-2.418 -3.1914,-3.8281 -5.6211,-3.1445 l -36.078,10.184 c -2.418,0.68359 -3.8281,3.1992 -3.1445,5.6211 0.56641,2.0078 2.3906,3.3164 4.3789,3.3164 0.41016,0 0.82812,-0.0547 1.2383,-0.17188 z"
       id="path1353"
       style="fill:#ffffff;fill-opacity:1" />
  </g>
</svg>
