<?xml version="1.0" encoding="UTF-8" standalone="no"?>
<svg
   xmlns:dc="http://purl.org/dc/elements/1.1/"
   xmlns:cc="http://creativecommons.org/ns#"
   xmlns:rdf="http://www.w3.org/1999/02/22-rdf-syntax-ns#"
   xmlns:svg="http://www.w3.org/2000/svg"
   xmlns="http://www.w3.org/2000/svg"
   xmlns:sodipodi="http://sodipodi.sourceforge.net/DTD/sodipodi-0.dtd"
   xmlns:inkscape="http://www.inkscape.org/namespaces/inkscape"
   width="1434"
   height="1434"
   viewBox="0 0 1434 1434"
   version="1.1"
   xml:space="preserve"
   style="clip-rule:evenodd;fill-rule:evenodd;stroke-linecap:round;stroke-linejoin:round;stroke-miterlimit:4.62209"
   id="svg41"
   sodipodi:docname="Rose.svg"
   inkscape:export-filename="/home/marek/Downloads/Rose.png"
   inkscape:export-xdpi="13.389121"
   inkscape:export-ydpi="13.389121"
   inkscape:version="1.0.2 (e86c870879, 2021-01-15)"><metadata
     id="metadata47"><rdf:RDF><cc:Work
         rdf:about=""><dc:format>image/svg+xml</dc:format><dc:type
           rdf:resource="http://purl.org/dc/dcmitype/StillImage" /><dc:title /></cc:Work></rdf:RDF></metadata><defs
     id="defs45" /><sodipodi:namedview
     pagecolor="#ffffff"
     bordercolor="#666666"
     borderopacity="1"
     objecttolerance="10"
     gridtolerance="10"
     guidetolerance="10"
     inkscape:pageopacity="0"
     inkscape:pageshadow="2"
     inkscape:window-width="1920"
     inkscape:window-height="990"
     id="namedview43"
     showgrid="false"
     inkscape:pagecheckerboard="true"
     inkscape:zoom="0.44665272"
     inkscape:cx="806.76362"
     inkscape:cy="698.7988"
     inkscape:window-x="0"
     inkscape:window-y="30"
     inkscape:window-maximized="1"
     inkscape:current-layer="svg41"
     inkscape:document-rotation="0" /><g
     id="g842"><path
       id="pink"
       d="m 729.14615,1412.309 -69.175,-2.964 c 22.4,-1.187 13.836,-10.541 6.588,-15.153 -38.211,-24.573 -63.904,-91.573 -54.681,-94.604 0,0 65.881,20.094 81.034,20.489 24.375,0.725 62.586,-4.48 76.421,-28.593 3.294,-5.797 17.128,-28.46 10.54,-28.328 -110.019,2.241 -127.807,-61.401 -126.489,-89.926 0,0 100.796,28.856 126.489,-6.061 25.035,-34.983 -9.222,-148.429 25.694,-203.70204 13.835,-21.873 34.257,-39.858 54.022,-56.855 28.329,-23.585 75.104,-32.743 83.01,-67.133 5.27,-23.321 -20.423,-61.532 -29.647,-72.139 -18.446,-21.674 -40.187,-40.977 -61.269,-60.214 14.494,-45.39201 28.987,-90.981 48.093,-135.05501 40.846,-96.053 105.40905,-172.607 160.74805,-264.707 54.681,-92.233 228.604,-136.768 192.372,-64.893 0,0 -83.01,95.329 -88.28,100.995 -108.703,129.915 -153.502,207.787 -232.55805,342.644 12.517,12.846 24.376,25.759 34.917,39.857 9.882,13.704 17.788,48.027 24.375,63.378 31.62405,70.16201 30.30605,141.51 30.96405,210.22301 1.318,133.14404 -40.18605,252.19104 -149.54805,342.97304 -36.893,30.569 -90.915,65.485 -143.619,69.768 z m -152.843,-349.101 c 0,0 -102.773,5.798 -119.902,-82.54804 -19.764,-106.66 48.092,-89.399 86.303,-49.08 38.21,40.319 33.599,131.62804 33.599,131.62804 z"
       style="fill:#ffffff;fill-opacity:1;stroke:#ffffff;stroke-opacity:1" /><path
       d="m 369.43815,802.97095 c 0,0 -32.282,-64.196 -93.551,-168.398 -98.821,-169.975 -278.014,-475.25 -231.24,-548.599995 46.775,-73.348 140.984,-93.352 234.534,-7.638 94.209,85.593995 195.005,341.100995 223.335,621.886995 0,0 138.349,-56.86 285.921,-8.608 0,0 28.328,-218.226 144.937,-382.563 115.94905,-164.277 279.99195,-275.693995 391.32895,-247.627995 111.338,28.068 86.963,145.788995 -15.8119,235.868995 -102.773,90.079 -313.59005,370.744 -333.35405,436.151"
       style="fill:none;stroke:#ffffff;stroke-width:43.17px;stroke-opacity:1"
       id="path27" /><path
       d="m 368.77915,864.92295 c 0,0 -48.751,287.15005 58.634,411.66205 100.138,115.418 208.183,141.544 297.78,134.27 88.939,-7.274 195.005,-91.595 251.663,-194.948 60.60995,-111.175 62.58595,-424.27105 -48.751,-531.26305 98.81995,-183.979 229.92295,-337.283 343.23605,-459.491 0,0 -64.562,-91.958 -215.4291,80.745 -150.20695,172.763 -206.20595,411.175 -206.20595,411.175 55.998,34.189 79.056,78.683 90.256,132.634 0,0 -94.209,26.368 -138.349,112.266 -36.234,69.58905 -21.082,202.89005 -21.082,202.89005 -41.504,39.038 -87.621,36.795 -135.713,8.244 0,0 2.635,104.567 148.23,83.654 -29.645,59.163 -102.113,90.079 -191.053,32.915 3.953,24.187 18.447,63.954 46.117,93.838 29.646,31.886 133.737,71.045 293.166,-113.114"
       style="fill:none;stroke:#ffffff;stroke-width:43.17px;stroke-miterlimit:3.75;stroke-opacity:1"
       id="path29" /><path
       d="m 576.30315,1063.208 c 0,0 3.293,-90.38205 -34.917,-130.63305 -38.211,-40.372 -95.527,-53.769 -88.939,28.491 7.906,98.50505 123.856,102.14205 123.856,102.14205 z"
       style="fill:none;stroke:#ffffff;stroke-width:43.17px;stroke-miterlimit:1.5;stroke-opacity:1"
       id="path37" /></g></svg>
