<?xml version="1.0" encoding="UTF-8" standalone="no"?>
<!-- Created with Inkscape (http://www.inkscape.org/) -->

<svg
   version="1.1"
   id="svg2"
   xml:space="preserve"
   width="200"
   height="200"
   viewBox="0 0 200 200"
   sodipodi:docname="Sakila.svg"
   inkscape:version="1.1.2 (0a00cf5339, 2022-02-04)"
   inkscape:export-filename="/home/marek/git/UnCiv-Logicians/Images/UnitIcons/Sakila.png"
   inkscape:export-xdpi="96"
   inkscape:export-ydpi="96"
   xmlns:inkscape="http://www.inkscape.org/namespaces/inkscape"
   xmlns:sodipodi="http://sodipodi.sourceforge.net/DTD/sodipodi-0.dtd"
   xmlns="http://www.w3.org/2000/svg"
   xmlns:svg="http://www.w3.org/2000/svg"
   xmlns:rdf="http://www.w3.org/1999/02/22-rdf-syntax-ns#"
   xmlns:cc="http://creativecommons.org/ns#"
   xmlns:dc="http://purl.org/dc/elements/1.1/"><metadata
     id="metadata8"><rdf:RDF><cc:Work
         rdf:about=""><dc:format>image/svg+xml</dc:format><dc:type
           rdf:resource="http://purl.org/dc/dcmitype/StillImage" /></cc:Work></rdf:RDF></metadata><defs
     id="defs6" /><sodipodi:namedview
     pagecolor="#ffffff"
     bordercolor="#666666"
     borderopacity="1"
     objecttolerance="10"
     gridtolerance="10"
     guidetolerance="10"
     inkscape:pageopacity="0"
     inkscape:pageshadow="2"
     inkscape:window-width="1920"
     inkscape:window-height="1003"
     id="namedview4"
     showgrid="false"
     inkscape:zoom="2.1326585"
     inkscape:cx="-3.5167374"
     inkscape:cy="42.669748"
     inkscape:window-x="0"
     inkscape:window-y="27"
     inkscape:window-maximized="1"
     inkscape:current-layer="g10"
     inkscape:pagecheckerboard="0" /><g
     id="g10"
     inkscape:groupmode="layer"
     inkscape:label="ink_ext_XXXXXX"
     transform="matrix(1.3333333,0,0,-1.3333333,0,199.99999)"><path
       inkscape:connector-curvature="0"
       id="path28"
       style="fill:#ffffff;fill-opacity:1;fill-rule:evenodd;stroke:none;stroke-width:0.21797778"
       d="m 138.16599,34.73629 c -8.16544,0.204245 -14.48898,-0.610556 -19.79238,-2.856817 -1.5302,-0.611427 -3.97591,-0.611427 -4.18517,-2.550122 0.82177,-0.814801 0.91986,-2.13967 1.63919,-3.267051 1.22068,-2.040272 3.35904,-4.790497 5.30122,-6.222611 2.14272,-1.633089 4.28544,-3.259422 6.53279,-4.687394 3.97592,-2.459007 8.46626,-3.881094 12.33755,-6.3307278 2.25171,-1.4262285 4.48816,-3.2611654 6.73987,-4.7955109 1.11822,-0.8156728 1.82665,-2.1440294 3.26095,-2.6488659 v 0.3090925 c -0.71933,0.9152886 -0.91987,2.2419014 -1.63048,3.2679227 -1.01795,1.0122888 -2.04027,1.9362966 -3.06259,2.9520726 -2.96013,3.9780948 -6.63742,7.4435048 -10.60679,10.3003218 -3.26749,2.250402 -10.4128,5.311464 -11.73375,9.07485 0,0 -0.10681,0.108117 -0.20708,0.208605 2.24517,0.207079 4.90232,1.024495 7.04287,1.643334 3.46366,0.915507 6.62652,0.708428 10.197,1.623935 1.63483,0.411106 3.26748,0.924661 4.90668,1.426228 v 0.924662 c -1.84628,1.832321 -3.16722,4.284571 -5.10504,6.017276 -5.19877,4.487291 -10.91851,8.870824 -16.83443,12.549198 -3.16721,2.040926 -7.24776,3.360782 -10.61551,5.099372 -1.2185,0.613172 -3.25659,0.915289 -3.97374,1.94131 -1.83755,2.243646 -2.86205,5.198334 -4.18517,7.855047 -2.95578,5.604863 -5.817834,11.825948 -8.363814,17.752764 -1.835373,3.975915 -2.957958,7.951829 -5.203129,11.626934 -10.513068,17.346675 -21.935103,27.848845 -39.482314,38.154835 -3.775375,2.1449 -8.263537,3.06258 -13.054689,4.18517 -2.554699,0.10681 -5.102859,0.30517 -7.653199,0.40544 -1.634833,0.71715 -3.269667,2.65715 -4.695241,3.57483 -5.817827,3.67075 -20.8081589,11.62694 -25.09578178,1.12041 -2.75523902,-6.63524 4.08054408,-13.1615 6.42816468,-16.52925 1.732923,-2.34327 3.9802741,-5.00041 5.1987701,-7.64884 0.714967,-1.73511 0.919866,-3.57484 1.637013,-5.40803 1.630474,-4.48816 3.158498,-9.48857 5.305579,-13.67375 1.118226,-2.142723 2.341081,-4.390073 3.768836,-6.319177 0.823956,-1.129125 2.247351,-1.632653 2.554699,-3.474565 -1.423395,-2.038092 -1.534563,-5.0985 -2.3498,-7.65102 -3.670746,-11.528844 -2.245171,-25.81162 2.960138,-34.277876 1.628294,-2.550122 5.510478,-8.16305 10.713608,-6.015533 4.590611,1.833193 3.570475,7.648622 4.89578,12.746468 0.305169,1.232882 0.10027,2.041798 0.710608,2.856817 v -0.206207 c 1.427754,-2.852457 2.859868,-5.600067 4.185173,-8.466257 3.167217,-4.993871 8.671156,-10.19809 13.266127,-13.6635 2.441351,-1.843438 4.381353,-5.000846 7.441761,-6.126484 v 0.308221 H 67.15973 c -0.614698,0.915507 -1.530204,1.326613 -2.347621,2.037656 -1.835373,1.837553 -3.871285,4.082942 -5.305579,6.122124 -4.283263,5.710799 -8.062998,12.039784 -11.422035,18.568218 -1.637013,3.170051 -3.062588,6.635462 -4.390072,9.796139 -0.610338,1.218496 -0.610338,3.06019 -1.632654,3.670746 -1.534563,-2.241901 -3.773195,-4.183212 -4.893601,-6.929295 -1.940002,-4.392035 -2.142721,-9.797883 -2.862048,-15.411683 -0.405439,-0.106591 -0.200539,0 -0.405439,-0.202719 -3.260947,0.815673 -4.383533,4.181685 -5.610747,7.028911 -3.060408,7.252992 -3.574836,18.88276 -0.917687,27.248747 0.710608,2.138362 3.779735,8.871696 2.55034,10.911967 -0.616877,1.946542 -2.654969,3.058229 -3.775375,4.594972 -1.323125,1.937827 -2.759598,4.38136 -3.668566,6.52844 -2.45007,5.71101 -3.681644,12.03891 -6.325715,17.74993 -1.225035,2.65715 -3.372116,5.41239 -5.10068,7.85592 -1.9421821,2.75523 -4.0827241,4.69306 -5.6151074,7.954 -0.5057085,1.12477 -1.2206756,2.96232 -0.4076185,4.183 0.2005396,0.81741 0.6146973,1.12476 1.432114,1.32966 1.3187658,1.12259 5.0984999,-0.30299 6.4216249,-0.9155 3.777556,-1.52585 6.940413,-2.96232 10.098911,-5.10068 1.429934,-1.02232 2.960138,-2.96014 4.793331,-3.47457 h 2.147081 c 3.263127,-0.70843 6.938233,-0.19836 10.00082,-1.12041 5.403669,-1.73292 10.29945,-4.28326 14.689522,-7.0385 13.359858,-8.46843 24.378634,-20.50953 31.822575,-34.891702 1.227215,-2.343261 1.741642,-4.488163 2.862048,-6.931693 2.142722,-5.00913 4.797691,-10.109809 6.936053,-15.001885 2.140541,-4.795511 4.185175,-9.68824 7.249945,-13.673091 1.52584,-2.138798 7.64884,-3.261166 10.40408,-4.384187 2.03591,-0.915289 5.20313,-1.732705 7.04068,-2.853329 3.46803,-2.138798 6.92951,-4.591048 10.19918,-6.941284 1.62829,-1.224381 6.73115,-3.771888 7.0385,-5.815429" /></g></svg>
