<?xml version="1.0" encoding="UTF-8" standalone="no"?>
<svg
   xmlns:dc="http://purl.org/dc/elements/1.1/"
   xmlns:cc="http://creativecommons.org/ns#"
   xmlns:rdf="http://www.w3.org/1999/02/22-rdf-syntax-ns#"
   xmlns:svg="http://www.w3.org/2000/svg"
   xmlns="http://www.w3.org/2000/svg"
   xmlns:sodipodi="http://sodipodi.sourceforge.net/DTD/sodipodi-0.dtd"
   xmlns:inkscape="http://www.inkscape.org/namespaces/inkscape"
   width="747"
   height="747"
   version="1.1"
   viewBox="0 0 560.25001 560.25001"
   id="svg1585"
   sodipodi:docname="Travel experience.svg"
   inkscape:version="1.0.2 (e86c870879, 2021-01-15)"
   inkscape:export-filename="/home/marek/git/UnCiv-Logicians/ImageSources/to_edit/Travel experience.png"
   inkscape:export-xdpi="6.425703"
   inkscape:export-ydpi="6.425703">
  <metadata
     id="metadata1589">
    <rdf:RDF>
      <cc:Work
         rdf:about="">
        <dc:format>image/svg+xml</dc:format>
        <dc:type
           rdf:resource="http://purl.org/dc/dcmitype/StillImage" />
        <dc:title></dc:title>
      </cc:Work>
    </rdf:RDF>
  </metadata>
  <sodipodi:namedview
     pagecolor="#ffffff"
     bordercolor="#666666"
     borderopacity="1"
     objecttolerance="10"
     gridtolerance="10"
     guidetolerance="10"
     inkscape:pageopacity="0"
     inkscape:pageshadow="2"
     inkscape:window-width="1920"
     inkscape:window-height="990"
     id="namedview1587"
     showgrid="false"
     inkscape:pagecheckerboard="true"
     units="px"
     inkscape:zoom="0.62806234"
     inkscape:cx="508.40447"
     inkscape:cy="543.38028"
     inkscape:window-x="0"
     inkscape:window-y="30"
     inkscape:window-maximized="1"
     inkscape:current-layer="svg1585" />
  <defs
     id="defs1511">
    <symbol
       id="v"
       overflow="visible">
      <path
         d="m 18.766,-1.125 c -0.96875,0.5 -1.9805,0.875 -3.0312,1.125 -1.043,0.25781 -2.1367,0.39062 -3.2812,0.39062 -3.3984,0 -6.0898,-0.94531 -8.0781,-2.8438 -1.9922,-1.9062 -2.9844,-4.4844 -2.9844,-7.7344 0,-3.2578 0.99219,-5.8359 2.9844,-7.7344 1.9883,-1.9062 4.6797,-2.8594 8.0781,-2.8594 1.1445,0 2.2383,0.13281 3.2812,0.39062 1.0508,0.25 2.0625,0.625 3.0312,1.125 v 4.2188 c -0.98047,-0.65625 -1.9453,-1.1406 -2.8906,-1.4531 -0.94922,-0.3125 -1.9492,-0.46875 -3,-0.46875 -1.875,0 -3.3516,0.60547 -4.4219,1.8125 -1.0742,1.1992 -1.6094,2.8555 -1.6094,4.9688 0,2.1055 0.53516,3.7617 1.6094,4.9688 1.0703,1.1992 2.5469,1.7969 4.4219,1.7969 1.0508,0 2.0508,-0.14844 3,-0.45312 0.94531,-0.3125 1.9102,-0.80078 2.8906,-1.4688 z"
         id="path1445" />
    </symbol>
    <symbol
       id="d"
       overflow="visible">
      <path
         d="m 13.734,-11.141 c -0.4375,-0.19531 -0.87109,-0.34375 -1.2969,-0.4375 -0.41797,-0.10156 -0.83984,-0.15625 -1.2656,-0.15625 -1.2617,0 -2.2305,0.40625 -2.9062,1.2188 -0.67969,0.80469 -1.0156,1.9531 -1.0156,3.4531 v 7.0625 H 2.3591 v -15.312 h 4.8906 v 2.5156 c 0.625,-1 1.3438,-1.7266 2.1562,-2.1875 0.82031,-0.46875 1.8008,-0.70312 2.9375,-0.70312 0.16406,0 0.34375,0.01172 0.53125,0.03125 0.19531,0.01172 0.47656,0.03906 0.84375,0.07813 z"
         id="path1448" />
    </symbol>
    <symbol
       id="a"
       overflow="visible">
      <path
         d="m 17.641,-7.7031 v 1.4062 H 6.188 c 0.125,1.1484 0.53906,2.0078 1.25,2.5781 0.70703,0.57422 1.7031,0.85938 2.9844,0.85938 1.0312,0 2.082,-0.14844 3.1562,-0.45312 1.082,-0.3125 2.1914,-0.77344 3.3281,-1.3906 v 3.7656 c -1.1562,0.4375 -2.3125,0.76562 -3.4688,0.98438 -1.1562,0.22656 -2.3125,0.34375 -3.4688,0.34375 -2.7734,0 -4.9297,-0.70312 -6.4688,-2.1094 -1.5312,-1.4062 -2.2969,-3.3789 -2.2969,-5.9219 0,-2.5 0.75391,-4.4609 2.2656,-5.8906 1.5078,-1.4375 3.582,-2.1562 6.2188,-2.1562 2.4062,0 4.332,0.73047 5.7812,2.1875 1.4453,1.4492 2.1719,3.3828 2.1719,5.7969 z m -5.0312,-1.625 c 0,-0.92578 -0.27344,-1.6719 -0.8125,-2.2344 -0.54297,-0.57031 -1.25,-0.85938 -2.125,-0.85938 -0.94922,0 -1.7188,0.26562 -2.3125,0.79688 -0.5937,0.53126 -0.96484,1.2969 -1.1094,2.2969 z"
         id="path1451" />
    </symbol>
    <symbol
       id="c"
       overflow="visible">
      <path
         d="m 9.2188,-6.8906 c -1.0234,0 -1.793,0.17188 -2.3125,0.51562 -0.51172,0.34375 -0.76562,0.85547 -0.76562,1.5312 0,0.625 0.20703,1.1172 0.625,1.4688 0.41406,0.34375 0.98828,0.51562 1.7188,0.51562 0.92578,0 1.7031,-0.32812 2.3281,-0.98438 0.63281,-0.66406 0.95312,-1.4922 0.95312,-2.4844 v -0.5625 z m 7.4688,-1.8438 V 0 h -4.9219 v -2.2656 c -0.65625,0.92969 -1.3984,1.6055 -2.2188,2.0312 -0.82422,0.41406 -1.8242,0.625 -3,0.625 -1.5859,0 -2.8711,-0.45703 -3.8594,-1.375 -0.99219,-0.92578 -1.4844,-2.1289 -1.4844,-3.6094 0,-1.7891 0.61328,-3.1016 1.8438,-3.9375 1.2383,-0.84375 3.1797,-1.2656 5.8281,-1.2656 h 2.8906 v -0.39062 c 0,-0.76953 -0.30859,-1.332 -0.92188,-1.6875 -0.61719,-0.36328 -1.5703,-0.54688 -2.8594,-0.54688 -1.0547,0 -2.0312,0.10547 -2.9375,0.3125 -0.89844,0.21094 -1.7305,0.52344 -2.5,0.9375 v -3.7344 c 1.0391,-0.25 2.0859,-0.44141 3.1406,-0.57812 1.0625,-0.13281 2.125,-0.20312 3.1875,-0.20312 2.7578,0 4.75,0.54688 5.9688,1.6406 1.2266,1.0859 1.8438,2.8555 1.8438,5.3125 z"
         id="path1454" />
    </symbol>
    <symbol
       id="b"
       overflow="visible">
      <path
         d="m 7.7031,-19.656 v 4.3438 H 12.75 v 3.5 H 7.7031 v 6.5 c 0,0.71094 0.14062,1.1875 0.42188,1.4375 0.28126,0.25 0.83594,0.375 1.6719,0.375 h 2.5156 v 3.5 h -4.1875 c -1.9375,0 -3.3125,-0.39844 -4.125,-1.2031 -0.80469,-0.8125 -1.2031,-2.1797 -1.2031,-4.1094 v -6.5 h -2.4219 v -3.5 h 2.4219 v -4.3438 z"
         id="path1457" />
    </symbol>
    <symbol
       id="j"
       overflow="visible">
      <path
         d="m 12.766,-13.078 v -8.2031 h 4.9219 V -1e-4 H 12.766 v -2.2188 c -0.66797,0.90625 -1.4062,1.5703 -2.2188,1.9844 -0.8126,0.4141 -1.7578,0.625 -2.8281,0.625 -1.8867,0 -3.4336,-0.75 -4.6406,-2.25 -1.2109,-1.5 -1.8125,-3.4258 -1.8125,-5.7812 0,-2.3633 0.60156,-4.2969 1.8125,-5.7969 1.207,-1.5 2.7539,-2.25 4.6406,-2.25 1.0625,0 2,0.21484 2.8125,0.64062 0.82031,0.42969 1.5664,1.0859 2.2344,1.9688 z m -3.2188,9.9219 c 1.0391,0 1.8359,-0.37891 2.3906,-1.1406 0.55078,-0.76953 0.82812,-1.8828 0.82812,-3.3438 0,-1.457 -0.27734,-2.5664 -0.82812,-3.3281 -0.55469,-0.76953 -1.3516,-1.1562 -2.3906,-1.1562 -1.043,0 -1.8398,0.38672 -2.3906,1.1562 -0.55469,0.76172 -0.82812,1.8711 -0.82812,3.3281 0,1.4609 0.27344,2.5742 0.82812,3.3438 0.55078,0.76172 1.3477,1.1406 2.3906,1.1406 z"
         id="path1460" />
    </symbol>
    <symbol
       id="i"
       overflow="visible">
      <path
         d="m 10.5,-3.1562 c 1.0508,0 1.8516,-0.37891 2.4062,-1.1406 0.55078,-0.76953 0.82812,-1.8828 0.82812,-3.3438 0,-1.457 -0.27734,-2.5664 -0.82812,-3.3281 -0.55469,-0.76953 -1.3555,-1.1562 -2.4062,-1.1562 -1.0547,0 -1.8594,0.38672 -2.4219,1.1562 -0.55469,0.77344 -0.82812,1.8828 -0.82812,3.3281 0,1.4492 0.27344,2.5586 0.82812,3.3281 0.5625,0.77344 1.3672,1.1562 2.4219,1.1562 z m -3.25,-9.9219 c 0.67578,-0.88281 1.4219,-1.5391 2.2344,-1.9688 0.82031,-0.42578 1.7656,-0.64062 2.8281,-0.64062 1.8945,0 3.4453,0.75 4.6562,2.25 1.207,1.5 1.8125,3.4336 1.8125,5.7969 0,2.3555 -0.60547,4.2812 -1.8125,5.7812 -1.2109,1.5 -2.7617,2.25 -4.6562,2.25 -1.0625,0 -2.0078,-0.21094 -2.8281,-0.625 C 8.6719,-0.6602 7.9258,-1.32032 7.25,-2.21882 V -2e-5 H 2.3594 v -21.281 H 7.25 Z"
         id="path1463" />
    </symbol>
    <symbol
       id="h"
       overflow="visible">
      <path
         d="m 0.34375,-15.312 h 4.8906 l 4.125,10.391 3.5,-10.391 h 4.8906 l -6.4375,16.766 c -0.64844,1.6953 -1.4023,2.8828 -2.2656,3.5625 -0.86719,0.6875 -2,1.0312 -3.4062,1.0312 H 2.79685 V 2.8289 h 1.5312 c 0.83203,0 1.4375,-0.13672 1.8125,-0.40625 C 6.52336,2.16093 6.82024,1.69218 7.03117,1.01645 L 7.17179,0.59457 Z"
         id="path1466" />
    </symbol>
    <symbol
       id="g"
       overflow="visible">
      <path
         d="m 2.5781,-20.406 h 5.25 v 7.7656 h 7.7656 v -7.7656 h 5.2656 V 0 H 15.5937 V -8.6562 H 7.8281 V 0 h -5.25 z"
         id="path1469" />
    </symbol>
    <symbol
       id="u"
       overflow="visible">
      <path
         d="m 14.312,-14.828 v 3.7188 c -1.043,-0.4375 -2.0547,-0.76562 -3.0312,-0.98438 -0.98047,-0.21875 -1.9023,-0.32812 -2.7656,-0.32812 -0.92969,0 -1.6211,0.11719 -2.0781,0.34375 -0.44922,0.23047 -0.67188,0.58984 -0.67188,1.0781 0,0.38672 0.17188,0.68359 0.51562,0.89062 0.34375,0.21094 0.95703,0.36719 1.8438,0.46875 l 0.85938,0.125 c 2.5078,0.32422 4.1953,0.85156 5.0625,1.5781 0.86328,0.73047 1.2969,1.8711 1.2969,3.4219 0,1.6367 -0.60547,2.8672 -1.8125,3.6875 -1.1992,0.8125 -2.9922,1.2188 -5.375,1.2188 -1.0234,0 -2.0742,-0.078125 -3.1562,-0.23438 -1.0742,-0.15625 -2.1797,-0.39453 -3.3125,-0.71875 v -3.7188 c 0.96875,0.48047 1.9609,0.83984 2.9844,1.0781 1.0312,0.23047 2.0781,0.34375 3.1406,0.34375 0.95703,0 1.6758,-0.12891 2.1562,-0.39062 0.47656,-0.26953 0.71875,-0.66406 0.71875,-1.1875 0,-0.4375 -0.16797,-0.75781 -0.5,-0.96875 -0.33594,-0.21875 -0.99609,-0.38281 -1.9844,-0.5 L 7.34339,-6.01551 c -2.1797,-0.26953 -3.7031,-0.77344 -4.5781,-1.5156 -0.875,-0.73828 -1.3125,-1.8594 -1.3125,-3.3594 0,-1.625 0.55078,-2.8281 1.6562,-3.6094 1.1133,-0.78906 2.8203,-1.1875 5.125,-1.1875 0.89453,0 1.8359,0.07422 2.8281,0.21875 1,0.13672 2.082,0.35156 3.25,0.64062 z"
         id="path1472" />
    </symbol>
    <symbol
       id="f"
       overflow="visible">
      <path
         d="M 17.75,-9.3281 V 0 h -4.9219 v -7.1406 c 0,-1.3203 -0.03125,-2.2344 -0.09375,-2.7344 -0.0625,-0.5 -0.16797,-0.86719 -0.3125,-1.1094 -0.1875,-0.3125 -0.44922,-0.55469 -0.78125,-0.73438 -0.32422,-0.17578 -0.69531,-0.26562 -1.1094,-0.26562 -1.0234,0 -1.8242,0.39844 -2.4062,1.1875 -0.58594,0.78125 -0.875,1.8711 -0.875,3.2656 V -1e-4 H 2.3594 v -15.312 H 7.25 v 2.2344 c 0.73828,-0.88281 1.5195,-1.5391 2.3438,-1.9688 0.83203,-0.42578 1.75,-0.64062 2.75,-0.64062 1.7695,0 3.1133,0.54688 4.0312,1.6406 0.91406,1.0859 1.375,2.6562 1.375,4.7188 z"
         id="path1475" />
    </symbol>
    <symbol
       id="t"
       overflow="visible">
      <path
         d="m 1.5781,-20.406 h 17.156 v 3.1719 l -10.953,13.25 h 11.266 V 3e-4 H 1.2661 v -3.1875 l 10.938,-13.25 H 1.5791 Z"
         id="path1478" />
    </symbol>
    <symbol
       id="s"
       overflow="visible">
      <path
         d="m 2.5781,-20.406 h 14.203 v 3.9688 H 7.828 v 3.7969 h 8.4219 v 3.9844 H 7.828 V 3e-4 h -5.25 z"
         id="path1481" />
    </symbol>
    <symbol
       id="r"
       overflow="visible">
      <path
         d="m 12.422,-21.281 v 3.2188 H 9.7189 c -0.6875,0 -1.1719,0.125 -1.4531,0.375 -0.27344,0.25 -0.40625,0.6875 -0.40625,1.3125 v 1.0625 h 4.1875 v 3.5 H 7.85955 V -2e-4 h -4.8906 v -11.812 h -2.4375 v -3.5 h 2.4375 v -1.0625 c 0,-1.6641 0.46094,-2.8984 1.3906,-3.7031 0.92578,-0.80078 2.3672,-1.2031 4.3281,-1.2031 z"
         id="path1484" />
    </symbol>
    <symbol
       id="e"
       overflow="visible">
      <path
         d="m 9.6406,-12.188 c -1.0859,0 -1.9141,0.39062 -2.4844,1.1719 -0.57422,0.78125 -0.85938,1.9062 -0.85938,3.375 0,1.4688 0.28516,2.5938 0.85938,3.375 0.57031,0.77344 1.3984,1.1562 2.4844,1.1562 1.0625,0 1.875,-0.38281 2.4375,-1.1562 0.57031,-0.78125 0.85938,-1.9062 0.85938,-3.375 0,-1.4688 -0.28906,-2.5938 -0.85938,-3.375 -0.5625,-0.78125 -1.375,-1.1719 -2.4375,-1.1719 z m 0,-3.5 c 2.6328,0 4.6914,0.71484 6.1719,2.1406 1.4766,1.418 2.2188,3.3867 2.2188,5.9062 0,2.5117 -0.74219,4.4805 -2.2188,5.9062 C 14.332,-0.317 12.2734,0.39 9.6406,0.39 6.9922,0.39 4.9258,-0.31703 3.4375,-1.735 1.9453,-3.1608 1.2031,-5.1295 1.2031,-7.6412 c 0,-2.5195 0.74219,-4.4883 2.2344,-5.9062 1.4883,-1.4258 3.5547,-2.1406 6.2031,-2.1406 z"
         id="path1487" />
    </symbol>
    <symbol
       id="q"
       overflow="visible">
      <path
         d="m 16.547,-12.766 c 0.61328,-0.94531 1.3477,-1.6719 2.2031,-2.1719 0.85156,-0.5 1.7891,-0.75 2.8125,-0.75 1.7578,0 3.0977,0.54688 4.0156,1.6406 0.92578,1.0859 1.3906,2.6562 1.3906,4.7188 V -4e-4 h -4.9219 v -7.9844 -0.35938 c 0.0078,-0.13281 0.01563,-0.32031 0.01563,-0.5625 0,-1.082 -0.16406,-1.8633 -0.48438,-2.3438 -0.3125,-0.48828 -0.82422,-0.73438 -1.5312,-0.73438 -0.92969,0 -1.6484,0.38672 -2.1562,1.1562 -0.51172,0.76172 -0.77344,1.8672 -0.78125,3.3125 v 7.5156 h -4.9219 v -7.9844 c 0,-1.6953 -0.14844,-2.7852 -0.4375,-3.2656 -0.29297,-0.48828 -0.8125,-0.73438 -1.5625,-0.73438 -0.9375,0 -1.6641,0.38672 -2.1719,1.1562 -0.51172,0.76172 -0.76562,1.8594 -0.76562,3.2969 v 7.5312 h -4.9219 v -15.312 h 4.9219 v 2.2344 c 0.60156,-0.86328 1.2891,-1.5156 2.0625,-1.9531 0.78125,-0.4375 1.6406,-0.65625 2.5781,-0.65625 1.0625,0 2,0.25781 2.8125,0.76562 0.8125,0.51172 1.4258,1.2305 1.8438,2.1562 z"
         id="path1490" />
    </symbol>
    <symbol
       id="p"
       overflow="visible">
      <path
         d="M 17.75,-9.3281 V 0 h -4.9219 v -7.1094 c 0,-1.3438 -0.03125,-2.2656 -0.09375,-2.7656 -0.0625,-0.5 -0.16797,-0.86719 -0.3125,-1.1094 -0.1875,-0.3125 -0.44922,-0.55469 -0.78125,-0.73438 -0.32422,-0.17578 -0.69531,-0.26562 -1.1094,-0.26562 -1.0234,0 -1.8242,0.39844 -2.4062,1.1875 -0.58594,0.78125 -0.875,1.8711 -0.875,3.2656 V -1e-4 H 2.3594 v -21.281 H 7.25 v 8.2031 c 0.73828,-0.88281 1.5195,-1.5391 2.3438,-1.9688 0.83203,-0.42578 1.75,-0.64062 2.75,-0.64062 1.7695,0 3.1133,0.54688 4.0312,1.6406 0.91406,1.0859 1.375,2.6562 1.375,4.7188 z"
         id="path1493" />
    </symbol>
    <symbol
       id="o"
       overflow="visible">
      <path
         d="m 2.5781,-20.406 h 5.875 l 7.4219,14 v -14 h 4.9844 V 0 h -5.875 L 7.5625,-14 V 0 H 2.5781 Z"
         id="path1496" />
    </symbol>
    <symbol
       id="n"
       overflow="visible">
      <path
         d="m 2.1875,-5.9688 v -9.3438 h 4.9219 v 1.5312 c 0,0.83594 -0.00781,1.875 -0.015625,3.125 -0.011719,1.25 -0.015625,2.0859 -0.015625,2.5 0,1.2422 0.03125,2.1328 0.09375,2.6719 0.070313,0.54297 0.17969,0.93359 0.32812,1.1719 0.20703,0.32422 0.47266,0.57422 0.79688,0.75 0.32031,0.16797 0.69141,0.25 1.1094,0.25 1.0195,0 1.8203,-0.39062 2.4062,-1.1719 0.58203,-0.78125 0.875,-1.8672 0.875,-3.2656 v -7.5625 h 4.8906 V -6e-4 H 12.6875 V -2.2194 C 11.94531,-1.32096 11.1641,-0.6608 10.3437,-0.235 9.51948,0.17906 8.6093,0.39 7.6093,0.39 5.8476,0.39 4.5038,-0.14906 3.5781,-1.235 2.64841,-2.317 2.1875,-3.8952 2.1875,-5.9694 Z"
         id="path1499" />
    </symbol>
    <symbol
       id="m"
       overflow="visible">
      <path
         d="m 2.5781,-20.406 h 8.7344 c 2.5938,0 4.582,0.57812 5.9688,1.7344 1.3945,1.1484 2.0938,2.7891 2.0938,4.9219 0,2.1367 -0.69922,3.7812 -2.0938,4.9375 -1.3867,1.1562 -3.375,1.7344 -5.9688,1.7344 H 7.8281 V 3e-4 h -5.25 z m 5.25,3.8125 v 5.7031 H 10.75 c 1.0195,0 1.8047,-0.25 2.3594,-0.75 0.5625,-0.5 0.84375,-1.2031 0.84375,-2.1094 0,-0.91406 -0.28125,-1.6172 -0.84375,-2.1094 -0.55469,-0.48828 -1.3398,-0.73438 -2.3594,-0.73438 z"
         id="path1502" />
    </symbol>
    <symbol
       id="l"
       overflow="visible">
      <path
         d="M 2.3594,-15.312 H 7.25 v 15.031 c 0,2.0508 -0.49609,3.6172 -1.4844,4.7031 -0.98047,1.082 -2.4062,1.625 -4.2812,1.625 H -0.9375 V 2.8283 h 0.85938 c 0.92578,0 1.5625,-0.21094 1.9062,-0.625 0.35156,-0.41797 0.53125,-1.2461 0.53125,-2.4844 z m 0,-5.9688 H 7.25 v 4 H 2.3594 Z"
         id="path1505" />
    </symbol>
    <symbol
       id="k"
       overflow="visible">
      <path
         d="m 14.719,-14.828 v 3.9844 c -0.65625,-0.45703 -1.3242,-0.79688 -2,-1.0156 -0.66797,-0.21875 -1.3594,-0.32812 -2.0781,-0.32812 -1.3672,0 -2.4336,0.40234 -3.2031,1.2031 -0.76172,0.79297 -1.1406,1.9062 -1.1406,3.3438 0,1.4297 0.37891,2.543 1.1406,3.3438 0.76953,0.79297 1.8359,1.1875 3.2031,1.1875 0.75781,0 1.4844,-0.10938 2.1719,-0.32812 0.6875,-0.22656 1.3203,-0.56641 1.9062,-1.0156 v 4 c -0.76172,0.28125 -1.5391,0.48828 -2.3281,0.625 -0.78125,0.14453 -1.5742,0.21875 -2.375,0.21875 -2.7617,0 -4.9219,-0.70703 -6.4844,-2.125 -1.5547,-1.4141 -2.3281,-3.3828 -2.3281,-5.9062 0,-2.5312 0.77344,-4.5039 2.3281,-5.9219 1.5625,-1.4141 3.7227,-2.125 6.4844,-2.125 0.80078,0 1.5938,0.07422 2.375,0.21875 0.78125,0.13672 1.5547,0.35156 2.3281,0.64062 z"
         id="path1508" />
    </symbol>
  </defs>
  <path
     d="m 440.15495,414.24125 c 22.102,-32.09 34.117,-70.043 34.512,-109 -3.3125,1.8945 -7.2227,2.4648 -10.941,1.5938 -2.8047,-1.3828 -6.0312,-1.6367 -9.0156,-0.71094 -3.1914,1.8477 -5.5859,4.8086 -6.7188,8.3164 -0.75,1.9297 -1.3672,3.9062 -1.8516,5.918 -0.94531,6.6641 -4.2227,12.781 -9.2422,17.262 -2.7539,1.9531 -5.1055,3.5039 -6.9609,4.7305 -4.8242,3.0859 -8.9102,7.1992 -11.965,12.047 -2.0781,2.6094 -3.3477,5.7734 -3.6445,9.0977 -0.44141,3.0391 -1.1328,6.0391 -2.0703,8.9609 -1.6055,4.5352 -3.4766,8.9727 -5.6016,13.289 -0.73828,1.5664 -1.4375,3.0586 -2.1602,4.7109 -1.4258,3.2812 -1.8789,6.9062 -1.3008,10.438 0.50391,3.25 2.0039,6.2617 4.2969,8.6172 2.8047,1.8906 5.9961,3.1406 9.3398,3.6562 3.9336,1.0977 8.0469,1.4062 12.102,0.91406 3.6758,-1.1641 7.6328,-1.1055 11.273,0.16797 z m -139.18,-304.12 c -29.902,-3.2031 -60.141,0.55078 -88.348,10.969 -28.211,10.418 -53.633,27.215 -74.277,49.078 -1.2891,5.3633 -1.8711,10.871 -1.7344,16.387 0.125,6.3008 1.1289,12.559 2.9883,18.582 1.3438,4.2617 3.1133,8.3789 5.2852,12.285 2.1758,3.9609 4.7383,7.6953 7.6523,11.148 1.7148,2.1836 3.7539,4.0938 6.043,5.668 1.4688,-3.25 2.6445,-6.6211 3.5156,-10.078 l 0.14063,-0.46875 v -0.004 c 0.58203,-3.1914 -0.14063,-6.4844 -2.0117,-9.1367 -3.0078,-5.1875 -4.7227,-11.023 -5,-17.016 -0.13281,-4.75 0.74219,-9.4766 2.5586,-13.871 1.7031,-4.418 4.5781,-8.2891 8.3164,-11.199 3.1055,-1.8477 6.6562,-2.8047 10.27,-2.7734 3.6133,0.0352 7.1484,1.0586 10.219,2.9648 7.8477,4.1055 15,9.418 21.199,15.742 6.3789,6.5977 5.9062,14.926 5.4766,22.641 -0.29297,2.457 -0.25781,4.9414 0.10938,7.3906 0.12891,0.41406 2.3398,0.0352 10.078,-2.3984 h 0.004 c 3.6797,-1.2578 7.0508,-3.2891 9.8789,-5.9609 3.0625,-2.7383 5.5391,-6.0664 7.2773,-9.7891 1.8164,-5.4766 2.832,-11.191 3.0156,-16.957 1.1211,-12.375 2.2383,-24.641 12.035,-30.711 8.4883,-5.2578 18.246,-3.5938 27.715,-1.9766 h -0.004 c 4.3984,1.082 8.9453,1.418 13.453,1 1.0508,-0.25391 1.957,-0.90625 2.5352,-1.8164 1.7422,-2.9961 2.9336,-6.2812 3.5195,-9.6953 1.6602,-6.6992 2.1602,-13.629 1.4805,-20.496 -0.32422,-3.4062 -1.4922,-6.6758 -3.3906,-9.5195 z m -122.24,359.68 c 11.707,1.6055 23.512,2.4023 35.332,2.3828 5.2656,0.12891 9.7656,0.24219 12.32,0.42188 v -0.004 c 3.9844,0.37891 7.9883,0.48828 11.988,0.32422 1.6094,-0.0703 3.1875,-0.48047 4.6289,-1.1953 3.1406,-1.6016 6.1875,-3.3828 9.1172,-5.3398 6.3086,-4.3555 13.391,-7.4648 20.867,-9.1562 1.0898,-0.28516 2.1445,-0.6875 3.1484,-1.1953 1.1875,-0.53906 2.2305,-1.3555 3.0391,-2.3828 0.21094,-0.27734 0.28516,-0.63281 0.20703,-0.97266 -0.0781,-0.27344 -0.1875,-0.53906 -0.32422,-0.78906 -0.85938,-1.3516 -1.9727,-2.5234 -3.2773,-3.457 -2.3594,-1.8281 -4.9258,-3.3789 -7.6445,-4.6172 -2.5312,-1.1758 -5.2461,-2.1328 -7.6602,-2.9844 v -0.004 c -3.0898,-0.92578 -6.0547,-2.2227 -8.8359,-3.8633 -1.9922,-1.5977 -3.7773,-3.4336 -5.3203,-5.4688 -3.5039,-4.4297 -7.4648,-8.4727 -11.82,-12.062 l -1.043,-0.67578 v -0.004 c -3.9375,-2.1445 -7.2852,-5.2344 -9.7422,-8.9883 -1.2422,-2.0078 -1.4727,-4.4805 -0.61719,-6.6797 0.85547,-2.2031 2.6914,-3.875 4.9609,-4.5195 1.082,-0.39453 2.1172,-0.90234 3.0938,-1.5156 -1.8047,-6.2969 -5.5859,-11.848 -10.789,-15.828 -4.3047,-2.9844 -7.7656,-7.0352 -10.035,-11.758 -0.64453,-1.1133 -1.3633,-2.1797 -2.1484,-3.1992 -5.0078,-5.8711 -8.0781,-13.148 -8.7969,-20.832 -0.008,-0.11328 -0.0273,-0.22656 -0.0508,-0.33594 -0.83984,-4.4414 -7.4688,-10.562 -14.438,-15.652 -4.3945,-3.4844 -9.1953,-6.4258 -14.293,-8.7695 -6.5703,1.418 -13.434,0.34766 -19.258,-3.0117 -1.6797,-0.84375 -2.7266,-1.3711 -10.293,7.1953 -6.1602,6.957 -6.0039,7.9531 -5.332,13.066 h 0.004 c 0.79297,5.6172 1.2227,11.285 1.2812,16.961 0.13672,5.5742 0.80469,11.121 1.9922,16.57 1.293,5.9922 2.8867,11.91 4.7773,17.742 11.355,35.953 10.277,38.078 7.5703,43.496 -0.76562,1.5273 -1.84379,3.6719 -0.91797,16.238 8.7773,7.8203 18.25,14.824 28.297,20.926 z m 173.03,-347.04 -1.2266,16.801 v 0.47656 -0.004 c -0.32422,6.6406 0.082,13.297 1.207,19.848 0.44922,3.5156 1.8945,6.8242 4.168,9.543 2.2695,2.7227 5.2656,4.7344 8.6445,5.8086 l 15.805,4.9219 h -0.004 c 1.9375,0.60156 4.0352,0.41016 5.832,-0.53516 1.793,-0.94531 3.1406,-2.5664 3.7383,-4.5039 l 8.2031,-26.258 0.004,-0.004 c 21.742,16.633 39.742,37.66 52.824,61.711 13.086,24.047 20.957,50.582 23.105,77.875 l -0.94531,0.49219 c -2.6094,1.3594 -2.1797,4.3398 -3.9531,3.6641 h -0.004 c -6.4492,-2.8867 -13.789,-3.0781 -20.383,-0.53125 -6.8633,3.2656 -12.184,9.082 -14.824,16.211 -1.0742,2.6406 -1.9492,5.3594 -2.6211,8.1328 -0.5,3.1172 -1.6328,6.0977 -3.3242,8.7617 -3.0859,2.1953 -4.9844,3.4453 -6.4844,4.4336 v 0.004 c -6.2617,3.8867 -11.574,9.125 -15.547,15.332 -3.8164,4.543 -6.168,10.133 -6.7539,16.039 -0.33594,2.2773 -0.84766,4.5234 -1.5352,6.7188 -1.4141,3.9453 -3.0547,7.8008 -4.9102,11.559 -0.90234,1.9219 -1.7578,3.7461 -2.3359,5.0391 -2.6055,5.9883 -3.4297,12.598 -2.375,19.043 1.0234,6.375 4.0078,12.273 8.543,16.871 4.8242,3.9883 10.594,6.6719 16.754,7.7852 4.9492,1.168 10.039,1.6445 15.121,1.4219 -25.406,29.938 -59.266,51.5 -97.145,61.852 -37.875,10.355 -77.996,9.0156 -115.1,-3.8359 3.6133,0.0899 6.7188,0.19141 9.0938,0.35156 4.7031,0.44141 9.4297,0.55469 14.148,0.33203 3.5938,-0.20703 7.1094,-1.1602 10.312,-2.8008 3.6367,-1.8281 7.1602,-3.8711 10.551,-6.1172 4.9648,-3.4414 10.547,-5.9023 16.438,-7.2383 2.1445,-0.55859 4.2266,-1.3438 6.2031,-2.3398 3.5273,-1.707 6.5664,-4.2695 8.8398,-7.4609 2.7266,-3.8828 3.5742,-8.7852 2.3008,-13.355 -0.34375,-1.332 -0.83594,-2.6172 -1.4609,-3.8438 -1.8398,-3.3359 -4.3633,-6.2461 -7.4062,-8.543 -3.3164,-2.5859 -6.9258,-4.7773 -10.75,-6.5312 -3.1992,-1.4844 -6.2539,-2.5664 -8.9609,-3.5234 -1.8867,-0.57422 -3.7227,-1.3086 -5.4883,-2.1875 -0.27344,-0.18359 -0.73828,-1.0117 -2.0898,-2.6055 -4.2617,-5.3594 -9.1094,-10.227 -14.457,-14.508 l -0.61719,-0.44141 c 2.25,-2.5312 3.5039,-5.7891 3.5273,-9.1758 -0.48047,-6.332 -2.75,-12.398 -6.5508,-17.488 -2.6133,-4.1484 -5.9961,-7.7617 -9.9688,-10.641 -2.3672,-1.5977 -4.3164,-3.75 -5.6719,-6.2656 -1.0352,-2.0117 -2.2578,-3.9219 -3.6445,-5.7109 -3.0703,-3.5156 -5.1172,-7.8047 -5.9258,-12.398 -0.0273,-0.89844 -0.125,-1.7891 -0.29297,-2.6719 -1.6797,-8.9141 -10.914,-18.219 -20.422,-25.16 -6.4336,-4.8672 -13.602,-8.6758 -21.234,-11.289 -0.91016,-0.32812 -1.875,-0.47656 -2.8398,-0.44141 -0.46094,0.0156 -0.91797,0.0625 -1.3711,0.14453 -3.4844,0.81641 -7.1484,0.27344 -10.25,-1.5117 -8.1484,-4.1055 -13.242,-6.6758 -28.598,10.723 -10.746,12.18 -10.465,14.301 -9.0391,25.148 0.71094,5.0273 1.0977,10.094 1.1602,15.168 0.14453,6.5391 0.91406,13.047 2.2891,19.441 1.3867,6.5156 3.1016,12.957 5.1406,19.297 9.5195,30.105 9.2305,30.664 8.5273,32.066 h 0.004 c -1.3086,2.4688 -2.1367,5.1602 -2.4414,7.9336 -29.547,-32.938 -47.007998,-74.945 -49.507998,-119.12 -2.5039,-44.18 10.098,-87.891 35.729998,-123.96 0.41016,6.4453 1.5781,12.82 3.4766,18.988 1.6484,5.2461 3.8203,10.312 6.4844,15.121 2.6719,4.8555 5.8164,9.4336 9.3906,13.664 3.0078,3.7773 6.6719,6.9805 10.816,9.4531 4.2578,2.7188 9.6797,2.8203 14.039,0.26172 6.4219,-3.8594 9.3281,-13.914 11.02,-19.762 l 0.14062,-0.47656 c 2.0547,-6.8672 0.94531,-14.289 -3.0234,-20.258 -1.9297,-3.2539 -3.0898,-6.9062 -3.3906,-10.676 -0.0586,-2.582 0.42578,-5.1484 1.4258,-7.5312 0.60547,-1.7578 1.6562,-3.3281 3.043,-4.5625 0.55859,-0.37891 2.5859,0.36328 5.1172,1.5625 h 0.004 c 6.2227,3.2969 11.891,7.543 16.801,12.594 1.6797,1.7539 1.4297,6.6367 1.1719,11.156 h -0.004 c -0.49609,4.2656 -0.22656,8.5859 0.79688,12.754 2.8438,9.0898 10.039,13.664 29.25,7.6562 h -0.004 c 5.8164,-1.9258 11.145,-5.0859 15.625,-9.2617 4.6016,-4.168 8.3086,-9.2266 10.902,-14.867 2.5859,-6.9922 4.0273,-14.352 4.2695,-21.801 0.77734,-8.5664 1.5469,-17.059 4.8555,-19.105 3.5547,-2.1992 10.445,-1.0234 17.129,0.11719 v -0.004 c 6.3594,1.5508 12.965,1.8281 19.434,0.82031 4.7461,-1.0547 8.8984,-3.9141 11.57,-7.9766 2.9141,-4.5781 4.9297,-9.6719 5.9336,-15.008 2.0625,-8.4609 2.6484,-17.211 1.7305,-25.871 -0.21484,-1.6211 -0.51562,-3.2266 -0.90234,-4.8164 11.32,2.3008 22.41,5.6055 33.141,9.8789 z m 102.38,33.551 0.28125,0.0898 0.26172,-0.0625 c -0.35156,0 -0.98438,-0.16406 -0.55859,0 z m 45.246,-80.948998 -0.21094,-0.18359 c -0.35156,-0.30078 0.10156,0.15234 0.30078,0.44922 l -0.0898,-0.26172 z m -31.414,22.023 c -2.6641,2.125 -6.4102,2.2266 -9.1836,0.25391 -6.043,-4.2852 -12.348,-8.7148 -18.977,-13.266 -6.418,-4.4062 -12.785,-8.6914 -18.961,-12.707 h -0.004 c -0.48047,-0.26172 -0.93359,-0.57812 -1.3477,-0.9375 -1.5391,-1.3242 -2.4883,-3.207 -2.6406,-5.2305 -0.15234,-2.0234 0.50781,-4.0273 1.832,-5.5664 l 45.98,-53.4179998 -6.7461,-5.83589999 c -0.96484,-0.82812 -2.6328,-0.65625 -4.793,0.10156 -4.9766,2.12109999 -9.7266,4.74999999 -14.168,7.83979999 l -51.367,37.4219998 c -2.3555,2.0625 -5.7305,2.4883 -8.5195,1.0664 -2.0117,-1.0234 -4.0391,-2.0234 -6.0664,-2.9922 -0.19141,-0.08984 -0.37891,-0.19141 -0.55859,-0.29688 -1.4609,-0.6875 -3.2461,-1.5 -5.375,-2.4414 v 0.0039 c -5.7148,-2.3516 -11.887,-3.3711 -18.055,-2.9805 -4.4805,0.26953 -7.8398,0.91797 -8.3555,1.8594 -0.5157,0.94143 0.73438,4.1367 2.8633,8.0703 2.9102,5.4375 7.0234,10.141 12.023,13.754 1.7539,1.1914 3.5781,2.3906 5.4727,3.6016 1.2812,0.81641 3.0859,1.9336 5.3711,3.3086 h -0.004 c 2.3867,1.25 3.9414,3.668 4.0898,6.3594 0.0273,0.40625 0.0273,0.81641 0,1.2227 l -3.0117,41.440998 c 0,0.20703 0,0.41406 -0.043,0.62109 l -1.6328,22.039 c -0.26172,5.3125 0.0234,10.641 0.84766,15.895 0.49219,2.2383 1.2305,3.7305 2.4648,4.1094 l 8.5117,2.6562 21.02,-67.284998 c 0.59766,-1.9375 1.9414,-3.5586 3.7383,-4.5039 1.7969,-0.94922 3.8945,-1.1406 5.832,-0.53516 0.55859,0.16797 1.0938,0.40625 1.5938,0.70312 6.6875,3.1211 13.688,6.2539 20.809,9.367198 6.7188,2.9453 13.906,5.9805 21.141,9.0117 3.1992,1.1875 5.2266,4.3477 4.9727,7.7461 l -2.2383,30.16 v 0.004 c -0.12891,2.7539 0.0117,5.5156 0.41797,8.2461 0,0.043 -0.0781,0.0508 -0.20312,0.043 l -0.26172,0.0625 1.5977,0.5 11.238,-35.766 c 1.0391,-3.332 4.1992,-5.543 7.6836,-5.3672 0.50781,-0.0117 1.0117,-0.0469 1.5117,-0.10938 -0.26562,-0.56641 -0.5625,-1.1172 -0.89062,-1.6484 v -0.0625 c -0.10156,-0.16406 -0.19531,-0.33203 -0.28516,-0.5 l -0.0664,-0.13281 v -0.0508 l -0.0391,-0.0781 -0.0508,-0.11328 v 0.004 c -0.59375,-1.3438 -0.78516,-2.8242 -0.55859,-4.2734 v -0.23047 c 0.11328,-0.60156 0.30078,-1.1875 0.55859,-1.7422 v -0.043 c 0.32422,-0.6875 0.74219,-1.3203 1.25,-1.8828 l 24.281,-28.409991 -1.293,-1.1211 0.0898,0.26172 c 0.0781,0.10547 0.125,0.19531 0.0781,0.21094 v 0.0078 c -2.6016,1.125 -5.082,2.5039 -7.4102,4.1211 l -24.176,17.426 z m -181.32,-34.887 h 0.004 c -4.2305,0 -7.6562,-3.4297 -7.6562,-7.6562 0,-4.2266 3.4258,-7.6562 7.6562,-7.6562 6.7422,-0.05469 13.48,0.38672 20.156,1.3242 l 3.1758,0.375 c 4.1953,0.48047 7.2109,4.2695 6.7305,8.4648 -0.48047,4.1953 -4.2695,7.207 -8.4648,6.7266 l -3.2383,-0.375 c -6.0898,-0.85547 -12.238,-1.2578 -18.391,-1.2031 z m -39.484,2.1562 c -4.0547,0.39453 -7.7109,-2.4531 -8.3164,-6.4805 -0.60547,-4.0312 2.0508,-7.8281 6.043,-8.6406 3.5508,-0.55859 6.4922,-0.89062 9.7383,-1.1914 3.2461,-0.30078 6.0352,-0.46875 9.6758,-0.69531 4.2148,-0.24609 7.8281,2.9648 8.0781,7.1797 0.24609,4.2109 -2.9688,7.8281 -7.1797,8.0742 -3.9219,0.23438 -6.8477,0.42188 -9.1953,0.63281 -2.3477,0.21094 -5.0391,0.55859 -8.8438,1.1211 z m -43.047,9.9453 c -3.9805,1.3906 -8.3359,-0.70703 -9.7266,-4.6875 -1.3907,-3.98047 0.70703,-8.3359 4.6875,-9.7266 4.8164,-1.6797 8.5586,-2.8555 12.273,-3.8633 3.3594,-0.91406 7.2812,-1.8086 12.395,-2.9531 4.0586,-0.78125 8,1.8086 8.8906,5.8438 0.89062,4.0391 -1.5938,8.0469 -5.6055,9.0469 -4.3555,0.97266 -7.8398,1.7852 -11.762,2.8398 -3.5547,0.96484 -6.9844,2.0234 -11.199,3.5 z m -77.086,42.558998 h 0.004 c -1.5469,1.4023 -3.5977,2.1133 -5.6797,1.9609 -2.082,-0.14844 -4.0117,-1.1445 -5.3359,-2.7578 -1.3281,-1.6094 -1.9375,-3.6914 -1.6875,-5.7656 0.25391,-2.0703 1.3398,-3.9492 3.0117,-5.1953 18.418,-15.183998 38.871,-27.706998 60.766,-37.206998 3.8672,-1.668 8.3516,0.11328 10.02,3.9805 1.668,3.8672 -0.11328,8.3516 -3.9805,10.02 -20.562,8.9414 -39.785,20.694998 -57.121,34.921998 z m -68.272998,90.262 c 10.492,-24.051 24.824,-46.238 42.437998,-65.695 2.8242,-3.1211 2.5859,-7.9414 -0.53906,-10.766 -3.121098,-2.8281 -7.941398,-2.5859 -10.765998,0.53516 -18.75,20.66 -33.996,44.246 -45.133,69.828 -1.6836,3.8672 0.0859,8.3633 3.9531,10.047 3.8633,1.6875 8.3633,-0.082 10.047,-3.9492 z m -15.395,143 c 0.42969,2.0078 0.0352,4.1055 -1.0938,5.8203 -1.1328,1.7109 -2.9062,2.8984 -4.9219,3.293 -2.0156,0.39063 -4.1016,-0.043 -5.7969,-1.2031 -1.6914,-1.1641 -2.8438,-2.957 -3.1992,-4.9805 -1.5664,-7.9727 -2.7656,-16.211 -3.5938,-24.711 -0.80469,-8.4102 -1.207,-16.742 -1.207,-25 -0.01172,-12.367 0.86328,-24.719 2.6211,-36.961 1.7578,-12.18 4.3945,-24.215 7.8906,-36.012 0.54688,-1.9727 1.8594,-3.6445 3.6484,-4.6406 1.7891,-0.99609 3.9023,-1.2305 5.8672,-0.65234 1.9648,0.57422 3.6133,1.918 4.582,3.7227 0.96484,1.8047 1.168,3.9219 0.55859,5.875 -3.2852,11.094 -5.7617,22.414 -7.4102,33.863 -1.6562,11.527 -2.4844,23.16 -2.4766,34.805 0,8.1328 0.375,15.992 1.1211,23.582 0.74609,7.7227 1.8867,15.465 3.4141,23.223 z m 111.719998,159.6 h 0.004 c 1.7578,1.0312 3.0312,2.7266 3.5352,4.7031 0.5,1.9805 0.1875,4.0781 -0.87109,5.8203 -1.0547,1.7461 -2.7695,2.9961 -4.7539,3.4688 -1.9883,0.47266 -4.0781,0.12891 -5.8086,-0.95703 -52.280998,-31.688 -91.561998,-80.969 -110.799998,-139 -1.3203,-4.0234 0.86719,-8.3516 4.8867,-9.6758 4.0195,-1.3203 8.3516,0.86719 9.6758,4.8867 18.086,54.57 55.007998,100.92 104.159998,130.74 z m 155.55,32.879 c 4.0547,-0.39844 7.7109,2.4492 8.3164,6.4805 0.60547,4.0273 -2.0508,7.8242 -6.043,8.6367 -6.3398,0.96875 -11.273,1.4883 -16.391,1.7734 -5.2812,0.32812 -10.102,0.32812 -16.48,0.32812 -18.098,0.004 -36.148,-1.8984 -53.848,-5.6797 -17.652,-3.7656 -34.852,-9.3984 -51.316,-16.797 -3.8477,-1.7383 -5.5625,-6.2617 -3.8242,-10.113 1.7344,-3.8477 6.2617,-5.5625 10.109,-3.8281 15.461,6.9609 31.617,12.258 48.199,15.805 16.66,3.5508 33.645,5.332 50.68,5.3203 6.5312,0 11.367,-0.0273 15.68,-0.26172 v -0.004 c 5.0117,-0.30859 10.004,-0.86719 14.957,-1.6797 z m 111.12,-44.078 c -25.211,18.355 -53.754,31.625 -84.039,39.066 -2.0117,0.4375 -3.7617,1.6758 -4.8516,3.4219 -1.0859,1.75 -1.4219,3.8633 -0.92969,5.8633 0.49219,2 1.7695,3.7188 3.5469,4.7617 1.7773,1.043 3.8984,1.3242 5.8867,0.78125 32.199,-7.9062 62.555,-22.012 89.359,-41.531 1.7188,-1.1562 2.8945,-2.9609 3.2578,-5.0039 0.36328,-2.0391 -0.11719,-4.1406 -1.3359,-5.8203 -1.2148,-1.6797 -3.0586,-2.793 -5.1133,-3.0859 -2.0508,-0.29297 -4.1328,0.26172 -5.7695,1.5352 z m 75.562,-90.312 c 1.832,-3.7969 6.3945,-5.3906 10.195,-3.5586 3.7969,1.832 5.3906,6.3984 3.5586,10.195 -13.969,28.824 -33.188,54.789 -56.672,76.57 -3.0938,2.875 -7.9336,2.6953 -10.809,-0.39453 -2.8711,-3.0938 -2.6953,-7.9336 0.39844,-10.809 22.102,-20.469 40.184,-44.895 53.309,-72.016 z m 22.617,-79.672 c 0.52734,-4.1094 4.2305,-7.0469 8.3516,-6.6289 4.1211,0.42188 7.1562,4.0508 6.8398,8.1797 -2.2148,21.52 -7.1719,42.668 -14.754,62.93 -1.4727,3.9453 -5.8633,5.957 -9.8125,4.4844 -3.9492,-1.4688 -5.957,-5.8633 -4.4844,-9.8125 7.0938,-19.055 11.75,-38.93 13.859,-59.152 z m -1.457,-65.879 c -0.47266,-2 -0.125,-4.1055 0.97266,-5.8438 1.0977,-1.7422 2.8477,-2.9648 4.8594,-3.3984 2.0078,-0.43359 4.1094,-0.0391 5.8242,1.0938 1.7148,1.1328 2.9062,2.9062 3.2969,4.9258 2.6484,11.883 3.6875,24.07 3.0898,36.23 v 7.6367 0.004 c 0,4.2266 -3.4258,7.6523 -7.6523,7.6523 -4.2305,0 -7.6562,-3.4258 -7.6562,-7.6523 0,-2.582 0,-2.7266 0.0547,-7.6953 0.54297,-11.059 -0.39844,-22.141 -2.8008,-32.953 z m -8.082,-31.395 0.004,0.004 c -1.3945,-3.9805 0.70703,-8.3359 4.6836,-9.7266 3.9805,-1.3945 8.3359,0.70312 9.7305,4.6836 l 0.12891,0.375 c 1.3125,3.5586 2.4492,7.1836 3.4023,10.855 1.0898,4.0781 -1.332,8.2695 -5.4102,9.3594 -4.082,1.0898 -8.2695,-1.332 -9.3633,-5.4102 -0.85156,-3.3086 -1.8672,-6.5742 -3.043,-9.7812 l -0.12891,-0.375 z m -12.25,-31.523 c -1.6719,-3.8398 0.0508,-8.3047 3.8672,-10.023 3.8164,-1.7188 8.3047,-0.0508 10.07,3.7422 1.0625,2.3359 1.9648,4.3359 2.7031,6.0586 0.73828,1.7266 1.5352,3.668 2.5586,6.3008 h 0.004 c 0.77734,1.8984 0.75781,4.0312 -0.0508,5.9141 -0.8125,1.8828 -2.3477,3.3633 -4.2578,4.1016 -1.9141,0.74219 -4.0469,0.67969 -5.9141,-0.16797 -1.8672,-0.84766 -3.3125,-2.4141 -4.01559,-4.3398 -0.68359,-1.7539 -1.4609,-3.6328 -2.37891,-5.7617 -0.91796,-2.1289 -1.6797,-3.9219 -2.5859,-5.8242 z m -16.441,-29.602 c -1.0898,-1.7227 -1.4453,-3.8086 -0.99219,-5.793 0.45703,-1.9883 1.6836,-3.7109 3.4141,-4.7852 1.7305,-1.0781 3.8164,-1.418 5.8008,-0.94922 1.9805,0.47266 3.6953,1.7109 4.7578,3.4492 1.4297,2.2969 2.1211,3.2695 2.6641,4.0391 1.6055,2.2188 2.9922,4.5859 4.1523,7.0664 1.9219,3.7656 0.43359,8.3789 -3.332,10.305 -3.7656,1.9258 -8.3789,0.43359 -10.305,-3.332 -0.82422,-1.8047 -1.8125,-3.5273 -2.9531,-5.1523 -0.73438,-1.0586 -1.6719,-2.375 -3.207,-4.8398 z"
     fill-rule="evenodd"
     id="path1513"
     style="fill:#ffffff;fill-opacity:1" />
</svg>
