<?xml version="1.0" encoding="UTF-8" standalone="no"?>
<svg
   style="fill:#000000;fill-opacity:0.5;stroke:none"
   width="200"
   height="200"
   id="svg1"
   sodipodi:docname="Xue.svg"
   sodipodi:version="0.32"
   inkscape:version="1.1.2 (0a00cf5339, 2022-02-04)"
   inkscape:export-filename="/home/marek/git/UnCiv-Logicians/Images/UnitIcons/Xue.png"
   inkscape:export-xdpi="96"
   inkscape:export-ydpi="96"
   version="1.1"
   xmlns:inkscape="http://www.inkscape.org/namespaces/inkscape"
   xmlns:sodipodi="http://sodipodi.sourceforge.net/DTD/sodipodi-0.dtd"
   xmlns="http://www.w3.org/2000/svg"
   xmlns:svg="http://www.w3.org/2000/svg"
   xmlns:rdf="http://www.w3.org/1999/02/22-rdf-syntax-ns#"
   xmlns:cc="http://creativecommons.org/ns#"
   xmlns:dc="http://purl.org/dc/elements/1.1/">
  <metadata
     id="metadata13">
    <rdf:RDF>
      <cc:Work
         rdf:about="">
        <dc:format>image/svg+xml</dc:format>
        <dc:type
           rdf:resource="http://purl.org/dc/dcmitype/StillImage" />
      </cc:Work>
    </rdf:RDF>
  </metadata>
  <defs
     id="defs3" />
  <sodipodi:namedview
     id="base"
     showgrid="false"
     units="px"
     inkscape:zoom="3.0300746"
     inkscape:cx="49.668744"
     inkscape:cy="76.235747"
     inkscape:window-width="1920"
     inkscape:window-height="1003"
     inkscape:window-x="0"
     inkscape:window-y="27"
     inkscape:window-maximized="1"
     inkscape:current-layer="svg1"
     pagecolor="#ffffff"
     bordercolor="#666666"
     borderopacity="1.0"
     inkscape:pageshadow="2"
     inkscape:pageopacity="0.0"
     inkscape:pagecheckerboard="0" />
  <path
     style="fill:#ffffff;fill-opacity:1;fill-rule:evenodd;stroke:#000000;stroke-width:1px;stroke-linecap:butt;stroke-linejoin:miter;stroke-opacity:1"
     d=""
     id="path12"
     inkscape:connector-curvature="0" />
  <path
     style="fill:#ffffff;fill-opacity:1;fill-rule:evenodd;stroke:#ffffff;stroke-width:1.537;stroke-linecap:butt;stroke-linejoin:miter;stroke-opacity:1;stroke-miterlimit:4;stroke-dasharray:none"
     id="path14"
     d="M 0.84737659,45.882328 C 1.4677325,45.778551 16.936273,53.943495 27.333576,56.765077 c 18.54034,4.737997 35.464064,18.998111 43.643998,27.189577 0.606519,0.701071 7.025704,-4.806029 13.743536,-4.40937 9.176194,0.555783 37.56958,8.539695 41.36321,3.102933 2.30039,-3.19172 2.1355,-7.107573 5.00551,-8.711504 1.54513,-0.432404 -5.74348,-13.763138 2.0029,-18.034138 5.52324,-2.760469 10.20358,12.694234 11.62187,14.426157 0.63535,0.774869 4.00579,0.963973 3.60683,-0.801389 -0.43241,-1.917568 -5.88416,-16.747303 0.80139,-19.235645 10.85853,-4.299828 8.93404,18.97505 9.21655,19.636916 0.60075,1.409061 37.81749,2.495261 40.07407,19.235646 1.30528,9.213092 -29.81629,21.12093 -32.86042,23.24259 -3.04297,2.12166 -2.78929,5.51517 -1.60277,7.61493 1.36409,2.27733 10.43074,9.96374 9.2177,13.62477 -0.83368,2.11474 -17.75509,-5.63625 -18.83553,-4.00695 -2.46412,3.11216 12.31833,10.90235 7.21366,16.43021 -2.02365,1.32373 -25.3066,-9.74812 -25.2478,-9.61783 -0.62496,0.23754 -32.89961,5.89569 -57.706932,-1.60393 -0.874033,-0.24676 -15.9217,14.5357 -17.632867,14.0272 -2.339595,-0.85789 3.448856,-12.85682 2.805438,-15.2287 -1.051607,-1.32143 -10.667124,5.36527 -11.220601,2.00405 -0.661867,-4.41745 8.438224,-9.4956 8.015045,-12.42327 C 58.211849,106.59534 61.60651,96.882963 67.370747,88.764142 69.292928,85.775364 44.779645,67.263851 27.032623,59.95795 9.2867537,52.652048 -0.20768969,46.46002 0.84737659,45.882328 Z"
     inkscape:connector-curvature="0" />
  <path
     style="fill:#ffffff;fill-opacity:1;fill-rule:evenodd;stroke:#000000;stroke-width:0.691847pt;stroke-linecap:butt;stroke-linejoin:miter;stroke-opacity:1"
     id="path7"
     d="m 160.3323,101.49227 c -0.19487,-0.68031 12.11078,-8.123432 13.89229,-6.412264 3.20671,1.162303 -13.77928,7.275924 -13.89229,6.412264 z"
     inkscape:connector-curvature="0" />
  <path
     style="fill:#ffffff;fill-opacity:1;fill-rule:evenodd;stroke:#000000;stroke-width:0.691847pt;stroke-linecap:butt;stroke-linejoin:miter;stroke-opacity:1"
     id="path8"
     d="m 166.20954,108.26084 c -1.08389,-0.65495 7.36702,-10.509152 9.44025,-9.440249 3.02683,3.007229 -9.58208,9.674319 -9.44025,9.440249 z"
     inkscape:connector-curvature="0" />
  <path
     style="fill:#ffffff;fill-opacity:1;fill-rule:evenodd;stroke:#000000;stroke-width:0.691847pt;stroke-linecap:butt;stroke-linejoin:miter;stroke-opacity:1"
     id="path13"
     d="m 199.5162,62.66468 c -1.0274,-0.849818 -9.08395,11.861712 -7.30244,13.180834 1.0712,0.801389 7.76136,-12.727674 7.30244,-13.180834 z"
     inkscape:connector-curvature="0" />
  <ellipse
     style="fill:#ffffff;fill-opacity:1;fill-rule:evenodd;stroke:#000000;stroke-width:0.643095pt;stroke-linecap:butt;stroke-linejoin:miter;stroke-opacity:1"
     id="ellipse17"
     cx="163.07762"
     cy="80.858429"
     rx="3.2136719"
     ry="3.6589406" />
  <path
     style="fill:#ffffff;fill-opacity:1;fill-rule:evenodd;stroke:#000000;stroke-width:0.691847pt;stroke-linecap:butt;stroke-linejoin:miter;stroke-opacity:1"
     id="path18"
     d="m 190.25456,60.8836 c -0.50851,-0.590376 -3.20671,13.10819 -1.95908,13.714709 1.07121,0.801389 2.93689,-13.002107 1.95908,-13.714709 z"
     inkscape:connector-curvature="0" />
  <path
     style="fill:#ffffff;fill-opacity:1;fill-rule:evenodd;stroke:#000000;stroke-width:0.691847pt;stroke-linecap:butt;stroke-linejoin:miter;stroke-opacity:1"
     id="path21"
     d="m 155.86424,79.422365 c -3.19518,2.25888 1.75383,15.041901 9.89341,7.578028 -6.39497,0.187952 -8.52816,-1.684647 -9.89341,-7.578028 z"
     inkscape:connector-curvature="0" />
</svg>
