<?xml version="1.0" encoding="UTF-8"?>
<svg width="700pt" height="700pt" version="1.1" viewBox="0 0 700 700" xmlns="http://www.w3.org/2000/svg" xmlns:xlink="http://www.w3.org/1999/xlink">
 <defs>
  <symbol id="v" overflow="visible">
   <path d="m20.203-1.2031c-1.043 0.54297-2.1328 0.94922-3.2656 1.2188-1.125 0.26953-2.2969 0.40625-3.5156 0.40625-3.668 0-6.5742-1.0195-8.7188-3.0625-2.1367-2.0508-3.2031-4.8281-3.2031-8.3281 0-3.5078 1.0664-6.2852 3.2031-8.3281 2.1445-2.0508 5.0508-3.0781 8.7188-3.0781 1.2188 0 2.3906 0.13672 3.5156 0.40625 1.1328 0.27344 2.2227 0.67969 3.2656 1.2188v4.5469c-1.0547-0.70703-2.0898-1.2266-3.1094-1.5625-1.0234-0.33203-2.0938-0.5-3.2188-0.5-2.0234 0-3.6172 0.64844-4.7812 1.9375-1.1562 1.293-1.7344 3.0781-1.7344 5.3594 0 2.2734 0.57812 4.0547 1.7344 5.3438 1.1641 1.293 2.7578 1.9375 4.7812 1.9375 1.125 0 2.1953-0.16406 3.2188-0.5 1.0195-0.33203 2.0547-0.85156 3.1094-1.5625z"/>
  </symbol>
  <symbol id="b" overflow="visible">
   <path d="m14.781-12c-0.46094-0.21875-0.91797-0.37891-1.375-0.48438-0.46094-0.10156-0.91797-0.15625-1.375-0.15625-1.3555 0-2.4023 0.4375-3.1406 1.3125-0.73047 0.86719-1.0938 2.1094-1.0938 3.7344v7.5938h-5.2656v-16.484h5.2656v2.7031c0.67578-1.082 1.4531-1.8672 2.3281-2.3594 0.88281-0.5 1.9414-0.75 3.1719-0.75 0.17578 0 0.36719 0.011719 0.57812 0.03125 0.20703 0.011719 0.50391 0.042969 0.89062 0.09375z"/>
  </symbol>
  <symbol id="a" overflow="visible">
   <path d="m19-8.2969v1.5156h-12.328c0.125 1.2305 0.56641 2.1562 1.3281 2.7812 0.76953 0.61719 1.8438 0.92188 3.2188 0.92188 1.1133 0 2.25-0.16016 3.4062-0.48438 1.1641-0.33203 2.3633-0.83203 3.5938-1.5v4.0625c-1.25 0.46875-2.5 0.82422-3.75 1.0625-1.2422 0.23828-2.4844 0.35938-3.7344 0.35938-2.9805 0-5.2969-0.75391-6.9531-2.2656-1.6562-1.5195-2.4844-3.6484-2.4844-6.3906 0-2.6875 0.8125-4.8008 2.4375-6.3438 1.625-1.5391 3.8594-2.3125 6.7031-2.3125 2.5938 0 4.6641 0.78125 6.2188 2.3438 1.5625 1.5625 2.3438 3.6484 2.3438 6.25zm-5.4219-1.75c0-1-0.29297-1.8047-0.875-2.4219-0.58594-0.61328-1.3516-0.92188-2.2969-0.92188-1.0234 0-1.8516 0.29297-2.4844 0.875-0.63672 0.57422-1.0312 1.3984-1.1875 2.4688z"/>
  </symbol>
  <symbol id="e" overflow="visible">
   <path d="m9.9219-7.4219c-1.0938 0-1.9219 0.1875-2.4844 0.5625-0.55469 0.375-0.82812 0.92188-0.82812 1.6406 0 0.66797 0.22266 1.1953 0.67188 1.5781 0.44531 0.375 1.0664 0.5625 1.8594 0.5625 0.98828 0 1.8203-0.35156 2.5-1.0625 0.67578-0.71875 1.0156-1.6094 1.0156-2.6719v-0.60938zm8.0625-1.9844v9.4062h-5.3281v-2.4375c-0.69922 1-1.4922 1.7305-2.375 2.1875-0.88672 0.44531-1.9648 0.67188-3.2344 0.67188-1.7109 0-3.0938-0.49219-4.1562-1.4844-1.0625-1-1.5938-2.2969-1.5938-3.8906 0-1.9258 0.66016-3.3438 1.9844-4.25 1.332-0.90625 3.4258-1.3594 6.2812-1.3594h3.0938v-0.40625c0-0.83203-0.32812-1.4414-0.98438-1.8281-0.65625-0.39453-1.6836-0.59375-3.0781-0.59375-1.125 0-2.1797 0.11719-3.1562 0.34375-0.96875 0.23047-1.8711 0.57031-2.7031 1.0156v-4.0156c1.1328-0.28125 2.2695-0.48828 3.4062-0.625 1.1328-0.14453 2.2734-0.21875 3.4219-0.21875 2.9688 0 5.1133 0.58984 6.4375 1.7656 1.3203 1.168 1.9844 3.0742 1.9844 5.7188z"/>
  </symbol>
  <symbol id="c" overflow="visible">
   <path d="m8.2969-21.172v4.6875h5.4219v3.7656h-5.4219v6.9844c0 0.77344 0.14844 1.293 0.45312 1.5625 0.30078 0.27344 0.90625 0.40625 1.8125 0.40625h2.7031v3.7656h-4.5156c-2.0859 0-3.5625-0.42969-4.4375-1.2969-0.86719-0.875-1.2969-2.3516-1.2969-4.4375v-6.9844h-2.625v-3.7656h2.625v-4.6875z"/>
  </symbol>
  <symbol id="l" overflow="visible">
   <path d="m13.75-14.078v-8.8281h5.2969v22.906h-5.2969v-2.3906c-0.73047 0.98047-1.5312 1.6953-2.4062 2.1406-0.86719 0.44531-1.875 0.67188-3.0312 0.67188-2.0312 0-3.6992-0.80469-5-2.4219-1.3047-1.6133-1.9531-3.6914-1.9531-6.2344 0-2.5391 0.64844-4.6172 1.9531-6.2344 1.3008-1.6133 2.9688-2.4219 5-2.4219 1.1445 0 2.1562 0.23047 3.0312 0.6875 0.875 0.46094 1.6758 1.168 2.4062 2.125zm-3.4688 10.672c1.125 0 1.9844-0.41016 2.5781-1.2344 0.59375-0.82031 0.89062-2.0195 0.89062-3.5938 0-1.5703-0.29688-2.7695-0.89062-3.5938-0.59375-0.82031-1.4531-1.2344-2.5781-1.2344s-1.9844 0.41406-2.5781 1.2344c-0.59375 0.82422-0.89062 2.0234-0.89062 3.5938 0 1.5742 0.29688 2.7734 0.89062 3.5938 0.59375 0.82422 1.4531 1.2344 2.5781 1.2344z"/>
  </symbol>
  <symbol id="k" overflow="visible">
   <path d="m11.312-3.4062c1.125 0 1.9844-0.41016 2.5781-1.2344 0.59375-0.82031 0.89062-2.0195 0.89062-3.5938 0-1.5703-0.29688-2.7695-0.89062-3.5938-0.59375-0.82031-1.4531-1.2344-2.5781-1.2344-1.1367 0-2.0078 0.41797-2.6094 1.25-0.60547 0.82422-0.90625 2.0156-0.90625 3.5781s0.30078 2.7617 0.90625 3.5938c0.60156 0.82422 1.4727 1.2344 2.6094 1.2344zm-3.5156-10.672c0.72656-0.95703 1.5352-1.6641 2.4219-2.125 0.88281-0.45703 1.8984-0.6875 3.0469-0.6875 2.0312 0 3.6953 0.80859 5 2.4219 1.3125 1.6172 1.9688 3.6953 1.9688 6.2344 0 2.543-0.65625 4.6211-1.9688 6.2344-1.3047 1.6172-2.9688 2.4219-5 2.4219-1.1484 0-2.1641-0.22656-3.0469-0.67188-0.88672-0.45703-1.6953-1.1719-2.4219-2.1406v2.3906h-5.2656v-22.906h5.2656z"/>
  </symbol>
  <symbol id="j" overflow="visible">
   <path d="m0.375-16.484h5.2656l4.4375 11.188 3.7656-11.188h5.2656l-6.9375 18.047c-0.69922 1.832-1.5117 3.1133-2.4375 3.8438-0.92969 0.73828-2.1523 1.1094-3.6719 1.1094h-3.0469v-3.4688h1.6562c0.88281 0 1.5312-0.14844 1.9375-0.4375 0.41406-0.28125 0.73438-0.78906 0.95312-1.5156l0.15625-0.45312z"/>
  </symbol>
  <symbol id="i" overflow="visible">
   <path d="m7.7969-2.3906v8.6562h-5.2656v-22.75h5.2656v2.4062c0.72656-0.95703 1.5352-1.6641 2.4219-2.125 0.88281-0.45703 1.8984-0.6875 3.0469-0.6875 2.0312 0 3.6953 0.80859 5 2.4219 1.3125 1.6172 1.9688 3.6953 1.9688 6.2344 0 2.543-0.65625 4.6211-1.9688 6.2344-1.3047 1.6172-2.9688 2.4219-5 2.4219-1.1484 0-2.1641-0.22656-3.0469-0.67188-0.88672-0.45703-1.6953-1.1719-2.4219-2.1406zm3.5156-10.672c-1.1367 0-2.0078 0.41797-2.6094 1.25-0.60547 0.82422-0.90625 2.0156-0.90625 3.5781s0.30078 2.7617 0.90625 3.5938c0.60156 0.82422 1.4727 1.2344 2.6094 1.2344 1.125 0 1.9844-0.41016 2.5781-1.2344 0.59375-0.82031 0.89062-2.0195 0.89062-3.5938 0-1.5703-0.29688-2.7695-0.89062-3.5938-0.59375-0.82031-1.4531-1.2344-2.5781-1.2344z"/>
  </symbol>
  <symbol id="u" overflow="visible">
   <path d="m2.5312-22.906h5.2656v12.469l6.0781-6.0469h6.125l-8.0625 7.5625 8.6875 8.9219h-6.3906l-6.4375-6.875v6.875h-5.2656z"/>
  </symbol>
  <symbol id="h" overflow="visible">
   <path d="m2.5312-16.484h5.2656v16.188c0 2.207-0.53125 3.8945-1.5938 5.0625-1.0547 1.1641-2.5859 1.75-4.5938 1.75h-2.6094v-3.4688h0.90625c1 0 1.6875-0.23047 2.0625-0.6875 0.375-0.44922 0.5625-1.3359 0.5625-2.6562zm0-6.4219h5.2656v4.2969h-5.2656z"/>
  </symbol>
  <symbol id="t" overflow="visible">
   <path d="m2.5312-16.484h5.2656v16.484h-5.2656zm0-6.4219h5.2656v4.2969h-5.2656z"/>
  </symbol>
  <symbol id="s" overflow="visible">
   <path d="m15.422-15.969v4c-1.1367-0.46875-2.2305-0.82031-3.2812-1.0625-1.043-0.23828-2.0312-0.35938-2.9688-0.35938-1 0-1.7461 0.125-2.2344 0.375-0.48047 0.25-0.71875 0.63672-0.71875 1.1562 0 0.42969 0.17969 0.75781 0.54688 0.98438 0.36328 0.21875 1.0234 0.38672 1.9844 0.5l0.92188 0.125c2.6953 0.34375 4.5078 0.91406 5.4375 1.7031 0.9375 0.78125 1.4062 2.0117 1.4062 3.6875 0 1.7617-0.64844 3.0859-1.9375 3.9688-1.293 0.875-3.2266 1.3125-5.7969 1.3125-1.0938 0-2.2266-0.089844-3.3906-0.26562-1.1562-0.16406-2.3516-0.42188-3.5781-0.76562v-4c1.0508 0.51172 2.1289 0.89844 3.2344 1.1562 1.1016 0.25 2.2227 0.375 3.3594 0.375 1.0312 0 1.8047-0.14062 2.3281-0.42188 0.51953-0.28906 0.78125-0.71094 0.78125-1.2656 0-0.47656-0.18359-0.83203-0.54688-1.0625-0.35547-0.22656-1.0703-0.40625-2.1406-0.53125l-0.92188-0.125c-2.3438-0.28906-3.9922-0.83203-4.9375-1.625-0.9375-0.80078-1.4062-2.0078-1.4062-3.625 0-1.75 0.59766-3.0469 1.7969-3.8906 1.1953-0.84375 3.0312-1.2656 5.5-1.2656 0.97656 0 2 0.074219 3.0625 0.21875 1.0703 0.14844 2.2383 0.38281 3.5 0.70312z"/>
  </symbol>
  <symbol id="g" overflow="visible">
   <path d="m2.3594-6.4219v-10.062h5.2969v1.6406c0 0.89844-0.007812 2.0234-0.015625 3.375-0.011719 1.3438-0.015625 2.2422-0.015625 2.6875 0 1.3359 0.03125 2.293 0.09375 2.875 0.070312 0.58594 0.19141 1.0078 0.35938 1.2656 0.21875 0.34375 0.5 0.60938 0.84375 0.79688 0.35156 0.1875 0.75391 0.28125 1.2031 0.28125 1.1016 0 1.9688-0.42188 2.5938-1.2656 0.63281-0.84375 0.95312-2.0156 0.95312-3.5156v-8.1406h5.2656v16.484h-5.2656v-2.3906c-0.80469 0.96875-1.6484 1.6836-2.5312 2.1406-0.88672 0.44531-1.8672 0.67188-2.9375 0.67188-1.9062 0-3.3594-0.58203-4.3594-1.75-0.99219-1.1641-1.4844-2.8633-1.4844-5.0938z"/>
  </symbol>
  <symbol id="f" overflow="visible">
   <path d="m19.109-10.047v10.047h-5.2969v-7.6875c0-1.4258-0.03125-2.4062-0.09375-2.9375-0.0625-0.53906-0.17188-0.94141-0.32812-1.2031-0.21094-0.34375-0.49219-0.60938-0.84375-0.79688-0.35547-0.1875-0.75781-0.28125-1.2031-0.28125-1.1055 0-1.9766 0.42969-2.6094 1.2812-0.625 0.84375-0.9375 2.0156-0.9375 3.5156v8.1094h-5.2656v-16.484h5.2656v2.4062c0.80078-0.95703 1.6445-1.6641 2.5312-2.125 0.89453-0.45703 1.8828-0.6875 2.9688-0.6875 1.9062 0 3.3477 0.58594 4.3281 1.75 0.98828 1.168 1.4844 2.8672 1.4844 5.0938z"/>
  </symbol>
  <symbol id="r" overflow="visible">
   <path d="m13.391-22.906v3.4531h-2.9219c-0.75 0-1.2734 0.13672-1.5625 0.40625-0.29297 0.27344-0.4375 0.74219-0.4375 1.4062v1.1562h4.5v3.7656h-4.5v12.719h-5.2812v-12.719h-2.6094v-3.7656h2.6094v-1.1562c0-1.7891 0.5-3.1133 1.5-3.9688 1.0078-0.86328 2.5625-1.2969 4.6562-1.2969z"/>
  </symbol>
  <symbol id="d" overflow="visible">
   <path d="m10.375-13.125c-1.168 0-2.0586 0.42188-2.6719 1.2656-0.61719 0.83594-0.92188 2.043-0.92188 3.625 0 1.5859 0.30469 2.7969 0.92188 3.6406 0.61328 0.83594 1.5039 1.25 2.6719 1.25 1.1562 0 2.0352-0.41406 2.6406-1.25 0.60156-0.84375 0.90625-2.0547 0.90625-3.6406 0-1.582-0.30469-2.7891-0.90625-3.625-0.60547-0.84375-1.4844-1.2656-2.6406-1.2656zm0-3.7656c2.8438 0 5.0625 0.76562 6.6562 2.2969s2.3906 3.6523 2.3906 6.3594c0 2.7109-0.79688 4.8281-2.3906 6.3594s-3.8125 2.2969-6.6562 2.2969-5.0703-0.76562-6.6719-2.2969c-1.6055-1.5312-2.4062-3.6484-2.4062-6.3594 0-2.707 0.80078-4.8281 2.4062-6.3594 1.6016-1.5312 3.8281-2.2969 6.6719-2.2969z"/>
  </symbol>
  <symbol id="q" overflow="visible">
   <path d="m17.812-13.75c0.66406-1.0195 1.457-1.7969 2.375-2.3281 0.92578-0.53906 1.9375-0.8125 3.0312-0.8125 1.8945 0 3.3359 0.58594 4.3281 1.75 0.98828 1.168 1.4844 2.8672 1.4844 5.0938v10.047h-5.2969v-8.5938c0.007813-0.13281 0.015625-0.26953 0.015625-0.40625 0.007812-0.13281 0.015625-0.32812 0.015625-0.57812 0-1.1758-0.17188-2.0234-0.51562-2.5469-0.34375-0.51953-0.89844-0.78125-1.6562-0.78125-1.0117 0-1.7891 0.41406-2.3281 1.2344-0.54297 0.82422-0.82422 2.0156-0.84375 3.5781v8.0938h-5.2969v-8.5938c0-1.832-0.16406-3.0078-0.48438-3.5312-0.3125-0.51953-0.87109-0.78125-1.6719-0.78125-1.0117 0-1.793 0.41797-2.3438 1.25-0.55469 0.82422-0.82812 2.0078-0.82812 3.5469v8.1094h-5.2969v-16.484h5.2969v2.4062c0.65625-0.92578 1.3984-1.625 2.2344-2.0938 0.84375-0.47656 1.7695-0.71875 2.7812-0.71875 1.1328 0 2.1406 0.27734 3.0156 0.82812 0.875 0.55469 1.5352 1.3242 1.9844 2.3125z"/>
  </symbol>
  <symbol id="p" overflow="visible">
   <path d="m19.109-10.047v10.047h-5.2969v-7.6562c0-1.4453-0.03125-2.4375-0.09375-2.9688-0.0625-0.53906-0.17188-0.94141-0.32812-1.2031-0.21094-0.34375-0.49219-0.60938-0.84375-0.79688-0.35547-0.1875-0.75781-0.28125-1.2031-0.28125-1.1055 0-1.9766 0.42969-2.6094 1.2812-0.625 0.84375-0.9375 2.0156-0.9375 3.5156v8.1094h-5.2656v-22.906h5.2656v8.8281c0.80078-0.95703 1.6445-1.6641 2.5312-2.125 0.89453-0.45703 1.8828-0.6875 2.9688-0.6875 1.9062 0 3.3477 0.58594 4.3281 1.75 0.98828 1.168 1.4844 2.8672 1.4844 5.0938z"/>
  </symbol>
  <symbol id="o" overflow="visible">
   <path d="m2.7656-21.984h6.3281l8 15.078v-15.078h5.375v21.984h-6.3281l-8-15.078v15.078h-5.375z"/>
  </symbol>
  <symbol id="n" overflow="visible">
   <path d="m2.7656-21.984h9.4062c2.8008 0 4.9453 0.62109 6.4375 1.8594 1.5 1.2422 2.25 3.0117 2.25 5.3125 0 2.3047-0.75 4.0781-2.25 5.3281-1.4922 1.2422-3.6367 1.8594-6.4375 1.8594h-3.7344v7.625h-5.6719zm5.6719 4.1094v6.1406h3.1406c1.0938 0 1.9375-0.26562 2.5312-0.79688 0.60156-0.53906 0.90625-1.3008 0.90625-2.2812 0-0.97656-0.30469-1.7344-0.90625-2.2656-0.59375-0.53125-1.4375-0.79688-2.5312-0.79688z"/>
  </symbol>
  <symbol id="m" overflow="visible">
   <path d="m15.859-15.969v4.2969c-0.71875-0.48828-1.4375-0.85156-2.1562-1.0938-0.71875-0.23828-1.4688-0.35938-2.25-0.35938-1.4688 0-2.6172 0.43359-3.4375 1.2969-0.82422 0.85547-1.2344 2.0547-1.2344 3.5938 0 1.543 0.41016 2.7461 1.2344 3.6094 0.82031 0.85547 1.9688 1.2812 3.4375 1.2812 0.82031 0 1.6016-0.11719 2.3438-0.35938 0.75-0.25 1.4375-0.61328 2.0625-1.0938v4.3125c-0.82422 0.30469-1.6641 0.52344-2.5156 0.67188-0.84375 0.15625-1.6953 0.23438-2.5469 0.23438-2.9805 0-5.3086-0.75781-6.9844-2.2812-1.6797-1.5312-2.5156-3.6562-2.5156-6.375s0.83594-4.8359 2.5156-6.3594c1.6758-1.5312 4.0039-2.2969 6.9844-2.2969 0.86328 0 1.7109 0.078125 2.5469 0.23438 0.84375 0.14844 1.6797 0.375 2.5156 0.6875z"/>
  </symbol>
 </defs>
 <g>
  <path d="m444.44 226.15c-3.3438 1.9258-6.2109 4.5859-8.3828 7.7773l-1.207-0.36328v-0.30078h0.003906c0.41797-3.3125 1.2695-6.5547 2.5312-9.6484 0.66406-1.8516-0.27344-3.8945-2.1094-4.5977-1.8359-0.70703-3.8984 0.18359-4.6445 2.0039-2.2188 4.4844-3.1758 9.4883-2.7734 14.477-0.85938 0.59375-1.6641 1.2578-2.4141 1.9883-9.8281 9.6484-15.859 16.766-6.5117 21.953 3.5586 1.9883 17.125-1.75 21.891-17.551 0.26563-0.44141 0.42969-0.9375 0.48438-1.4492 0.36328-3.5586 5.1875-6.9961 6.8164-7.9609l-0.003906 0.003907c1.1367-1.1641 1.3555-2.9414 0.54297-4.3438-0.81641-1.4062-2.4688-2.0977-4.0391-1.6875z"/>
  <path d="m487.38 260.28c-4.3477 1.2773-8.0117 4.2266-10.191 8.1992-0.16016-0.19922-0.33984-0.37891-0.54297-0.54297 0.42188-3.3125 1.2734-6.5547 2.5352-9.6484 0.66406-1.8516-0.27344-3.8945-2.1094-4.5977-1.8359-0.70703-3.8984 0.18359-4.6445 2.0039-2.3906 4.5977-3.3164 9.8164-2.6562 14.957-0.92969 0.70703-1.7969 1.4961-2.5898 2.3516-9.8281 10.676-15.98 18.516-7.0547 23.762 3.4375 2.0508 17.246-2.5938 22.191-20.684 0.0625-0.35938 0.0625-0.72656 0-1.0859 0.83594-3.4727 3.3477-6.2969 6.6914-7.5391 1.9492-0.44922 3.1641-2.3945 2.7148-4.3438s-2.3945-3.1641-4.3438-2.7109z"/>
  <path d="m431.59 279.7c-2.3867-1.7188-5.3672-2.3906-8.2617-1.8711-3.2188 0.57031-6.0703 2.418-7.8984 5.125-0.96484 1.3867-2.0508 2.8359-3.1953 4.3438-5.1875 6.7539-12.062 16.043-4.8242 24.121h-0.003906c2.2031 2.5117 5.3477 3.9961 8.6836 4.1016 5.9727-1.1094 11.238-4.5898 14.594-9.6484l0.72266-0.84375h0.003906c2.2109-2.668 3.832-5.7695 4.7617-9.1055 2.1641-5.8281 0.3125-12.387-4.582-16.223zm-3.918 13.086c-0.51953 2.1953-1.5078 4.2539-2.8984 6.0312l-0.78516 0.84375c-2.3516 2.5938-6.0312 6.5742-8.0195 6.6328-0.89062-0.12109-1.6953-0.59766-2.2305-1.3281-1.8086-1.8711 0.30078-5.3672 5.4883-12.062 1.2656-1.6289 2.4727-3.1953 3.4961-4.7656l0.003907 0.003906c0.46094-0.6875 1.1758-1.1641 1.9883-1.3242h0.42188c0.36719-0.011718 0.72266 0.09375 1.0273 0.30078 1.5703 1.4023 2.1602 3.6055 1.5078 5.6055z"/>
  <path d="m513.67 81.473c1.4492 3.1953 3.7227 5.9492 6.582 7.9805 2.8594 2.0352 6.2031 3.2773 9.6992 3.5977 12.605 1.5664 14.352-38.777 49.57-35.16 0 0 16.223-0.90625 0-18.09-16.223-17.188-52.227-4.2227-49.57-39.984 0 0-19.781 11.098 0 35.461 19.781 24.363-16.281 46.195-16.281 46.195z"/>
  <path d="m638.56 157.52c-5.0039-22.254-18.09-35.461-21.469-53.492s12.062-24.121 13.207-48.727c1.1484-24.605-28.824-35.461-39.621-39.078-10.793-3.6172-1.8086-16.223-1.8086-16.223s-28.285 9.6484-7.8398 29.488c20.445 19.84 16.223 35.461 4.8242 34.254-8.0586-0.21484-15.992 2.0352-22.734 6.4531-16.824 10.254-19.359 43.059-45.59 24.965-24.121-16.523-44.688 12.062-46.316 29.367-1.9883 20.141-2.1719 28.645-16.102 27.621 14.414-20.684-1.3281-37.992-8.3203-48.246-7.8398-11.277 1.9883-13.508 10.07-24.121v0.003906c3.3672-3.7109 5.0469-8.6523 4.6367-13.648-0.41016-4.9961-2.8789-9.5977-6.8086-12.707-6.0312-4.7656-5.4883-18.09-5.4883-18.09-1.8633 2.9727-2.8477 6.4102-2.8477 9.918 0 3.5117 0.98438 6.9492 2.8477 9.9219 6.7539 9.0469-6.0312 16.703-6.0312 16.703s-33.41 20.746-15.801 40.586c10.914 12.062 3.6797 36.727-3.4375 53.613-3.707 5.6055-6.6289 11.691-8.6836 18.094 0 0-6.0312 16.824 2.5938 23.699-1.75 4.5234-4.2227 10.191-7.2383 16.16-1.6133-0.61719-3.3359-0.90234-5.0625-0.84375-4.1367 0.22266-7.9844 2.1719-10.613 5.3672-2.3945 2.9609-3.8516 6.5625-4.1953 10.352-0.34375 3.7891 0.44531 7.5938 2.2656 10.938-1.207 1.207-2.4141 2.293-3.6797 3.3164-10.383 8.6797-15.504 22.137-13.508 35.52 1.2539 9.6719 5.1094 18.82 11.156 26.477-1.1094-0.9375-2.0469-2.0625-2.7734-3.3203-0.44922-0.73047-1.0977-1.3164-1.8711-1.6875-1.0469-3.5508-3.1797-6.6836-6.1016-8.9531-2.9219-2.2734-6.4844-3.5703-10.18-3.7109-6.9336-13.871-15.316-33.109-15.137-40.285 0-9.6484 10.914-38.957 15.078-49.512h-0.003906c0.039062-0.33984 0.039062-0.68359 0-1.0234 0.51172-2.9766 2.3867-5.543 5.0664-6.9336 5.2344-2.3906 7.6758-8.4648 5.5469-13.812-1.2969-4.832-6.0352-7.9023-10.973-7.1133h-0.66406c-0.51562-1.9688-0.76172-4-0.72656-6.0312 0-4.7656-0.42188-12.785-9.7695-14.172-4.3828-0.45703-8.8086 0.25391-12.832 2.0508-4.0234 1.8008-7.5 4.6289-10.082 8.1992-3.6797 5.6094-6.0312 15.559 3.8594 31.238l3.3164 5.0664c-4.6445 9.7109-19.539 42.516-15.258 59.945 5.9688 18.453 13.496 36.367 22.496 53.551-0.625 4.2852 1.6289 8.4727 5.5469 10.312-0.96484 0.96484-1.9297 1.9883-2.7148 2.9531-7.1289 9.7852-12.387 20.805-15.496 32.508-7.9023 0.36719-15.746-1.5117-22.617-5.4297-4.1367-3.082-7.332-7.2617-9.2266-12.059-8.7344-16.305-20.992-30.461-35.883-41.434-1.0547-0.83594-2.4297-1.1562-3.7461-0.875-1.3164 0.27734-2.4414 1.1289-3.0664 2.3242-1.9688 3.5078-4.2695 6.8203-6.875 9.8906-10.137-7.6289-19.766-15.906-28.828-24.785-2.457 4.9844-5.6914 9.543-9.5859 13.508-0.16406-0.19922-0.34766-0.37891-0.54297-0.54297-0.36328 0-38.957-28.285-55.664-60.305-1.7578-3.3281-2.3672-7.1406-1.7344-10.848 0.63281-3.707 2.4727-7.1016 5.2344-9.6562 0.55078-0.51172 0.96875-1.1562 1.2031-1.8711 3.2891-0.55469 6.5156-1.4023 9.6523-2.5312 9.2852-3.3789-4.4609-10.254-15.922-9.8281v-0.003906c-8.0859 0.50391-16.141 1.4492-24.125 2.8359-7.2383 0.84375-7.418 12.062-7.418 12.062l0.003906-0.003906c0.38672 2.6094 0.94922 5.1875 1.6875 7.7227-0.20703 1.1133-0.34766 2.2422-0.42188 3.375-0.96484 18.09 20.805 57.41 44.145 82.922 0.34766 0.62891 0.84375 1.168 1.4453 1.5664 3.207 3.3164 6.5898 6.457 10.133 9.4062-0.93359 1.2852-1.7969 2.6133-2.5938 3.9805-9.7109-1.0234-49.57-6.0312-76.711-22.555-3.2188-1.9141-5.7188-4.8359-7.1133-8.3125-1.3945-3.4766-1.6055-7.3125-0.60547-10.922 0.19141-0.73438 0.19141-1.5 0-2.2344 2.5234-2.1797 4.8438-4.5781 6.9375-7.1758 6.0312-7.7188-9.1055-6.4531-18.695 0-6.7031 4.6484-13.148 9.6602-19.297 15.016-6.0312 4.4609 0 14.051 0 14.051v0.003906c1.6641 2.1328 3.4805 4.1484 5.4258 6.0273 0.40234 1.0547 0.86328 2.0781 1.3867 3.0781 8.4414 15.68 47.52 38.234 80.688 48.246l0.003906-0.003907c0.64063 0.375 1.3672 0.58203 2.1094 0.60547 5.3438 1.5117 10.781 2.6602 16.281 3.4375-0.4375 15.316 4.6094 30.289 14.234 42.215 25.027 28.402-5.3086 35.039 4.7656 55.059 10.07 20.023 16.281 42.215 49.691 54.699 33.41 12.484 44.93 25.207 59.523 35.398 0 0 85.152-57.773 97.273-117.23l-0.003907-0.003906c1.6211 6.5898 5.7578 12.281 11.52 15.863 3.8359 2.0039 8.0938 3.0781 12.422 3.1367 4.3008 0.09375 8.5234-1.1719 12.062-3.6211 1.0547-0.69922 1.7656-1.8125 1.9609-3.0625 0.19922-1.25-0.13672-2.5273-0.92578-3.5195-0.78906-0.98828-1.9531-1.6055-3.2188-1.6953-1.2617-0.089844-2.5039 0.35156-3.4258 1.2227-2.2852 1.2734-4.8711 1.8984-7.4844 1.8164-2.6133-0.085938-5.1562-0.87891-7.3516-2.3008-4.4727-3.5625-7.375-8.7344-8.082-14.41 1.5 1.2812 3.1875 2.3164 5.0078 3.0742 5.3047 2.0078 11.254 1.332 15.98-1.8086 6.0312-3.6797 7.1758-7.8984 6.8164-10.793-0.90625-7.2383-11.336-12.543-19.902-15.738v-0.003906c8.8125-8.1094 17.031-16.836 24.605-26.113 4.0391 14.656 20.383 18.453 27.5 13.75l1.8711-1.3867h-0.003906c15.258 6.5781 31.633 10.18 48.246 10.613 3.7305 0.003907 7.4609-0.25781 11.156-0.78125 18.223-2.6992 36.055-7.5586 53.129-14.477l7.4766 1.0859c14.473 1.4492 20.504-4.6445 22.797-8.4414 1.6523-2.8672 2.4844-6.1289 2.4102-9.4375-0.074219-3.3047-1.0547-6.5273-2.832-9.3164-3.2344-5.1758-8.8555-8.375-14.957-8.5039h-0.72266c-0.21094-0.34766-0.39062-0.71094-0.54297-1.0859-1.6445-4.5234-6.4062-7.1133-11.098-6.0312-5.7695 0.32422-10.266 5.1367-10.191 10.914-0.125 2.8125-1.4688 5.4336-3.6758 7.1797-15.418 5.0273-31.102 9.1953-46.98 12.48-12.906 2.1719-33.469-6.5117-42.215-10.676v0.003906c-0.75-4.4141-2.8594-8.4805-6.0312-11.641-8.0195-7.8984-14.895-6.5117-18.875-4.4023-0.15625-0.25781-0.33594-0.5-0.54297-0.72266l-12.062-11.156h3.5625c15.355-0.41406 30.164-5.7852 42.211-15.32 3.0781 4.0781 7.9219 6.4336 13.027 6.332 3.5938-0.30078 6.9844-1.7852 9.6445-4.2188 2.6602-2.4336 4.4453-5.6758 5.0703-9.2266 0.34375-1.5859 0.46484-3.207 0.36328-4.8242 1.5664 1.0859 3.2578 2.1719 5.1875 3.2578 26.777 15.5 27.137-4.8242 30.816-21.41 3.6797-16.586 18.09-20.383 38.113-27.016 20.02-6.6367 33.285-20.988 21.586-42.457-4.8242-8.6836-6.0312-14.715 9.0469-25.871 23.035-17.309 24.062-34.195 21.648-44.988zm-492.09 200.27c-29.609-10.129-62.418-29.969-68.688-41.609-1.9688-3.0039-2.4141-6.75-1.207-10.133 1.7695-3.4492 4.6016-6.2422 8.082-7.9609 0.47656 8.6484 5.1953 16.504 12.602 20.988 16.738 9.3867 34.883 16.004 53.734 19.598-3.7852 5.6133-5.3945 12.41-4.5234 19.117zm22.855 6.0312c-4.3945-0.62891-8.7461-1.5352-13.027-2.7109-1.2422-3.4727-1.4492-7.2344-0.59375-10.82 0.85938-3.5898 2.7422-6.8477 5.418-9.3828 5.3672 0.90625 9.8906 1.5078 13.148 1.9297-2.6328 6.6367-4.3789 13.59-5.1875 20.684zm2.1094-56.086c-20.082-24.121-37.812-58.016-37.148-71.281v0.003907c-0.11328-3.5859 1.4453-7.0195 4.2227-9.2891 3.2461-2.0078 7.0469-2.9375 10.855-2.6523-4.043 7.6602-4.043 16.824 0 24.484 9.5547 16.777 21.773 31.891 36.184 44.746-6.2148 2.6914-11.234 7.5586-14.113 13.688zm20.746 12.906c-1.8164 0.82422-3.5195 1.8789-5.0664 3.1367-3.1094-2.625-6.0703-5.4219-8.8633-8.3828 0.71484-3.7109 2.5195-7.1289 5.1836-9.8125 2.6602-2.6875 6.0625-4.5156 9.7695-5.2617 6.6953 6.0312 12.062 9.7109 13.871 11.219v-0.003907c-4.5391 3.5703-9.5273 6.5273-14.836 8.8047zm283.02 60.305c10.914 4.8242 30.152 12.062 44.203 9.7695v0.003906c16.516-3.3984 32.824-7.7305 48.848-12.969 0.38672-0.12891 0.75-0.3125 1.0859-0.53906 4.8242-3.2656 7.8359-8.6016 8.1406-14.414 0-2.3516 0.96484-2.4727 1.9297-2.5312h1.5664l0.42188 0.96484 0.003906-0.003906c1.2539 3.7539 4.6719 6.3594 8.6211 6.5742 3.0586-0.007813 5.9414 1.4219 7.7812 3.8594l0.30078 0.60156v0.003906c1.7539 2.8164 1.8672 6.3594 0.30078 9.2852-2.0508 3.4375-7.1172 4.8867-13.992 4.1602l-8.5625-1.207v0.003907c-0.83984-0.11328-1.6953 0.011719-2.4727 0.35938-16.688 6.8438-34.141 11.645-51.98 14.293-17.363 1.2617-34.773-1.6562-50.777-8.5039 2.1406-3.0625 3.6953-6.5 4.582-10.129zm-73.453-146.78c0.99219-1.3477 2.5-2.2188 4.1602-2.4141h0.36328c-1.9766 3.3711-4.1289 6.6328-6.4531 9.7695-0.53125-2.6172 0.17969-5.3359 1.9297-7.3555zm15.199 123.75c1.2812 0.097657 2.5742 0.097657 3.8594 0-2.7188 4.125-5.918 7.9102-9.5312 11.277-15.738-1.6562-29.797-10.582-37.992-24.121 2.3516-2.2305 6.0312-5.7305 10.492-9.168 3.4609 5.1328 8.8594 8.6406 14.957 9.7109l0.60156 0.48438 0.003906-0.003906c1.168 3.668 3.5469 6.832 6.7422 8.9805 3.1992 2.1445 7.0273 3.1445 10.867 2.8398zm-16.949-23.641c0.17578-1.7852 0.86719-3.4844 1.9922-4.8828 3.9219 2.8047 8.0781 5.2695 12.422 7.3555l3.9805 1.75c-4.9453 2.7734-11.457 5.125-15.621 1.2656h0.003906c-1.6953-1.3242-2.7148-3.3359-2.7773-5.4883zm-49.27-26.594c-7.3867-14.387-13.539-29.379-18.391-44.805-3.3789-13.688 10.191-45.109 15.738-56.086 0.80859-1.3984 0.80859-3.125 0-4.5234l-4.7031-7.1172c-3.9805-6.332-7.8984-15.258-3.8594-21.41v0.003907c3.1484-3.8477 7.8711-6.0664 12.844-6.0312h1.207c1.5664 0 1.8711 0 2.0508 5.5469-0.035156 2.875 0.34766 5.7422 1.1445 8.5039 1.2031 4.2109 5.4023 6.8203 9.7109 6.0312h1.2656c0.3125 0.39062 0.53906 0.83984 0.66406 1.3242 0.36328 0.90625 0.60156 1.6875-1.4492 2.8359-4.9492 2.6719-8.4297 7.4375-9.4688 12.965-2.2305 5.7305-15.258 39.562-15.5 52.164 0 10.191 10.07 32.262 15.801 43.844h0.003906c-2.6992 1.8125-5.082 4.0508-7.0586 6.6328zm-37.992 184.66c-6.8164-2.6523-30.152-12.965-36.484-30.152-7.0547-19.117-27.258-41.008-42.215-57.051-2.9531-3.1953-5.668-6.0312-7.8398-8.625-7.2969-8.2617-10.07-29.066-6.0312-42.879v0.003906c1.2031-5.8047 5.3008-10.59 10.855-12.664 13.547-4.1875 25.117-13.145 32.566-25.207 12.262 9.7266 22.332 21.934 29.551 35.82 2.6328 6.1797 6.9609 11.492 12.48 15.32 8.1094 4.6836 17.359 7.0234 26.719 6.7539 1.5156 3.8281 3.3945 7.5 5.6055 10.973-12.594-0.10938-25.148-1.3828-37.508-3.7969-9.043-2.3789-17.09-7.5742-22.977-14.836-1.5469-1.7031-4.125-1.9727-5.9883-0.63281-1.8672 1.3438-2.4297 3.8711-1.3086 5.8789 7.1367 8.9414 17.008 15.293 28.102 18.094 15.125 2.8711 30.496 4.2852 45.891 4.2188 3.1641 4.0234 6.7422 7.7031 10.676 10.977-6.0312 13.688-28.164 26.656-36.664 30.758-1.1914 0.4375-2.1445 1.3594-2.625 2.5352-0.48047 1.1758-0.44141 2.4961 0.10156 3.6445s1.5469 2.0117 2.7578 2.3867c1.2148 0.37109 2.5312 0.21875 3.625-0.42578 1.3281-0.66406 30.152-14.656 40.164-33.531 8.6172 5.4336 18.195 9.1602 28.223 10.977-7.3594 25.871-56.266 58.918-77.734 71.34zm108.01-64.766s-0.36328 0.78516-2.4727 2.0508v-0.003906c-2.3203 1.625-5.2734 2.0508-7.9609 1.1484-4.5156-2.75-7.8984-7.0312-9.5273-12.062l1.2656-1.0859c9.2891 3.1367 18.094 7.7188 18.695 9.9531zm20.625-69.172c-10.734 22.855-40.344 48.246-47.34 54.273-11.359-1.6758-22.133-6.1289-31.359-12.965-4.9922-3.7773-9.3984-8.2695-13.086-13.328-3.6016-4.8516-6.4492-10.219-8.4414-15.922 0.23047-0.53125 0.35156-1.1055 0.35938-1.6875 2.8125-11.203 7.7461-21.77 14.535-31.117 6.8398-7.0273 14.586-13.113 23.035-18.09 1.5586 1.7891 3.418 3.3008 5.4883 4.4609-7.1289 5.0664-13.824 10.711-20.02 16.887-1.3984 1.4062-1.7148 3.5547-0.78516 5.3047 9.7227 18.418 28.359 30.422 49.148 31.66 1.1602 0.003906 2.2773-0.42578 3.1367-1.2031 8.082-6.6953 14.207-15.445 17.73-25.328zm61.754-39.441c-0.72266 3.4375-3.4375 6.332-6.0312 6.332-2.6367 0.34375-5.2383-0.85156-6.6953-3.0742 3.5859-3.2578 6.9102-6.7852 9.9531-10.555 2.2539 1.75 3.3242 4.6211 2.7734 7.418zm8.625-54.637c-0.042969 0.70313-0.042969 1.4062 0 2.1094-0.92578 6.5703-2.9648 12.934-6.0312 18.816-2.3672 3.332-4.2344 6.9883-5.5508 10.855-0.27344 0.25-0.51953 0.53125-0.72266 0.84375-9.5273 17.551-43.117 49.812-81.051 31.539-19.059-9.2266-31.602-24.605-33.531-41.188-1.5742-10.324 2.3047-20.727 10.254-27.5 2.1328-1.7305 4.1484-3.6055 6.0312-5.6094 0.58203-0.40234 1.0547-0.94141 1.3867-1.5664 5.1367-5.9609 9.6211-12.449 13.387-19.359 0.61328-0.64844 1.0117-1.4688 1.1445-2.3516 3.5391-6.6641 6.6797-13.531 9.4102-20.562 20.141 0.96484 14.414-4.9453 26.895-1.6875v-0.003906c4.6484 0.84766 8.9805 2.9336 12.543 6.0312 0.66406 0.78516 8.7461 5.1875 9.7109 6.0312 8.2031 6.0312 16.824 5.4258 22.918 20.926 0.80859 2.1055 2.1328 3.9727 3.8594 5.4297l0.60156 0.42188 0.72266 0.54297c2.6641 1.7695 4.8086 4.2188 6.2148 7.0898 1.4102 2.8672 2.0352 6.0625 1.8086 9.25z"/>
  <use x="60.53125" y="650.457031" xlink:href="#v"/>
  <use x="82.660156" y="650.457031" xlink:href="#b"/>
  <use x="97.53125" y="650.457031" xlink:href="#a"/>
  <use x="117.980469" y="650.457031" xlink:href="#e"/>
  <use x="138.328125" y="650.457031" xlink:href="#c"/>
  <use x="152.742188" y="650.457031" xlink:href="#a"/>
  <use x="173.191406" y="650.457031" xlink:href="#l"/>
  <use x="205.273437" y="650.457031" xlink:href="#k"/>
  <use x="226.859375" y="650.457031" xlink:href="#j"/>
  <use x="257.011719" y="650.457031" xlink:href="#i"/>
  <use x="278.597656" y="650.457031" xlink:href="#e"/>
  <use x="298.941406" y="650.457031" xlink:href="#b"/>
  <use x="313.8125" y="650.457031" xlink:href="#u"/>
  <use x="333.867188" y="650.457031" xlink:href="#h"/>
  <use x="344.203125" y="650.457031" xlink:href="#t"/>
  <use x="354.539062" y="650.457031" xlink:href="#s"/>
  <use x="372.484375" y="650.457031" xlink:href="#g"/>
  <use x="393.953125" y="650.457031" xlink:href="#f"/>
  <use x="60.53125" y="680.613281" xlink:href="#r"/>
  <use x="73.648438" y="680.613281" xlink:href="#b"/>
  <use x="88.519531" y="680.613281" xlink:href="#d"/>
  <use x="109.234375" y="680.613281" xlink:href="#q"/>
  <use x="151.152344" y="680.613281" xlink:href="#c"/>
  <use x="165.566406" y="680.613281" xlink:href="#p"/>
  <use x="187.03125" y="680.613281" xlink:href="#a"/>
  <use x="217.980469" y="680.613281" xlink:href="#o"/>
  <use x="243.214844" y="680.613281" xlink:href="#d"/>
  <use x="263.933594" y="680.613281" xlink:href="#g"/>
  <use x="285.398438" y="680.613281" xlink:href="#f"/>
  <use x="317.363281" y="680.613281" xlink:href="#n"/>
  <use x="339.460938" y="680.613281" xlink:href="#b"/>
  <use x="354.332031" y="680.613281" xlink:href="#d"/>
  <use x="375.046875" y="680.613281" xlink:href="#h"/>
  <use x="385.382813" y="680.613281" xlink:href="#a"/>
  <use x="405.832031" y="680.613281" xlink:href="#m"/>
  <use x="423.707031" y="680.613281" xlink:href="#c"/>
 </g>
</svg>
