<?xml version="1.0" encoding="UTF-8"?>
<svg width="700pt" height="700pt" version="1.1" viewBox="0 0 700 700" xmlns="http://www.w3.org/2000/svg" xmlns:xlink="http://www.w3.org/1999/xlink">
 <defs>
  <symbol id="v" overflow="visible">
   <path d="m19.547-1.1719c-1.0117 0.52344-2.0625 0.91406-3.1562 1.1719-1.0938 0.26953-2.2344 0.40625-3.4219 0.40625-3.543 0-6.3516-0.98828-8.4219-2.9688-2.0625-1.9766-3.0938-4.6602-3.0938-8.0469 0-3.4062 1.0312-6.0977 3.0938-8.0781 2.0703-1.9766 4.8789-2.9688 8.4219-2.9688 1.1875 0 2.3281 0.13672 3.4219 0.40625 1.0938 0.26172 2.1445 0.65625 3.1562 1.1875v4.3906c-1.0234-0.6875-2.0273-1.1914-3.0156-1.5156-0.98047-0.32031-2.0156-0.48438-3.1094-0.48438-1.9609 0-3.5 0.625-4.625 1.875-1.1172 1.25-1.6719 2.9805-1.6719 5.1875 0 2.1875 0.55469 3.9141 1.6719 5.1719 1.125 1.25 2.6641 1.875 4.625 1.875 1.0938 0 2.1289-0.16016 3.1094-0.48438 0.98828-0.32031 1.9922-0.82812 3.0156-1.5156z"/>
  </symbol>
  <symbol id="b" overflow="visible">
   <path d="m14.297-11.609c-0.44922-0.20703-0.89062-0.35938-1.3281-0.45312-0.4375-0.10156-0.88281-0.15625-1.3281-0.15625-1.3125 0-2.3242 0.42188-3.0312 1.2656-0.71094 0.83594-1.0625 2.0391-1.0625 3.6094v7.3438h-5.0938v-15.953h5.0938v2.625c0.65625-1.0508 1.4062-1.8164 2.25-2.2969 0.85156-0.47656 1.875-0.71875 3.0625-0.71875 0.17578 0 0.36328 0.011719 0.5625 0.03125 0.19531 0.011719 0.48438 0.042969 0.85938 0.09375z"/>
  </symbol>
  <symbol id="a" overflow="visible">
   <path d="m18.375-8.0156v1.4531h-11.922c0.125 1.1992 0.55469 2.0938 1.2969 2.6875 0.73828 0.59375 1.7734 0.89062 3.1094 0.89062 1.0703 0 2.1719-0.15625 3.2969-0.46875 1.125-0.32031 2.2812-0.80469 3.4688-1.4531v3.9375c-1.2109 0.46094-2.418 0.80469-3.625 1.0312-1.2109 0.22656-2.4141 0.34375-3.6094 0.34375-2.8984 0-5.1484-0.72656-6.75-2.1875-1.5938-1.4688-2.3906-3.5312-2.3906-6.1875 0-2.5938 0.78516-4.6328 2.3594-6.125 1.5703-1.5 3.7344-2.25 6.4844-2.25 2.5078 0 4.5156 0.75781 6.0156 2.2656 1.5078 1.5117 2.2656 3.5312 2.2656 6.0625zm-5.2344-1.7031c0-0.96875-0.28906-1.75-0.85938-2.3438-0.5625-0.59375-1.2969-0.89062-2.2031-0.89062-0.99219 0-1.7969 0.28125-2.4219 0.84375-0.61719 0.55469-0.99609 1.3516-1.1406 2.3906z"/>
  </symbol>
  <symbol id="e" overflow="visible">
   <path d="m9.5938-7.1719c-1.0625 0-1.8672 0.18359-2.4062 0.54688-0.53125 0.35547-0.79688 0.88281-0.79688 1.5781 0 0.64844 0.21094 1.1523 0.64062 1.5156 0.4375 0.36719 1.0391 0.54688 1.8125 0.54688 0.95703 0 1.7656-0.34375 2.4219-1.0312s0.98438-1.5469 0.98438-2.5781v-0.57812zm7.7969-1.9375v9.1094h-5.1406v-2.3594c-0.6875 0.96875-1.4609 1.6719-2.3125 2.1094-0.85547 0.4375-1.8906 0.65625-3.1094 0.65625-1.6562 0-3-0.47656-4.0312-1.4375-1.0312-0.96875-1.5469-2.2188-1.5469-3.75 0-1.875 0.64062-3.25 1.9219-4.125 1.2891-0.875 3.3164-1.3125 6.0781-1.3125h3v-0.39062c0-0.8125-0.32031-1.4062-0.95312-1.7812-0.63672-0.375-1.6328-0.5625-2.9844-0.5625-1.0859 0-2.1016 0.10938-3.0469 0.32812-0.9375 0.21875-1.8086 0.54688-2.6094 0.98438v-3.8906c1.082-0.25781 2.1758-0.45703 3.2812-0.59375 1.1016-0.14453 2.207-0.21875 3.3125-0.21875 2.875 0 4.9453 0.57031 6.2188 1.7031 1.2812 1.1367 1.9219 2.9805 1.9219 5.5312z"/>
  </symbol>
  <symbol id="c" overflow="visible">
   <path d="m8.0156-20.484v4.5312h5.2656v3.6406h-5.2656v6.7656c0 0.74219 0.14453 1.2461 0.4375 1.5156 0.30078 0.26172 0.89062 0.39062 1.7656 0.39062h2.6094v3.6406h-4.3594c-2.0234 0-3.4531-0.41406-4.2969-1.25-0.83594-0.84375-1.25-2.2734-1.25-4.2969v-6.7656h-2.5312v-3.6406h2.5312v-4.5312z"/>
  </symbol>
  <symbol id="l" overflow="visible">
   <path d="m13.297-13.625v-8.5312h5.1406v22.156h-5.1406v-2.3125c-0.69922 0.94922-1.4688 1.6406-2.3125 2.0781-0.84375 0.42578-1.8242 0.64062-2.9375 0.64062-1.9688 0-3.5859-0.77344-4.8438-2.3281-1.2617-1.5625-1.8906-3.5781-1.8906-6.0469 0-2.457 0.62891-4.4688 1.8906-6.0312 1.2578-1.5625 2.875-2.3438 4.8438-2.3438 1.1016 0 2.0781 0.22656 2.9219 0.67188 0.85156 0.4375 1.6289 1.1211 2.3281 2.0469zm-3.3594 10.328c1.0938 0 1.9258-0.39453 2.5-1.1875 0.57031-0.80078 0.85938-1.9609 0.85938-3.4844 0-1.5078-0.28906-2.6641-0.85938-3.4688-0.57422-0.80078-1.4062-1.2031-2.5-1.2031-1.0859 0-1.9141 0.40234-2.4844 1.2031-0.57422 0.80469-0.85938 1.9609-0.85938 3.4688 0 1.5234 0.28516 2.6836 0.85938 3.4844 0.57031 0.79297 1.3984 1.1875 2.4844 1.1875z"/>
  </symbol>
  <symbol id="k" overflow="visible">
   <path d="m10.938-3.2969c1.0938 0 1.9258-0.39453 2.5-1.1875 0.57031-0.80078 0.85938-1.9609 0.85938-3.4844 0-1.5078-0.28906-2.6641-0.85938-3.4688-0.57422-0.80078-1.4062-1.2031-2.5-1.2031s-1.9336 0.40234-2.5156 1.2031c-0.58594 0.80469-0.875 1.9609-0.875 3.4688 0 1.5117 0.28906 2.668 0.875 3.4688 0.58203 0.80469 1.4219 1.2031 2.5156 1.2031zm-3.3906-10.328c0.70703-0.92578 1.4883-1.6094 2.3438-2.0469 0.85156-0.44531 1.832-0.67188 2.9375-0.67188 1.9688 0 3.582 0.78125 4.8438 2.3438 1.2695 1.5625 1.9062 3.5742 1.9062 6.0312 0 2.4688-0.63672 4.4844-1.9062 6.0469-1.2617 1.5547-2.875 2.3281-4.8438 2.3281-1.1055 0-2.0859-0.21875-2.9375-0.65625-0.85547-0.4375-1.6367-1.125-2.3438-2.0625v2.3125h-5.0938v-22.156h5.0938z"/>
  </symbol>
  <symbol id="j" overflow="visible">
   <path d="m0.35938-15.953h5.0938l4.2969 10.828 3.6406-10.828h5.0938l-6.7031 17.469c-0.67969 1.7695-1.4648 3.0078-2.3594 3.7188-0.89844 0.70703-2.0781 1.0625-3.5469 1.0625h-2.9531v-3.3438h1.5938c0.86328 0 1.4922-0.14062 1.8906-0.42188 0.39453-0.27344 0.70312-0.76562 0.92188-1.4844l0.14062-0.4375z"/>
  </symbol>
  <symbol id="i" overflow="visible">
   <path d="m7.5469-2.3125v8.375h-5.0938v-22.016h5.0938v2.3281c0.70703-0.92578 1.4883-1.6094 2.3438-2.0469 0.85156-0.44531 1.832-0.67188 2.9375-0.67188 1.9688 0 3.582 0.78125 4.8438 2.3438 1.2695 1.5625 1.9062 3.5742 1.9062 6.0312 0 2.4688-0.63672 4.4844-1.9062 6.0469-1.2617 1.5547-2.875 2.3281-4.8438 2.3281-1.1055 0-2.0859-0.21875-2.9375-0.65625-0.85547-0.4375-1.6367-1.125-2.3438-2.0625zm3.3906-10.328c-1.0938 0-1.9336 0.40234-2.5156 1.2031-0.58594 0.80469-0.875 1.9609-0.875 3.4688 0 1.5117 0.28906 2.668 0.875 3.4688 0.58203 0.80469 1.4219 1.2031 2.5156 1.2031s1.9258-0.39453 2.5-1.1875c0.57031-0.80078 0.85938-1.9609 0.85938-3.4844 0-1.5078-0.28906-2.6641-0.85938-3.4688-0.57422-0.80078-1.4062-1.2031-2.5-1.2031z"/>
  </symbol>
  <symbol id="u" overflow="visible">
   <path d="m2.4531-22.156h5.0938v12.062l5.875-5.8594h5.9219l-7.7969 7.3281 8.4062 8.625h-6.1719l-6.2344-6.6562v6.6562h-5.0938z"/>
  </symbol>
  <symbol id="h" overflow="visible">
   <path d="m2.4531-15.953h5.0938v15.672c0 2.1328-0.51562 3.7656-1.5469 4.8906-1.0234 1.125-2.5078 1.6875-4.4531 1.6875h-2.5156v-3.3438h0.89062c0.96875 0 1.6289-0.21875 1.9844-0.65625 0.36328-0.4375 0.54688-1.2969 0.54688-2.5781zm0-6.2031h5.0938v4.1562h-5.0938z"/>
  </symbol>
  <symbol id="t" overflow="visible">
   <path d="m2.4531-15.953h5.0938v15.953h-5.0938zm0-6.2031h5.0938v4.1562h-5.0938z"/>
  </symbol>
  <symbol id="s" overflow="visible">
   <path d="m14.906-15.453v3.875c-1.0859-0.45703-2.1367-0.80078-3.1562-1.0312-1.0117-0.22656-1.9688-0.34375-2.875-0.34375-0.96875 0-1.6875 0.125-2.1562 0.375-0.46875 0.24219-0.70312 0.60938-0.70312 1.1094 0 0.40625 0.17578 0.71875 0.53125 0.9375 0.35156 0.21875 0.99219 0.38281 1.9219 0.48438l0.89062 0.14062c2.6133 0.32422 4.3672 0.86719 5.2656 1.625 0.90625 0.76172 1.3594 1.9531 1.3594 3.5781 0 1.6992-0.63281 2.9766-1.8906 3.8281-1.25 0.85547-3.1211 1.2812-5.6094 1.2812-1.0547 0-2.1406-0.085938-3.2656-0.25-1.125-0.15625-2.2812-0.39844-3.4688-0.73438v-3.875c1.0195 0.49219 2.0625 0.85938 3.125 1.1094 1.0703 0.24219 2.1602 0.35938 3.2656 0.35938 0.98828 0 1.7344-0.13281 2.2344-0.40625 0.50781-0.26953 0.76562-0.67578 0.76562-1.2188 0-0.45703-0.17969-0.79688-0.53125-1.0156-0.34375-0.22656-1.0312-0.40625-2.0625-0.53125l-0.89062-0.10938c-2.2734-0.28125-3.8672-0.80469-4.7812-1.5781-0.90625-0.76953-1.3594-1.9414-1.3594-3.5156 0-1.6875 0.57812-2.9375 1.7344-3.75 1.1562-0.82031 2.9297-1.2344 5.3281-1.2344 0.9375 0 1.9219 0.074219 2.9531 0.21875 1.0391 0.14844 2.1641 0.37109 3.375 0.67188z"/>
  </symbol>
  <symbol id="g" overflow="visible">
   <path d="m2.2812-6.2031v-9.75h5.125v1.5938c0 0.86719-0.007812 1.9531-0.015625 3.2656-0.011719 1.3047-0.015625 2.1719-0.015625 2.6094 0 1.2812 0.03125 2.2031 0.09375 2.7656 0.070312 0.5625 0.1875 0.97656 0.34375 1.2344 0.21875 0.33594 0.49219 0.58984 0.82812 0.76562 0.33203 0.17969 0.71875 0.26562 1.1562 0.26562 1.0625 0 1.8945-0.40625 2.5-1.2188 0.61328-0.8125 0.92188-1.9453 0.92188-3.4062v-7.875h5.0938v15.953h-5.0938v-2.3125c-0.77344 0.9375-1.5898 1.625-2.4531 2.0625-0.85547 0.4375-1.7969 0.65625-2.8281 0.65625-1.8438 0-3.25-0.5625-4.2188-1.6875-0.96094-1.1328-1.4375-2.7734-1.4375-4.9219z"/>
  </symbol>
  <symbol id="f" overflow="visible">
   <path d="m18.484-9.7188v9.7188h-5.125v-7.4375c0-1.375-0.03125-2.3203-0.09375-2.8438-0.0625-0.51953-0.16797-0.90625-0.3125-1.1562-0.19922-0.33203-0.46875-0.58594-0.8125-0.76562-0.34375-0.1875-0.73438-0.28125-1.1719-0.28125-1.0625 0-1.9023 0.41406-2.5156 1.2344-0.60547 0.8125-0.90625 1.9492-0.90625 3.4062v7.8438h-5.0938v-15.953h5.0938v2.3281c0.76953-0.92578 1.5859-1.6094 2.4531-2.0469 0.86328-0.44531 1.8164-0.67188 2.8594-0.67188 1.8438 0 3.2383 0.57031 4.1875 1.7031 0.95703 1.125 1.4375 2.7656 1.4375 4.9219z"/>
  </symbol>
  <symbol id="r" overflow="visible">
   <path d="m12.953-22.156v3.3438h-2.8281c-0.71875 0-1.2266 0.13281-1.5156 0.39062-0.28125 0.26172-0.42188 0.71484-0.42188 1.3594v1.1094h4.3594v3.6406h-4.3594v12.312h-5.0938v-12.312h-2.5312v-3.6406h2.5312v-1.1094c0-1.7383 0.48438-3.0195 1.4531-3.8438 0.96875-0.83203 2.4688-1.25 4.5-1.25z"/>
  </symbol>
  <symbol id="d" overflow="visible">
   <path d="m10.047-12.688c-1.1367 0-2 0.40625-2.5938 1.2188s-0.89062 1.9805-0.89062 3.5c0 1.5312 0.29688 2.7031 0.89062 3.5156s1.457 1.2188 2.5938 1.2188c1.1016 0 1.9453-0.40625 2.5312-1.2188 0.59375-0.8125 0.89062-1.9844 0.89062-3.5156 0-1.5195-0.29688-2.6875-0.89062-3.5-0.58594-0.8125-1.4297-1.2188-2.5312-1.2188zm0-3.6562c2.7383 0 4.8789 0.74609 6.4219 2.2344 1.5391 1.4805 2.3125 3.5273 2.3125 6.1406 0 2.625-0.77344 4.6797-2.3125 6.1562-1.543 1.4805-3.6836 2.2188-6.4219 2.2188-2.7617 0-4.918-0.73828-6.4688-2.2188-1.5547-1.4766-2.3281-3.5312-2.3281-6.1562 0-2.6133 0.77344-4.6602 2.3281-6.1406 1.5508-1.4883 3.707-2.2344 6.4688-2.2344z"/>
  </symbol>
  <symbol id="q" overflow="visible">
   <path d="m17.234-13.297c0.64453-0.98828 1.4102-1.7422 2.2969-2.2656 0.89453-0.51953 1.875-0.78125 2.9375-0.78125 1.832 0 3.2266 0.57031 4.1875 1.7031 0.95703 1.125 1.4375 2.7656 1.4375 4.9219v9.7188h-5.125v-8.3125-0.39062c0.007812-0.13281 0.015625-0.32031 0.015625-0.5625 0-1.1328-0.16797-1.9531-0.5-2.4531-0.32422-0.50781-0.85938-0.76562-1.6094-0.76562-0.96875 0-1.7188 0.40234-2.25 1.2031-0.52344 0.79297-0.79297 1.9453-0.8125 3.4531v7.8281h-5.125v-8.3125c0-1.7695-0.15234-2.9062-0.45312-3.4062-0.30469-0.50781-0.84375-0.76562-1.625-0.76562-0.98047 0-1.7344 0.40234-2.2656 1.2031-0.53125 0.80469-0.79688 1.9492-0.79688 3.4375v7.8438h-5.125v-15.953h5.125v2.3281c0.625-0.89453 1.3438-1.5703 2.1562-2.0312 0.8125-0.45703 1.707-0.6875 2.6875-0.6875 1.1016 0 2.0781 0.26562 2.9219 0.79688s1.4844 1.2812 1.9219 2.25z"/>
  </symbol>
  <symbol id="p" overflow="visible">
   <path d="m18.484-9.7188v9.7188h-5.125v-7.4062c0-1.3945-0.03125-2.3516-0.09375-2.875-0.0625-0.51953-0.16797-0.90625-0.3125-1.1562-0.19922-0.33203-0.46875-0.58594-0.8125-0.76562-0.34375-0.1875-0.73438-0.28125-1.1719-0.28125-1.0625 0-1.9023 0.41406-2.5156 1.2344-0.60547 0.8125-0.90625 1.9492-0.90625 3.4062v7.8438h-5.0938v-22.156h5.0938v8.5312c0.76953-0.92578 1.5859-1.6094 2.4531-2.0469 0.86328-0.44531 1.8164-0.67188 2.8594-0.67188 1.8438 0 3.2383 0.57031 4.1875 1.7031 0.95703 1.125 1.4375 2.7656 1.4375 4.9219z"/>
  </symbol>
  <symbol id="o" overflow="visible">
   <path d="m2.6719-21.266h6.125l7.7344 14.578v-14.578h5.2031v21.266h-6.125l-7.7344-14.594v14.594h-5.2031z"/>
  </symbol>
  <symbol id="n" overflow="visible">
   <path d="m2.6719-21.266h9.1094c2.707 0 4.7852 0.60547 6.2344 1.8125 1.4453 1.1992 2.1719 2.9062 2.1719 5.125 0 2.2305-0.72656 3.9492-2.1719 5.1562-1.4492 1.1992-3.5273 1.7969-6.2344 1.7969h-3.625v7.375h-5.4844zm5.4844 3.9688v5.9375h3.0469c1.0625 0 1.8789-0.25391 2.4531-0.76562 0.58203-0.51953 0.875-1.2539 0.875-2.2031 0-0.94531-0.29297-1.6758-0.875-2.1875-0.57422-0.51953-1.3906-0.78125-2.4531-0.78125z"/>
  </symbol>
  <symbol id="m" overflow="visible">
   <path d="m15.344-15.453v4.1562c-0.69922-0.46875-1.3984-0.81641-2.0938-1.0469-0.69922-0.22656-1.4219-0.34375-2.1719-0.34375-1.4297 0-2.5391 0.41797-3.3281 1.25-0.79297 0.82422-1.1875 1.9805-1.1875 3.4688 0 1.5 0.39453 2.668 1.1875 3.5 0.78906 0.82422 1.8984 1.2344 3.3281 1.2344 0.80078 0 1.5547-0.11719 2.2656-0.35938 0.71875-0.23828 1.3828-0.58594 2-1.0469v4.1719c-0.80469 0.29297-1.6172 0.50781-2.4375 0.65625-0.8125 0.14453-1.6367 0.21875-2.4688 0.21875-2.875 0-5.125-0.73438-6.75-2.2031-1.625-1.4766-2.4375-3.5352-2.4375-6.1719 0-2.625 0.8125-4.6758 2.4375-6.1562 1.625-1.4766 3.875-2.2188 6.75-2.2188 0.83203 0 1.6562 0.078125 2.4688 0.23438 0.8125 0.14844 1.625 0.36719 2.4375 0.65625z"/>
  </symbol>
 </defs>
 <g>
  <path d="m351.29 268.33c-9.2148 0-10.91 11.668-10.91 11.668s-7.1758 27.242 10.91 31.676c16.566 4.1992 14.641-43.344 0-43.344z"/>
  <path d="m461.3 268.33c-8.5742 0-10.09 10.793-10.09 10.793s-6.6484 25.199 10.09 29.168c15.34 4.0234 13.59-39.961 0-39.961z"/>
  <path d="m425.83 349.01c-1.5859-1.5078-4.0508-1.5898-5.7344-0.1875-1.6797 1.3984-2.0508 3.8359-0.85547 5.6719 3.8789 4.7266 8.0273 9.2227 12.426 13.473 1.8477 1.1992 4.3008 0.81641 5.6914-0.89062 1.3945-1.707 1.2773-4.1875-0.26953-5.7578-3.9648-3.9023-7.7227-8.0117-11.258-12.309z"/>
  <path d="m450.68 349.18-9.5664 12.832c-0.82813 0.89844-1.2383 2.1094-1.125 3.3242 0.11328 1.2188 0.73828 2.332 1.7188 3.0625 0.98047 0.73047 2.2227 1.0117 3.4219 0.77344 1.1992-0.23828 2.2422-0.97656 2.8672-2.0273l9.5664-12.832c0.82812-0.89844 1.2383-2.1055 1.125-3.3242-0.11328-1.2188-0.73828-2.332-1.7188-3.0625-0.98047-0.73047-2.2227-1.0117-3.4219-0.77344s-2.2422 0.97656-2.8672 2.0273z"/>
  <path d="m403.14 442.57c0 5.8359-8.75 5.8359-8.75 0 0-5.832 8.75-5.832 8.75 0"/>
  <path d="m405.07 475.01c0 5.832-8.75 5.832-8.75 0 0-5.832 8.75-5.832 8.75 0"/>
  <path d="m513.33 282.33c-1.3789-3.0508-4.1719-5.2305-7.4648-5.832-2.5625-10.988-9.2461-20.57-18.668-26.773-3.5234-7.2578-8.3242-13.816-14.176-19.367-14.434-14.074-32.191-24.266-51.625-29.633 26.602-24.793 39.199-67.785 48.941-106.69 11.668-46.668 17.5-80.035 7-90.59v-0.003906c-3.1719-3.1758-7.8242-4.3633-12.133-3.0898-25.258 5.832-68.25 83.184-78.574 108.96-10.91 27.184-14.352 76.125-14.992 87.207-14.055 1.5-27.812 5.0547-40.832 10.559-2.0469-31.059-12.402-60.996-29.984-86.684-7.2344-10.207-13.824-21.23-20.824-32.898-19.074-31.852-38.793-64.809-74.141-81.668-3.9688-2.0391-8.6992-1.9336-12.57 0.27734-3.875 2.2148-6.3672 6.2383-6.6211 10.691-1.5078 24.895-1.2344 49.867 0.81641 74.723 3.207 32.023 26.543 58.332 51.215 85.809 7.0586 7.875 14.352 16.043 21.117 24.324 17.5 21.293 13.883 42.992 9.8008 68.074v0.003906c-3.3594 15.848-4.2852 32.113-2.7422 48.242 3.3828 24.617 21 48.066 48.242 64.168 3.3242 1.9844 7.0586 4.0234 11.141 5.832-12.191 5.0156-39.957 21.523-52.09 70.582-9.8594 39.84-8.457 52.965-7.4102 64.516 1.6328 17.91 56.992 32.492 105.99 27.707v0.003906c3.332 0.74609 6.7344 1.1367 10.148 1.1641 7.5391 0.29688 14.898-2.3359 20.535-7.3477 2.1055-2.0469 3.7891-4.4844 4.957-7.1758 1.6992 3.3438 3.8164 6.4609 6.3008 9.2734 7.8945 8.8047 19.273 13.672 31.094 13.301h0.41016-0.003906c11.297 0.45703 22.25-3.9375 30.102-12.074 15.75-16.684 14.758-44.684 14.582-47.773v-0.003906c-0.11719-4.0312-2.1016-7.7812-5.3672-10.148-2.1484-1.9297-4.5664-3.5391-7.1758-4.7852-1.8281-17.445-5.3438-34.676-10.5-51.449-2.7031-11.082-7.7344-21.461-14.758-30.449 15.887-3.832 30.047-12.84 40.25-25.609 8.7031-12.938 11.203-29.074 6.8242-44.039-0.99219-4.3164-1.8086-8.3398-2.5664-12.191 2.543-3.3438 4.625-7.0117 6.1836-10.91v92.227c0 2.3828 1.9336 4.3164 4.3164 4.3164 2.3867 0 4.3164-1.9336 4.3164-4.3164v-112.82c1.5195-2.25 1.8672-5.0938 0.93359-7.6445zm-29.168 0.41016h0.003907c0.51953 12.18 1.7852 24.316 3.7891 36.34-4.4922 4.9297-10.828 7.7812-17.5 7.875-15.457 0-28.059-16.449-28.059-36.691s12.602-36.633 28.059-36.633c3.3164 0.015626 6.5859 0.77344 9.5664 2.2188 2.9219 8.668 4.4766 17.742 4.6094 26.891zm-38.613-255.38c8.3398-10.148 16.043-17.5 21.758-18.551 2.8008-0.64062 3.6758 0.29297 4.082 0.69922 9.1016 9.2734-4.668 64.168-9.2148 82.484-6.6484 26.66-14.699 55.242-27.648 77.934 2.4492-11.668 1.3398-24.676-5.832-31.383-9.5078-8.5156-2.625-53.199 2.1602-78.516l-0.003907-0.003906c4.2422-11.172 9.1523-22.078 14.699-32.664zm-50.75 85.223c8.2891-19.238 18.16-37.754 29.516-55.355-16.637 44.562-25.785 91.574-27.066 139.12-5.5664-0.48828-11.156-0.625-16.742-0.41016 0.75781-12.484 4.4922-58.508 14.293-83.359zm2.8594 426.3c-5.0742 4.8984-13.824 6.1836-24.09 3.6758-2.1016-9.1602-3.7344-23.332 3.6758-31.035 3.4414 0 21.641 0 24.266 11.668h-0.003907c0.81641 2.7109 0.89063 5.5938 0.21484 8.3438-0.67578 2.75-2.082 5.2695-4.0625 7.2891zm72.332 3.1484v0.003906c-6.6484 6.1367-15.395 9.4922-24.441 9.3867-9.0469-0.10938-17.711-3.6758-24.211-9.9727-7.1484-9.0508-11.234-20.145-11.664-31.676 12.551 3.2188 25.484 4.7109 38.441 4.4336 11.375 0.42578 22.734-1.0938 33.598-4.4922-0.31641 11.73-4.4062 23.043-11.664 32.262zm0.58203-50.691c3.3594 0.97266 6.4648 2.6641 9.1016 4.9609 2.1016 1.9258 2.5664 3.0898 2.5664 3.3242s-0.75781 1.5156-5.832 3.0352c-2.3945 0.67969-4.832 1.2031-7.293 1.5742-15.75-9.5664-36.34-4.2578-46.668-0.35156-3.7656-0.29687-7.4414-1.2852-10.848-2.918-0.57422-0.41016-1.0859-0.90234-1.5195-1.457v-1.6328c1.8828-2.0664 4.2188-3.6641 6.8281-4.668 17.164-6.6523 36.078-7.3086 53.664-1.8672zm-19.656-12.133c-12.777-0.78125-25.574 1.207-37.508 5.8359-4.7812 1.7695-8.8672 5.0195-11.668 9.2734-0.46875 0.93359-0.78516 1.9414-0.93359 2.9766-0.22656 1.1523-0.22656 2.3438 0 3.5v7.6406c-7.6484-4.375-16.41-6.4023-25.199-5.832-0.76172 0.074219-1.4883 0.35547-2.1016 0.81641-13.902-4.5586-28.418-6.9766-43.051-7.1758l8.0508-23.332s-9.0977-53.203-6.5898-82.078c3.6758 1.6328 7.6406 3.1484 11.668 4.668-0.69922 10.852-2.2148 44.859 7.1758 42.41 11.199-2.8594 38.676-22.809 38.676-22.809h16.102s18.023 18.082 28.465 18.551c8.0508 0.35156 5.832-18.84 4.7852-27.535 0.81641 0 3.3242-0.41016 6.9414-1.168h-0.003907c7.8125 23.949 9.5938 49.457 5.1914 74.258zm35.406-106.46c-14.875 21.059-48.125 24.965-48.301 25.023-97.238 6.9414-156.27-36.516-162.4-80.906-1.3867-15.297-0.46484-30.715 2.7422-45.734 4.0234-24.91 8.2266-50.633-11.668-74.898-6.8828-8.457-14.234-16.684-21.352-24.617-23.742-26.602-46.141-51.684-49.059-80.965l0.003907-0.003906c-2.0039-24.332-2.2773-48.777-0.81641-73.148 0.035157-0.50391 0.15234-0.99609 0.34766-1.457 4.1992 7.4648 12.832 23.332 20.535 40.367 1.0508 17.793 4.1992 56.176 12.074 65.742 8.6328 10.559 54.66 93.859 71.109 106.17v-0.003906c0.52344 0.85156 1.3984 1.4297 2.3906 1.5742h1.3984c1.2109-0.41797 2.0859-1.4766 2.2773-2.7422 1.1562-12 0.39062-24.113-2.2773-35.875v-0.75781c-0.3125-1.4766-0.66016-2.957-1.0508-4.4336 0-1.168-0.58203-2.332-0.875-3.4414-6.5898-25.199-18.957-51.742-35.465-61.66-20.359-12.191-27.301-29.574-35.293-49.699-1.75-4.3164-3.5-8.75-5.4844-13.301-7.875-18.199-17.5-35.699-22.227-44.391 32.785 16.043 51.801 47.715 70 78.34 6.7656 11.258 13.766 22.984 21.234 33.484l0.003906 0.003907c17.629 26.109 27.555 56.656 28.641 88.141 0.042969 1.3906 0.75391 2.6797 1.9141 3.4531 1.1562 0.77734 2.6172 0.94531 3.918 0.45312 56.234-26.25 110.07-9.332 138.43 19.016v0.003906c2.7539 2.6445 5.3086 5.4922 7.6406 8.5156-1.2227-0.074219-2.4492-0.074219-3.6719 0-20.242 0-36.691 20.301-36.691 45.266s16.449 45.266 36.691 45.266v0.003906c6.8828-0.10547 13.539-2.4609 18.957-6.7109 0.46484 2.2148 0.93359 4.4922 1.5156 6.8242 3.8359 12.527 1.9375 26.109-5.1914 37.102zm9.1602-64.168c-1.3398-10.207-1.8672-18.668-2.2734-26.074-0.35156-5.832-0.64063-11.668-1.3984-16.566h-0.003906c4.8555 7.2617 7.3984 15.824 7.293 24.559 0.011719 6.1328-1.2188 12.207-3.6172 17.852z"/>
  <use x="185.964844" y="647.5" xlink:href="#v"/>
  <use x="207.371094" y="647.5" xlink:href="#b"/>
  <use x="221.753906" y="647.5" xlink:href="#a"/>
  <use x="241.539062" y="647.5" xlink:href="#e"/>
  <use x="261.21875" y="647.5" xlink:href="#c"/>
  <use x="275.160156" y="647.5" xlink:href="#a"/>
  <use x="294.941406" y="647.5" xlink:href="#l"/>
  <use x="325.976562" y="647.5" xlink:href="#k"/>
  <use x="346.851562" y="647.5" xlink:href="#j"/>
  <use x="376.019531" y="647.5" xlink:href="#i"/>
  <use x="396.898438" y="647.5" xlink:href="#e"/>
  <use x="416.578125" y="647.5" xlink:href="#b"/>
  <use x="430.964844" y="647.5" xlink:href="#u"/>
  <use x="450.359375" y="647.5" xlink:href="#h"/>
  <use x="460.359375" y="647.5" xlink:href="#t"/>
  <use x="470.355469" y="647.5" xlink:href="#s"/>
  <use x="487.714844" y="647.5" xlink:href="#g"/>
  <use x="508.480469" y="647.5" xlink:href="#f"/>
  <use x="185.964844" y="676.667969" xlink:href="#r"/>
  <use x="198.65625" y="676.667969" xlink:href="#b"/>
  <use x="213.039062" y="676.667969" xlink:href="#d"/>
  <use x="233.078125" y="676.667969" xlink:href="#q"/>
  <use x="273.625" y="676.667969" xlink:href="#c"/>
  <use x="287.566406" y="676.667969" xlink:href="#p"/>
  <use x="308.328125" y="676.667969" xlink:href="#a"/>
  <use x="338.265625" y="676.667969" xlink:href="#o"/>
  <use x="362.675781" y="676.667969" xlink:href="#d"/>
  <use x="382.714844" y="676.667969" xlink:href="#g"/>
  <use x="403.476562" y="676.667969" xlink:href="#f"/>
  <use x="434.394531" y="676.667969" xlink:href="#n"/>
  <use x="455.773438" y="676.667969" xlink:href="#b"/>
  <use x="470.15625" y="676.667969" xlink:href="#d"/>
  <use x="490.195312" y="676.667969" xlink:href="#h"/>
  <use x="500.191406" y="676.667969" xlink:href="#a"/>
  <use x="519.972656" y="676.667969" xlink:href="#m"/>
  <use x="537.261719" y="676.667969" xlink:href="#c"/>
 </g>
</svg>
