<?xml version="1.0" encoding="UTF-8"?>
<svg width="700pt" height="700pt" version="1.1" viewBox="0 0 700 700" xmlns="http://www.w3.org/2000/svg">
 <path d="m297.5 105v175c0 4.6406-1.8438 9.0938-5.125 12.375s-7.7344 5.125-12.375 5.125h-175c-4.6406 0-9.0938-1.8438-12.375-5.125s-5.125-7.7344-5.125-12.375v-175c0-4.6406 1.8438-9.0938 5.125-12.375s7.7344-5.125 12.375-5.125h175c4.6406 0 9.0938 1.8438 12.375 5.125s5.125 7.7344 5.125 12.375zm311.12 40.129-123.75-123.75c-3.2812-3.2812-7.7305-5.125-12.371-5.125s-9.0938 1.8438-12.375 5.125l-123.75 123.75c-3.2812 3.2812-5.125 7.7305-5.125 12.371s1.8438 9.0938 5.125 12.375l123.75 123.75c3.2812 3.2812 7.7305 5.125 12.371 5.125s9.0938-1.8438 12.375-5.125l123.75-123.75c3.2812-3.2812 5.125-7.7305 5.125-12.371s-1.8438-9.0898-5.125-12.371zm-328.62 187.37h-175c-4.6406 0-9.0938 1.8438-12.375 5.125s-5.125 7.7344-5.125 12.375v175c0 4.6406 1.8438 9.0938 5.125 12.375s7.7344 5.125 12.375 5.125h175c4.6406 0 9.0938-1.8438 12.375-5.125s5.125-7.7344 5.125-12.375v-175c0-4.6406-1.8438-9.0938-5.125-12.375s-7.7344-5.125-12.375-5.125zm245 0h-175c-4.6406 0-9.0938 1.8438-12.375 5.125s-5.125 7.7344-5.125 12.375v175c0 4.6406 1.8438 9.0938 5.125 12.375s7.7344 5.125 12.375 5.125h175c4.6406 0 9.0938-1.8438 12.375-5.125s5.125-7.7344 5.125-12.375v-175c0-4.6406-1.8438-9.0938-5.125-12.375s-7.7344-5.125-12.375-5.125z"/>
</svg>
