<?xml version="1.0" encoding="UTF-8"?>
<svg width="700pt" height="700pt" version="1.1" viewBox="0 0 700 700" xmlns="http://www.w3.org/2000/svg" xmlns:xlink="http://www.w3.org/1999/xlink">
 <defs>
  <symbol id="f" overflow="visible">
   <path d="m28.422-1.7031c-1.4688 0.76172-3 1.3359-4.5938 1.7188-1.5859 0.38281-3.2344 0.57812-4.9531 0.57812-5.1562 0-9.2422-1.4375-12.25-4.3125-3.0117-2.875-4.5156-6.7812-4.5156-11.719s1.5039-8.8438 4.5156-11.719c3.0078-2.8828 7.0938-4.3281 12.25-4.3281 1.7188 0 3.3672 0.19531 4.9531 0.57812 1.5938 0.38672 3.125 0.96094 4.5938 1.7188v6.4062c-1.4805-1.0078-2.9375-1.75-4.375-2.2188s-2.9492-0.70312-4.5312-0.70312c-2.8438 0-5.0859 0.91406-6.7188 2.7344-1.625 1.8242-2.4375 4.3359-2.4375 7.5312 0 3.1992 0.8125 5.7109 2.4375 7.5312 1.6328 1.8242 3.875 2.7344 6.7188 2.7344 1.582 0 3.0938-0.23438 4.5312-0.70312 1.4375-0.47656 2.8945-1.2188 4.375-2.2188z"/>
  </symbol>
  <symbol id="d" overflow="visible">
   <path d="m20.797-16.875c-0.64844-0.3125-1.293-0.53516-1.9375-0.67188-0.64844-0.14453-1.293-0.21875-1.9375-0.21875-1.9062 0-3.375 0.60938-4.4062 1.8281-1.0234 1.2188-1.5312 2.9688-1.5312 5.25v10.688h-7.4219v-23.203h7.4219v3.8125c0.94531-1.5195 2.0352-2.6289 3.2656-3.3281 1.2383-0.69531 2.7227-1.0469 4.4531-1.0469 0.25 0 0.51953 0.011719 0.8125 0.03125 0.28906 0.023437 0.71094 0.070313 1.2656 0.14062z"/>
  </symbol>
  <symbol id="b" overflow="visible">
   <path d="m26.719-11.656v2.1094h-17.328c0.17578 1.7422 0.80078 3.0469 1.875 3.9219 1.082 0.86719 2.5859 1.2969 4.5156 1.2969 1.5625 0 3.1602-0.22656 4.7969-0.6875 1.6328-0.46875 3.3164-1.1719 5.0469-2.1094v5.7188c-1.75 0.65625-3.5078 1.1523-5.2656 1.4844-1.75 0.34375-3.5078 0.51562-5.2656 0.51562-4.1992 0-7.4609-1.0625-9.7812-3.1875-2.3242-2.1328-3.4844-5.1289-3.4844-8.9844 0-3.7812 1.1406-6.7539 3.4219-8.9219 2.2812-2.1758 5.4258-3.2656 9.4375-3.2656 3.6445 0 6.5625 1.1016 8.75 3.2969 2.1875 2.1992 3.2812 5.1367 3.2812 8.8125zm-7.625-2.4688c0-1.4062-0.41406-2.5391-1.2344-3.4062-0.8125-0.86328-1.8867-1.2969-3.2188-1.2969-1.4375 0-2.6055 0.40625-3.5 1.2188-0.89844 0.80469-1.4531 1.9648-1.6719 3.4844z"/>
  </symbol>
  <symbol id="c" overflow="visible">
   <path d="m13.969-10.438c-1.5547 0-2.7188 0.26562-3.5 0.79688-0.78125 0.52344-1.1719 1.293-1.1719 2.3125 0 0.9375 0.3125 1.6719 0.9375 2.2031 0.63281 0.53125 1.5078 0.79688 2.625 0.79688 1.3945 0 2.5664-0.5 3.5156-1.5 0.95703-1 1.4375-2.2539 1.4375-3.7656v-0.84375zm11.328-2.7969v13.234h-7.4844v-3.4375c-0.99219 1.4062-2.1094 2.4336-3.3594 3.0781-1.2422 0.63281-2.75 0.95312-4.5312 0.95312-2.4062 0-4.3594-0.69531-5.8594-2.0938-1.4922-1.4062-2.2344-3.2227-2.2344-5.4531 0-2.7266 0.92969-4.7266 2.7969-6 1.875-1.2695 4.8125-1.9062 8.8125-1.9062h4.375v-0.57812c0-1.1641-0.46484-2.0195-1.3906-2.5625-0.92969-0.55078-2.3711-0.82812-4.3281-0.82812-1.5859 0-3.0625 0.16406-4.4375 0.48438-1.3672 0.3125-2.6328 0.78906-3.7969 1.4219v-5.6562c1.582-0.38281 3.1758-0.67578 4.7812-0.875 1.6016-0.20703 3.2031-0.3125 4.7969-0.3125 4.1875 0 7.207 0.82812 9.0625 2.4844 1.8633 1.6484 2.7969 4.3281 2.7969 8.0469z"/>
  </symbol>
  <symbol id="a" overflow="visible">
   <path d="m11.656-29.781v6.5781h7.6562v5.3125h-7.6562v9.8281c0 1.0859 0.21094 1.8203 0.64062 2.2031 0.4375 0.375 1.2891 0.5625 2.5625 0.5625h3.7969v5.2969h-6.3594c-2.9297 0-5-0.60938-6.2188-1.8281-1.2188-1.2266-1.8281-3.3047-1.8281-6.2344v-9.8281h-3.6875v-5.3125h3.6875v-6.5781z"/>
  </symbol>
  <symbol id="j" overflow="visible">
   <path d="m19.344-19.797v-12.438h7.4531v32.234h-7.4531v-3.3594c-1.0234 1.3672-2.1484 2.3672-3.375 3-1.2305 0.63281-2.6523 0.95312-4.2656 0.95312-2.8555 0-5.2031-1.1328-7.0469-3.4062-1.8359-2.2695-2.75-5.1914-2.75-8.7656 0-3.5703 0.91406-6.4922 2.75-8.7656 1.8438-2.2812 4.1914-3.4219 7.0469-3.4219 1.6016 0 3.0195 0.32422 4.25 0.96875 1.2383 0.64844 2.3672 1.6484 3.3906 3zm-4.8906 15.016c1.5938 0 2.8047-0.57812 3.6406-1.7344 0.83203-1.1641 1.25-2.8516 1.25-5.0625 0-2.207-0.41797-3.8906-1.25-5.0469-0.83594-1.1641-2.0469-1.75-3.6406-1.75-1.5742 0-2.7773 0.58594-3.6094 1.75-0.83594 1.1562-1.25 2.8398-1.25 5.0469 0 2.2109 0.41406 3.8984 1.25 5.0625 0.83203 1.1562 2.0352 1.7344 3.6094 1.7344z"/>
  </symbol>
  <symbol id="i" overflow="visible">
   <path d="m15.906-4.7812c1.5938 0 2.8047-0.57812 3.6406-1.7344 0.83203-1.1641 1.25-2.8516 1.25-5.0625 0-2.207-0.41797-3.8906-1.25-5.0469-0.83594-1.1641-2.0469-1.75-3.6406-1.75-1.5859 0-2.8047 0.58594-3.6562 1.75-0.84375 1.168-1.2656 2.8516-1.2656 5.0469 0 2.1992 0.42188 3.8828 1.2656 5.0469 0.85156 1.168 2.0703 1.75 3.6562 1.75zm-4.9219-15.016c1.0195-1.3516 2.1484-2.3516 3.3906-3 1.2383-0.64453 2.6641-0.96875 4.2812-0.96875 2.8633 0 5.2109 1.1406 7.0469 3.4219 1.832 2.2734 2.75 5.1953 2.75 8.7656 0 3.5742-0.91797 6.4961-2.75 8.7656-1.8359 2.2734-4.1836 3.4062-7.0469 3.4062-1.6172 0-3.043-0.32031-4.2812-0.95312-1.2422-0.64453-2.3711-1.6445-3.3906-3v3.3594h-7.4219v-32.234h7.4219z"/>
  </symbol>
  <symbol id="h" overflow="visible">
   <path d="m0.51562-23.203h7.4219l6.2344 15.75 5.2969-15.75h7.4219l-9.7656 25.406c-0.98047 2.5703-2.1211 4.375-3.4219 5.4062-1.3047 1.0312-3.0273 1.5469-5.1719 1.5469h-4.2812v-4.875h2.3125c1.2578 0 2.1758-0.19922 2.75-0.59375 0.57031-0.39844 1.0156-1.1172 1.3281-2.1562l0.21875-0.64062z"/>
  </symbol>
  <symbol id="g" overflow="visible">
   <path d="m3.5625-23.203h7.4219v23.203h-7.4219zm0-9.0312h7.4219v6.0469h-7.4219z"/>
  </symbol>
  <symbol id="q" overflow="visible">
   <path d="m0.64062-23.203h7.4219l5.7812 16.031 5.75-16.031h7.4375l-9.1406 23.203h-8.1406z"/>
  </symbol>
  <symbol id="p" overflow="visible">
   <path d="m25.422-29.953v6.5469c-1.6992-0.75781-3.3594-1.332-4.9844-1.7188-1.6172-0.38281-3.1406-0.57812-4.5781-0.57812-1.8984 0-3.3047 0.26562-4.2188 0.79688-0.90625 0.52344-1.3594 1.3359-1.3594 2.4375 0 0.82422 0.30469 1.4688 0.92188 1.9375 0.61328 0.46094 1.7266 0.85547 3.3438 1.1875l3.3906 0.6875c3.4375 0.6875 5.8789 1.7344 7.3281 3.1406 1.457 1.4062 2.1875 3.4141 2.1875 6.0156 0 3.4062-1.0156 5.9453-3.0469 7.6094-2.0234 1.6562-5.1094 2.4844-9.2656 2.4844-1.9609 0-3.9297-0.1875-5.9062-0.5625-1.9688-0.36328-3.9453-0.91016-5.9219-1.6406v-6.7344c1.9766 1.0547 3.8906 1.8438 5.7344 2.375s3.6172 0.79688 5.3281 0.79688c1.7383 0 3.0703-0.28906 4-0.875 0.92578-0.58203 1.3906-1.4102 1.3906-2.4844 0-0.96875-0.32031-1.7109-0.95312-2.2344-0.625-0.53125-1.875-1.0039-3.75-1.4219l-3.0938-0.67188c-3.0938-0.66406-5.3555-1.7227-6.7812-3.1719-1.4297-1.4453-2.1406-3.3984-2.1406-5.8594 0-3.082 0.99219-5.4531 2.9844-7.1094 1.9883-1.6562 4.8477-2.4844 8.5781-2.4844 1.6953 0 3.4414 0.13281 5.2344 0.39062 1.7891 0.25 3.6484 0.63281 5.5781 1.1406z"/>
  </symbol>
  <symbol id="e" overflow="visible">
   <path d="m3.5625-32.234h7.4219v32.234h-7.4219z"/>
  </symbol>
  <symbol id="o" overflow="visible">
   <path d="m18.828-32.234v4.875h-4.0938c-1.0547 0-1.7891 0.19531-2.2031 0.57812-0.41797 0.375-0.625 1.0312-0.625 1.9688v1.6094h6.3438v5.3125h-6.3438v17.891h-7.4062v-17.891h-3.6875v-5.3125h3.6875v-1.6094c0-2.5312 0.70312-4.3984 2.1094-5.6094 1.4062-1.207 3.5859-1.8125 6.5469-1.8125z"/>
  </symbol>
  <symbol id="n" overflow="visible">
   <path d="m26.891-14.125v14.125h-7.4688v-10.766c0-2.0312-0.046875-3.4258-0.14062-4.1875-0.085938-0.75781-0.23438-1.3203-0.45312-1.6875-0.29297-0.47656-0.6875-0.85156-1.1875-1.125-0.49219-0.26953-1.0547-0.40625-1.6875-0.40625-1.5547 0-2.7734 0.60156-3.6562 1.7969-0.875 1.1992-1.3125 2.8555-1.3125 4.9688v11.406h-7.4219v-32.234h7.4219v12.438c1.1133-1.3516 2.2969-2.3516 3.5469-3 1.2578-0.64453 2.6484-0.96875 4.1719-0.96875 2.6758 0 4.707 0.82422 6.0938 2.4688 1.3945 1.6484 2.0938 4.0391 2.0938 7.1719z"/>
  </symbol>
  <symbol id="m" overflow="visible">
   <path d="m3.8906-30.922h8.9062l11.25 21.203v-21.203h7.5625v30.922h-8.9062l-11.25-21.219v21.219h-7.5625z"/>
  </symbol>
  <symbol id="l" overflow="visible">
   <path d="m3.8906-30.922h13.234c3.9375 0 6.957 0.875 9.0625 2.625 2.1016 1.7422 3.1562 4.2266 3.1562 7.4531 0 3.25-1.0547 5.75-3.1562 7.5-2.1055 1.7422-5.125 2.6094-9.0625 2.6094h-5.25v10.734h-7.9844zm7.9844 5.7812v8.625h4.4062c1.5391 0 2.7344-0.375 3.5781-1.125s1.2656-1.8164 1.2656-3.2031c0-1.375-0.42188-2.4297-1.2656-3.1719-0.84375-0.75-2.0391-1.125-3.5781-1.125z"/>
  </symbol>
  <symbol id="k" overflow="visible">
   <path d="m3.5625-23.203h7.4219v22.781c0 3.1133-0.75 5.4883-2.25 7.125-1.4922 1.6328-3.6523 2.4531-6.4844 2.4531h-3.6562v-4.875h1.2812c1.4062 0 2.3672-0.32031 2.8906-0.95312 0.53125-0.63672 0.79688-1.8867 0.79688-3.75zm0-9.0312h7.4219v6.0469h-7.4219z"/>
  </symbol>
 </defs>
 <g>
  <path d="m506.22 420.55c23.809-7.3984 34.535-25.523 36.418-68.684 1.7734-40.191-14.129-43-29.113-45.48 37.52-2.1484 56.109-16.395 58.57-72.512 2.0352-46.488-16.504-45.945-65.91-49.305 23.824-7.3906 34.566-25.516 36.449-68.691 0.67188-15.23-0.3125-31.988-12.676-40.785-24.469-17.41-333.64-11.395-336.74-11.309-50.594 1.5195-68.016 17.48-68.992 63.254-1.4609 68.133 34.516 61.117 59.336 61.047-44.445 18.156-33.047 102.39-10.895 113.27-13.934 1.9688-27.262 6.4219-36.383 17.352-16.035 19.227-15.707 69.609-3.0469 89.785 7.2188 11.523 9.4609 15.043 49.508 15.977-38.223 16.344-33.066 80.98-19.516 102.9 12.746 20.668 8.3594 14.457 337.69 15.359 45.777 0 68.438-10.379 71.172-72.859 2.043-46.516-16.539-45.965-65.871-49.316zm52.59 82.922-0.90625-0.90625 1.5859-1.5859c-0.22266 0.83203-0.44141 1.6875-0.67969 2.4922zm-0.042969-43.848-2.3164 2.3164c-0.91797-0.91797-4.3281-4.5312-5.4219-4.9883 1.0938-0.45703 3.2148-2.7812 4.1328-3.6992 1.0078 1.0078 3.3359 3.7656 4.6406 3.7656 1.875 0 2.832-2.2812 1.5-3.6211l-3.1406-3.1406 3.5391-3.5391c2.0977 6.6172 2.2578 14.695 1.9336 22.41l-4.1836-4.1836 2.3164-2.3164c1.9727-1.9766-1.0156-5-3-3.0039zm4.668 12.812c-0.28906 5.3359-0.70312 10.301-1.2891 14.789l-12.488-12.488 6.7891-6.7969c1.8125 1.8047 4.875 5.9102 6.9883 4.4961zm-183.33-58.25 1.8242 1.832c-1.2227 0-2.4336-0.007812-3.6484-0.007812zm20.379-3.6562 4.582 4.582-1.0195 1.0195c-2.9609-0.035156-6-0.050781-9.0859-0.066406zm41.645-9.75c0.19531 1.2891 5.3867 6.0938 6.3125 7.0156l-8.9023 8.9023c-2.793-0.050781-7.3828-0.12891-10.344-0.17969l-1.4102-1.4102zm32.691 7.0156 9.8008-9.8008 7.457 7.457-3.9883 3.9883c-1.3398 1.3398-0.375 3.6211 1.5 3.6211 1.3477 0 4.5039-3.6328 5.4805-4.6055l5.0391 5.0391c-9.0625 2.2812-20.348 3.1719-34.34 3.3594l6.0508-6.0508c2.1875 2.1875 4.8789 6.043 6.957 3.9609 2.0859-2.0898-1.7695-4.7773-3.957-6.9688zm19.348-19.344c0.60938 1.0273 6.4727 6.7461 7.3125 7.5859l-6.4062 6.4062-7.4492-7.4492zm10.18 23.91c-0.25391-1.2656-5.3359-5.9805-6.2695-6.9141l6.4062-6.4062 8.9922 8.9922c-2.7383 1.707-5.7109 3.1992-9.1289 4.3281zm-42.723 2.6211-7.1875-7.1875 7.1953-7.1953 7.1875 7.1875zm-4.0703 1.918c-3.8359-0.007813-7.8984-0.050782-12.109-0.10938l6-6zm-97.535-0.91406 1.9531-1.9531c-0.39062 0.62109-0.39844 1.2969-0.085937 1.9531h-1.8672zm157-10.414-9.5352-9.5352 10.59-10.59c1.1367 1.1445 6.9141 7.5078 8.4922 7.3633-2.4688 5.2812-5.582 9.5117-9.5469 12.762zm17.285-59.129c-1.1211 0.41406-4.8633 4.3867-5.7852 5.3125l-3.793-3.793 9.3086-9.3086c0.19922 2.5469 0.29297 5.1602 0.26953 7.7891zm-0.1875 5.7109c-0.078125 1.7227-0.21094 3.25-0.32422 4.8789l-2.2812-2.2812zm-0.64453 9.8398c-0.23828 2.8086-0.57031 5.3867-0.89844 7.918l-8.1016-8.1016 4.0547-4.0547c0.95703 0.96484 3.707 4.0547 4.9453 4.2383zm-193.01-63.703c-1.3086 0-2.7148 0.007812-3.9961 0.007812l2.4766-2.4766c-0.027343 1.1523 0.70313 1.6445 1.5195 2.4688zm18.375-3.8164 3.7578 3.7578c-2.4961 0.007813-5.1094 0.007813-7.5352 0.015625zm57.742-5.3789c0.67969 0.76172 8.2812 8.3398 9.0039 9.0625-5.3359 0-10.488 0-15.594 0.007813l-1.2383-1.2383zm81.191-13.34 8.8164 8.8164-7.2188 7.2188-8.8164-8.8242zm62.871-29.672c1.875 0 2.832-2.2812 1.5-3.6211l-1.9414-1.9414 3.1836-3.1719c-0.52734 8.9844-1.4336 16.766-2.8438 23.359l-10.258-10.258 6.9219-6.9219c0.96094 0.95312 2.1836 2.5547 3.4375 2.5547zm3.1133-18.359-5.1602-5.1602 4.625-4.625c0.39844 3.1562 0.54297 6.457 0.53516 9.7852zm-4.2578 37.266c-1.332 5.0078-2.9609 9.375-4.9961 13.031l-7.5078-7.5078 8.6797-8.6797c0.94531 0.95703 2.6016 2.9336 3.8242 3.1562zm-7.1875 16.391c-1.7656 2.5195-3.7773 4.6758-6.0156 6.5352l-8.3477-8.3477 6.0508-6.0508c0.87109 0.87109 7.1602 7.4062 8.3125 7.8633zm-17.375-4.8203-7.168-7.168 6.0508-6.0508 7.168 7.168zm-2.9961 3.0039c-2.3516 2.3516-7.0938 5.7109-4.9023 7.8984 2.1992 2.1992 5.5508-2.5547 7.8984-4.9023l7.875 7.875c-4.9648 3.1133-10.938 5.1094-18.082 6.2773l-12.141-12.141 12.184-12.184zm-12.508 17.852c-4.293 0.45703-8.9609 0.69531-14.016 0.77344-0.50781-1.0195-2.1992-2.5469-3.0469-3.3945l7.2188-7.2188zm-22.883-2.4414c-0.89062 1.7461 0.53516 3.7266 2.6562 2.6562l0.62109 0.62109c-6.9648-0.015625-13.652-0.035156-20.312-0.042968l-2.0859-2.0859 10.141-10.141zm-26.762 3.2148c-5.8711-0.007812-11.539-0.015625-17.172-0.015625l-1.0781-1.0781 10.43-10.43 9.4531 9.4531c-0.9375 0.93359-1.2344 1.0781-1.6328 2.0703zm-25.328-0.023437h-11.531l6.8398-6.8398 5.7695 5.7695zm-99.621-119.29 1.043 1.043c-0.69531 0-1.3828 0-2.0781-0.007813zm18.5-2.1484c0.64453 0.94922 2.2227 2.4336 3.0391 3.25-2.0859-0.007813-4.1758-0.007813-6.2695-0.015625zm16.824-0.47656 3.7734 3.7773c-2.4961-0.007812-5.0156-0.015625-7.5273-0.027344zm21.023-1.168 5.0898 5.0898c-3.2852-0.042969-6.6445-0.066406-10.078-0.09375zm21.309-2.6328 7.8047 7.8047-0.28906 0.28906c-0.34766-0.007813-8.7891-0.16016-15.34-0.26172zm35.32-13.719 8.6797 8.6797-9.2656 9.2656-8.6719-8.6797zm20.832 14.832-6.1523-6.1523 10.727-10.727 11.012 11.012-12.523 12.531c-6.7383 0.48438-14.262 0.67969-22.715 0.67969l10.504-10.504 6.1523 6.1523c0.83203 0.83203 2.1719 0.83203 3.0039 0 0.82422-0.82031 0.82422-2.1602-0.007812-2.9922zm15.086-27.391 11.012 11.012-7.5078 7.5078-11.012-11.012zm3.5039 24.531 5.9805 5.9805c-4.3945 1.3477-9.3242 2.3242-14.934 2.9688zm-43 8.9688-1.2148 1.2148c-5.1172-0.042969-10.57-0.11719-16.316-0.21875l-0.40625-0.40625 9.2656-9.2656zm53.352-4.6094-7.3555-7.3555 7.5078-7.5078c1.0703 1.0703 6.5859 7.0664 7.9492 7.0664 1.875 0 2.832-2.2812 1.5-3.6211l-6.4492-6.4492 8.6797-8.6797c1.3164 1.3164 6.1836 6.9336 8 6.543-4.1523 9.9688-10.543 16.18-19.832 20.004zm-374.87-47.844c0.78906-36.766 9.75-53.422 60.77-54.957 60.344-1.8242 313.52-3.0977 331.55 9.7305 6.7031 4.7695 8.7812 13.754 9.1875 23.352l-8.9258-8.9336c-1.9688-1.9688-4.9883 1.0078-3.0039 3.0039 0.98438 0.98438 10.613 11.133 12.008 11.141-0.058594 5.3945-0.19531 5.3281-0.375 8.5l-10.973-10.973c-1.9688-1.9688-4.9883 1.0078-3.0039 3.0039 0.89844 0.89844 12.395 12.727 13.637 13.051-0.3125 4.0898-0.72266 7.9258-1.2305 11.453l-12.32-12.32c-1.9688-1.9688-4.9883 1.0078-3.0039 3.0039 0.88281 0.88281 13.355 13.609 14.516 14.059-0.78906 4.2422-1.7734 8.0703-2.9531 11.48-0.050781-0.066406-0.035156-0.16016-0.09375-0.21875l-16.641-16.641c-0.83203-0.83203-2.1719-0.83203-3.0039 0s-0.83203 2.1719 0 3.0039l7.5508 7.5508-8.6797 8.6797-11.012-11.012 6.6523-6.6523c1.9688-1.9688-1.0078-4.9883-3.0039-3.0039l-17.164 17.164c-2.3164-2.3164-5.4805-6.7812-7.6289-4.6328-2.1484 2.1484 2.3086 5.3125 4.6328 7.6289l-10.727 10.727-8.6797-8.6797 5.9062-5.9062c1.9688-1.9688-1.0078-4.9883-3.0039-3.0039l-6.043 6.043c-1.9609-1.1523-3.8867 0.76172-2.7227 2.7227l-9.4023 9.4023c-2.3516-2.3516-5.7266-7.1172-7.9258-4.9219-2.1992 2.1992 2.5703 5.5742 4.9219 7.9258l-9.2656 9.2656-7.8047-7.8047 13.484-13.492c1.9688-1.9688-1.0078-4.9883-3.0039-3.0039l-13.746 13.746c-1.7656-0.57812-3.0625 0.71094-2.4844 2.4844l-9.2227 9.2305-6.3477-6.3477 7.6016-7.6016c0.83203-0.83203 0.83203-2.1719 0-3.0039-0.83203-0.83203-2.1719-0.83203-3.0039 0l-18.566 18.566h-0.27344l-6.7969-6.7969 8.3477-8.3477c1.9688-1.9688-1.0078-4.9883-3.0039-3.0039-0.92578 0.92578-16.547 16.164-16.758 17.453-0.84766-0.84766-4.6758-4.7773-5.625-5.4141l1.0508-1.0508c1.9688-1.9688-1.0078-4.9883-3.0039-3.0039l-10.055 10.055c-0.73828 0-1.4844 0-2.2227-0.007813l-4.0547-4.0547c2.0117-2.0117 5.2344-4.2422 3.2422-6.2383-0.83203-0.83203-2.1719-0.83203-3.0039 0l-10.258 10.258h-0.55859l-4.0547-4.0547c-1.9688-1.9688-4.9883 1.0078-3.0039 3.0039l1.1055 1.0508c-56.992-0.15234-111.98-0.28125-137.42-0.28125-35.348 0-62.414 8.7422-61.109-52.375zm39.551 78.934c11.344-13.602 32.105-15.332 50.68-15.891 62.602-1.8828 313.26-3.2852 331.56 9.7305 4.1484 2.9531 6.4727 7.5508 7.7812 12.879l-6.6875 6.6875c-2.1055-2.1055-4.4297-5.4375-6.4297-3.4375-2.0039 2.0039 1.332 4.3281 3.4375 6.4297l-4.4648 4.4648c-1.3398 1.3398-0.375 3.6211 1.5 3.6211 1.3672 0 4.9805-4.1055 5.9648-5.0898l5.3047 5.3047c0.71094 0.71094 1.7812 0.90625 2.8008 0.085937 0 0.10156-0.007812 0.21094-0.007812 0.3125-0.95703 0.63672-5.6016 5.3867-6.4844 6.2695l-6.2109-6.2109c-1.9688-1.9688-4.9883 1.0078-3.0039 3.0039l6.2109 6.2109-6.9336 6.9219c-1.5625-1.5625-2.875-3.207-4.5391-1.543-0.83203 0.83203-0.83203 2.1719 0 3.0039l9.9375 9.9258-8.6797 8.6797-7.168-7.168 1.2227-1.2227c1.9688-1.9688-1.0078-4.9883-3.0039-3.0039l-1.2227 1.2227c-2.4688-2.4688-5.4727 0.52734-3.0039 3.0039l-6.0508 6.0508-6.4727-6.4727c-1.9688-1.9688-4.9883 1.0078-3.0039 3.0039l6.4727 6.4727-12.184 12.184-8.8164-8.8164 5.2773-5.2773c1.9688-1.9688-1.0078-4.9883-3.0039-3.0039l-5.3125 5.3125c-2.0039-1.7578-4.6836 0.93359-2.9258 2.9258l-7.2539 7.2539-7.2109-7.2109c-0.83203-0.83203-2.1719-0.83203-3.0039 0s-0.83203 2.1719 0 3.0039l7.2109 7.2109-10.141 10.141-9.4531-9.4531 12.668-12.668c1.9688-1.9688-1.0078-4.9883-3.0039-3.0039l-12.668 12.668c-1.8906-1.8906-3.75-4.5312-5.6406-2.6484-1.8906 1.8906 0.75391 3.75 2.6484 5.6406l-10.43 10.43-5.7695-5.7695 5.8203-5.8203c1.9688-1.9688-1.0078-4.9883-3.0039-3.0039l-5.8203 5.8203c-1.5273-1.5273-2.8242-3.1133-4.4648-1.4688-1.6445 1.6445-0.058594 2.9453 1.4688 4.4648l-7.5078 7.5078c-0.72266-0.72266-8.9766-9.0039-9.7422-9.6797l6.3789-6.3789c1.9688-1.9688-1.0078-4.9883-3.0039-3.0039l-17.156 17.156-7.1523-7.1523c-0.83203-0.83203-2.1719-0.83203-3.0039 0s-0.83203 2.1719 0 3.0039l7.1523 7.1523-1.2461 1.2461c-4.8867 0.007813-9.5859 0.007813-14.273 0.015626l-2.1992-2.1992 14.73-14.73c1.9688-1.9688-1.0078-4.9883-3.0039-3.0039l-14.73 14.73c-2.043-2.043-4.293-5.293-6.2969-3.293-1.9922 1.9922 1.2539 4.25 3.293 6.2969l-2.2148 2.2148c-2.9375 0.007813-5.6914 0.007813-8.5352 0.015626-0.57812-1.043-5.5898-5.8984-6.4414-6.7461l12.449-12.449c1.9688-1.9688-1.0078-4.9883-3.0039-3.0039l-12.711 12.711c-1.7578-0.55859-3.0391 0.71094-2.4766 2.4766l-7.0508 7.0508c-0.88281 0-1.7305 0-2.6055 0.007812-1.0352-1.0352-4.0469-4.5391-5.4492-4.5039 2.207-2.207 6.1328-4.957 4.0469-7.043-0.83203-0.83203-2.1719-0.83203-3.0039 0l-11.168 11.168c-1.4102-1.4102-2.6211-2.75-4.1836-1.1875-0.44922 0.44922-0.60156 1.043-0.57031 1.6289-148.31 0.42578-148.38 0.42578-155.66-11.402-12.758-20.621-10.695-65.727 1.8477-80.762zm-32.168 197.29c-10.504-16.75-10.879-63.008 2.7148-79.309 11.344-13.602 32.105-15.332 50.68-15.891 62.551-1.875 313.24-3.2852 331.55 9.7422 4.7773 3.3945 7.1797 8.9531 8.3242 15.324l-11.641 11.641-1.375-1.375c-1.9688-1.9688-4.9883 1.0078-3.0039 3.0039l1.4609 1.4609c-1.4258 1.9258 0.75391 4.3789 2.832 2.832l3.8789 3.8789-4.0547 4.0547c-1.6211-1.6211-2.9609-3.3086-4.6328-1.6367s0.015625 3.0117 1.6367 4.6328l-4.7695 4.7695c-1.3398 1.3398-0.375 3.6211 1.5 3.6211 1.3672 0 5.2695-4.3867 6.2695-5.3867l8.4766 8.4766c0.86719 0.86719 1.4102 0.62109 2.1719 0.34766-0.99219 6.1602-2.3438 11.43-4.082 15.984-0.64453-0.94922-6.0742-6.2773-6.957-7.1602l5.0664-5.0664c1.9688-1.9688-1.0078-4.9883-3.0039-3.0039l-5.0664 5.0664-6.0742-6.0742c-0.83203-0.83203-2.1719-0.83203-3.0039 0-0.83203 0.83203-0.83203 2.1719 0 3.0039l6.0742 6.0742-10.59 10.59c-0.84766-0.84766-6.5664-6.7109-7.5938-7.3125l9.9258-9.9258c1.9688-1.9688-1.0078-4.9883-3.0039-3.0039l-19.191 19.191-8.6875-8.6875c-0.83203-0.83203-2.1719-0.83203-3.0039 0-0.83203 0.83203-0.83203 2.1719 0 3.0039l8.6875 8.6875-9.8008 9.8008-7.1875-7.1875 6.4141-6.4141c1.9688-1.9688-1.0078-4.9883-3.0039-3.0039l-6.4141 6.4141c-2.1992-2.1992-4.9023-6.0664-6.9844-3.9883-2.0781 2.0781 1.7891 4.7852 3.9883 6.9844l-7.1953 7.1953c-0.92578-0.92578-5.7266-6.1172-7.0156-6.3125l0.70312-0.70312c1.9688-1.9688-1.0078-4.9883-3.0039-3.0039l-17.344 17.344-1.6367-1.6367c-1.9688-1.9688-4.9883 1.0078-3.0039 3.0039l1.6367 1.6367c-1.0781 1.0781-0.54297 0.55078-0.86719 1.2539-2.8438-0.050781-5.7695-0.09375-8.7383-0.13672l-1.1211-1.1211 15.324-15.324c0.83203-0.83203 0.83203-2.1719 0-3.0039-0.83203-0.83203-2.1719-0.83203-3.0039 0l-15.324 15.324-4.582-4.582c2.3008-2.3086 6.6602-5.3711 4.5156-7.5156-0.83203-0.83203-2.1719-0.83203-3.0039 0l-16.012 16.02h-1.043l-4.8359-4.8359 9.7422-9.7422c1.9688-1.9688-1.0078-4.9883-3.0039-3.0039l-17.547 17.547c-1.5703 0-3.2227-0.007812-4.7773-0.007812-1.7148-1.7148-2.9961-3.7773-4.957-2.5547l10.438-10.438c1.9688-1.9688-1.0078-4.9883-3.0039-3.0039l-15.984 15.984h-2.1875l-1.8516-1.8516c-1.3242-1.3242-3.8867-0.46484-3.4805 1.8398-198.25 0.011719-196.39 3.4023-206.37-12.531zm240.61 123.25 6.9844 6.9844c-0.078125 0.16797-0.17969 0.32422-0.20312 0.49219-4.8359 0.007813-9.6719 0.015625-14.289 0.027344zm35.609 7.4531-2.7227-2.7227 16.969-16.969c0.83203-0.83203 0.83203-2.1719 0-3.0039s-2.1719-0.83203-3.0039 0l-16.969 16.969-3.1406-3.1406c-0.83203-0.83203-2.1719-0.83203-3.0039 0-0.83203 0.83203-0.83203 2.1719 0 3.0039l3.1406 3.1406-2.7305 2.7305c-3.6758 0-7.3477 0.007812-10.902 0.007812-0.078125-0.11719 59.539 59.316-0.46484-0.67969l13.523-13.523c0.83203-0.83203 0.83203-2.1719 0-3.0039s-2.1719-0.83203-3.0039 0l-13.523 13.523-6.7969-6.7969 3.9609-3.9609c0.83203-0.83203 0.83203-2.1719 0-3.0039-0.83203-0.83203-2.1719-0.83203-3.0039 0l-14.527 14.527-2.8867-2.8867c-0.83203-0.83203-2.1719-0.83203-3.0039 0-0.83203 0.83203-0.83203 2.1719 0 3.0039l2.832 2.832c-3.3164 0.007813-6.7031 0.015626-9.9023 0.027344l15.484-15.484c0.83203-0.83203 0.83203-2.1719 0-3.0039s-2.1719-0.83203-3.0039 0l-17.055 17.055-5.9727-5.9727c-0.83203-0.83203-2.1719-0.83203-3.0039 0-0.83203 0.83203-0.83203 2.1719 0 3.0039l4.4219 4.4297c-170.17 0.44141-169.95 1.0508-177.6-11.344l-0.91797-1.4766c-10.504-16.75-10.879-63.008 2.707-79.301 11.344-13.602 32.105-15.332 50.68-15.891 27.254-0.82422 79.715-1.2539 125.52-1.1016 1 0.62109 1.2031 0.57031 2.1289 0.007812 27.254 0.10156 55.602 0.39844 82.234 0.98438 1.6562 1.6562 3.3164 2.2812 4.1836 0.09375 116.57 2.7305 118.52 7.7227 122.96 16.207l-4.8008 4.8008-2.3672-2.3672c-0.83203-0.83203-2.1719-0.83203-3.0039 0s-0.83203 2.1719 0 3.0039l2.3672 2.3672c-2.5977 2.5977-6.082 5.2773-2.6641 6.7031-3.8008 1.5781 1.0273 5.0664 3.9453 7.9844l-10.867 10.867c-0.83203 0.83203-0.83203 2.1719 0 3.0039 0.41406 0.41406 0.95703 0.62109 1.5 0.62109s1.0859-0.20312 1.5-0.62109l1.0781-1.0781 12.508 12.508c0.41406 0.41406 0.95703 0.62109 1.5 0.62109 0.35547 0 0.67187-0.23047 0.98437-0.40625-0.16016 1.0195-0.32422 2.0117-0.5 2.9766-0.89062 0.72266-5.4297 5.3203-6.2539 6.1328l-4.7344-4.7344 0.82422-0.82422c0.83203-0.83203 0.83203-2.1719 0-3.0039s-2.1719-0.83203-3.0039 0l-0.82422 0.82422-4.6836-4.6836c-0.83203-0.83203-2.1719-0.83203-3.0039 0s-0.83203 2.1719 0 3.0039l4.6836 4.6836-10.141 10.141c-0.84766-0.84766-6.9336-7.0664-7.9492-7.6953l4.3359-4.3359c0.83203-0.83203 0.83203-2.1719 0-3.0039-0.83203-0.83203-2.1719-0.83203-3.0039 0l-14.773 14.773c-2.0547-2.0547-5.0664 0.93359-3.0039 2.9961l-10.656 10.656c-0.85547-0.85547-6.4414-6.5664-7.4336-7.1875l10.078-10.078c0.83203-0.83203 0.83203-2.1719 0-3.0039-0.83203-0.83203-2.1719-0.83203-3.0039 0l-21.297 21.297-5.9727-5.9727c-0.67188-0.67188-1.6367-0.65234-2.4336-0.23828l2.0547-2.0547c0.83203-0.83203 0.83203-2.1719 0-3.0039-0.83203-0.83203-2.1719-0.83203-3.0039 0l-13.066 13.066-2.1055-2.1133c-0.83203-0.83203-2.1719-0.83203-3.0039 0-0.83203 0.83203-0.83203 2.1719 0 3.0039l2.1055 2.1133c-0.98438 0.98438-9.0352 8.6641-9.2734 9.9453h-3.6484l-5.5586-5.5586 13.305-13.305c0.83203-0.83203 0.83203-2.1719 0-3.0039s-2.1719-0.83203-3.0039 0l-13.305 13.305-2.8867-2.8867c-1.9688-1.9688-4.9883 1.0078-3.0039 3.0039l2.8867 2.8867c-2.1055 2.1055-4.5312 3.9805-1.9102 5.5586-3.0156 0.03125-6.0781 0.03125-9.1172 0.03125zm120.71-26.168 10.141-10.141 4.7344 4.7344-10.141 10.141zm-26.93 21.676c-0.67969-0.92578-7.2305-7.3906-8.1133-8.2812l10.656-10.656 7.8242 7.8242c-1 0.99219-10.215 9.8008-10.367 11.113zm5.5391-21.941 7.6875-7.6875c0.62891 1.0078 6.8477 7.1016 7.6953 7.9492l-7.5703 7.5703zm-47.277 8.7148 5.9727 5.9727-9.1133 9.1133-7.3047-7.3047 10.207-10.207c-0.41406 0.79688-0.43359 1.7578 0.23828 2.4258zm-6.4922 17.742c-4.6562-0.007813-9.3945-0.007813-13.898-0.015625l6.9414-6.9414zm15.469-8.7656c0.80469 0.80469 6.5586 6.6016 7.4258 7.332-0.34766 0.44141-0.5 0.94141-0.44141 1.4688-5.3125-0.007812-10.621-0.027343-15.746-0.027343zm10.293 4.3281c-0.85547-0.91797-6.4062-6.4414-7.2891-7.3242l8.4688-8.4688c0.62109 0.99219 6.3203 6.5742 7.1875 7.4336zm-57.195 1.8594 2.5547 2.5547h-5.3789c0.95703-0.57031 1.9727-1.707 2.8242-2.5547zm58.707 2.6211 9.8438-9.8438c3.9453 3.9453 10.887 12.254 11.523 6.7266 0.058593 0.085938 0.042969 0.20312 0.11719 0.28125 0.83203 0.83203 2.1719 0.83203 3.0039 0l9.8438-9.8438 9.3242 9.3242c-13.078 3.9219-29.141 3.3906-43.656 3.3555zm48.066-4.9297-10.75-10.75 7.5703-7.5703c0.99219 0.99219 11.156 11.676 12.559 11.676 1.875 0 2.832-2.2812 1.5-3.6211l-3.3242-3.3242 10.141-10.141c0.88281 0.88281 1.4336 1.707 2.5859 1.7461-4.2188 11.27-10.781 18.055-20.281 21.984z"/>
  <path d="m609.59 321.83h-14.375c0.015624-12.652 2.1055-21.391-4.207-21.391-6.3047 0-4.25 9.1797-4.2773 21.391h-20c-5.5898 0-5.6172 8.4844 0 8.4844h19.98c-0.027343 13.168-2.1055 22.137 4.207 22.145 2.3594 0 4.2422-1.9102 4.2422-4.2422l0.027344-17.902h14.391c2.3438 0 4.2422-1.9023 4.2422-4.2422 0.003906-2.3438-1.8906-4.2422-4.2305-4.2422z"/>
  <path d="m129.5 251.98c5.4648-0.75391 4.5469-9.043-1.1445-8.4102l-13.133 1.7891c-0.29688-10.07 1.5-19.305-4.8125-19.227-6.3125 0.1875-3.9727 9.332-3.6484 20.371l-16.945 2.3086c-5.2031 0.71094-4.668 8.4492 0.57031 8.4492 0.46484 0 16.164-2.1562 16.629-2.2227l0.53516 18.32c0.066406 2.3008 1.9531 4.1133 4.2422 4.1133h0.12891c2.3438-0.066406 4.1836-2.0273 4.1133-4.3711l-0.57031-19.219z"/>
  <path d="m233.3 27.066c0.12891 14.16-1.9414 23.258 4.4141 23.258 2.3672 0 4.2578-1.9336 4.2422-4.2773l-0.17969-19.93c6.2891-0.71094 16.289-0.085938 15.629-6.0312-0.65234-5.8281-9.5469-3.1914-15.695-2.5039-0.085938-9.3828 1.7734-17.887-4.3594-17.887-6.5938 0-4.1758 12.074-4.1133 18.836l-19.785 2.2305c-2.3398 0.26562-4.0117 2.3672-3.75 4.6914 0.71094 6.3555 9.6055 3.1914 23.598 1.6133z"/>
  <path d="m193.99 95.965h15.398c0 3.1914-0.88281 8.2305 2.1211 8.2305 3.0039 0 2.1211-5.0391 2.1211-8.2305h11.574v10.418c0 2.8008 4.2422 2.8086 4.2422 0l0.003907-10.418h19.719c0 3.0117-0.76172 7.2891 2.1211 7.2891 2.8867 0 2.1211-4.2773 2.1211-7.2891h17.801v5.7031c0 2.8008 4.2422 2.8086 4.2422 0v-5.7031h19.719c0 3.4531-1.0352 9.7656 2.1211 9.7656s2.1211-6.3125 2.1211-9.7656h13.965v5.6172c0 2.8008 4.2422 2.8086 4.2422 0v-5.6172h8.4688c2.8008 0 2.8086-4.2422 0-4.2422h-8.4688v-11.293c0-2.8008-4.2422-2.8086-4.2422 0v11.301h-13.965v-11.301c0-2.8008-4.2422-2.8086-4.2422 0v11.301h-19.719v-10.828c0-2.8008-4.2422-2.8086-4.2422 0v10.816h-17.801v-9.375c0-2.8008-4.2422-2.8086-4.2422 0v9.375h-19.719v-7.4648c0-2.8008-4.2422-2.8086-4.2422 0v7.4648h-11.574v-10.34c0-2.8008-4.2422-2.8086-4.2422 0v10.344h-15.398v-5.0664c0-2.8008-4.2422-2.8086-4.2422 0v5.0664h-13.219c-1.1719 0-2.1211 0.94922-2.1211 2.1211s0.94922 2.1211 2.1211 2.1211h13.219v5.7266c0 2.8008 4.2422 2.8086 4.2422 0z"/>
  <path d="m198.57 226.79h23.758v9.0117c0 2.8008 4.2422 2.8086 4.2422 0v-9.0117h17.801c0 3.4531-1.0352 9.8008 2.1211 9.8008s2.1211-6.3477 2.1211-9.8008h13.965v8.2539c0 2.8008 4.2422 2.8086 4.2422 0v-8.2539h18.762v10.785c0 2.8008 4.2422 2.8086 4.2422 0v-10.785h17.324v11.191c0 2.8008 4.2422 2.8086 4.2422 0v-11.191h17.191c1.1719 0 2.1211-0.94922 2.1211-2.1211s-0.94922-2.1211-2.1211-2.1211h-17.188v-9.375c0-2.8008-4.2422-2.8086-4.2422 0v9.375h-17.324c0-3.2852 0.90625-8.6289-2.1211-8.6289-3.0273 0-2.1211 5.3359-2.1211 8.6289h-18.762v-8.9023c0-2.8008-4.2422-2.8086-4.2422 0v8.9023h-13.965v-8.4258c0-2.8008-4.2422-2.8086-4.2422 0v8.4258h-17.801v-6.5078c0-2.8008-4.2422-2.8086-4.2422 0v6.5078h-23.758c-1.1719 0-2.1211 0.94922-2.1211 2.1211-0.003906 1.168 0.94531 2.1211 2.1172 2.1211z"/>
  <path d="m242.3 337.64v8.0352c0 1.1719 0.94922 2.1211 2.1211 2.1211s2.1211-0.94922 2.1211-2.1211v-8.0352h21.094v15.113c0 2.8008 4.2422 2.8086 4.2422 0v-15.113h11.504v10.367c0 2.8008 4.2422 2.8086 4.2422 0v-10.367h14.312c2.8008 0 2.8086-4.2422 0-4.2422h-14.301v-8.1445c0-2.8008-4.2422-2.8086-4.2422 0v8.1445h-11.504v-8.1445c0-2.8008-4.2422-2.8086-4.2422 0v8.1445h-21.094v-8.1445c0-2.8008-4.2422-2.8086-4.2422 0v8.1445h-29.316v-6.0938c0-2.8008-4.2422-2.8086-4.2422 0v6.0938h-18.355c0-2.7578 0.59375-6.168-2.1211-6.168s-2.1211 3.4023-2.1211 6.168h-17.742c-2.8008 0-2.8086 4.2422 0 4.2422h17.742v12.957c0 1.1719 0.94922 2.1211 2.1211 2.1211s2.1211-0.94922 2.1211-2.1211v-12.957h18.352v17.395c0 2.8008 4.2422 2.8086 4.2422 0v-17.395z"/>
  <path d="m357.52 455.3h-15.781v-11.574c0-2.8008-4.2422-2.8086-4.2422 0v11.574h-19.039v-11.574c0-2.8008-4.2422-2.8086-4.2422 0v11.574h-24.52v-7.4648c0-2.8008-4.2422-2.8086-4.2422 0v7.4648h-33.422v-12.949c0-2.8008-4.2422-2.8086-4.2422 0v12.949h-22.469v-10.207c0-2.8008-4.2422-2.8086-4.2422 0v10.207h-17.734c-2.8008 0-2.8086 4.2422 0 4.2422h17.734v11.328c0 2.8008 4.2422 2.8086 4.2422 0v-11.328h22.469v13.043c0 1.1719 0.94922 2.1211 2.1211 2.1211s2.1211-0.94922 2.1211-2.1211v-13.043h33.422v13.219c0 2.8008 4.2422 2.8086 4.2422 0v-13.219h24.52c0 3.2227-0.90625 8.4102 2.1211 8.4102 3.0273 0 2.1211-5.1836 2.1211-8.4102h19.039v15.797c0 2.8008 4.2422 2.8086 4.2422 0v-15.797h15.781c1.1719 0 2.1211-0.94922 2.1211-2.1211 0.003906-1.1719-0.94922-2.1211-2.1211-2.1211z"/>
  <use x="70" y="687.273438" xlink:href="#f"/>
  <use x="101.132813" y="687.273438" xlink:href="#d"/>
  <use x="122.058594" y="687.273438" xlink:href="#b"/>
  <use x="150.828125" y="687.273438" xlink:href="#c"/>
  <use x="179.457031" y="687.273438" xlink:href="#a"/>
  <use x="199.738281" y="687.273438" xlink:href="#b"/>
  <use x="228.511719" y="687.273438" xlink:href="#j"/>
  <use x="273.648438" y="687.273438" xlink:href="#i"/>
  <use x="304.015625" y="687.273438" xlink:href="#h"/>
  <use x="346.441406" y="687.273438" xlink:href="#f"/>
  <use x="377.574219" y="687.273438" xlink:href="#d"/>
  <use x="398.496094" y="687.273438" xlink:href="#b"/>
  <use x="427.269531" y="687.273438" xlink:href="#c"/>
  <use x="455.898438" y="687.273438" xlink:href="#a"/>
  <use x="476.179688" y="687.273438" xlink:href="#g"/>
  <use x="490.722656" y="687.273438" xlink:href="#q"/>
  <use x="518.375" y="687.273438" xlink:href="#b"/>
  <use x="561.917969" y="687.273438" xlink:href="#p"/>
  <use x="592.472656" y="687.273438" xlink:href="#a"/>
  <use x="612.753906" y="687.273438" xlink:href="#c"/>
  <use x="641.378906" y="687.273438" xlink:href="#e"/>
  <use x="655.921875" y="687.273438" xlink:href="#e"/>
  <use x="70" y="729.695312" xlink:href="#o"/>
  <use x="197.5" y="729.695312" xlink:href="#a"/>
  <use x="217.78125" y="729.695312" xlink:href="#n"/>
  <use x="291.527344" y="729.695312" xlink:href="#m"/>
  <use x="431.351563" y="729.695312" xlink:href="#l"/>
  <use x="512.511719" y="729.695312" xlink:href="#k"/>
  <use x="580.976562" y="729.695312" xlink:href="#a"/>
 </g>
</svg>
