<?xml version="1.0" encoding="UTF-8"?>
<svg width="700pt" height="700pt" version="1.1" viewBox="0 0 700 700" xmlns="http://www.w3.org/2000/svg">
 <path d="m433.13 17.5c-3.9727 0.015625-7.8242 1.3828-10.918 3.8789l-38.945 31.137h-260.75c-28.785 0-52.516 23.73-52.516 52.52 0 28.785 23.73 52.5 52.516 52.5h262.49c25.16 0 48.484-13.402 61.164-35.137l45.797-78.547c2.0898-3.5625 2.8516-7.75 2.1484-11.82-0.69922-4.0703-2.8203-7.7656-5.9805-10.422-3.1602-2.6602-7.1602-4.1172-11.293-4.1094zm6.1367 35.016h7.1602l-30.488 52.262c-6.4336 11.027-18.164 17.758-30.93 17.758h-262.49c-9.8711 0-17.5-7.6289-17.5-17.5s7.6289-17.516 17.5-17.516l266.88-0.003906c3.9688 0.003906 7.8164-1.3398 10.922-3.8086zm-258.3 140.04c-47.117 0-83.434 42.918-75.688 89.398l5.9297 35.973c0.027344 0.125 0.054687 0.25 0.085937 0.375 0.023438 0.17188 0.054688 0.34375 0.082032 0.51562 0.011718 0.042969 0.023437 0.089844 0.035156 0.13672 0.23438 1 0.55469 1.9766 0.95703 2.9219 0.046875 0.097656 0.089844 0.19141 0.13672 0.28906 0.09375 0.21875 0.19141 0.43359 0.29297 0.64844 0.019531 0.046875 0.042969 0.09375 0.066406 0.13672 0.19141 0.37891 0.39844 0.75 0.61719 1.1133l49.988 83.262v12.715h-0.003906c-0.003907 4.6445 1.8359 9.0977 5.1211 12.383 3.2812 3.2891 7.7344 5.1328 12.379 5.1328 4.6445 0 9.0977-1.8438 12.379-5.1328 3.2852-3.2852 5.125-7.7383 5.1211-12.383v-12.598l50.004-83.379c0.30469-0.51172 0.58203-1.0352 0.83594-1.5742 0.039063-0.089844 0.082031-0.17969 0.12109-0.27344 0.61328-1.3672 1.0508-2.8086 1.2969-4.2891l0.12109-0.69922v-0.035156l5.8945-35.238c7.7461-46.48-28.656-89.398-75.773-89.398zm0 35c26.168 0 45.574 22.828 41.27 48.637l-3.5547 21.328h-75.363l-3.5547-21.328c-4.3008-25.809 15.035-48.637 41.203-48.637zm372.24 0c-47.117 0-83.52 42.918-75.773 89.398l6.0156 35.973c0.40234 2.4062 1.3047 4.6992 2.6484 6.7344l49.594 82.645v12.75c0 4.6445 1.8477 9.0977 5.1328 12.383 3.2852 3.2812 7.7383 5.1211 12.383 5.1172 4.6406 0 9.0938-1.8438 12.375-5.125s5.125-7.7344 5.125-12.375v-12.715l49.523-82.562v0.003906c1.3906-2.0664 2.3203-4.4023 2.7344-6.8555l6-35.973c7.7461-46.477-28.641-89.398-75.758-89.398zm0 34.949c26.168 0 45.504 22.895 41.203 48.707l-3.5547 21.309h-75.312l-3.5547-21.309c-4.3008-25.812 15.055-48.707 41.219-48.707zm-185.69 35.016c-47.117 0-83.52 42.969-75.773 89.449l5.9453 35.562v0.003906c0.066406 0.41797 0.14453 0.83203 0.23828 1.2461 0.28906 1.3203 0.73438 2.6055 1.3164 3.8281 0.03125 0.050781 0.058594 0.10156 0.085937 0.15234 0.007813 0.015626 0.011719 0.03125 0.019532 0.046876 0.13281 0.27344 0.27734 0.54297 0.42578 0.80469 0.1875 0.34375 0.38672 0.67969 0.59766 1.0078l49.629 82.699v12.684c0 4.6445 1.8438 9.0977 5.1289 12.379 3.2852 3.2852 7.7422 5.125 12.387 5.1211 4.6406 0 9.0898-1.8438 12.375-5.125 3.2812-3.2812 5.125-7.7344 5.125-12.375v-12.68l49.816-83.004-0.003907-0.003906c0.61719-0.97656 1.1289-2.0117 1.5391-3.0898 0.085937-0.22266 0.16406-0.44531 0.23828-0.66797 0.035156-0.10938 0.070313-0.21484 0.10156-0.32422 0.070312-0.22266 0.13281-0.44141 0.19141-0.66797 0.027344-0.11328 0.058594-0.22656 0.085937-0.33984 0.054688-0.22266 0.10547-0.44531 0.15234-0.66797 0.023438-0.11328 0.046875-0.22656 0.066406-0.33984 0.019532-0.10938 0.039063-0.21484 0.054688-0.32422l6.0156-35.922c7.7461-46.477-28.641-89.449-75.758-89.449zm-208.1 35h43.203l-21.582 35.973zm208.1 0c26.168 0 45.504 22.895 41.203 48.707l-3.5547 21.312h-75.312l-3.5547-21.312c-4.3008-25.812 15.051-48.707 41.219-48.707zm164.07 35.016h43.184l-21.566 35.973zm-185.66 70.02h43.137l-21.551 35.977z" fill-rule="evenodd"/>
</svg>
