<?xml version="1.0" encoding="UTF-8"?>
<svg width="700pt" height="700pt" version="1.1" viewBox="0 0 700 700" xmlns="http://www.w3.org/2000/svg" xmlns:xlink="http://www.w3.org/1999/xlink">
 <defs>
  <symbol id="v" overflow="visible">
   <path d="m3.8125-0.23438c-0.19922 0.10547-0.40625 0.18359-0.625 0.23438-0.21094 0.050781-0.42969 0.078125-0.65625 0.078125-0.6875 0-1.2344-0.19141-1.6406-0.57812-0.40625-0.38281-0.60938-0.90625-0.60938-1.5625 0-0.66406 0.20312-1.1914 0.60938-1.5781 0.40625-0.38281 0.95312-0.57812 1.6406-0.57812 0.22656 0 0.44531 0.027344 0.65625 0.078125 0.21875 0.054687 0.42578 0.13281 0.625 0.23438v0.84375c-0.19922-0.125-0.39844-0.21875-0.59375-0.28125-0.1875-0.070312-0.39062-0.10938-0.60938-0.10938-0.375 0-0.67188 0.125-0.89062 0.375-0.21875 0.24219-0.32812 0.57812-0.32812 1.0156 0 0.42969 0.10938 0.76562 0.32812 1.0156 0.21875 0.24219 0.51562 0.35938 0.89062 0.35938 0.21875 0 0.42188-0.03125 0.60938-0.09375 0.19531-0.070312 0.39453-0.17188 0.59375-0.29688z"/>
  </symbol>
  <symbol id="d" overflow="visible">
   <path d="m2.7812-2.2656c-0.085938-0.039063-0.16797-0.066406-0.25-0.078125-0.085938-0.019531-0.17188-0.03125-0.26562-0.03125-0.25 0-0.44922 0.085938-0.59375 0.25-0.13672 0.15625-0.20312 0.38672-0.20312 0.6875v1.4375h-0.98438v-3.1094h0.98438v0.51562c0.125-0.20703 0.26953-0.35938 0.4375-0.45312 0.16406-0.09375 0.36328-0.14062 0.59375-0.14062 0.039062 0 0.078125 0.007812 0.10938 0.015625 0.039063 0 0.097656 0.007813 0.17188 0.015625z"/>
  </symbol>
  <symbol id="b" overflow="visible">
   <path d="m3.5781-1.5625v0.28125h-2.3125c0.019531 0.23047 0.10156 0.40625 0.25 0.53125 0.14453 0.11719 0.34375 0.17188 0.59375 0.17188 0.21875 0 0.4375-0.03125 0.65625-0.09375s0.44141-0.15625 0.67188-0.28125v0.76562c-0.24219 0.085938-0.48047 0.14844-0.71875 0.1875-0.23047 0.050781-0.46094 0.078125-0.6875 0.078125-0.5625 0-1-0.14062-1.3125-0.42188-0.3125-0.28906-0.46875-0.69141-0.46875-1.2031 0-0.50781 0.14844-0.91016 0.45312-1.2031 0.30078-0.28906 0.72266-0.4375 1.2656-0.4375 0.48828 0 0.87891 0.15234 1.1719 0.45312 0.28906 0.29297 0.4375 0.68359 0.4375 1.1719zm-1.0156-0.32812c0-0.1875-0.058594-0.33594-0.17188-0.45312-0.10547-0.125-0.24609-0.1875-0.42188-0.1875-0.19922 0-0.35938 0.058594-0.48438 0.17188-0.11719 0.10547-0.1875 0.26172-0.21875 0.46875z"/>
  </symbol>
  <symbol id="l" overflow="visible">
   <path d="m1.875-1.4062c-0.21094 0-0.36719 0.039062-0.46875 0.10938-0.10547 0.074219-0.15625 0.17969-0.15625 0.3125 0 0.125 0.039062 0.22656 0.125 0.29688 0.082031 0.074219 0.19531 0.10938 0.34375 0.10938 0.1875 0 0.34375-0.066406 0.46875-0.20312 0.13281-0.13281 0.20312-0.30078 0.20312-0.5v-0.125zm1.5156-0.375v1.7812h-1v-0.46875c-0.13672 0.19922-0.28906 0.33984-0.45312 0.42188-0.16797 0.082031-0.37109 0.125-0.60938 0.125-0.32422 0-0.58594-0.09375-0.78125-0.28125-0.19922-0.1875-0.29688-0.42969-0.29688-0.73438 0-0.36328 0.125-0.62891 0.375-0.79688 0.25-0.16406 0.64062-0.25 1.1719-0.25h0.59375v-0.078125c0-0.16406-0.0625-0.28516-0.1875-0.35938-0.125-0.070313-0.32031-0.10938-0.57812-0.10938-0.21875 0-0.42188 0.027344-0.60938 0.078125-0.17969 0.042969-0.34375 0.10547-0.5 0.1875v-0.76562c0.20703-0.050781 0.42188-0.085938 0.64062-0.10938 0.21875-0.03125 0.42969-0.046875 0.64062-0.046875 0.5625 0 0.96875 0.11719 1.2188 0.34375 0.25 0.21875 0.375 0.57422 0.375 1.0625z"/>
  </symbol>
  <symbol id="a" overflow="visible">
   <path d="m1.5625-4v0.89062h1.0312v0.70312h-1.0312v1.3281c0 0.14844 0.023438 0.24609 0.078125 0.29688 0.0625 0.042969 0.17578 0.0625 0.34375 0.0625h0.51562v0.71875h-0.84375c-0.39844 0-0.67969-0.078125-0.84375-0.23438-0.16797-0.16406-0.25-0.44531-0.25-0.84375v-1.3281h-0.48438v-0.70312h0.48438v-0.89062z"/>
  </symbol>
  <symbol id="f" overflow="visible">
   <path d="m2.5938-2.6562v-1.6719h1v4.3281h-1v-0.45312c-0.13672 0.1875-0.28906 0.32422-0.45312 0.40625-0.16797 0.082031-0.35938 0.125-0.57812 0.125-0.375 0-0.6875-0.14844-0.9375-0.45312-0.25-0.30078-0.375-0.69141-0.375-1.1719 0-0.47656 0.125-0.86719 0.375-1.1719 0.25-0.3125 0.5625-0.46875 0.9375-0.46875 0.21875 0 0.41016 0.046875 0.57812 0.14062 0.16406 0.085937 0.31641 0.21484 0.45312 0.39062zm-0.65625 2.0156c0.20703 0 0.36719-0.078125 0.48438-0.23438 0.11328-0.15625 0.17188-0.37891 0.17188-0.67188 0-0.30078-0.058594-0.53125-0.17188-0.6875-0.11719-0.15625-0.27734-0.23438-0.48438-0.23438-0.21094 0-0.37109 0.078125-0.48438 0.23438-0.11719 0.15625-0.17188 0.38672-0.17188 0.6875 0 0.29297 0.054688 0.51562 0.17188 0.67188 0.11328 0.15625 0.27344 0.23438 0.48438 0.23438z"/>
  </symbol>
  <symbol id="k" overflow="visible">
   <path d="m2.1406-0.64062c0.20703 0 0.36328-0.078125 0.46875-0.23438 0.11328-0.15625 0.17188-0.37891 0.17188-0.67188 0-0.30078-0.058594-0.53125-0.17188-0.6875-0.10547-0.15625-0.26172-0.23438-0.46875-0.23438-0.21875 0-0.38672 0.078125-0.5 0.23438-0.11719 0.15625-0.17188 0.38672-0.17188 0.6875 0 0.29297 0.054688 0.51562 0.17188 0.67188 0.11328 0.15625 0.28125 0.23438 0.5 0.23438zm-0.67188-2.0156c0.13281-0.17578 0.28516-0.30469 0.45312-0.39062 0.16406-0.09375 0.35938-0.14062 0.57812-0.14062 0.38281 0 0.69531 0.15625 0.9375 0.46875 0.25 0.30469 0.375 0.69531 0.375 1.1719 0 0.48047-0.125 0.87109-0.375 1.1719-0.24219 0.30469-0.55469 0.45312-0.9375 0.45312-0.21875 0-0.41406-0.042969-0.57812-0.125-0.16797-0.082031-0.32031-0.21875-0.45312-0.40625v0.45312h-0.98438v-4.3281h0.98438z"/>
  </symbol>
  <symbol id="e" overflow="visible">
   <path d="m0.0625-3.1094h1l0.84375 2.1094 0.70312-2.1094h1l-1.3125 3.4062c-0.13672 0.34375-0.29297 0.58203-0.46875 0.71875-0.16797 0.14453-0.39844 0.21875-0.6875 0.21875h-0.57812v-0.65625h0.3125c0.17578 0 0.30078-0.03125 0.375-0.09375 0.070312-0.054687 0.12891-0.14844 0.17188-0.28125l0.03125-0.078125z"/>
  </symbol>
  <symbol id="j" overflow="visible">
   <path d="m3.0312-0.75h-1.6719l-0.25 0.75h-1.0781l1.5312-4.1406h1.2812l1.5312 4.1406h-1.0781zm-1.3906-0.78125h1.125l-0.5625-1.6406z"/>
  </symbol>
  <symbol id="i" overflow="visible">
   <path d="m3.3594-2.5938c0.125-0.1875 0.26953-0.33203 0.4375-0.4375 0.17578-0.10156 0.36719-0.15625 0.57812-0.15625 0.36328 0 0.63281 0.10938 0.8125 0.32812 0.1875 0.21875 0.28125 0.54297 0.28125 0.96875v1.8906h-0.98438v-1.625-0.0625-0.125c0-0.21875-0.039063-0.375-0.10938-0.46875-0.0625-0.10156-0.16406-0.15625-0.29688-0.15625-0.19922 0-0.35156 0.078125-0.45312 0.23438-0.09375 0.15625-0.14844 0.38281-0.15625 0.67188v1.5312h-1v-1.625c0-0.34375-0.03125-0.5625-0.09375-0.65625-0.054688-0.10156-0.15625-0.15625-0.3125-0.15625-0.1875 0-0.33594 0.078125-0.4375 0.23438-0.10547 0.15625-0.15625 0.38281-0.15625 0.67188v1.5312h-1v-3.1094h1v0.45312c0.125-0.17578 0.26562-0.30469 0.42188-0.39062 0.15625-0.09375 0.33203-0.14062 0.53125-0.14062 0.20703 0 0.39453 0.054688 0.5625 0.15625 0.16406 0.10547 0.28906 0.25 0.375 0.4375z"/>
  </symbol>
  <symbol id="h" overflow="visible">
   <path d="m3.6094-1.8906v1.8906h-1v-1.4375c0-0.28125-0.011719-0.46875-0.03125-0.5625-0.011719-0.10156-0.027344-0.17969-0.046875-0.23438-0.042969-0.0625-0.10156-0.10938-0.17188-0.14062-0.0625-0.039062-0.13672-0.0625-0.21875-0.0625-0.21094 0-0.375 0.085938-0.5 0.25-0.11719 0.15625-0.17188 0.375-0.17188 0.65625v1.5312h-0.98438v-4.3281h0.98438v1.6719c0.15625-0.17578 0.31641-0.30469 0.48438-0.39062 0.16406-0.09375 0.34766-0.14062 0.54688-0.14062 0.36328 0 0.64062 0.10938 0.82812 0.32812s0.28125 0.54297 0.28125 0.96875z"/>
  </symbol>
  <symbol id="u" overflow="visible">
   <path d="m2.9062-3.0156v0.76562c-0.21094-0.09375-0.41406-0.16016-0.60938-0.20312-0.19922-0.050781-0.38672-0.078125-0.5625-0.078125-0.1875 0-0.32812 0.027344-0.42188 0.078125-0.09375 0.054687-0.14062 0.125-0.14062 0.21875 0 0.085937 0.03125 0.14844 0.09375 0.1875 0.070313 0.042969 0.20312 0.074219 0.39062 0.09375l0.17188 0.015625c0.50781 0.074219 0.84766 0.18359 1.0156 0.32812 0.17578 0.14844 0.26562 0.375 0.26562 0.6875 0 0.33594-0.125 0.58594-0.375 0.75-0.24219 0.16797-0.60156 0.25-1.0781 0.25-0.21094 0-0.42188-0.015625-0.64062-0.046875s-0.44531-0.078125-0.67188-0.14062v-0.76562c0.19531 0.10547 0.39844 0.18359 0.60938 0.23438 0.20703 0.042969 0.41406 0.0625 0.625 0.0625 0.19531 0 0.34375-0.023437 0.4375-0.078125 0.10156-0.050781 0.15625-0.13281 0.15625-0.25 0-0.082031-0.039063-0.14453-0.10938-0.1875-0.0625-0.039062-0.19531-0.078125-0.39062-0.10938l-0.1875-0.015625c-0.4375-0.0625-0.74609-0.16406-0.92188-0.3125-0.17969-0.14453-0.26562-0.375-0.26562-0.6875 0-0.32031 0.10938-0.5625 0.32812-0.71875 0.22656-0.16406 0.57812-0.25 1.0469-0.25 0.1875 0 0.37891 0.015625 0.57812 0.046875 0.19531 0.023437 0.41406 0.0625 0.65625 0.125z"/>
  </symbol>
  <symbol id="t" overflow="visible">
   <path d="m3.4062-4.0156v0.875c-0.23047-0.10156-0.45312-0.17969-0.67188-0.23438-0.21094-0.050781-0.41406-0.078125-0.60938-0.078125-0.25 0-0.4375 0.039063-0.5625 0.10938-0.125 0.074219-0.1875 0.18359-0.1875 0.32812 0 0.11719 0.039062 0.20312 0.125 0.26562 0.082031 0.0625 0.23438 0.11719 0.45312 0.15625l0.45312 0.09375c0.45703 0.09375 0.78125 0.23438 0.96875 0.42188 0.19531 0.1875 0.29688 0.45312 0.29688 0.79688 0 0.46094-0.13672 0.80469-0.40625 1.0312-0.27344 0.21875-0.68359 0.32812-1.2344 0.32812-0.26172 0-0.52734-0.027344-0.79688-0.078125-0.26172-0.039062-0.52734-0.11328-0.79688-0.21875v-0.90625c0.26953 0.14844 0.52344 0.25781 0.76562 0.32812 0.25 0.074219 0.48828 0.10938 0.71875 0.10938 0.23828 0 0.42188-0.035156 0.54688-0.10938 0.125-0.082031 0.1875-0.19531 0.1875-0.34375 0-0.13281-0.046875-0.23438-0.14062-0.29688-0.085937-0.070312-0.25-0.14062-0.5-0.20312l-0.40625-0.078125c-0.41797-0.09375-0.72656-0.23438-0.92188-0.42188-0.1875-0.19531-0.28125-0.46094-0.28125-0.79688 0-0.41406 0.12891-0.73438 0.39062-0.95312 0.26953-0.21875 0.65625-0.32812 1.1562-0.32812 0.22656 0 0.46094 0.015625 0.70312 0.046875 0.23828 0.03125 0.48828 0.085937 0.75 0.15625z"/>
  </symbol>
  <symbol id="g" overflow="visible">
   <path d="m0.4375-1.2031v-1.9062h1v0.3125 0.64062 0.5c0 0.25 0.003906 0.43359 0.015625 0.54688 0.019531 0.10547 0.046875 0.18359 0.078125 0.23438 0.03125 0.0625 0.078125 0.11719 0.14062 0.15625 0.070313 0.03125 0.14844 0.046875 0.23438 0.046875 0.20703 0 0.36719-0.078125 0.48438-0.23438 0.125-0.16406 0.1875-0.39062 0.1875-0.67188v-1.5312h1v3.1094h-1v-0.45312c-0.14844 0.1875-0.30859 0.32422-0.48438 0.40625-0.16797 0.082031-0.35156 0.125-0.54688 0.125-0.35547 0-0.63281-0.10938-0.82812-0.32812-0.1875-0.21875-0.28125-0.53516-0.28125-0.95312z"/>
  </symbol>
  <symbol id="s" overflow="visible">
   <path d="m0.48438-3.1094h0.98438v3.1094h-0.98438zm0-1.2188h0.98438v0.8125h-0.98438z"/>
  </symbol>
  <symbol id="c" overflow="visible">
   <path d="m1.9531-2.4688c-0.21875 0-0.38672 0.078125-0.5 0.23438-0.11719 0.15625-0.17188 0.38672-0.17188 0.6875 0 0.29297 0.054688 0.52344 0.17188 0.6875 0.11328 0.15625 0.28125 0.23438 0.5 0.23438s0.38281-0.078125 0.5-0.23438c0.11328-0.16406 0.17188-0.39453 0.17188-0.6875 0-0.30078-0.058594-0.53125-0.17188-0.6875-0.11719-0.15625-0.28125-0.23438-0.5-0.23438zm0-0.71875c0.53906 0 0.95703 0.14844 1.25 0.4375 0.30078 0.29297 0.45312 0.69531 0.45312 1.2031 0 0.51172-0.15234 0.91406-0.45312 1.2031-0.29297 0.28125-0.71094 0.42188-1.25 0.42188-0.53125 0-0.94922-0.14062-1.25-0.42188-0.30469-0.28906-0.45312-0.69141-0.45312-1.2031 0-0.50781 0.14844-0.91016 0.45312-1.2031 0.30078-0.28906 0.71875-0.4375 1.25-0.4375z"/>
  </symbol>
  <symbol id="r" overflow="visible">
   <path d="m2.5312-4.3281v0.65625h-0.5625c-0.13672 0-0.23438 0.027344-0.29688 0.078125-0.054687 0.054688-0.078125 0.14062-0.078125 0.26562v0.21875h0.85938v0.70312h-0.85938v2.4062h-0.98438v-2.4062h-0.5v-0.70312h0.5v-0.21875c0-0.33203 0.09375-0.58203 0.28125-0.75 0.1875-0.16406 0.47656-0.25 0.875-0.25z"/>
  </symbol>
  <symbol id="q" overflow="visible">
   <path d="m0.51562-4.1406h1.2031l1.5 2.8438v-2.8438h1.0156v4.1406h-1.1875l-1.5156-2.8438v2.8438h-1.0156z"/>
  </symbol>
  <symbol id="p" overflow="visible">
   <path d="m3.6094-1.8906v1.8906h-1v-1.4531c0-0.26953-0.011719-0.45312-0.03125-0.54688-0.011719-0.10156-0.027344-0.17969-0.046875-0.23438-0.042969-0.0625-0.10156-0.10938-0.17188-0.14062-0.0625-0.039062-0.13672-0.0625-0.21875-0.0625-0.21094 0-0.375 0.085938-0.5 0.25-0.11719 0.15625-0.17188 0.375-0.17188 0.65625v1.5312h-0.98438v-3.1094h0.98438v0.45312c0.15625-0.17578 0.31641-0.30469 0.48438-0.39062 0.16406-0.09375 0.34766-0.14062 0.54688-0.14062 0.36328 0 0.64062 0.10938 0.82812 0.32812s0.28125 0.54297 0.28125 0.96875z"/>
  </symbol>
  <symbol id="o" overflow="visible">
   <path d="m0.51562-4.1406h1.7812c0.53125 0 0.9375 0.12109 1.2188 0.35938 0.28125 0.23047 0.42188 0.55859 0.42188 0.98438 0 0.4375-0.14062 0.77734-0.42188 1.0156-0.28125 0.23047-0.6875 0.34375-1.2188 0.34375h-0.70312v1.4375h-1.0781zm1.0781 0.76562v1.1562h0.59375c0.20703 0 0.36328-0.046875 0.46875-0.14062 0.11328-0.10156 0.17188-0.25 0.17188-0.4375s-0.058594-0.32812-0.17188-0.42188c-0.10547-0.10156-0.26172-0.15625-0.46875-0.15625z"/>
  </symbol>
  <symbol id="n" overflow="visible">
   <path d="m0.48438-3.1094h0.98438v3.0469c0 0.41406-0.10156 0.73438-0.29688 0.95312-0.19922 0.22656-0.49219 0.34375-0.875 0.34375h-0.48438v-0.65625h0.17188c0.1875 0 0.31641-0.046875 0.39062-0.14062 0.070312-0.085938 0.10938-0.25 0.10938-0.5zm0-1.2188h0.98438v0.8125h-0.98438z"/>
  </symbol>
  <symbol id="m" overflow="visible">
   <path d="m2.9844-3.0156v0.8125c-0.13672-0.09375-0.27344-0.16016-0.40625-0.20312-0.13672-0.039062-0.27734-0.0625-0.42188-0.0625-0.27344 0-0.48438 0.085938-0.64062 0.25-0.15625 0.15625-0.23438 0.38281-0.23438 0.67188 0 0.29297 0.078125 0.52344 0.23438 0.6875 0.15625 0.15625 0.36719 0.23438 0.64062 0.23438 0.15625 0 0.30078-0.019531 0.4375-0.0625 0.14453-0.050781 0.27344-0.125 0.39062-0.21875v0.8125c-0.15625 0.0625-0.3125 0.10156-0.46875 0.125-0.15625 0.03125-0.32031 0.046875-0.48438 0.046875-0.5625 0-1-0.14062-1.3125-0.42188-0.3125-0.28906-0.46875-0.69141-0.46875-1.2031 0-0.51953 0.15625-0.92188 0.46875-1.2031 0.3125-0.28906 0.75-0.4375 1.3125-0.4375 0.16406 0 0.32812 0.015625 0.48438 0.046875s0.3125 0.074219 0.46875 0.125z"/>
  </symbol>
 </defs>
 <g>
  <path d="m459.42 311.92c5.6484 1.4102 14.613 3.0234 22.605 1.7422 7.2266-1.1602 13.727-4.9492 17.965-7.9688-9.0625-5.2891-17.762-12.48-25.762-20.387-4.957 10.059-9.8867 18.922-14.809 26.613z"/>
  <path d="m355.91 299.98c1.375 16.051 10.859 25.898 18.574 31.332 12.293 8.6602 29.242 12.504 41.223 9.3438 16.523-4.3555 33.941-25.324 51.789-62.32-7.6172-8.2617-14.426-16.891-20.09-24.668-9.5547-13.117-7.6367-31.133 4.457-41.91 7.0352-6.2656 16.41-9.0156 25.707-7.5469 3.3359 0.52734 6.5117 1.582 9.4375 3.0781 0.046876-5.1914-0.27734-10.164-0.96484-14.754-7.3438-1.2227-27.254-3.2227-40.852 7.7969-8.7344 7.0781-12.285 16.281-15.723 25.184-3.5195 9.1172-6.8398 17.73-15.508 21.555-2.9648 1.3086-6.2148 1.9492-9.5547 1.9492-5.9141 0-12.113-2.0117-17.535-5.8828-0.10547-0.074219-0.20312-0.15625-0.30469-0.23047-8.3555 6.8633-33.016 29.555-30.656 57.074z"/>
  <path d="m392.17 235.74c5.8828 4.1953 12.828 5.3516 18.121 3.0117 5.207-2.2969 7.6289-8.5664 10.691-16.504 3.5039-9.0781 7.8594-20.375 18.48-28.98 14.605-11.84 34.078-11.512 44.457-10.25-3.168-10.395-10.824-18.129-22.773-23.312-6.4688-3.0156-13.168-4.5352-19.684-4.5352-4.8906 0-9.6797 0.85547-14.195 2.5781-25.648 9.7852-42.32 48.66-43.48 62.395-0.47656 5.6797 2.6562 11.512 8.3828 15.598z"/>
  <path d="m454.02 319.91c-3.9805 5.5352-7.957 10.324-11.941 14.348 8.9648 3.2344 26.246 8.0586 44.086 5.332 17.883-2.7344 33.41-15.84 41.145-23.484l-18.277-5.8516c-4.2812 3.5508-13.945 10.543-25.555 12.406-2.5508 0.41016-5.1523 0.58203-7.7188 0.58203-8.8438-0.003906-17.254-2.0312-21.738-3.332z"/>
  <path d="m499.82 219.43c12.219 20.879 24.379 34.91 35.418 40.988-2.0859-12.914-6.1211-25.441-11.836-36.613-7.0508-13.781-19.766-21.383-27.512-24.938 0.30859 4.5 0.34375 9.5664-0.023437 15.207 1.4844 1.625 2.8164 3.4102 3.9531 5.3555z"/>
  <path d="m508.58 162.73-11.773 26.578c6.3945 2.5859 17.656 8.25 26.785 18.703l6.3359-11.625c-3.9453-4.8711-6.4922-10.203-7.7383-14.281-0.73438-2.4062 0.62109-4.9492 3.0234-5.6836 2.4062-0.73047 4.9414 0.61719 5.6797 3.0117 0.30469 0.96875 7.6328 23.695 28.988 20.676 22.43-3.1797 34.16-43.207 34.16-63.773 0-18.633-8.8125-41.164-28.156-46.602-19.375-5.4453-42.215 4.3867-50.91 21.918-8.918 17.977-6.418 50.75-6.3945 51.078z"/>
  <path d="m611.72 283c-24.07-1.3438-56.852-4.5898-76.328-12.414-14.043-5.6406-28.656-21.305-43.434-46.559-3.4062-5.8203-9.168-9.7617-15.809-10.812-6.5977-1.043-13.238 0.91016-18.23 5.3516-8.582 7.6445-9.9375 20.434-3.1523 29.75 14.328 19.676 36.195 45.027 58.992 54.047 25.789 10.207 71.395 13.496 96.281 14.551 4.668 0.19141 9.082-1.4727 12.449-4.6992 3.375-3.2344 5.2305-7.5898 5.2305-12.266 0-9.0039-7.0273-16.449-16-16.949z"/>
  <path d="m565.63 459.91c-8.543-22.633-37.301-57.992-49.266-72.145-5.4531-6.4492-6.875-15.312-3.7148-23.137 3.3398-8.2695 8.5859-21.605 13.273-34.961-9.3984 7.8047-22.941 16.559-38.391 18.922-4.2109 0.64453-8.3789 0.91797-12.414 0.91797-17.57 0-32.766-5.2148-39.59-7.9805-0.60547 0.99219-1.3398 2.1914-2.2461 3.6562l-34.859 56.715c-5.1094 8.3125-14.953 12.473-24.477 10.355l-53.59-11.91c-10.703-2.375-21.512 3.6328-25.141 13.977-1.9258 5.4922-1.5859 11.402 0.96094 16.637 2.5508 5.2422 6.9961 9.168 12.52 11.047 27.391 9.3242 77.094 23.77 102.19 15.75 36.285-11.594 57.578-67.578 57.789-68.145 0.87891-2.3555 3.5039-3.5508 5.8555-2.6719 2.3555 0.87891 3.5508 3.5 2.6758 5.8555-0.39453 1.0586-4.6797 12.348-12.633 25.922 11.875 9.5469 52.738 43.012 60.699 57.797 4.6367 8.6133 8.6953 30.504 12.051 65.066 1.0195 10.496 9.7344 18.414 20.273 18.414 5.7227 0 11.02-2.3047 14.914-6.4922 3.8945-4.1836 5.8125-9.6328 5.4023-15.336-2.625-36.426-6.9883-64.219-12.285-78.254z"/>
  <path d="m441.01 92.156c8.5977 0 14.012-4.1094 19.738-8.4609 3.0508-2.3164 6.207-4.7148 9.7734-6.3047 4.4219-1.9727 9.8633-2.8789 14.656-3.2656-12.129-9.6992-27.176-15.633-40.582-15.633-13.207 0-22.238 6.1797-23.008 15.742-0.33984 4.2031 1.207 8.5 4.2383 11.785 3.6562 3.9531 9.0469 6.1367 15.184 6.1367z"/>
  <path d="m482.1 28.035c4.5977 3.2773 12.223 3.7578 18.953 4.1797 3.4648 0.21875 6.7422 0.42188 9.6133 0.98438 3.4375 0.67188 7.0039 2.2305 10.156 3.9531-3.75-11.562-10.797-21.91-19.375-27.934-4.4414-3.1172-8.9023-4.6836-12.844-4.6836-3.7539 0-7.043 1.418-9.4023 4.2656-2.0938 2.5273-3.0195 6.0938-2.5391 9.7852 0.50391 3.9023 2.4883 7.3438 5.4375 9.4492z"/>
  <path d="m79.484 497.4c9.7734-1.7695 23.789-3.7578 37.395-3.7578 7.1406 0 14.168 0.54688 20.406 1.9688 17.461 3.9648 35.777 17.477 47.016 27.008-2.3008-13.547-3.8477-34.121 3.3242-50.574 6.9961-16.062 25.379-28.145 39.293-35.355-14.031-1.8789-32.582-6.6719-43.656-18.773-11.418-12.477-15.789-31.387-17.441-45.223-5.7461 8.8242-14.848 19.469-27.992 25.918-17.281 8.4844-37.793 7.3711-49.176 5.7852 4.2188 10.613 10.66 30.094 9.8398 48.402-0.76953 17.105-11.215 34.152-19.008 44.602z"/>
  <path d="m168.54 121.63c6.8672-1.3086 13.836-1.9688 20.812-1.9688 24.793 0 47.719 8.1484 66.242 21.906-0.21875-10.438 0.86719-26.441 8.0352-38.848 5.9922-10.371 17.852-17.957 28.035-22.902-13.496-2.0312-31.258-6.2031-43.371-14.727-14.492-10.199-21.59-29.75-24.801-42.367-5.7812 8.7656-15.035 20.922-25.277 27.07-11.082 6.6562-24.398 9.7891-32.27 11.16 5.0156 10.004 7.8555 21.277 7.8555 33.207 0 9.418-1.8008 18.758-5.2617 27.469z"/>
  <path d="m236.57 506.41c18.711-11.145 30.336-31.566 30.336-53.309 0-22.152-11.965-42.773-31.223-53.812-1.0977-0.62891-1.8867-1.6914-2.1719-2.9258-0.28516-1.2344-0.039063-2.5352 0.67188-3.582 7.0078-10.297 10.711-22.344 10.711-34.84 0-10.852-2.8633-21.547-8.2773-30.93-0.61328-1.0625-0.76953-2.3242-0.44141-3.5039 0.33203-1.1797 1.1211-2.1758 2.1992-2.7656 32.82-17.973 53.207-52.355 53.207-89.727 0-56.375-45.863-102.24-102.24-102.24-9.3555 0-18.691 1.293-27.754 3.8438-1.7695 0.5-3.668-0.11719-4.8125-1.5664-1.1406-1.4453-1.2969-3.4375-0.39453-5.043 5.4297-9.6914 8.3008-20.703 8.3008-31.844 0-35.98-29.273-65.254-65.254-65.254-9.5117 0-18.637 1.9844-27.164 5.9023v456.96c7.0742-9.5234 16.465-24.781 17.117-39.379 1.082-24.09-12.258-51.73-12.391-52.004-0.77734-1.5898-0.55859-3.4844 0.55469-4.8633 1.1133-1.375 2.9258-1.9766 4.6406-1.5508 0.29297 0.070312 29.75 7.1953 51.617-3.5352 21.703-10.652 31.219-35.68 31.312-35.934 0.76953-2.0625 2.9023-3.2812 5.0742-2.8984 2.168 0.39062 3.7461 2.2734 3.7461 4.4805v0.16016c-0.035156 3.8516 0.11719 38.137 16.031 55.52 16.34 17.855 55.125 17 55.504 16.988 2.2305-0.066407 4.1875 1.5078 4.5977 3.707 0.41406 2.1992-0.82812 4.3711-2.9336 5.1289-0.41016 0.14844-41.137 15.023-51.184 38.086-10.156 23.316 0.17578 58.367 0.28125 58.719 0.60156 2.0039-0.23828 4.1562-2.0352 5.2266-0.72266 0.42969-1.5273 0.64062-2.3242 0.64062-1.1875 0-2.3594-0.46094-3.2383-1.3516-0.28516-0.28906-28.73-28.824-53.391-34.426-20.664-4.7031-52.52 1.3789-62.969 3.6328v51.871l182.55 0.003906c0.39453-2.4922 0.59375-5.0312 0.59375-7.5742 0-15.27-7.0156-29.289-19.254-38.469-1.2148-0.91016-1.8945-2.3672-1.8164-3.8828 0.082032-1.5156 0.91406-2.8906 2.2188-3.668zm-83.957-170.67c-2.5156 0-4.5547-2.0391-4.5547-4.5547 0-2.5156 2.0391-4.5547 4.5547-4.5547 21.227 0 38.496-17.27 38.496-38.496 0-16.062-10.125-30.582-25.191-36.133-1.168-0.42969-2.1094-1.3203-2.6016-2.4609-0.49609-1.1406-0.5-2.4375-0.019531-3.582 2-4.7344 3.0117-9.7656 3.0117-14.953 0-21.227-17.27-38.496-38.496-38.496-12.312 0-23.59 5.6797-30.938 15.578-1.4961 2.0195-4.3477 2.4414-6.3711 0.94141-2.0195-1.5-2.4414-4.3516-0.94141-6.3711 8.9492-12.059 23.246-19.258 38.25-19.258 26.246 0 47.602 21.355 47.602 47.602 0 4.875-0.72656 9.6445-2.1641 14.227 16.297 7.8594 26.965 24.566 26.965 42.902-0.003906 26.254-21.355 47.609-47.602 47.609z"/>
  <path d="m334.42 526.2-53.109-18.598c-2.375-0.83203-4.9688 0.42188-5.8008 2.793-0.83203 2.375 0.41797 4.9688 2.793 5.8008l54.613 18.855c1.8789 0 3.6406-1.1719 4.2969-3.0508 0.82812-2.375-0.41797-4.9688-2.793-5.8008z"/>
  <path d="m363.56 530.23c-5.4062-1.8945-11.328 0.95312-13.219 6.3633-1.8945 5.4062 0.95312 11.328 6.3633 13.223 5.4062 1.8945 11.328-0.95312 13.219-6.3633 1.8906-5.4102-0.95703-11.328-6.3633-13.223z"/>
  <path d="m288.07 53.262c0.6875 0 1.3906-0.15625 2.0469-0.48828l50.242-25.344c2.2461-1.1328 3.1484-3.8711 2.0156-6.1172-1.1328-2.2461-3.8711-3.1484-6.1172-2.0156l-50.242 25.344c-2.2461 1.1328-3.1484 3.8711-2.0156 6.1172 0.80469 1.5898 2.4062 2.5039 4.0703 2.5039z"/>
  <path d="m297.79 163.68c0.80078 1.5859 2.4023 2.5039 4.0664 2.5039 0.6875 0 1.3906-0.15625 2.0469-0.48828l50.242-25.344c2.2461-1.1328 3.1484-3.8711 2.0156-6.1172-1.1328-2.2461-3.8672-3.1484-6.1172-2.0156l-50.242 25.344c-2.2422 1.1328-3.1445 3.8711-2.0117 6.1172z"/>
  <path d="m373.64 6.3984c2.1953 5.293-0.31641 11.363-5.6094 13.562-5.293 2.1953-11.363-0.31641-13.559-5.6094-2.1953-5.293 0.31641-11.363 5.6094-13.559 5.293-2.1953 11.363 0.31641 13.559 5.6055"/>
  <path d="m187.67 16.051c0 5.7305-4.6484 10.375-10.375 10.375-5.7305 0-10.375-4.6445-10.375-10.375s4.6445-10.375 10.375-10.375c5.7266 0 10.375 4.6445 10.375 10.375"/>
  <path d="m312.12 332.65c2.418-0.68359 3.8281-3.1992 3.1445-5.6211-0.68359-2.418-3.1914-3.8281-5.6211-3.1445l-36.078 10.184c-2.418 0.68359-3.8281 3.1992-3.1445 5.6211 0.56641 2.0078 2.3906 3.3164 4.3789 3.3164 0.41016 0 0.82812-0.054687 1.2383-0.17188z"/>
  <use x="72.277344" y="577.074219" xlink:href="#v"/>
  <use x="76.453125" y="577.074219" xlink:href="#d"/>
  <use x="79.261719" y="577.074219" xlink:href="#b"/>
  <use x="83.121094" y="577.074219" xlink:href="#l"/>
  <use x="86.960937" y="577.074219" xlink:href="#a"/>
  <use x="89.679687" y="577.074219" xlink:href="#b"/>
  <use x="93.542969" y="577.074219" xlink:href="#f"/>
  <use x="99.597656" y="577.074219" xlink:href="#k"/>
  <use x="103.671875" y="577.074219" xlink:href="#e"/>
  <use x="109.359375" y="577.074219" xlink:href="#j"/>
  <use x="113.765625" y="577.074219" xlink:href="#i"/>
  <use x="119.695312" y="577.074219" xlink:href="#b"/>
  <use x="123.554687" y="577.074219" xlink:href="#a"/>
  <use x="126.277344" y="577.074219" xlink:href="#h"/>
  <use x="130.328125" y="577.074219" xlink:href="#e"/>
  <use x="134.035156" y="577.074219" xlink:href="#u"/>
  <use x="137.425781" y="577.074219" xlink:href="#a"/>
  <use x="142.125" y="577.074219" xlink:href="#t"/>
  <use x="146.226562" y="577.074219" xlink:href="#a"/>
  <use x="148.945312" y="577.074219" xlink:href="#g"/>
  <use x="152.996094" y="577.074219" xlink:href="#f"/>
  <use x="157.070312" y="577.074219" xlink:href="#s"/>
  <use x="159.019531" y="577.074219" xlink:href="#c"/>
  <use x="72.277344" y="582.765625" xlink:href="#r"/>
  <use x="74.753906" y="582.765625" xlink:href="#d"/>
  <use x="77.558594" y="582.765625" xlink:href="#c"/>
  <use x="81.46875" y="582.765625" xlink:href="#i"/>
  <use x="89.382812" y="582.765625" xlink:href="#a"/>
  <use x="92.101562" y="582.765625" xlink:href="#h"/>
  <use x="96.152344" y="582.765625" xlink:href="#b"/>
  <use x="101.996094" y="582.765625" xlink:href="#q"/>
  <use x="106.757812" y="582.765625" xlink:href="#c"/>
  <use x="110.667969" y="582.765625" xlink:href="#g"/>
  <use x="114.71875" y="582.765625" xlink:href="#p"/>
  <use x="120.75" y="582.765625" xlink:href="#o"/>
  <use x="124.921875" y="582.765625" xlink:href="#d"/>
  <use x="127.730469" y="582.765625" xlink:href="#c"/>
  <use x="131.640625" y="582.765625" xlink:href="#n"/>
  <use x="133.589844" y="582.765625" xlink:href="#b"/>
  <use x="137.449219" y="582.765625" xlink:href="#m"/>
  <use x="140.824219" y="582.765625" xlink:href="#a"/>
 </g>
</svg>
